<svg xmlns="http://www.w3.org/2000/svg" xmlns:xlink="http://www.w3.org/1999/xlink" width="281" zoomAndPan="magnify" viewBox="0 0 210.75 163.5" height="218" preserveAspectRatio="xMidYMid meet" version="1.0"><defs><g/><clipPath id="3bc3a064b5"><path d="M 0.195312 0 L 210.304688 0 L 210.304688 163 L 0.195312 163 Z M 0.195312 0 " clip-rule="nonzero"/></clipPath><clipPath id="464f9b7cd5"><path d="M 7.683594 0 L 203.066406 0 C 205.050781 0 206.957031 0.789062 208.359375 2.191406 C 209.765625 3.597656 210.554688 5.5 210.554688 7.484375 L 210.554688 155.707031 C 210.554688 157.695312 209.765625 159.597656 208.359375 161.003906 C 206.957031 162.40625 205.050781 163.195312 203.066406 163.195312 L 7.683594 163.195312 C 5.695312 163.195312 3.792969 162.40625 2.390625 161.003906 C 0.984375 159.597656 0.195312 157.695312 0.195312 155.707031 L 0.195312 7.484375 C 0.195312 5.5 0.984375 3.597656 2.390625 2.191406 C 3.792969 0.789062 5.695312 0 7.683594 0 " clip-rule="nonzero"/></clipPath><clipPath id="f8dbe048af"><path d="M 31.152344 16.320312 L 77.957031 16.320312 L 77.957031 63.125 L 31.152344 63.125 Z M 31.152344 16.320312 " clip-rule="nonzero"/></clipPath><clipPath id="8c25341f39"><path d="M 54.554688 16.320312 C 41.632812 16.320312 31.152344 26.796875 31.152344 39.722656 C 31.152344 52.648438 41.632812 63.125 54.554688 63.125 C 67.480469 63.125 77.957031 52.648438 77.957031 39.722656 C 77.957031 26.796875 67.480469 16.320312 54.554688 16.320312 " clip-rule="nonzero"/></clipPath><clipPath id="48dd9dfd1d"><path d="M 43.863281 25.125 L 65.570312 25.125 L 65.570312 54.324219 L 43.863281 54.324219 Z M 43.863281 25.125 " clip-rule="nonzero"/></clipPath></defs><g clip-path="url(#3bc3a064b5)"><g clip-path="url(#464f9b7cd5)"><path fill="#dfdfdf" d="M 0.195312 0 L 210.566406 0 L 210.566406 162.941406 L 0.195312 162.941406 Z M 0.195312 0 " fill-opacity="1" fill-rule="nonzero"/></g></g><g clip-path="url(#f8dbe048af)"><g clip-path="url(#8c25341f39)"><path fill="#008037" d="M 31.152344 16.320312 L 77.957031 16.320312 L 77.957031 63.125 L 31.152344 63.125 Z M 31.152344 16.320312 " fill-opacity="1" fill-rule="nonzero"/></g></g><g clip-path="url(#48dd9dfd1d)"><path fill="#002e14" d="M 54.765625 29.078125 C 50.972656 29.078125 47.890625 32.117188 47.890625 35.851562 C 47.890625 39.589844 50.972656 42.628906 54.765625 42.628906 C 58.558594 42.628906 61.640625 39.589844 61.640625 35.851562 C 61.640625 32.117188 58.558594 29.078125 54.765625 29.078125 Z M 54.765625 40.691406 C 52.058594 40.691406 49.855469 38.519531 49.855469 35.851562 C 49.855469 33.183594 52.058594 31.011719 54.765625 31.011719 C 57.472656 31.011719 59.675781 33.183594 59.675781 35.851562 C 59.675781 38.519531 57.472656 40.691406 54.765625 40.691406 Z M 62.679688 43.078125 C 64.46875 41.175781 65.570312 38.644531 65.570312 35.851562 C 65.570312 29.980469 60.722656 25.207031 54.765625 25.207031 C 48.808594 25.207031 43.960938 29.980469 43.960938 35.851562 C 43.960938 38.644531 45.0625 41.175781 46.851562 43.078125 L 44.015625 51.027344 C 43.894531 51.363281 43.972656 51.738281 44.21875 52.003906 C 44.460938 52.265625 44.832031 52.378906 45.183594 52.285156 L 47.980469 51.585938 L 49.71875 53.859375 C 49.90625 54.101562 50.195312 54.242188 50.503906 54.242188 C 50.550781 54.242188 50.601562 54.238281 50.652344 54.230469 C 51.011719 54.175781 51.308594 53.933594 51.429688 53.59375 L 53.96875 46.460938 C 54.234375 46.480469 54.496094 46.5 54.765625 46.5 C 55.035156 46.5 55.296875 46.480469 55.5625 46.460938 L 58.101562 53.59375 C 58.222656 53.933594 58.519531 54.175781 58.878906 54.230469 C 58.929688 54.238281 58.980469 54.242188 59.027344 54.242188 C 59.335938 54.242188 59.625 54.101562 59.8125 53.859375 L 61.550781 51.585938 L 64.347656 52.285156 C 64.695312 52.378906 65.070312 52.265625 65.3125 52.003906 C 65.558594 51.738281 65.636719 51.363281 65.515625 51.027344 Z M 50.183594 51.25 L 49.15625 49.90625 C 48.917969 49.59375 48.511719 49.449219 48.128906 49.550781 L 46.476562 49.964844 L 48.4375 44.464844 C 49.5 45.226562 50.703125 45.792969 52.003906 46.132812 Z M 54.765625 44.5625 C 49.890625 44.5625 45.925781 40.65625 45.925781 35.851562 C 45.925781 31.050781 49.890625 27.140625 54.765625 27.140625 C 59.640625 27.140625 63.605469 31.050781 63.605469 35.851562 C 63.605469 40.65625 59.640625 44.5625 54.765625 44.5625 Z M 61.402344 49.550781 C 61.019531 49.449219 60.613281 49.59375 60.375 49.90625 L 59.347656 51.25 L 57.527344 46.132812 C 58.828125 45.792969 60.03125 45.226562 61.09375 44.464844 L 63.054688 49.964844 Z M 61.402344 49.550781 " fill-opacity="1" fill-rule="nonzero"/></g><g fill="#000000" fill-opacity="1"><g transform="translate(31.15343, 87.620215)"><g><path d="M 2.078125 0.1875 C 1.410156 0.1875 0.914062 -0.0390625 0.59375 -0.5 C 0.28125 -0.957031 0.285156 -1.53125 0.609375 -2.21875 L 5.953125 -13.734375 C 6.210938 -14.296875 6.523438 -14.703125 6.890625 -14.953125 C 7.265625 -15.210938 7.707031 -15.34375 8.21875 -15.34375 C 8.695312 -15.34375 9.125 -15.210938 9.5 -14.953125 C 9.875 -14.703125 10.191406 -14.296875 10.453125 -13.734375 L 15.796875 -2.21875 C 16.128906 -1.507812 16.144531 -0.929688 15.84375 -0.484375 C 15.539062 -0.0351562 15.066406 0.1875 14.421875 0.1875 C 13.847656 0.1875 13.40625 0.0625 13.09375 -0.1875 C 12.789062 -0.445312 12.519531 -0.863281 12.28125 -1.4375 L 11.59375 -3.078125 L 4.8125 -3.078125 L 4.125 -1.4375 C 3.863281 -0.863281 3.597656 -0.445312 3.328125 -0.1875 C 3.054688 0.0625 2.640625 0.1875 2.078125 0.1875 Z M 8.171875 -11.03125 L 6.109375 -6.109375 L 10.28125 -6.109375 L 8.21875 -11.03125 Z M 8.171875 -11.03125 "/></g></g></g><g fill="#000000" fill-opacity="1"><g transform="translate(47.556137, 87.620215)"><g><path d="M 6.515625 0.234375 C 5.328125 0.234375 4.289062 0.015625 3.40625 -0.421875 C 2.519531 -0.867188 1.832031 -1.507812 1.34375 -2.34375 C 0.863281 -3.175781 0.625 -4.164062 0.625 -5.3125 C 0.625 -6.457031 0.863281 -7.441406 1.34375 -8.265625 C 1.832031 -9.085938 2.519531 -9.71875 3.40625 -10.15625 C 4.289062 -10.59375 5.328125 -10.8125 6.515625 -10.8125 C 6.929688 -10.8125 7.367188 -10.769531 7.828125 -10.6875 C 8.285156 -10.613281 8.757812 -10.46875 9.25 -10.25 C 9.570312 -10.125 9.804688 -9.925781 9.953125 -9.65625 C 10.097656 -9.394531 10.160156 -9.113281 10.140625 -8.8125 C 10.117188 -8.507812 10.03125 -8.234375 9.875 -7.984375 C 9.726562 -7.742188 9.519531 -7.582031 9.25 -7.5 C 8.988281 -7.414062 8.691406 -7.453125 8.359375 -7.609375 C 7.890625 -7.828125 7.410156 -7.9375 6.921875 -7.9375 C 6.160156 -7.9375 5.570312 -7.707031 5.15625 -7.25 C 4.738281 -6.789062 4.53125 -6.144531 4.53125 -5.3125 C 4.53125 -4.46875 4.738281 -3.8125 5.15625 -3.34375 C 5.570312 -2.875 6.160156 -2.640625 6.921875 -2.640625 C 7.148438 -2.640625 7.382812 -2.664062 7.625 -2.71875 C 7.875 -2.769531 8.117188 -2.851562 8.359375 -2.96875 C 8.703125 -3.125 9 -3.15625 9.25 -3.0625 C 9.5 -2.96875 9.695312 -2.800781 9.84375 -2.5625 C 10 -2.332031 10.085938 -2.066406 10.109375 -1.765625 C 10.128906 -1.460938 10.066406 -1.175781 9.921875 -0.90625 C 9.785156 -0.644531 9.546875 -0.453125 9.203125 -0.328125 C 8.710938 -0.109375 8.242188 0.0351562 7.796875 0.109375 C 7.359375 0.191406 6.929688 0.234375 6.515625 0.234375 Z M 6.515625 0.234375 "/></g></g></g><g fill="#000000" fill-opacity="1"><g transform="translate(57.960998, 87.620215)"><g><path d="M 3.015625 0.1875 C 2.390625 0.1875 1.914062 0.0234375 1.59375 -0.296875 C 1.28125 -0.628906 1.125 -1.109375 1.125 -1.734375 L 1.125 -13.421875 C 1.125 -14.703125 1.753906 -15.34375 3.015625 -15.34375 C 3.628906 -15.34375 4.101562 -15.175781 4.4375 -14.84375 C 4.769531 -14.519531 4.9375 -14.046875 4.9375 -13.421875 L 4.9375 -9.265625 C 5.695312 -10.296875 6.800781 -10.8125 8.25 -10.8125 C 9.507812 -10.8125 10.441406 -10.4375 11.046875 -9.6875 C 11.660156 -8.945312 11.96875 -7.800781 11.96875 -6.25 L 11.96875 -1.734375 C 11.96875 -1.109375 11.800781 -0.628906 11.46875 -0.296875 C 11.144531 0.0234375 10.675781 0.1875 10.0625 0.1875 C 9.445312 0.1875 8.972656 0.0234375 8.640625 -0.296875 C 8.316406 -0.628906 8.15625 -1.109375 8.15625 -1.734375 L 8.15625 -6.109375 C 8.15625 -6.753906 8.039062 -7.210938 7.8125 -7.484375 C 7.59375 -7.753906 7.269531 -7.890625 6.84375 -7.890625 C 6.269531 -7.890625 5.804688 -7.707031 5.453125 -7.34375 C 5.109375 -6.976562 4.9375 -6.488281 4.9375 -5.875 L 4.9375 -1.734375 C 4.9375 -0.453125 4.296875 0.1875 3.015625 0.1875 Z M 3.015625 0.1875 "/></g></g></g><g fill="#000000" fill-opacity="1"><g transform="translate(70.988574, 87.620215)"><g><path d="M 3.015625 -12.296875 C 2.335938 -12.296875 1.816406 -12.453125 1.453125 -12.765625 C 1.085938 -13.085938 0.90625 -13.546875 0.90625 -14.140625 C 0.90625 -14.734375 1.085938 -15.1875 1.453125 -15.5 C 1.816406 -15.8125 2.335938 -15.96875 3.015625 -15.96875 C 4.429688 -15.96875 5.140625 -15.359375 5.140625 -14.140625 C 5.140625 -13.546875 4.957031 -13.085938 4.59375 -12.765625 C 4.226562 -12.453125 3.703125 -12.296875 3.015625 -12.296875 Z M 3.015625 0.1875 C 2.390625 0.1875 1.914062 0.0078125 1.59375 -0.34375 C 1.28125 -0.695312 1.125 -1.210938 1.125 -1.890625 L 1.125 -8.6875 C 1.125 -9.363281 1.28125 -9.878906 1.59375 -10.234375 C 1.914062 -10.585938 2.390625 -10.765625 3.015625 -10.765625 C 3.628906 -10.765625 4.101562 -10.585938 4.4375 -10.234375 C 4.769531 -9.878906 4.9375 -9.363281 4.9375 -8.6875 L 4.9375 -1.890625 C 4.9375 -1.210938 4.769531 -0.695312 4.4375 -0.34375 C 4.113281 0.0078125 3.640625 0.1875 3.015625 0.1875 Z M 3.015625 0.1875 "/></g></g></g><g fill="#000000" fill-opacity="1"><g transform="translate(77.029405, 87.620215)"><g><path d="M 6.875 0.234375 C 5.582031 0.234375 4.46875 0.0078125 3.53125 -0.4375 C 2.59375 -0.894531 1.875 -1.535156 1.375 -2.359375 C 0.875 -3.191406 0.625 -4.175781 0.625 -5.3125 C 0.625 -6.382812 0.863281 -7.335938 1.34375 -8.171875 C 1.820312 -9.003906 2.476562 -9.648438 3.3125 -10.109375 C 4.15625 -10.578125 5.113281 -10.8125 6.1875 -10.8125 C 7.25 -10.8125 8.171875 -10.585938 8.953125 -10.140625 C 9.734375 -9.703125 10.332031 -9.070312 10.75 -8.25 C 11.175781 -7.425781 11.390625 -6.460938 11.390625 -5.359375 C 11.390625 -4.796875 11.0625 -4.515625 10.40625 -4.515625 L 4.28125 -4.515625 C 4.40625 -3.828125 4.691406 -3.332031 5.140625 -3.03125 C 5.585938 -2.726562 6.203125 -2.578125 6.984375 -2.578125 C 7.285156 -2.578125 7.644531 -2.613281 8.0625 -2.6875 C 8.476562 -2.757812 8.875 -2.875 9.25 -3.03125 C 9.707031 -3.207031 10.09375 -3.210938 10.40625 -3.046875 C 10.71875 -2.878906 10.925781 -2.625 11.03125 -2.28125 C 11.144531 -1.945312 11.132812 -1.601562 11 -1.25 C 10.863281 -0.90625 10.59375 -0.640625 10.1875 -0.453125 C 9.6875 -0.210938 9.148438 -0.0390625 8.578125 0.0625 C 8.015625 0.175781 7.445312 0.234375 6.875 0.234375 Z M 6.359375 -8.34375 C 5.785156 -8.34375 5.316406 -8.171875 4.953125 -7.828125 C 4.585938 -7.484375 4.351562 -6.984375 4.25 -6.328125 L 8.25 -6.328125 C 8.207031 -6.992188 8.023438 -7.492188 7.703125 -7.828125 C 7.378906 -8.171875 6.929688 -8.34375 6.359375 -8.34375 Z M 6.359375 -8.34375 "/></g></g></g><g fill="#000000" fill-opacity="1"><g transform="translate(88.960599, 87.620215)"><g><path d="M 5.8125 0.1875 C 4.820312 0.1875 4.101562 -0.3125 3.65625 -1.3125 L 0.578125 -8.34375 C 0.304688 -8.988281 0.304688 -9.550781 0.578125 -10.03125 C 0.847656 -10.519531 1.398438 -10.765625 2.234375 -10.765625 C 2.679688 -10.765625 3.046875 -10.660156 3.328125 -10.453125 C 3.617188 -10.242188 3.878906 -9.84375 4.109375 -9.25 L 5.90625 -4.578125 L 7.828125 -9.265625 C 8.054688 -9.847656 8.3125 -10.242188 8.59375 -10.453125 C 8.882812 -10.660156 9.28125 -10.765625 9.78125 -10.765625 C 10.195312 -10.765625 10.535156 -10.65625 10.796875 -10.4375 C 11.066406 -10.21875 11.234375 -9.921875 11.296875 -9.546875 C 11.359375 -9.171875 11.289062 -8.769531 11.09375 -8.34375 L 7.953125 -1.296875 C 7.523438 -0.304688 6.8125 0.1875 5.8125 0.1875 Z M 5.8125 0.1875 "/></g></g></g><g fill="#000000" fill-opacity="1"><g transform="translate(100.612325, 87.620215)"><g><path d="M 4.796875 0.234375 C 3.972656 0.234375 3.25 0.0820312 2.625 -0.21875 C 2.007812 -0.519531 1.523438 -0.929688 1.171875 -1.453125 C 0.816406 -1.972656 0.640625 -2.570312 0.640625 -3.25 C 0.640625 -4.007812 0.835938 -4.613281 1.234375 -5.0625 C 1.640625 -5.507812 2.285156 -5.832031 3.171875 -6.03125 C 4.066406 -6.226562 5.253906 -6.328125 6.734375 -6.328125 L 7.546875 -6.328125 L 7.546875 -6.625 C 7.546875 -7.132812 7.410156 -7.5 7.140625 -7.71875 C 6.878906 -7.9375 6.425781 -8.046875 5.78125 -8.046875 C 5.425781 -8.046875 5.035156 -8.003906 4.609375 -7.921875 C 4.191406 -7.835938 3.71875 -7.695312 3.1875 -7.5 C 2.707031 -7.332031 2.3125 -7.335938 2 -7.515625 C 1.6875 -7.703125 1.484375 -7.972656 1.390625 -8.328125 C 1.296875 -8.679688 1.328125 -9.03125 1.484375 -9.375 C 1.648438 -9.726562 1.972656 -9.992188 2.453125 -10.171875 C 3.140625 -10.410156 3.769531 -10.578125 4.34375 -10.671875 C 4.925781 -10.765625 5.460938 -10.8125 5.953125 -10.8125 C 7.710938 -10.8125 9.019531 -10.429688 9.875 -9.671875 C 10.726562 -8.910156 11.15625 -7.710938 11.15625 -6.078125 L 11.15625 -1.734375 C 11.15625 -0.453125 10.566406 0.1875 9.390625 0.1875 C 8.273438 0.1875 7.679688 -0.382812 7.609375 -1.53125 C 7.410156 -0.976562 7.066406 -0.546875 6.578125 -0.234375 C 6.085938 0.078125 5.492188 0.234375 4.796875 0.234375 Z M 5.65625 -2.25 C 6.1875 -2.25 6.632812 -2.421875 7 -2.765625 C 7.363281 -3.117188 7.546875 -3.570312 7.546875 -4.125 L 7.546875 -4.515625 L 6.734375 -4.515625 C 5.890625 -4.515625 5.269531 -4.425781 4.875 -4.25 C 4.476562 -4.070312 4.28125 -3.785156 4.28125 -3.390625 C 4.28125 -3.066406 4.394531 -2.796875 4.625 -2.578125 C 4.863281 -2.359375 5.207031 -2.25 5.65625 -2.25 Z M 5.65625 -2.25 "/></g></g></g><g fill="#000000" fill-opacity="1"><g transform="translate(112.822986, 87.620215)"><g><path d="M 8.078125 0.234375 C 7.378906 0.234375 6.738281 0.0820312 6.15625 -0.21875 C 5.570312 -0.519531 5.140625 -0.921875 4.859375 -1.421875 C 4.742188 -0.347656 4.128906 0.1875 3.015625 0.1875 C 1.753906 0.1875 1.125 -0.453125 1.125 -1.734375 L 1.125 -13.421875 C 1.125 -14.703125 1.753906 -15.34375 3.015625 -15.34375 C 3.628906 -15.34375 4.101562 -15.175781 4.4375 -14.84375 C 4.769531 -14.519531 4.9375 -14.046875 4.9375 -13.421875 L 4.9375 -9.3125 C 5.238281 -9.769531 5.671875 -10.132812 6.234375 -10.40625 C 6.804688 -10.675781 7.421875 -10.8125 8.078125 -10.8125 C 8.992188 -10.8125 9.800781 -10.585938 10.5 -10.140625 C 11.195312 -9.703125 11.738281 -9.070312 12.125 -8.25 C 12.507812 -7.425781 12.703125 -6.4375 12.703125 -5.28125 C 12.703125 -4.15625 12.503906 -3.175781 12.109375 -2.34375 C 11.722656 -1.507812 11.179688 -0.867188 10.484375 -0.421875 C 9.785156 0.015625 8.984375 0.234375 8.078125 0.234375 Z M 6.875 -2.578125 C 7.445312 -2.578125 7.921875 -2.789062 8.296875 -3.21875 C 8.671875 -3.65625 8.859375 -4.34375 8.859375 -5.28125 C 8.859375 -6.25 8.671875 -6.941406 8.296875 -7.359375 C 7.921875 -7.785156 7.445312 -8 6.875 -8 C 6.289062 -8 5.8125 -7.785156 5.4375 -7.359375 C 5.0625 -6.941406 4.875 -6.25 4.875 -5.28125 C 4.875 -4.34375 5.0625 -3.65625 5.4375 -3.21875 C 5.8125 -2.789062 6.289062 -2.578125 6.875 -2.578125 Z M 6.875 -2.578125 "/></g></g></g><g fill="#000000" fill-opacity="1"><g transform="translate(126.151528, 87.620215)"><g><path d="M 5.140625 0.234375 C 3.742188 0.234375 2.722656 -0.132812 2.078125 -0.875 C 1.441406 -1.613281 1.125 -2.726562 1.125 -4.21875 L 1.125 -13.421875 C 1.125 -14.703125 1.753906 -15.34375 3.015625 -15.34375 C 3.628906 -15.34375 4.101562 -15.175781 4.4375 -14.84375 C 4.769531 -14.519531 4.9375 -14.046875 4.9375 -13.421875 L 4.9375 -4.34375 C 4.9375 -3.8125 5.039062 -3.421875 5.25 -3.171875 C 5.457031 -2.929688 5.726562 -2.8125 6.0625 -2.8125 C 6.164062 -2.8125 6.269531 -2.820312 6.375 -2.84375 C 6.476562 -2.863281 6.597656 -2.882812 6.734375 -2.90625 C 6.984375 -2.90625 7.164062 -2.8125 7.28125 -2.625 C 7.394531 -2.4375 7.453125 -2.054688 7.453125 -1.484375 C 7.453125 -0.984375 7.351562 -0.609375 7.15625 -0.359375 C 6.957031 -0.109375 6.648438 0.0507812 6.234375 0.125 C 6.117188 0.15625 5.953125 0.179688 5.734375 0.203125 C 5.523438 0.222656 5.328125 0.234375 5.140625 0.234375 Z M 5.140625 0.234375 "/></g></g></g><g fill="#000000" fill-opacity="1"><g transform="translate(133.632708, 87.620215)"><g><path d="M 6.875 0.234375 C 5.582031 0.234375 4.46875 0.0078125 3.53125 -0.4375 C 2.59375 -0.894531 1.875 -1.535156 1.375 -2.359375 C 0.875 -3.191406 0.625 -4.175781 0.625 -5.3125 C 0.625 -6.382812 0.863281 -7.335938 1.34375 -8.171875 C 1.820312 -9.003906 2.476562 -9.648438 3.3125 -10.109375 C 4.15625 -10.578125 5.113281 -10.8125 6.1875 -10.8125 C 7.25 -10.8125 8.171875 -10.585938 8.953125 -10.140625 C 9.734375 -9.703125 10.332031 -9.070312 10.75 -8.25 C 11.175781 -7.425781 11.390625 -6.460938 11.390625 -5.359375 C 11.390625 -4.796875 11.0625 -4.515625 10.40625 -4.515625 L 4.28125 -4.515625 C 4.40625 -3.828125 4.691406 -3.332031 5.140625 -3.03125 C 5.585938 -2.726562 6.203125 -2.578125 6.984375 -2.578125 C 7.285156 -2.578125 7.644531 -2.613281 8.0625 -2.6875 C 8.476562 -2.757812 8.875 -2.875 9.25 -3.03125 C 9.707031 -3.207031 10.09375 -3.210938 10.40625 -3.046875 C 10.71875 -2.878906 10.925781 -2.625 11.03125 -2.28125 C 11.144531 -1.945312 11.132812 -1.601562 11 -1.25 C 10.863281 -0.90625 10.59375 -0.640625 10.1875 -0.453125 C 9.6875 -0.210938 9.148438 -0.0390625 8.578125 0.0625 C 8.015625 0.175781 7.445312 0.234375 6.875 0.234375 Z M 6.359375 -8.34375 C 5.785156 -8.34375 5.316406 -8.171875 4.953125 -7.828125 C 4.585938 -7.484375 4.351562 -6.984375 4.25 -6.328125 L 8.25 -6.328125 C 8.207031 -6.992188 8.023438 -7.492188 7.703125 -7.828125 C 7.378906 -8.171875 6.929688 -8.34375 6.359375 -8.34375 Z M 6.359375 -8.34375 "/></g></g></g><g fill="#000000" fill-opacity="1"><g transform="translate(31.15343, 105.773843)"><g><path d="M 4.5 0.125 C 3.675781 0.125 3.0625 -0.179688 2.65625 -0.796875 L 2.546875 -0.78125 L 2.546875 0 L 0.921875 0 L 0.921875 -9.015625 L 2.546875 -9.015625 L 2.546875 -5.671875 L 2.65625 -5.640625 C 2.882812 -5.953125 3.148438 -6.179688 3.453125 -6.328125 C 3.753906 -6.472656 4.113281 -6.546875 4.53125 -6.546875 C 5.050781 -6.546875 5.503906 -6.421875 5.890625 -6.171875 C 6.273438 -5.929688 6.578125 -5.5625 6.796875 -5.0625 C 7.015625 -4.5625 7.125 -3.945312 7.125 -3.21875 C 7.125 -2.476562 7.007812 -1.859375 6.78125 -1.359375 C 6.5625 -0.867188 6.253906 -0.5 5.859375 -0.25 C 5.460938 0 5.007812 0.125 4.5 0.125 Z M 4 -1.25 C 4.476562 -1.25 4.84375 -1.40625 5.09375 -1.71875 C 5.34375 -2.039062 5.46875 -2.539062 5.46875 -3.21875 C 5.46875 -3.894531 5.34375 -4.390625 5.09375 -4.703125 C 4.84375 -5.023438 4.476562 -5.1875 4 -5.1875 C 3.550781 -5.1875 3.191406 -5.019531 2.921875 -4.6875 C 2.660156 -4.363281 2.53125 -3.875 2.53125 -3.21875 C 2.53125 -2.550781 2.660156 -2.054688 2.921875 -1.734375 C 3.191406 -1.410156 3.550781 -1.25 4 -1.25 Z M 4 -1.25 "/></g></g></g><g fill="#000000" fill-opacity="1"><g transform="translate(38.854006, 105.773843)"><g><path d="M 1.734375 -7.203125 C 1.441406 -7.203125 1.203125 -7.289062 1.015625 -7.46875 C 0.835938 -7.644531 0.75 -7.875 0.75 -8.15625 C 0.75 -8.425781 0.835938 -8.648438 1.015625 -8.828125 C 1.203125 -9.003906 1.441406 -9.09375 1.734375 -9.09375 C 1.921875 -9.09375 2.09375 -9.050781 2.25 -8.96875 C 2.40625 -8.882812 2.523438 -8.769531 2.609375 -8.625 C 2.691406 -8.488281 2.734375 -8.332031 2.734375 -8.15625 C 2.734375 -7.96875 2.691406 -7.800781 2.609375 -7.65625 C 2.523438 -7.507812 2.40625 -7.394531 2.25 -7.3125 C 2.09375 -7.238281 1.921875 -7.203125 1.734375 -7.203125 Z M 0.921875 0 L 0.921875 -6.421875 L 2.546875 -6.421875 L 2.546875 0 Z M 0.921875 0 "/></g></g></g><g fill="#000000" fill-opacity="1"><g transform="translate(42.316639, 105.773843)"><g><path d="M 2.5 0.125 C 2.09375 0.125 1.738281 0.0507812 1.4375 -0.09375 C 1.132812 -0.25 0.898438 -0.472656 0.734375 -0.765625 C 0.566406 -1.066406 0.484375 -1.421875 0.484375 -1.828125 C 0.484375 -2.210938 0.566406 -2.53125 0.734375 -2.78125 C 0.898438 -3.039062 1.148438 -3.253906 1.484375 -3.421875 C 1.828125 -3.585938 2.273438 -3.71875 2.828125 -3.8125 C 3.210938 -3.875 3.503906 -3.941406 3.703125 -4.015625 C 3.910156 -4.085938 4.046875 -4.171875 4.109375 -4.265625 C 4.179688 -4.359375 4.21875 -4.472656 4.21875 -4.609375 C 4.21875 -4.816406 4.144531 -4.972656 4 -5.078125 C 3.851562 -5.191406 3.613281 -5.25 3.28125 -5.25 C 2.925781 -5.25 2.585938 -5.171875 2.265625 -5.015625 C 1.941406 -4.859375 1.660156 -4.648438 1.421875 -4.390625 L 1.3125 -4.390625 L 0.640625 -5.40625 C 0.960938 -5.769531 1.359375 -6.050781 1.828125 -6.25 C 2.296875 -6.445312 2.8125 -6.546875 3.375 -6.546875 C 4.21875 -6.546875 4.828125 -6.363281 5.203125 -6 C 5.585938 -5.644531 5.78125 -5.132812 5.78125 -4.46875 L 5.78125 -1.671875 C 5.78125 -1.390625 5.910156 -1.25 6.171875 -1.25 C 6.265625 -1.25 6.359375 -1.265625 6.453125 -1.296875 L 6.53125 -1.28125 L 6.65625 -0.15625 C 6.5625 -0.09375 6.429688 -0.0390625 6.265625 0 C 6.109375 0.03125 5.9375 0.046875 5.75 0.046875 C 5.363281 0.046875 5.0625 -0.0234375 4.84375 -0.171875 C 4.632812 -0.316406 4.484375 -0.550781 4.390625 -0.875 L 4.265625 -0.875 C 3.953125 -0.207031 3.363281 0.125 2.5 0.125 Z M 3.015625 -1.078125 C 3.390625 -1.078125 3.6875 -1.203125 3.90625 -1.453125 C 4.132812 -1.710938 4.25 -2.0625 4.25 -2.5 L 4.25 -3.15625 L 4.140625 -3.1875 C 4.046875 -3.101562 3.914062 -3.035156 3.75 -2.984375 C 3.59375 -2.929688 3.367188 -2.878906 3.078125 -2.828125 C 2.722656 -2.773438 2.46875 -2.675781 2.3125 -2.53125 C 2.164062 -2.382812 2.09375 -2.179688 2.09375 -1.921875 C 2.09375 -1.648438 2.171875 -1.441406 2.328125 -1.296875 C 2.492188 -1.148438 2.722656 -1.078125 3.015625 -1.078125 Z M 3.015625 -1.078125 "/></g></g></g><g fill="#000000" fill-opacity="1"><g transform="translate(49.096178, 105.773843)"><g><path d="M 1.421875 2.734375 C 1.148438 2.734375 0.898438 2.707031 0.671875 2.65625 C 0.453125 2.613281 0.269531 2.5625 0.125 2.5 L 0.390625 1.1875 L 0.484375 1.15625 C 0.585938 1.207031 0.707031 1.25 0.84375 1.28125 C 0.988281 1.3125 1.140625 1.328125 1.296875 1.328125 C 1.554688 1.328125 1.769531 1.289062 1.9375 1.21875 C 2.113281 1.15625 2.257812 1.039062 2.375 0.875 C 2.5 0.71875 2.609375 0.503906 2.703125 0.234375 L 0.140625 -6.421875 L 1.828125 -6.421875 L 3.421875 -1.953125 L 3.5625 -1.953125 L 5.125 -6.421875 L 6.765625 -6.421875 L 4.1875 0.40625 C 3.976562 0.957031 3.75 1.398438 3.5 1.734375 C 3.257812 2.066406 2.96875 2.316406 2.625 2.484375 C 2.289062 2.648438 1.890625 2.734375 1.421875 2.734375 Z M 1.421875 2.734375 "/></g></g></g><g fill="#000000" fill-opacity="1"><g transform="translate(55.998127, 105.773843)"><g><path d="M 2.5 0.125 C 2.09375 0.125 1.738281 0.0507812 1.4375 -0.09375 C 1.132812 -0.25 0.898438 -0.472656 0.734375 -0.765625 C 0.566406 -1.066406 0.484375 -1.421875 0.484375 -1.828125 C 0.484375 -2.210938 0.566406 -2.53125 0.734375 -2.78125 C 0.898438 -3.039062 1.148438 -3.253906 1.484375 -3.421875 C 1.828125 -3.585938 2.273438 -3.71875 2.828125 -3.8125 C 3.210938 -3.875 3.503906 -3.941406 3.703125 -4.015625 C 3.910156 -4.085938 4.046875 -4.171875 4.109375 -4.265625 C 4.179688 -4.359375 4.21875 -4.472656 4.21875 -4.609375 C 4.21875 -4.816406 4.144531 -4.972656 4 -5.078125 C 3.851562 -5.191406 3.613281 -5.25 3.28125 -5.25 C 2.925781 -5.25 2.585938 -5.171875 2.265625 -5.015625 C 1.941406 -4.859375 1.660156 -4.648438 1.421875 -4.390625 L 1.3125 -4.390625 L 0.640625 -5.40625 C 0.960938 -5.769531 1.359375 -6.050781 1.828125 -6.25 C 2.296875 -6.445312 2.8125 -6.546875 3.375 -6.546875 C 4.21875 -6.546875 4.828125 -6.363281 5.203125 -6 C 5.585938 -5.644531 5.78125 -5.132812 5.78125 -4.46875 L 5.78125 -1.671875 C 5.78125 -1.390625 5.910156 -1.25 6.171875 -1.25 C 6.265625 -1.25 6.359375 -1.265625 6.453125 -1.296875 L 6.53125 -1.28125 L 6.65625 -0.15625 C 6.5625 -0.09375 6.429688 -0.0390625 6.265625 0 C 6.109375 0.03125 5.9375 0.046875 5.75 0.046875 C 5.363281 0.046875 5.0625 -0.0234375 4.84375 -0.171875 C 4.632812 -0.316406 4.484375 -0.550781 4.390625 -0.875 L 4.265625 -0.875 C 3.953125 -0.207031 3.363281 0.125 2.5 0.125 Z M 3.015625 -1.078125 C 3.390625 -1.078125 3.6875 -1.203125 3.90625 -1.453125 C 4.132812 -1.710938 4.25 -2.0625 4.25 -2.5 L 4.25 -3.15625 L 4.140625 -3.1875 C 4.046875 -3.101562 3.914062 -3.035156 3.75 -2.984375 C 3.59375 -2.929688 3.367188 -2.878906 3.078125 -2.828125 C 2.722656 -2.773438 2.46875 -2.675781 2.3125 -2.53125 C 2.164062 -2.382812 2.09375 -2.179688 2.09375 -1.921875 C 2.09375 -1.648438 2.171875 -1.441406 2.328125 -1.296875 C 2.492188 -1.148438 2.722656 -1.078125 3.015625 -1.078125 Z M 3.015625 -1.078125 "/></g></g></g><g fill="#000000" fill-opacity="1"><g transform="translate(62.777666, 105.773843)"><g/></g></g><g fill="#000000" fill-opacity="1"><g transform="translate(65.593248, 105.773843)"><g><path d="M 2.671875 0.125 C 2.085938 0.125 1.644531 -0.03125 1.34375 -0.34375 C 1.039062 -0.65625 0.890625 -1.128906 0.890625 -1.765625 L 0.890625 -9.015625 L 2.5 -9.015625 L 2.5 -1.84375 C 2.5 -1.445312 2.660156 -1.25 2.984375 -1.25 C 3.078125 -1.25 3.175781 -1.265625 3.28125 -1.296875 L 3.375 -1.265625 L 3.515625 -0.03125 C 3.421875 0.0195312 3.300781 0.0546875 3.15625 0.078125 C 3.007812 0.109375 2.847656 0.125 2.671875 0.125 Z M 2.671875 0.125 "/></g></g></g><g fill="#000000" fill-opacity="1"><g transform="translate(69.289055, 105.773843)"><g><path d="M 6.359375 -2.84375 L 2.21875 -2.84375 C 2.269531 -2.289062 2.429688 -1.882812 2.703125 -1.625 C 2.972656 -1.375 3.34375 -1.25 3.8125 -1.25 C 4.175781 -1.25 4.472656 -1.316406 4.703125 -1.453125 C 4.929688 -1.585938 5.117188 -1.796875 5.265625 -2.078125 L 5.390625 -2.078125 L 6.453125 -1.390625 C 6.242188 -0.941406 5.925781 -0.578125 5.5 -0.296875 C 5.082031 -0.015625 4.519531 0.125 3.8125 0.125 C 3.144531 0.125 2.566406 0 2.078125 -0.25 C 1.597656 -0.507812 1.226562 -0.890625 0.96875 -1.390625 C 0.707031 -1.890625 0.578125 -2.5 0.578125 -3.21875 C 0.578125 -3.945312 0.710938 -4.5625 0.984375 -5.0625 C 1.265625 -5.5625 1.640625 -5.929688 2.109375 -6.171875 C 2.578125 -6.421875 3.109375 -6.546875 3.703125 -6.546875 C 4.609375 -6.546875 5.300781 -6.304688 5.78125 -5.828125 C 6.269531 -5.347656 6.515625 -4.640625 6.515625 -3.703125 C 6.515625 -3.367188 6.5 -3.109375 6.46875 -2.921875 Z M 4.96875 -3.890625 C 4.945312 -4.378906 4.832031 -4.734375 4.625 -4.953125 C 4.414062 -5.179688 4.109375 -5.296875 3.703125 -5.296875 C 2.878906 -5.296875 2.394531 -4.828125 2.25 -3.890625 Z M 4.96875 -3.890625 "/></g></g></g><g fill="#000000" fill-opacity="1"><g transform="translate(76.278451, 105.773843)"><g><path d="M 3 0.125 C 2.5625 0.125 2.160156 0.0703125 1.796875 -0.03125 C 1.429688 -0.132812 1.117188 -0.273438 0.859375 -0.453125 C 0.609375 -0.640625 0.421875 -0.847656 0.296875 -1.078125 L 1.1875 -2.046875 L 1.3125 -2.046875 C 1.519531 -1.753906 1.769531 -1.535156 2.0625 -1.390625 C 2.351562 -1.253906 2.671875 -1.1875 3.015625 -1.1875 C 3.328125 -1.1875 3.5625 -1.238281 3.71875 -1.34375 C 3.882812 -1.457031 3.96875 -1.625 3.96875 -1.84375 C 3.96875 -2 3.910156 -2.128906 3.796875 -2.234375 C 3.679688 -2.347656 3.492188 -2.4375 3.234375 -2.5 L 2.390625 -2.703125 C 1.753906 -2.859375 1.285156 -3.09375 0.984375 -3.40625 C 0.691406 -3.71875 0.546875 -4.113281 0.546875 -4.59375 C 0.546875 -5 0.648438 -5.347656 0.859375 -5.640625 C 1.066406 -5.929688 1.351562 -6.15625 1.71875 -6.3125 C 2.09375 -6.46875 2.523438 -6.546875 3.015625 -6.546875 C 3.597656 -6.546875 4.078125 -6.460938 4.453125 -6.296875 C 4.835938 -6.128906 5.132812 -5.90625 5.34375 -5.625 L 4.484375 -4.703125 L 4.375 -4.703125 C 4.195312 -4.898438 3.992188 -5.046875 3.765625 -5.140625 C 3.546875 -5.234375 3.296875 -5.28125 3.015625 -5.28125 C 2.378906 -5.28125 2.0625 -5.082031 2.0625 -4.6875 C 2.0625 -4.519531 2.117188 -4.382812 2.234375 -4.28125 C 2.359375 -4.175781 2.570312 -4.085938 2.875 -4.015625 L 3.65625 -3.84375 C 4.3125 -3.707031 4.789062 -3.484375 5.09375 -3.171875 C 5.394531 -2.859375 5.546875 -2.441406 5.546875 -1.921875 C 5.546875 -1.515625 5.441406 -1.15625 5.234375 -0.84375 C 5.035156 -0.539062 4.742188 -0.300781 4.359375 -0.125 C 3.984375 0.0390625 3.53125 0.125 3 0.125 Z M 3 0.125 "/></g></g></g><g fill="#000000" fill-opacity="1"><g transform="translate(82.206905, 105.773843)"><g/></g></g><g fill="#000000" fill-opacity="1"><g transform="translate(85.022488, 105.773843)"><g><path d="M 0.921875 2.609375 L 0.921875 -6.421875 L 2.546875 -6.421875 L 2.546875 -5.59375 L 2.65625 -5.5625 C 2.851562 -5.894531 3.109375 -6.140625 3.421875 -6.296875 C 3.742188 -6.460938 4.117188 -6.546875 4.546875 -6.546875 C 5.066406 -6.546875 5.519531 -6.421875 5.90625 -6.171875 C 6.289062 -5.929688 6.585938 -5.5625 6.796875 -5.0625 C 7.015625 -4.5625 7.125 -3.945312 7.125 -3.21875 C 7.125 -2.476562 7.007812 -1.859375 6.78125 -1.359375 C 6.5625 -0.867188 6.25 -0.5 5.84375 -0.25 C 5.4375 0 4.96875 0.125 4.4375 0.125 C 4.039062 0.125 3.695312 0.0546875 3.40625 -0.078125 C 3.113281 -0.210938 2.863281 -0.421875 2.65625 -0.703125 L 2.546875 -0.6875 L 2.546875 2.609375 Z M 4 -1.25 C 4.476562 -1.25 4.84375 -1.40625 5.09375 -1.71875 C 5.34375 -2.03125 5.46875 -2.53125 5.46875 -3.21875 C 5.46875 -3.894531 5.34375 -4.390625 5.09375 -4.703125 C 4.84375 -5.023438 4.476562 -5.1875 4 -5.1875 C 3.539062 -5.1875 3.179688 -5.019531 2.921875 -4.6875 C 2.660156 -4.363281 2.53125 -3.875 2.53125 -3.21875 C 2.53125 -2.5625 2.660156 -2.066406 2.921875 -1.734375 C 3.179688 -1.410156 3.539062 -1.25 4 -1.25 Z M 4 -1.25 "/></g></g></g><g fill="#000000" fill-opacity="1"><g transform="translate(92.723064, 105.773843)"><g><path d="M 0.921875 0 L 0.921875 -6.421875 L 2.5 -6.421875 L 2.5 -5.46875 L 2.609375 -5.453125 C 2.765625 -5.804688 2.96875 -6.066406 3.21875 -6.234375 C 3.476562 -6.398438 3.789062 -6.484375 4.15625 -6.484375 C 4.519531 -6.484375 4.796875 -6.421875 4.984375 -6.296875 L 4.703125 -4.90625 L 4.59375 -4.890625 C 4.488281 -4.929688 4.382812 -4.957031 4.28125 -4.96875 C 4.1875 -4.988281 4.066406 -5 3.921875 -5 C 3.472656 -5 3.128906 -4.84375 2.890625 -4.53125 C 2.660156 -4.21875 2.546875 -3.707031 2.546875 -3 L 2.546875 0 Z M 0.921875 0 "/></g></g></g><g fill="#000000" fill-opacity="1"><g transform="translate(97.765457, 105.773843)"><g><path d="M 1.734375 -7.203125 C 1.441406 -7.203125 1.203125 -7.289062 1.015625 -7.46875 C 0.835938 -7.644531 0.75 -7.875 0.75 -8.15625 C 0.75 -8.425781 0.835938 -8.648438 1.015625 -8.828125 C 1.203125 -9.003906 1.441406 -9.09375 1.734375 -9.09375 C 1.921875 -9.09375 2.09375 -9.050781 2.25 -8.96875 C 2.40625 -8.882812 2.523438 -8.769531 2.609375 -8.625 C 2.691406 -8.488281 2.734375 -8.332031 2.734375 -8.15625 C 2.734375 -7.96875 2.691406 -7.800781 2.609375 -7.65625 C 2.523438 -7.507812 2.40625 -7.394531 2.25 -7.3125 C 2.09375 -7.238281 1.921875 -7.203125 1.734375 -7.203125 Z M 0.921875 0 L 0.921875 -6.421875 L 2.546875 -6.421875 L 2.546875 0 Z M 0.921875 0 "/></g></g></g><g fill="#000000" fill-opacity="1"><g transform="translate(101.22809, 105.773843)"><g><path d="M 4.421875 0 L 2.5 0 L 0.125 -6.421875 L 1.8125 -6.421875 L 3.40625 -1.84375 L 3.546875 -1.84375 L 5.140625 -6.421875 L 6.796875 -6.421875 Z M 4.421875 0 "/></g></g></g><g fill="#000000" fill-opacity="1"><g transform="translate(108.141697, 105.773843)"><g><path d="M 2.5 0.125 C 2.09375 0.125 1.738281 0.0507812 1.4375 -0.09375 C 1.132812 -0.25 0.898438 -0.472656 0.734375 -0.765625 C 0.566406 -1.066406 0.484375 -1.421875 0.484375 -1.828125 C 0.484375 -2.210938 0.566406 -2.53125 0.734375 -2.78125 C 0.898438 -3.039062 1.148438 -3.253906 1.484375 -3.421875 C 1.828125 -3.585938 2.273438 -3.71875 2.828125 -3.8125 C 3.210938 -3.875 3.503906 -3.941406 3.703125 -4.015625 C 3.910156 -4.085938 4.046875 -4.171875 4.109375 -4.265625 C 4.179688 -4.359375 4.21875 -4.472656 4.21875 -4.609375 C 4.21875 -4.816406 4.144531 -4.972656 4 -5.078125 C 3.851562 -5.191406 3.613281 -5.25 3.28125 -5.25 C 2.925781 -5.25 2.585938 -5.171875 2.265625 -5.015625 C 1.941406 -4.859375 1.660156 -4.648438 1.421875 -4.390625 L 1.3125 -4.390625 L 0.640625 -5.40625 C 0.960938 -5.769531 1.359375 -6.050781 1.828125 -6.25 C 2.296875 -6.445312 2.8125 -6.546875 3.375 -6.546875 C 4.21875 -6.546875 4.828125 -6.363281 5.203125 -6 C 5.585938 -5.644531 5.78125 -5.132812 5.78125 -4.46875 L 5.78125 -1.671875 C 5.78125 -1.390625 5.910156 -1.25 6.171875 -1.25 C 6.265625 -1.25 6.359375 -1.265625 6.453125 -1.296875 L 6.53125 -1.28125 L 6.65625 -0.15625 C 6.5625 -0.09375 6.429688 -0.0390625 6.265625 0 C 6.109375 0.03125 5.9375 0.046875 5.75 0.046875 C 5.363281 0.046875 5.0625 -0.0234375 4.84375 -0.171875 C 4.632812 -0.316406 4.484375 -0.550781 4.390625 -0.875 L 4.265625 -0.875 C 3.953125 -0.207031 3.363281 0.125 2.5 0.125 Z M 3.015625 -1.078125 C 3.390625 -1.078125 3.6875 -1.203125 3.90625 -1.453125 C 4.132812 -1.710938 4.25 -2.0625 4.25 -2.5 L 4.25 -3.15625 L 4.140625 -3.1875 C 4.046875 -3.101562 3.914062 -3.035156 3.75 -2.984375 C 3.59375 -2.929688 3.367188 -2.878906 3.078125 -2.828125 C 2.722656 -2.773438 2.46875 -2.675781 2.3125 -2.53125 C 2.164062 -2.382812 2.09375 -2.179688 2.09375 -1.921875 C 2.09375 -1.648438 2.171875 -1.441406 2.328125 -1.296875 C 2.492188 -1.148438 2.722656 -1.078125 3.015625 -1.078125 Z M 3.015625 -1.078125 "/></g></g></g><g fill="#000000" fill-opacity="1"><g transform="translate(114.921237, 105.773843)"><g><path d="M 4.4375 -1.53125 L 4.859375 -0.34375 C 4.679688 -0.195312 4.457031 -0.0820312 4.1875 0 C 3.925781 0.0820312 3.628906 0.125 3.296875 0.125 C 2.597656 0.125 2.066406 -0.0625 1.703125 -0.4375 C 1.347656 -0.820312 1.171875 -1.375 1.171875 -2.09375 L 1.171875 -5.15625 L 0.1875 -5.15625 L 0.1875 -6.4375 L 1.171875 -6.4375 L 1.171875 -7.6875 L 2.78125 -7.953125 L 2.78125 -6.4375 L 4.609375 -6.4375 L 4.609375 -5.15625 L 2.78125 -5.15625 L 2.78125 -2.21875 C 2.78125 -1.894531 2.847656 -1.660156 2.984375 -1.515625 C 3.117188 -1.367188 3.3125 -1.296875 3.5625 -1.296875 C 3.851562 -1.296875 4.101562 -1.375 4.3125 -1.53125 Z M 4.4375 -1.53125 "/></g></g></g><g fill="#000000" fill-opacity="1"><g transform="translate(119.916995, 105.773843)"><g/></g></g><g fill="#000000" fill-opacity="1"><g transform="translate(122.732577, 105.773843)"><g><path d="M 4.4375 -1.53125 L 4.859375 -0.34375 C 4.679688 -0.195312 4.457031 -0.0820312 4.1875 0 C 3.925781 0.0820312 3.628906 0.125 3.296875 0.125 C 2.597656 0.125 2.066406 -0.0625 1.703125 -0.4375 C 1.347656 -0.820312 1.171875 -1.375 1.171875 -2.09375 L 1.171875 -5.15625 L 0.1875 -5.15625 L 0.1875 -6.4375 L 1.171875 -6.4375 L 1.171875 -7.6875 L 2.78125 -7.953125 L 2.78125 -6.4375 L 4.609375 -6.4375 L 4.609375 -5.15625 L 2.78125 -5.15625 L 2.78125 -2.21875 C 2.78125 -1.894531 2.847656 -1.660156 2.984375 -1.515625 C 3.117188 -1.367188 3.3125 -1.296875 3.5625 -1.296875 C 3.851562 -1.296875 4.101562 -1.375 4.3125 -1.53125 Z M 4.4375 -1.53125 "/></g></g></g><g fill="#000000" fill-opacity="1"><g transform="translate(127.728336, 105.773843)"><g><path d="M 6.359375 -2.84375 L 2.21875 -2.84375 C 2.269531 -2.289062 2.429688 -1.882812 2.703125 -1.625 C 2.972656 -1.375 3.34375 -1.25 3.8125 -1.25 C 4.175781 -1.25 4.472656 -1.316406 4.703125 -1.453125 C 4.929688 -1.585938 5.117188 -1.796875 5.265625 -2.078125 L 5.390625 -2.078125 L 6.453125 -1.390625 C 6.242188 -0.941406 5.925781 -0.578125 5.5 -0.296875 C 5.082031 -0.015625 4.519531 0.125 3.8125 0.125 C 3.144531 0.125 2.566406 0 2.078125 -0.25 C 1.597656 -0.507812 1.226562 -0.890625 0.96875 -1.390625 C 0.707031 -1.890625 0.578125 -2.5 0.578125 -3.21875 C 0.578125 -3.945312 0.710938 -4.5625 0.984375 -5.0625 C 1.265625 -5.5625 1.640625 -5.929688 2.109375 -6.171875 C 2.578125 -6.421875 3.109375 -6.546875 3.703125 -6.546875 C 4.609375 -6.546875 5.300781 -6.304688 5.78125 -5.828125 C 6.269531 -5.347656 6.515625 -4.640625 6.515625 -3.703125 C 6.515625 -3.367188 6.5 -3.109375 6.46875 -2.921875 Z M 4.96875 -3.890625 C 4.945312 -4.378906 4.832031 -4.734375 4.625 -4.953125 C 4.414062 -5.179688 4.109375 -5.296875 3.703125 -5.296875 C 2.878906 -5.296875 2.394531 -4.828125 2.25 -3.890625 Z M 4.96875 -3.890625 "/></g></g></g><g fill="#000000" fill-opacity="1"><g transform="translate(134.717731, 105.773843)"><g><path d="M 0.921875 0 L 0.921875 -6.421875 L 2.5 -6.421875 L 2.5 -5.46875 L 2.609375 -5.453125 C 2.765625 -5.804688 2.96875 -6.066406 3.21875 -6.234375 C 3.476562 -6.398438 3.789062 -6.484375 4.15625 -6.484375 C 4.519531 -6.484375 4.796875 -6.421875 4.984375 -6.296875 L 4.703125 -4.90625 L 4.59375 -4.890625 C 4.488281 -4.929688 4.382812 -4.957031 4.28125 -4.96875 C 4.1875 -4.988281 4.066406 -5 3.921875 -5 C 3.472656 -5 3.128906 -4.84375 2.890625 -4.53125 C 2.660156 -4.21875 2.546875 -3.707031 2.546875 -3 L 2.546875 0 Z M 0.921875 0 "/></g></g></g><g fill="#000000" fill-opacity="1"><g transform="translate(139.760125, 105.773843)"><g><path d="M 0.921875 0 L 0.921875 -6.421875 L 2.484375 -6.421875 L 2.484375 -5.5625 L 2.59375 -5.546875 C 2.8125 -5.890625 3.0625 -6.140625 3.34375 -6.296875 C 3.625 -6.460938 3.984375 -6.546875 4.421875 -6.546875 C 4.898438 -6.546875 5.285156 -6.445312 5.578125 -6.25 C 5.878906 -6.0625 6.097656 -5.785156 6.234375 -5.421875 L 6.359375 -5.421875 C 6.554688 -5.804688 6.8125 -6.085938 7.125 -6.265625 C 7.4375 -6.453125 7.828125 -6.546875 8.296875 -6.546875 C 9.628906 -6.546875 10.296875 -5.804688 10.296875 -4.328125 L 10.296875 0 L 8.671875 0 L 8.671875 -4.125 C 8.671875 -4.5 8.597656 -4.769531 8.453125 -4.9375 C 8.304688 -5.101562 8.070312 -5.1875 7.75 -5.1875 C 6.863281 -5.1875 6.421875 -4.59375 6.421875 -3.40625 L 6.421875 0 L 4.796875 0 L 4.796875 -4.125 C 4.796875 -4.5 4.722656 -4.769531 4.578125 -4.9375 C 4.429688 -5.101562 4.191406 -5.1875 3.859375 -5.1875 C 3.441406 -5.1875 3.117188 -5.046875 2.890625 -4.765625 C 2.660156 -4.492188 2.546875 -4.050781 2.546875 -3.4375 L 2.546875 0 Z M 0.921875 0 "/></g></g></g><g fill="#000000" fill-opacity="1"><g transform="translate(150.882522, 105.773843)"><g><path d="M 2.9375 0.125 C 2.21875 0.125 1.6875 -0.0703125 1.34375 -0.46875 C 1 -0.863281 0.828125 -1.429688 0.828125 -2.171875 L 0.828125 -6.421875 L 2.4375 -6.421875 L 2.4375 -2.375 C 2.4375 -1.976562 2.519531 -1.6875 2.6875 -1.5 C 2.863281 -1.320312 3.128906 -1.234375 3.484375 -1.234375 C 3.929688 -1.234375 4.273438 -1.378906 4.515625 -1.671875 C 4.765625 -1.972656 4.890625 -2.4375 4.890625 -3.0625 L 4.890625 -6.421875 L 6.515625 -6.421875 L 6.515625 0 L 4.953125 0 L 4.953125 -0.9375 L 4.84375 -0.96875 C 4.632812 -0.601562 4.378906 -0.328125 4.078125 -0.140625 C 3.785156 0.0351562 3.40625 0.125 2.9375 0.125 Z M 2.9375 0.125 "/></g></g></g><g fill="#000000" fill-opacity="1"><g transform="translate(158.32077, 105.773843)"><g><path d="M 0.921875 0 L 0.921875 -6.421875 L 2.5 -6.421875 L 2.5 -5.46875 L 2.609375 -5.453125 C 2.765625 -5.804688 2.96875 -6.066406 3.21875 -6.234375 C 3.476562 -6.398438 3.789062 -6.484375 4.15625 -6.484375 C 4.519531 -6.484375 4.796875 -6.421875 4.984375 -6.296875 L 4.703125 -4.90625 L 4.59375 -4.890625 C 4.488281 -4.929688 4.382812 -4.957031 4.28125 -4.96875 C 4.1875 -4.988281 4.066406 -5 3.921875 -5 C 3.472656 -5 3.128906 -4.84375 2.890625 -4.53125 C 2.660156 -4.21875 2.546875 -3.707031 2.546875 -3 L 2.546875 0 Z M 0.921875 0 "/></g></g></g><g fill="#000000" fill-opacity="1"><g transform="translate(163.363164, 105.773843)"><g><path d="M 2.5 0.125 C 2.09375 0.125 1.738281 0.0507812 1.4375 -0.09375 C 1.132812 -0.25 0.898438 -0.472656 0.734375 -0.765625 C 0.566406 -1.066406 0.484375 -1.421875 0.484375 -1.828125 C 0.484375 -2.210938 0.566406 -2.53125 0.734375 -2.78125 C 0.898438 -3.039062 1.148438 -3.253906 1.484375 -3.421875 C 1.828125 -3.585938 2.273438 -3.71875 2.828125 -3.8125 C 3.210938 -3.875 3.503906 -3.941406 3.703125 -4.015625 C 3.910156 -4.085938 4.046875 -4.171875 4.109375 -4.265625 C 4.179688 -4.359375 4.21875 -4.472656 4.21875 -4.609375 C 4.21875 -4.816406 4.144531 -4.972656 4 -5.078125 C 3.851562 -5.191406 3.613281 -5.25 3.28125 -5.25 C 2.925781 -5.25 2.585938 -5.171875 2.265625 -5.015625 C 1.941406 -4.859375 1.660156 -4.648438 1.421875 -4.390625 L 1.3125 -4.390625 L 0.640625 -5.40625 C 0.960938 -5.769531 1.359375 -6.050781 1.828125 -6.25 C 2.296875 -6.445312 2.8125 -6.546875 3.375 -6.546875 C 4.21875 -6.546875 4.828125 -6.363281 5.203125 -6 C 5.585938 -5.644531 5.78125 -5.132812 5.78125 -4.46875 L 5.78125 -1.671875 C 5.78125 -1.390625 5.910156 -1.25 6.171875 -1.25 C 6.265625 -1.25 6.359375 -1.265625 6.453125 -1.296875 L 6.53125 -1.28125 L 6.65625 -0.15625 C 6.5625 -0.09375 6.429688 -0.0390625 6.265625 0 C 6.109375 0.03125 5.9375 0.046875 5.75 0.046875 C 5.363281 0.046875 5.0625 -0.0234375 4.84375 -0.171875 C 4.632812 -0.316406 4.484375 -0.550781 4.390625 -0.875 L 4.265625 -0.875 C 3.953125 -0.207031 3.363281 0.125 2.5 0.125 Z M 3.015625 -1.078125 C 3.390625 -1.078125 3.6875 -1.203125 3.90625 -1.453125 C 4.132812 -1.710938 4.25 -2.0625 4.25 -2.5 L 4.25 -3.15625 L 4.140625 -3.1875 C 4.046875 -3.101562 3.914062 -3.035156 3.75 -2.984375 C 3.59375 -2.929688 3.367188 -2.878906 3.078125 -2.828125 C 2.722656 -2.773438 2.46875 -2.675781 2.3125 -2.53125 C 2.164062 -2.382812 2.09375 -2.179688 2.09375 -1.921875 C 2.09375 -1.648438 2.171875 -1.441406 2.328125 -1.296875 C 2.492188 -1.148438 2.722656 -1.078125 3.015625 -1.078125 Z M 3.015625 -1.078125 "/></g></g></g><g fill="#000000" fill-opacity="1"><g transform="translate(170.142703, 105.773843)"><g><path d="M 0.921875 0 L 0.921875 -9.015625 L 2.546875 -9.015625 L 2.546875 -5.59375 L 2.65625 -5.5625 C 2.875 -5.875 3.140625 -6.113281 3.453125 -6.28125 C 3.765625 -6.457031 4.140625 -6.546875 4.578125 -6.546875 C 5.992188 -6.546875 6.703125 -5.742188 6.703125 -4.140625 L 6.703125 0 L 5.09375 0 L 5.09375 -3.9375 C 5.09375 -4.375 5.003906 -4.691406 4.828125 -4.890625 C 4.648438 -5.085938 4.378906 -5.1875 4.015625 -5.1875 C 3.554688 -5.1875 3.195312 -5.035156 2.9375 -4.734375 C 2.675781 -4.429688 2.546875 -3.960938 2.546875 -3.328125 L 2.546875 0 Z M 0.921875 0 "/></g></g></g></svg>