<svg xmlns="http://www.w3.org/2000/svg" xmlns:xlink="http://www.w3.org/1999/xlink" width="281" zoomAndPan="magnify" viewBox="0 0 210.75 163.5" height="218" preserveAspectRatio="xMidYMid meet" version="1.0"><defs><g/><clipPath id="6bab3b0e4c"><path d="M 0.195312 0 L 210.304688 0 L 210.304688 163 L 0.195312 163 Z M 0.195312 0 " clip-rule="nonzero"/></clipPath><clipPath id="2fb25504d7"><path d="M 7.683594 0 L 203.066406 0 C 205.050781 0 206.957031 0.789062 208.359375 2.191406 C 209.765625 3.597656 210.554688 5.5 210.554688 7.484375 L 210.554688 155.707031 C 210.554688 157.695312 209.765625 159.597656 208.359375 161.003906 C 206.957031 162.40625 205.050781 163.195312 203.066406 163.195312 L 7.683594 163.195312 C 5.695312 163.195312 3.792969 162.40625 2.390625 161.003906 C 0.984375 159.597656 0.195312 157.695312 0.195312 155.707031 L 0.195312 7.484375 C 0.195312 5.5 0.984375 3.597656 2.390625 2.191406 C 3.792969 0.789062 5.695312 0 7.683594 0 " clip-rule="nonzero"/></clipPath><clipPath id="2a3e199753"><path d="M 31.152344 16.320312 L 77.957031 16.320312 L 77.957031 63.125 L 31.152344 63.125 Z M 31.152344 16.320312 " clip-rule="nonzero"/></clipPath><clipPath id="801f1de39b"><path d="M 54.554688 16.320312 C 41.632812 16.320312 31.152344 26.796875 31.152344 39.722656 C 31.152344 52.648438 41.632812 63.125 54.554688 63.125 C 67.480469 63.125 77.957031 52.648438 77.957031 39.722656 C 77.957031 26.796875 67.480469 16.320312 54.554688 16.320312 " clip-rule="nonzero"/></clipPath><clipPath id="5f5921c58f"><path d="M 42.210938 35 L 66.914062 35 L 66.914062 44 L 42.210938 44 Z M 42.210938 35 " clip-rule="nonzero"/></clipPath><clipPath id="66f7daf73e"><path d="M 42.210938 27.375 L 66.914062 27.375 L 66.914062 36 L 42.210938 36 Z M 42.210938 27.375 " clip-rule="nonzero"/></clipPath><clipPath id="b7f329080c"><path d="M 42.210938 44 L 66.914062 44 L 66.914062 52.078125 L 42.210938 52.078125 Z M 42.210938 44 " clip-rule="nonzero"/></clipPath></defs><g clip-path="url(#6bab3b0e4c)"><g clip-path="url(#2fb25504d7)"><path fill="#dfdfdf" d="M 0.195312 0 L 210.566406 0 L 210.566406 162.941406 L 0.195312 162.941406 Z M 0.195312 0 " fill-opacity="1" fill-rule="nonzero"/></g></g><g clip-path="url(#2a3e199753)"><g clip-path="url(#801f1de39b)"><path fill="#004aad" d="M 31.152344 16.320312 L 77.957031 16.320312 L 77.957031 63.125 L 31.152344 63.125 Z M 31.152344 16.320312 " fill-opacity="1" fill-rule="nonzero"/></g></g><g clip-path="url(#5f5921c58f)"><path fill="#001f49" d="M 43.40625 40.921875 L 50.78125 40.921875 C 51.292969 42.535156 52.785156 43.710938 54.5625 43.710938 C 56.339844 43.710938 57.832031 42.535156 58.34375 40.921875 L 65.71875 40.921875 C 66.378906 40.921875 66.914062 40.386719 66.914062 39.726562 C 66.914062 39.066406 66.378906 38.53125 65.71875 38.53125 L 58.34375 38.53125 C 57.832031 36.921875 56.339844 35.742188 54.5625 35.742188 C 52.785156 35.742188 51.292969 36.921875 50.78125 38.53125 L 43.40625 38.53125 C 42.746094 38.53125 42.210938 39.066406 42.210938 39.726562 C 42.210938 40.386719 42.746094 40.921875 43.40625 40.921875 Z M 54.5625 38.132812 C 55.441406 38.132812 56.15625 38.847656 56.15625 39.726562 C 56.15625 40.605469 55.441406 41.320312 54.5625 41.320312 C 53.683594 41.320312 52.96875 40.605469 52.96875 39.726562 C 52.96875 38.847656 53.683594 38.132812 54.5625 38.132812 Z M 54.5625 38.132812 " fill-opacity="1" fill-rule="nonzero"/></g><g clip-path="url(#66f7daf73e)"><path fill="#001f49" d="M 43.40625 32.554688 L 45.601562 32.554688 C 46.113281 34.167969 47.605469 35.34375 49.382812 35.34375 C 51.160156 35.34375 52.652344 34.167969 53.164062 32.554688 L 65.71875 32.554688 C 66.378906 32.554688 66.914062 32.019531 66.914062 31.359375 C 66.914062 30.699219 66.378906 30.164062 65.71875 30.164062 L 53.164062 30.164062 C 52.652344 28.554688 51.160156 27.375 49.382812 27.375 C 47.605469 27.375 46.113281 28.554688 45.601562 30.164062 L 43.40625 30.164062 C 42.746094 30.164062 42.210938 30.699219 42.210938 31.359375 C 42.210938 32.019531 42.746094 32.554688 43.40625 32.554688 Z M 49.382812 29.765625 C 50.261719 29.765625 50.976562 30.480469 50.976562 31.359375 C 50.976562 32.238281 50.261719 32.953125 49.382812 32.953125 C 48.503906 32.953125 47.789062 32.238281 47.789062 31.359375 C 47.789062 30.480469 48.503906 29.765625 49.382812 29.765625 Z M 49.382812 29.765625 " fill-opacity="1" fill-rule="nonzero"/></g><g clip-path="url(#b7f329080c)"><path fill="#001f49" d="M 43.40625 49.289062 L 55.960938 49.289062 C 56.472656 50.902344 57.964844 52.078125 59.742188 52.078125 C 61.519531 52.078125 63.011719 50.902344 63.523438 49.289062 L 65.71875 49.289062 C 66.378906 49.289062 66.914062 48.753906 66.914062 48.09375 C 66.914062 47.433594 66.378906 46.898438 65.71875 46.898438 L 63.523438 46.898438 C 63.011719 45.289062 61.519531 44.109375 59.742188 44.109375 C 57.964844 44.109375 56.472656 45.289062 55.960938 46.898438 L 43.40625 46.898438 C 42.746094 46.898438 42.210938 47.433594 42.210938 48.09375 C 42.210938 48.753906 42.746094 49.289062 43.40625 49.289062 Z M 59.742188 46.5 C 60.621094 46.5 61.335938 47.214844 61.335938 48.09375 C 61.335938 48.972656 60.621094 49.6875 59.742188 49.6875 C 58.863281 49.6875 58.148438 48.972656 58.148438 48.09375 C 58.148438 47.214844 58.863281 46.5 59.742188 46.5 Z M 59.742188 46.5 " fill-opacity="1" fill-rule="nonzero"/></g><g fill="#000000" fill-opacity="1"><g transform="translate(31.15343, 87.620215)"><g><path d="M 2.078125 0.1875 C 1.410156 0.1875 0.914062 -0.0390625 0.59375 -0.5 C 0.28125 -0.957031 0.285156 -1.53125 0.609375 -2.21875 L 5.953125 -13.734375 C 6.210938 -14.296875 6.523438 -14.703125 6.890625 -14.953125 C 7.265625 -15.210938 7.707031 -15.34375 8.21875 -15.34375 C 8.695312 -15.34375 9.125 -15.210938 9.5 -14.953125 C 9.875 -14.703125 10.191406 -14.296875 10.453125 -13.734375 L 15.796875 -2.21875 C 16.128906 -1.507812 16.144531 -0.929688 15.84375 -0.484375 C 15.539062 -0.0351562 15.066406 0.1875 14.421875 0.1875 C 13.847656 0.1875 13.40625 0.0625 13.09375 -0.1875 C 12.789062 -0.445312 12.519531 -0.863281 12.28125 -1.4375 L 11.59375 -3.078125 L 4.8125 -3.078125 L 4.125 -1.4375 C 3.863281 -0.863281 3.597656 -0.445312 3.328125 -0.1875 C 3.054688 0.0625 2.640625 0.1875 2.078125 0.1875 Z M 8.171875 -11.03125 L 6.109375 -6.109375 L 10.28125 -6.109375 L 8.21875 -11.03125 Z M 8.171875 -11.03125 "/></g></g></g><g fill="#000000" fill-opacity="1"><g transform="translate(47.556137, 87.620215)"><g><path d="M 5.25 0.234375 C 4.34375 0.234375 3.539062 0.015625 2.84375 -0.421875 C 2.15625 -0.867188 1.613281 -1.507812 1.21875 -2.34375 C 0.820312 -3.175781 0.625 -4.15625 0.625 -5.28125 C 0.625 -6.4375 0.820312 -7.425781 1.21875 -8.25 C 1.613281 -9.070312 2.15625 -9.703125 2.84375 -10.140625 C 3.539062 -10.585938 4.34375 -10.8125 5.25 -10.8125 C 5.914062 -10.8125 6.53125 -10.671875 7.09375 -10.390625 C 7.664062 -10.109375 8.101562 -9.75 8.40625 -9.3125 L 8.40625 -13.421875 C 8.40625 -14.703125 9.039062 -15.34375 10.3125 -15.34375 C 10.9375 -15.34375 11.410156 -15.175781 11.734375 -14.84375 C 12.066406 -14.519531 12.234375 -14.046875 12.234375 -13.421875 L 12.234375 -1.734375 C 12.234375 -0.453125 11.601562 0.1875 10.34375 0.1875 C 9.207031 0.1875 8.582031 -0.347656 8.46875 -1.421875 C 8.1875 -0.921875 7.753906 -0.519531 7.171875 -0.21875 C 6.585938 0.0820312 5.945312 0.234375 5.25 0.234375 Z M 6.46875 -2.578125 C 7.039062 -2.578125 7.515625 -2.789062 7.890625 -3.21875 C 8.265625 -3.65625 8.453125 -4.34375 8.453125 -5.28125 C 8.453125 -6.25 8.265625 -6.941406 7.890625 -7.359375 C 7.515625 -7.785156 7.039062 -8 6.46875 -8 C 5.882812 -8 5.40625 -7.785156 5.03125 -7.359375 C 4.65625 -6.941406 4.46875 -6.25 4.46875 -5.28125 C 4.46875 -4.34375 4.65625 -3.65625 5.03125 -3.21875 C 5.40625 -2.789062 5.882812 -2.578125 6.46875 -2.578125 Z M 6.46875 -2.578125 "/></g></g></g><g fill="#000000" fill-opacity="1"><g transform="translate(60.884679, 87.620215)"><g><path d="M 3.125 -12.296875 C 2.425781 -12.296875 1.894531 -12.453125 1.53125 -12.765625 C 1.164062 -13.085938 0.984375 -13.546875 0.984375 -14.140625 C 0.984375 -14.734375 1.164062 -15.1875 1.53125 -15.5 C 1.894531 -15.8125 2.425781 -15.96875 3.125 -15.96875 C 4.539062 -15.96875 5.25 -15.359375 5.25 -14.140625 C 5.25 -13.546875 5.066406 -13.085938 4.703125 -12.765625 C 4.335938 -12.453125 3.8125 -12.296875 3.125 -12.296875 Z M 0.5 4.015625 C -0.0625 4.035156 -0.476562 3.914062 -0.75 3.65625 C -1.019531 3.394531 -1.171875 3.09375 -1.203125 2.75 C -1.234375 2.40625 -1.15625 2.09375 -0.96875 1.8125 C -0.78125 1.53125 -0.5 1.367188 -0.125 1.328125 C 0.34375 1.285156 0.679688 1.15625 0.890625 0.9375 C 1.109375 0.726562 1.21875 0.394531 1.21875 -0.0625 L 1.21875 -8.859375 C 1.21875 -9.472656 1.382812 -9.941406 1.71875 -10.265625 C 2.050781 -10.597656 2.523438 -10.765625 3.140625 -10.765625 C 4.410156 -10.765625 5.046875 -10.128906 5.046875 -8.859375 L 5.046875 -0.4375 C 5.046875 1.03125 4.675781 2.128906 3.9375 2.859375 C 3.207031 3.585938 2.0625 3.972656 0.5 4.015625 Z M 0.5 4.015625 "/></g></g></g><g fill="#000000" fill-opacity="1"><g transform="translate(67.054508, 87.620215)"><g><path d="M 5.078125 0.234375 C 3.703125 0.234375 2.6875 -0.140625 2.03125 -0.890625 C 1.375 -1.640625 1.046875 -2.789062 1.046875 -4.34375 L 1.046875 -8.859375 C 1.046875 -10.128906 1.6875 -10.765625 2.96875 -10.765625 C 3.582031 -10.765625 4.050781 -10.597656 4.375 -10.265625 C 4.707031 -9.941406 4.875 -9.472656 4.875 -8.859375 L 4.875 -4.234375 C 4.875 -3.203125 5.320312 -2.6875 6.21875 -2.6875 C 6.726562 -2.6875 7.144531 -2.875 7.46875 -3.25 C 7.800781 -3.625 7.96875 -4.117188 7.96875 -4.734375 L 7.96875 -8.859375 C 7.96875 -10.128906 8.609375 -10.765625 9.890625 -10.765625 C 10.503906 -10.765625 10.972656 -10.597656 11.296875 -10.265625 C 11.628906 -9.941406 11.796875 -9.472656 11.796875 -8.859375 L 11.796875 -1.734375 C 11.796875 -0.453125 11.179688 0.1875 9.953125 0.1875 C 8.847656 0.1875 8.222656 -0.328125 8.078125 -1.359375 C 7.390625 -0.296875 6.390625 0.234375 5.078125 0.234375 Z M 5.078125 0.234375 "/></g></g></g><g fill="#000000" fill-opacity="1"><g transform="translate(79.974586, 87.620215)"><g><path d="M 5.328125 0.234375 C 4.679688 0.234375 4.035156 0.179688 3.390625 0.078125 C 2.742188 -0.015625 2.160156 -0.175781 1.640625 -0.40625 C 1.191406 -0.582031 0.898438 -0.832031 0.765625 -1.15625 C 0.628906 -1.488281 0.613281 -1.816406 0.71875 -2.140625 C 0.820312 -2.472656 1.015625 -2.722656 1.296875 -2.890625 C 1.585938 -3.066406 1.9375 -3.085938 2.34375 -2.953125 C 2.925781 -2.734375 3.460938 -2.578125 3.953125 -2.484375 C 4.441406 -2.390625 4.910156 -2.34375 5.359375 -2.34375 C 5.890625 -2.34375 6.269531 -2.414062 6.5 -2.5625 C 6.726562 -2.71875 6.84375 -2.914062 6.84375 -3.15625 C 6.84375 -3.375 6.765625 -3.535156 6.609375 -3.640625 C 6.460938 -3.753906 6.253906 -3.835938 5.984375 -3.890625 L 3.59375 -4.28125 C 2.695312 -4.425781 2.003906 -4.75 1.515625 -5.25 C 1.035156 -5.75 0.796875 -6.398438 0.796875 -7.203125 C 0.796875 -7.953125 1.003906 -8.59375 1.421875 -9.125 C 1.835938 -9.664062 2.414062 -10.082031 3.15625 -10.375 C 3.90625 -10.664062 4.757812 -10.8125 5.71875 -10.8125 C 6.363281 -10.8125 6.953125 -10.757812 7.484375 -10.65625 C 8.015625 -10.5625 8.53125 -10.398438 9.03125 -10.171875 C 9.414062 -10.015625 9.660156 -9.769531 9.765625 -9.4375 C 9.878906 -9.101562 9.875 -8.773438 9.75 -8.453125 C 9.625 -8.128906 9.414062 -7.882812 9.125 -7.71875 C 8.832031 -7.5625 8.476562 -7.5625 8.0625 -7.71875 C 7.59375 -7.90625 7.171875 -8.039062 6.796875 -8.125 C 6.429688 -8.207031 6.09375 -8.25 5.78125 -8.25 C 5.195312 -8.25 4.78125 -8.164062 4.53125 -8 C 4.289062 -7.84375 4.171875 -7.648438 4.171875 -7.421875 C 4.171875 -7.035156 4.4375 -6.796875 4.96875 -6.703125 L 7.359375 -6.296875 C 8.273438 -6.148438 8.976562 -5.835938 9.46875 -5.359375 C 9.96875 -4.878906 10.21875 -4.234375 10.21875 -3.421875 C 10.21875 -2.253906 9.769531 -1.351562 8.875 -0.71875 C 7.988281 -0.0820312 6.804688 0.234375 5.328125 0.234375 Z M 5.328125 0.234375 "/></g></g></g><g fill="#000000" fill-opacity="1"><g transform="translate(90.637415, 87.620215)"><g><path d="M 6.671875 0.234375 C 5.054688 0.234375 3.863281 -0.132812 3.09375 -0.875 C 2.320312 -1.625 1.9375 -2.75 1.9375 -4.25 L 1.9375 -7.765625 L 1.203125 -7.765625 C 0.242188 -7.765625 -0.234375 -8.238281 -0.234375 -9.1875 C -0.234375 -10.113281 0.242188 -10.578125 1.203125 -10.578125 L 1.9375 -10.578125 L 1.9375 -11.90625 C 1.9375 -12.539062 2.097656 -13.019531 2.421875 -13.34375 C 2.753906 -13.675781 3.226562 -13.84375 3.84375 -13.84375 C 5.125 -13.84375 5.765625 -13.195312 5.765625 -11.90625 L 5.765625 -10.578125 L 7.53125 -10.578125 C 8.5 -10.578125 8.984375 -10.113281 8.984375 -9.1875 C 8.984375 -8.238281 8.5 -7.765625 7.53125 -7.765625 L 5.765625 -7.765625 L 5.765625 -4.390625 C 5.765625 -3.359375 6.285156 -2.84375 7.328125 -2.84375 C 7.523438 -2.84375 7.71875 -2.863281 7.90625 -2.90625 C 8.09375 -2.945312 8.265625 -2.96875 8.421875 -2.96875 C 8.648438 -2.976562 8.835938 -2.90625 8.984375 -2.75 C 9.128906 -2.601562 9.203125 -2.265625 9.203125 -1.734375 C 9.203125 -1.304688 9.132812 -0.945312 9 -0.65625 C 8.875 -0.363281 8.648438 -0.148438 8.328125 -0.015625 C 8.117188 0.0546875 7.84375 0.113281 7.5 0.15625 C 7.15625 0.207031 6.878906 0.234375 6.671875 0.234375 Z M 6.671875 0.234375 "/></g></g></g><g fill="#000000" fill-opacity="1"><g transform="translate(99.79541, 87.620215)"><g><path d="M 4.796875 0.234375 C 3.972656 0.234375 3.25 0.0820312 2.625 -0.21875 C 2.007812 -0.519531 1.523438 -0.929688 1.171875 -1.453125 C 0.816406 -1.972656 0.640625 -2.570312 0.640625 -3.25 C 0.640625 -4.007812 0.835938 -4.613281 1.234375 -5.0625 C 1.640625 -5.507812 2.285156 -5.832031 3.171875 -6.03125 C 4.066406 -6.226562 5.253906 -6.328125 6.734375 -6.328125 L 7.546875 -6.328125 L 7.546875 -6.625 C 7.546875 -7.132812 7.410156 -7.5 7.140625 -7.71875 C 6.878906 -7.9375 6.425781 -8.046875 5.78125 -8.046875 C 5.425781 -8.046875 5.035156 -8.003906 4.609375 -7.921875 C 4.191406 -7.835938 3.71875 -7.695312 3.1875 -7.5 C 2.707031 -7.332031 2.3125 -7.335938 2 -7.515625 C 1.6875 -7.703125 1.484375 -7.972656 1.390625 -8.328125 C 1.296875 -8.679688 1.328125 -9.03125 1.484375 -9.375 C 1.648438 -9.726562 1.972656 -9.992188 2.453125 -10.171875 C 3.140625 -10.410156 3.769531 -10.578125 4.34375 -10.671875 C 4.925781 -10.765625 5.460938 -10.8125 5.953125 -10.8125 C 7.710938 -10.8125 9.019531 -10.429688 9.875 -9.671875 C 10.726562 -8.910156 11.15625 -7.710938 11.15625 -6.078125 L 11.15625 -1.734375 C 11.15625 -0.453125 10.566406 0.1875 9.390625 0.1875 C 8.273438 0.1875 7.679688 -0.382812 7.609375 -1.53125 C 7.410156 -0.976562 7.066406 -0.546875 6.578125 -0.234375 C 6.085938 0.078125 5.492188 0.234375 4.796875 0.234375 Z M 5.65625 -2.25 C 6.1875 -2.25 6.632812 -2.421875 7 -2.765625 C 7.363281 -3.117188 7.546875 -3.570312 7.546875 -4.125 L 7.546875 -4.515625 L 6.734375 -4.515625 C 5.890625 -4.515625 5.269531 -4.425781 4.875 -4.25 C 4.476562 -4.070312 4.28125 -3.785156 4.28125 -3.390625 C 4.28125 -3.066406 4.394531 -2.796875 4.625 -2.578125 C 4.863281 -2.359375 5.207031 -2.25 5.65625 -2.25 Z M 5.65625 -2.25 "/></g></g></g><g fill="#000000" fill-opacity="1"><g transform="translate(112.006071, 87.620215)"><g><path d="M 8.078125 0.234375 C 7.378906 0.234375 6.738281 0.0820312 6.15625 -0.21875 C 5.570312 -0.519531 5.140625 -0.921875 4.859375 -1.421875 C 4.742188 -0.347656 4.128906 0.1875 3.015625 0.1875 C 1.753906 0.1875 1.125 -0.453125 1.125 -1.734375 L 1.125 -13.421875 C 1.125 -14.703125 1.753906 -15.34375 3.015625 -15.34375 C 3.628906 -15.34375 4.101562 -15.175781 4.4375 -14.84375 C 4.769531 -14.519531 4.9375 -14.046875 4.9375 -13.421875 L 4.9375 -9.3125 C 5.238281 -9.769531 5.671875 -10.132812 6.234375 -10.40625 C 6.804688 -10.675781 7.421875 -10.8125 8.078125 -10.8125 C 8.992188 -10.8125 9.800781 -10.585938 10.5 -10.140625 C 11.195312 -9.703125 11.738281 -9.070312 12.125 -8.25 C 12.507812 -7.425781 12.703125 -6.4375 12.703125 -5.28125 C 12.703125 -4.15625 12.503906 -3.175781 12.109375 -2.34375 C 11.722656 -1.507812 11.179688 -0.867188 10.484375 -0.421875 C 9.785156 0.015625 8.984375 0.234375 8.078125 0.234375 Z M 6.875 -2.578125 C 7.445312 -2.578125 7.921875 -2.789062 8.296875 -3.21875 C 8.671875 -3.65625 8.859375 -4.34375 8.859375 -5.28125 C 8.859375 -6.25 8.671875 -6.941406 8.296875 -7.359375 C 7.921875 -7.785156 7.445312 -8 6.875 -8 C 6.289062 -8 5.8125 -7.785156 5.4375 -7.359375 C 5.0625 -6.941406 4.875 -6.25 4.875 -5.28125 C 4.875 -4.34375 5.0625 -3.65625 5.4375 -3.21875 C 5.8125 -2.789062 6.289062 -2.578125 6.875 -2.578125 Z M 6.875 -2.578125 "/></g></g></g><g fill="#000000" fill-opacity="1"><g transform="translate(125.334613, 87.620215)"><g><path d="M 5.140625 0.234375 C 3.742188 0.234375 2.722656 -0.132812 2.078125 -0.875 C 1.441406 -1.613281 1.125 -2.726562 1.125 -4.21875 L 1.125 -13.421875 C 1.125 -14.703125 1.753906 -15.34375 3.015625 -15.34375 C 3.628906 -15.34375 4.101562 -15.175781 4.4375 -14.84375 C 4.769531 -14.519531 4.9375 -14.046875 4.9375 -13.421875 L 4.9375 -4.34375 C 4.9375 -3.8125 5.039062 -3.421875 5.25 -3.171875 C 5.457031 -2.929688 5.726562 -2.8125 6.0625 -2.8125 C 6.164062 -2.8125 6.269531 -2.820312 6.375 -2.84375 C 6.476562 -2.863281 6.597656 -2.882812 6.734375 -2.90625 C 6.984375 -2.90625 7.164062 -2.8125 7.28125 -2.625 C 7.394531 -2.4375 7.453125 -2.054688 7.453125 -1.484375 C 7.453125 -0.984375 7.351562 -0.609375 7.15625 -0.359375 C 6.957031 -0.109375 6.648438 0.0507812 6.234375 0.125 C 6.117188 0.15625 5.953125 0.179688 5.734375 0.203125 C 5.523438 0.222656 5.328125 0.234375 5.140625 0.234375 Z M 5.140625 0.234375 "/></g></g></g><g fill="#000000" fill-opacity="1"><g transform="translate(132.815792, 87.620215)"><g><path d="M 6.875 0.234375 C 5.582031 0.234375 4.46875 0.0078125 3.53125 -0.4375 C 2.59375 -0.894531 1.875 -1.535156 1.375 -2.359375 C 0.875 -3.191406 0.625 -4.175781 0.625 -5.3125 C 0.625 -6.382812 0.863281 -7.335938 1.34375 -8.171875 C 1.820312 -9.003906 2.476562 -9.648438 3.3125 -10.109375 C 4.15625 -10.578125 5.113281 -10.8125 6.1875 -10.8125 C 7.25 -10.8125 8.171875 -10.585938 8.953125 -10.140625 C 9.734375 -9.703125 10.332031 -9.070312 10.75 -8.25 C 11.175781 -7.425781 11.390625 -6.460938 11.390625 -5.359375 C 11.390625 -4.796875 11.0625 -4.515625 10.40625 -4.515625 L 4.28125 -4.515625 C 4.40625 -3.828125 4.691406 -3.332031 5.140625 -3.03125 C 5.585938 -2.726562 6.203125 -2.578125 6.984375 -2.578125 C 7.285156 -2.578125 7.644531 -2.613281 8.0625 -2.6875 C 8.476562 -2.757812 8.875 -2.875 9.25 -3.03125 C 9.707031 -3.207031 10.09375 -3.210938 10.40625 -3.046875 C 10.71875 -2.878906 10.925781 -2.625 11.03125 -2.28125 C 11.144531 -1.945312 11.132812 -1.601562 11 -1.25 C 10.863281 -0.90625 10.59375 -0.640625 10.1875 -0.453125 C 9.6875 -0.210938 9.148438 -0.0390625 8.578125 0.0625 C 8.015625 0.175781 7.445312 0.234375 6.875 0.234375 Z M 6.359375 -8.34375 C 5.785156 -8.34375 5.316406 -8.171875 4.953125 -7.828125 C 4.585938 -7.484375 4.351562 -6.984375 4.25 -6.328125 L 8.25 -6.328125 C 8.207031 -6.992188 8.023438 -7.492188 7.703125 -7.828125 C 7.378906 -8.171875 6.929688 -8.34375 6.359375 -8.34375 Z M 6.359375 -8.34375 "/></g></g></g><g fill="#000000" fill-opacity="1"><g transform="translate(31.15343, 105.773843)"><g><path d="M 2.984375 0.125 C 2.265625 0.125 1.664062 -0.0078125 1.1875 -0.28125 C 0.707031 -0.5625 0.359375 -0.929688 0.140625 -1.390625 L 1.09375 -2.546875 L 1.234375 -2.546875 C 1.390625 -2.171875 1.609375 -1.875 1.890625 -1.65625 C 2.179688 -1.445312 2.515625 -1.34375 2.890625 -1.34375 C 3.316406 -1.34375 3.628906 -1.460938 3.828125 -1.703125 C 4.035156 -1.953125 4.140625 -2.359375 4.140625 -2.921875 L 4.140625 -8.515625 L 5.828125 -8.515625 L 5.828125 -2.890625 C 5.828125 -1.859375 5.59375 -1.097656 5.125 -0.609375 C 4.65625 -0.117188 3.941406 0.125 2.984375 0.125 Z M 2.984375 0.125 "/></g></g></g><g fill="#000000" fill-opacity="1"><g transform="translate(38.032061, 105.773843)"><g><path d="M 2.5 0.125 C 2.09375 0.125 1.738281 0.0507812 1.4375 -0.09375 C 1.132812 -0.25 0.898438 -0.472656 0.734375 -0.765625 C 0.566406 -1.066406 0.484375 -1.421875 0.484375 -1.828125 C 0.484375 -2.210938 0.566406 -2.53125 0.734375 -2.78125 C 0.898438 -3.039062 1.148438 -3.253906 1.484375 -3.421875 C 1.828125 -3.585938 2.273438 -3.71875 2.828125 -3.8125 C 3.210938 -3.875 3.503906 -3.941406 3.703125 -4.015625 C 3.910156 -4.085938 4.046875 -4.171875 4.109375 -4.265625 C 4.179688 -4.359375 4.21875 -4.472656 4.21875 -4.609375 C 4.21875 -4.816406 4.144531 -4.972656 4 -5.078125 C 3.851562 -5.191406 3.613281 -5.25 3.28125 -5.25 C 2.925781 -5.25 2.585938 -5.171875 2.265625 -5.015625 C 1.941406 -4.859375 1.660156 -4.648438 1.421875 -4.390625 L 1.3125 -4.390625 L 0.640625 -5.40625 C 0.960938 -5.769531 1.359375 -6.050781 1.828125 -6.25 C 2.296875 -6.445312 2.8125 -6.546875 3.375 -6.546875 C 4.21875 -6.546875 4.828125 -6.363281 5.203125 -6 C 5.585938 -5.644531 5.78125 -5.132812 5.78125 -4.46875 L 5.78125 -1.671875 C 5.78125 -1.390625 5.910156 -1.25 6.171875 -1.25 C 6.265625 -1.25 6.359375 -1.265625 6.453125 -1.296875 L 6.53125 -1.28125 L 6.65625 -0.15625 C 6.5625 -0.09375 6.429688 -0.0390625 6.265625 0 C 6.109375 0.03125 5.9375 0.046875 5.75 0.046875 C 5.363281 0.046875 5.0625 -0.0234375 4.84375 -0.171875 C 4.632812 -0.316406 4.484375 -0.550781 4.390625 -0.875 L 4.265625 -0.875 C 3.953125 -0.207031 3.363281 0.125 2.5 0.125 Z M 3.015625 -1.078125 C 3.390625 -1.078125 3.6875 -1.203125 3.90625 -1.453125 C 4.132812 -1.710938 4.25 -2.0625 4.25 -2.5 L 4.25 -3.15625 L 4.140625 -3.1875 C 4.046875 -3.101562 3.914062 -3.035156 3.75 -2.984375 C 3.59375 -2.929688 3.367188 -2.878906 3.078125 -2.828125 C 2.722656 -2.773438 2.46875 -2.675781 2.3125 -2.53125 C 2.164062 -2.382812 2.09375 -2.179688 2.09375 -1.921875 C 2.09375 -1.648438 2.171875 -1.441406 2.328125 -1.296875 C 2.492188 -1.148438 2.722656 -1.078125 3.015625 -1.078125 Z M 3.015625 -1.078125 "/></g></g></g><g fill="#000000" fill-opacity="1"><g transform="translate(44.8116, 105.773843)"><g><path d="M 3.171875 0.125 C 2.660156 0.125 2.207031 0 1.8125 -0.25 C 1.425781 -0.5 1.125 -0.867188 0.90625 -1.359375 C 0.6875 -1.859375 0.578125 -2.476562 0.578125 -3.21875 C 0.578125 -3.945312 0.691406 -4.5625 0.921875 -5.0625 C 1.148438 -5.5625 1.460938 -5.929688 1.859375 -6.171875 C 2.265625 -6.421875 2.734375 -6.546875 3.265625 -6.546875 C 3.660156 -6.546875 4.003906 -6.476562 4.296875 -6.34375 C 4.585938 -6.207031 4.835938 -5.992188 5.046875 -5.703125 L 5.171875 -5.734375 L 5.171875 -9.015625 L 6.78125 -9.015625 L 6.78125 0 L 5.171875 0 L 5.171875 -0.828125 L 5.046875 -0.859375 C 4.867188 -0.554688 4.625 -0.316406 4.3125 -0.140625 C 4 0.0351562 3.617188 0.125 3.171875 0.125 Z M 3.703125 -1.25 C 4.160156 -1.25 4.519531 -1.410156 4.78125 -1.734375 C 5.039062 -2.054688 5.171875 -2.550781 5.171875 -3.21875 C 5.171875 -3.875 5.039062 -4.363281 4.78125 -4.6875 C 4.519531 -5.019531 4.160156 -5.1875 3.703125 -5.1875 C 3.222656 -5.1875 2.859375 -5.023438 2.609375 -4.703125 C 2.359375 -4.390625 2.234375 -3.894531 2.234375 -3.21875 C 2.234375 -2.539062 2.359375 -2.039062 2.609375 -1.71875 C 2.859375 -1.40625 3.222656 -1.25 3.703125 -1.25 Z M 3.703125 -1.25 "/></g></g></g><g fill="#000000" fill-opacity="1"><g transform="translate(52.517999, 105.773843)"><g><path d="M 3.453125 0 L 1.765625 0 L 0.234375 -6.421875 L 1.734375 -6.421875 L 2.671875 -2.078125 L 2.796875 -2.078125 L 4.015625 -6.421875 L 5.421875 -6.421875 L 6.6875 -2.078125 L 6.8125 -2.078125 L 7.71875 -6.421875 L 9.171875 -6.421875 L 7.671875 0 L 5.96875 0 L 4.75 -4.375 L 4.625 -4.375 Z M 3.453125 0 "/></g></g></g><g fill="#000000" fill-opacity="1"><g transform="translate(61.920745, 105.773843)"><g><path d="M 2.5 0.125 C 2.09375 0.125 1.738281 0.0507812 1.4375 -0.09375 C 1.132812 -0.25 0.898438 -0.472656 0.734375 -0.765625 C 0.566406 -1.066406 0.484375 -1.421875 0.484375 -1.828125 C 0.484375 -2.210938 0.566406 -2.53125 0.734375 -2.78125 C 0.898438 -3.039062 1.148438 -3.253906 1.484375 -3.421875 C 1.828125 -3.585938 2.273438 -3.71875 2.828125 -3.8125 C 3.210938 -3.875 3.503906 -3.941406 3.703125 -4.015625 C 3.910156 -4.085938 4.046875 -4.171875 4.109375 -4.265625 C 4.179688 -4.359375 4.21875 -4.472656 4.21875 -4.609375 C 4.21875 -4.816406 4.144531 -4.972656 4 -5.078125 C 3.851562 -5.191406 3.613281 -5.25 3.28125 -5.25 C 2.925781 -5.25 2.585938 -5.171875 2.265625 -5.015625 C 1.941406 -4.859375 1.660156 -4.648438 1.421875 -4.390625 L 1.3125 -4.390625 L 0.640625 -5.40625 C 0.960938 -5.769531 1.359375 -6.050781 1.828125 -6.25 C 2.296875 -6.445312 2.8125 -6.546875 3.375 -6.546875 C 4.21875 -6.546875 4.828125 -6.363281 5.203125 -6 C 5.585938 -5.644531 5.78125 -5.132812 5.78125 -4.46875 L 5.78125 -1.671875 C 5.78125 -1.390625 5.910156 -1.25 6.171875 -1.25 C 6.265625 -1.25 6.359375 -1.265625 6.453125 -1.296875 L 6.53125 -1.28125 L 6.65625 -0.15625 C 6.5625 -0.09375 6.429688 -0.0390625 6.265625 0 C 6.109375 0.03125 5.9375 0.046875 5.75 0.046875 C 5.363281 0.046875 5.0625 -0.0234375 4.84375 -0.171875 C 4.632812 -0.316406 4.484375 -0.550781 4.390625 -0.875 L 4.265625 -0.875 C 3.953125 -0.207031 3.363281 0.125 2.5 0.125 Z M 3.015625 -1.078125 C 3.390625 -1.078125 3.6875 -1.203125 3.90625 -1.453125 C 4.132812 -1.710938 4.25 -2.0625 4.25 -2.5 L 4.25 -3.15625 L 4.140625 -3.1875 C 4.046875 -3.101562 3.914062 -3.035156 3.75 -2.984375 C 3.59375 -2.929688 3.367188 -2.878906 3.078125 -2.828125 C 2.722656 -2.773438 2.46875 -2.675781 2.3125 -2.53125 C 2.164062 -2.382812 2.09375 -2.179688 2.09375 -1.921875 C 2.09375 -1.648438 2.171875 -1.441406 2.328125 -1.296875 C 2.492188 -1.148438 2.722656 -1.078125 3.015625 -1.078125 Z M 3.015625 -1.078125 "/></g></g></g><g fill="#000000" fill-opacity="1"><g transform="translate(68.700284, 105.773843)"><g><path d="M 2.671875 0.125 C 2.085938 0.125 1.644531 -0.03125 1.34375 -0.34375 C 1.039062 -0.65625 0.890625 -1.128906 0.890625 -1.765625 L 0.890625 -9.015625 L 2.5 -9.015625 L 2.5 -1.84375 C 2.5 -1.445312 2.660156 -1.25 2.984375 -1.25 C 3.078125 -1.25 3.175781 -1.265625 3.28125 -1.296875 L 3.375 -1.265625 L 3.515625 -0.03125 C 3.421875 0.0195312 3.300781 0.0546875 3.15625 0.078125 C 3.007812 0.109375 2.847656 0.125 2.671875 0.125 Z M 2.671875 0.125 "/></g></g></g><g fill="#000000" fill-opacity="1"><g transform="translate(72.396091, 105.773843)"><g/></g></g><g fill="#000000" fill-opacity="1"><g transform="translate(75.211673, 105.773843)"><g><path d="M 3.171875 0.125 C 2.660156 0.125 2.207031 0 1.8125 -0.25 C 1.425781 -0.5 1.125 -0.867188 0.90625 -1.359375 C 0.6875 -1.859375 0.578125 -2.476562 0.578125 -3.21875 C 0.578125 -3.945312 0.691406 -4.5625 0.921875 -5.0625 C 1.148438 -5.5625 1.460938 -5.929688 1.859375 -6.171875 C 2.265625 -6.421875 2.734375 -6.546875 3.265625 -6.546875 C 3.660156 -6.546875 4.003906 -6.476562 4.296875 -6.34375 C 4.585938 -6.207031 4.835938 -5.992188 5.046875 -5.703125 L 5.171875 -5.734375 L 5.171875 -9.015625 L 6.78125 -9.015625 L 6.78125 0 L 5.171875 0 L 5.171875 -0.828125 L 5.046875 -0.859375 C 4.867188 -0.554688 4.625 -0.316406 4.3125 -0.140625 C 4 0.0351562 3.617188 0.125 3.171875 0.125 Z M 3.703125 -1.25 C 4.160156 -1.25 4.519531 -1.410156 4.78125 -1.734375 C 5.039062 -2.054688 5.171875 -2.550781 5.171875 -3.21875 C 5.171875 -3.875 5.039062 -4.363281 4.78125 -4.6875 C 4.519531 -5.019531 4.160156 -5.1875 3.703125 -5.1875 C 3.222656 -5.1875 2.859375 -5.023438 2.609375 -4.703125 C 2.359375 -4.390625 2.234375 -3.894531 2.234375 -3.21875 C 2.234375 -2.539062 2.359375 -2.039062 2.609375 -1.71875 C 2.859375 -1.40625 3.222656 -1.25 3.703125 -1.25 Z M 3.703125 -1.25 "/></g></g></g><g fill="#000000" fill-opacity="1"><g transform="translate(82.918072, 105.773843)"><g><path d="M 2.5 0.125 C 2.09375 0.125 1.738281 0.0507812 1.4375 -0.09375 C 1.132812 -0.25 0.898438 -0.472656 0.734375 -0.765625 C 0.566406 -1.066406 0.484375 -1.421875 0.484375 -1.828125 C 0.484375 -2.210938 0.566406 -2.53125 0.734375 -2.78125 C 0.898438 -3.039062 1.148438 -3.253906 1.484375 -3.421875 C 1.828125 -3.585938 2.273438 -3.71875 2.828125 -3.8125 C 3.210938 -3.875 3.503906 -3.941406 3.703125 -4.015625 C 3.910156 -4.085938 4.046875 -4.171875 4.109375 -4.265625 C 4.179688 -4.359375 4.21875 -4.472656 4.21875 -4.609375 C 4.21875 -4.816406 4.144531 -4.972656 4 -5.078125 C 3.851562 -5.191406 3.613281 -5.25 3.28125 -5.25 C 2.925781 -5.25 2.585938 -5.171875 2.265625 -5.015625 C 1.941406 -4.859375 1.660156 -4.648438 1.421875 -4.390625 L 1.3125 -4.390625 L 0.640625 -5.40625 C 0.960938 -5.769531 1.359375 -6.050781 1.828125 -6.25 C 2.296875 -6.445312 2.8125 -6.546875 3.375 -6.546875 C 4.21875 -6.546875 4.828125 -6.363281 5.203125 -6 C 5.585938 -5.644531 5.78125 -5.132812 5.78125 -4.46875 L 5.78125 -1.671875 C 5.78125 -1.390625 5.910156 -1.25 6.171875 -1.25 C 6.265625 -1.25 6.359375 -1.265625 6.453125 -1.296875 L 6.53125 -1.28125 L 6.65625 -0.15625 C 6.5625 -0.09375 6.429688 -0.0390625 6.265625 0 C 6.109375 0.03125 5.9375 0.046875 5.75 0.046875 C 5.363281 0.046875 5.0625 -0.0234375 4.84375 -0.171875 C 4.632812 -0.316406 4.484375 -0.550781 4.390625 -0.875 L 4.265625 -0.875 C 3.953125 -0.207031 3.363281 0.125 2.5 0.125 Z M 3.015625 -1.078125 C 3.390625 -1.078125 3.6875 -1.203125 3.90625 -1.453125 C 4.132812 -1.710938 4.25 -2.0625 4.25 -2.5 L 4.25 -3.15625 L 4.140625 -3.1875 C 4.046875 -3.101562 3.914062 -3.035156 3.75 -2.984375 C 3.59375 -2.929688 3.367188 -2.878906 3.078125 -2.828125 C 2.722656 -2.773438 2.46875 -2.675781 2.3125 -2.53125 C 2.164062 -2.382812 2.09375 -2.179688 2.09375 -1.921875 C 2.09375 -1.648438 2.171875 -1.441406 2.328125 -1.296875 C 2.492188 -1.148438 2.722656 -1.078125 3.015625 -1.078125 Z M 3.015625 -1.078125 "/></g></g></g><g fill="#000000" fill-opacity="1"><g transform="translate(89.697611, 105.773843)"><g><path d="M 0.921875 0 L 0.921875 -6.421875 L 2.484375 -6.421875 L 2.484375 -5.484375 L 2.59375 -5.453125 C 3 -6.179688 3.648438 -6.546875 4.546875 -6.546875 C 5.285156 -6.546875 5.828125 -6.34375 6.171875 -5.9375 C 6.523438 -5.539062 6.703125 -4.953125 6.703125 -4.171875 L 6.703125 0 L 5.09375 0 L 5.09375 -3.984375 C 5.09375 -4.410156 5.003906 -4.71875 4.828125 -4.90625 C 4.660156 -5.09375 4.390625 -5.1875 4.015625 -5.1875 C 3.546875 -5.1875 3.179688 -5.035156 2.921875 -4.734375 C 2.671875 -4.441406 2.546875 -3.972656 2.546875 -3.328125 L 2.546875 0 Z M 0.921875 0 "/></g></g></g><g fill="#000000" fill-opacity="1"><g transform="translate(97.22913, 105.773843)"><g/></g></g><g fill="#000000" fill-opacity="1"><g transform="translate(100.044712, 105.773843)"><g><path d="M 3.328125 2.734375 C 2.273438 2.734375 1.492188 2.578125 0.984375 2.265625 C 0.484375 1.953125 0.234375 1.519531 0.234375 0.96875 C 0.234375 0.625 0.335938 0.34375 0.546875 0.125 C 0.765625 -0.0820312 1.078125 -0.222656 1.484375 -0.296875 L 1.484375 -0.421875 C 1.265625 -0.554688 1.109375 -0.703125 1.015625 -0.859375 C 0.921875 -1.023438 0.875 -1.210938 0.875 -1.421875 C 0.875 -1.941406 1.207031 -2.289062 1.875 -2.46875 L 1.875 -2.59375 C 1.53125 -2.789062 1.269531 -3.035156 1.09375 -3.328125 C 0.914062 -3.617188 0.828125 -3.972656 0.828125 -4.390625 C 0.828125 -4.816406 0.925781 -5.191406 1.125 -5.515625 C 1.320312 -5.847656 1.609375 -6.101562 1.984375 -6.28125 C 2.367188 -6.457031 2.828125 -6.546875 3.359375 -6.546875 C 3.890625 -6.546875 4.316406 -6.453125 4.640625 -6.265625 C 4.835938 -6.554688 4.953125 -6.890625 4.984375 -7.265625 L 5.09375 -7.34375 L 6.265625 -7.0625 C 6.222656 -6.75 6.128906 -6.488281 5.984375 -6.28125 C 5.847656 -6.070312 5.628906 -5.890625 5.328125 -5.734375 L 5.328125 -5.59375 C 5.679688 -5.28125 5.859375 -4.835938 5.859375 -4.265625 C 5.859375 -3.867188 5.757812 -3.515625 5.5625 -3.203125 C 5.363281 -2.890625 5.070312 -2.640625 4.6875 -2.453125 C 4.3125 -2.273438 3.867188 -2.1875 3.359375 -2.1875 L 3.109375 -2.1875 C 2.953125 -2.195312 2.84375 -2.203125 2.78125 -2.203125 C 2.632812 -2.203125 2.519531 -2.160156 2.4375 -2.078125 C 2.351562 -1.992188 2.3125 -1.890625 2.3125 -1.765625 C 2.3125 -1.628906 2.363281 -1.523438 2.46875 -1.453125 C 2.582031 -1.378906 2.742188 -1.335938 2.953125 -1.328125 L 4.390625 -1.28125 C 5.804688 -1.238281 6.515625 -0.625 6.515625 0.5625 C 6.515625 0.976562 6.410156 1.347656 6.203125 1.671875 C 5.992188 1.992188 5.648438 2.25 5.171875 2.4375 C 4.703125 2.632812 4.085938 2.734375 3.328125 2.734375 Z M 3.359375 -3.3125 C 3.660156 -3.3125 3.898438 -3.398438 4.078125 -3.578125 C 4.253906 -3.765625 4.34375 -4.023438 4.34375 -4.359375 C 4.34375 -4.703125 4.253906 -4.960938 4.078125 -5.140625 C 3.898438 -5.328125 3.660156 -5.421875 3.359375 -5.421875 C 3.035156 -5.421875 2.785156 -5.328125 2.609375 -5.140625 C 2.441406 -4.960938 2.359375 -4.703125 2.359375 -4.359375 C 2.359375 -4.023438 2.441406 -3.765625 2.609375 -3.578125 C 2.785156 -3.398438 3.035156 -3.3125 3.359375 -3.3125 Z M 3.328125 1.5625 C 3.878906 1.5625 4.28125 1.484375 4.53125 1.328125 C 4.78125 1.171875 4.90625 0.96875 4.90625 0.71875 C 4.90625 0.507812 4.84375 0.359375 4.71875 0.265625 C 4.59375 0.171875 4.390625 0.117188 4.109375 0.109375 L 2.84375 0.0625 C 2.800781 0.0625 2.757812 0.0546875 2.71875 0.046875 C 2.675781 0.046875 2.640625 0.046875 2.609375 0.046875 C 2.335938 0.046875 2.128906 0.101562 1.984375 0.21875 C 1.847656 0.332031 1.78125 0.492188 1.78125 0.703125 C 1.78125 0.972656 1.910156 1.179688 2.171875 1.328125 C 2.429688 1.484375 2.816406 1.5625 3.328125 1.5625 Z M 3.328125 1.5625 "/></g></g></g><g fill="#000000" fill-opacity="1"><g transform="translate(106.730981, 105.773843)"><g><path d="M 2.9375 0.125 C 2.21875 0.125 1.6875 -0.0703125 1.34375 -0.46875 C 1 -0.863281 0.828125 -1.429688 0.828125 -2.171875 L 0.828125 -6.421875 L 2.4375 -6.421875 L 2.4375 -2.375 C 2.4375 -1.976562 2.519531 -1.6875 2.6875 -1.5 C 2.863281 -1.320312 3.128906 -1.234375 3.484375 -1.234375 C 3.929688 -1.234375 4.273438 -1.378906 4.515625 -1.671875 C 4.765625 -1.972656 4.890625 -2.4375 4.890625 -3.0625 L 4.890625 -6.421875 L 6.515625 -6.421875 L 6.515625 0 L 4.953125 0 L 4.953125 -0.9375 L 4.84375 -0.96875 C 4.632812 -0.601562 4.378906 -0.328125 4.078125 -0.140625 C 3.785156 0.0351562 3.40625 0.125 2.9375 0.125 Z M 2.9375 0.125 "/></g></g></g><g fill="#000000" fill-opacity="1"><g transform="translate(114.16923, 105.773843)"><g><path d="M 0.921875 0 L 0.921875 -6.421875 L 2.5 -6.421875 L 2.5 -5.46875 L 2.609375 -5.453125 C 2.765625 -5.804688 2.96875 -6.066406 3.21875 -6.234375 C 3.476562 -6.398438 3.789062 -6.484375 4.15625 -6.484375 C 4.519531 -6.484375 4.796875 -6.421875 4.984375 -6.296875 L 4.703125 -4.90625 L 4.59375 -4.890625 C 4.488281 -4.929688 4.382812 -4.957031 4.28125 -4.96875 C 4.1875 -4.988281 4.066406 -5 3.921875 -5 C 3.472656 -5 3.128906 -4.84375 2.890625 -4.53125 C 2.660156 -4.21875 2.546875 -3.707031 2.546875 -3 L 2.546875 0 Z M 0.921875 0 "/></g></g></g><g fill="#000000" fill-opacity="1"><g transform="translate(119.211623, 105.773843)"><g><path d="M 2.9375 0.125 C 2.21875 0.125 1.6875 -0.0703125 1.34375 -0.46875 C 1 -0.863281 0.828125 -1.429688 0.828125 -2.171875 L 0.828125 -6.421875 L 2.4375 -6.421875 L 2.4375 -2.375 C 2.4375 -1.976562 2.519531 -1.6875 2.6875 -1.5 C 2.863281 -1.320312 3.128906 -1.234375 3.484375 -1.234375 C 3.929688 -1.234375 4.273438 -1.378906 4.515625 -1.671875 C 4.765625 -1.972656 4.890625 -2.4375 4.890625 -3.0625 L 4.890625 -6.421875 L 6.515625 -6.421875 L 6.515625 0 L 4.953125 0 L 4.953125 -0.9375 L 4.84375 -0.96875 C 4.632812 -0.601562 4.378906 -0.328125 4.078125 -0.140625 C 3.785156 0.0351562 3.40625 0.125 2.9375 0.125 Z M 2.9375 0.125 "/></g></g></g><g fill="#000000" fill-opacity="1"><g transform="translate(126.649872, 105.773843)"><g/></g></g><g fill="#000000" fill-opacity="1"><g transform="translate(129.465454, 105.773843)"><g><path d="M 3.171875 0.125 C 2.660156 0.125 2.207031 0 1.8125 -0.25 C 1.425781 -0.5 1.125 -0.867188 0.90625 -1.359375 C 0.6875 -1.859375 0.578125 -2.476562 0.578125 -3.21875 C 0.578125 -3.945312 0.691406 -4.5625 0.921875 -5.0625 C 1.148438 -5.5625 1.460938 -5.929688 1.859375 -6.171875 C 2.265625 -6.421875 2.734375 -6.546875 3.265625 -6.546875 C 3.660156 -6.546875 4.003906 -6.476562 4.296875 -6.34375 C 4.585938 -6.207031 4.835938 -5.992188 5.046875 -5.703125 L 5.171875 -5.734375 L 5.171875 -9.015625 L 6.78125 -9.015625 L 6.78125 0 L 5.171875 0 L 5.171875 -0.828125 L 5.046875 -0.859375 C 4.867188 -0.554688 4.625 -0.316406 4.3125 -0.140625 C 4 0.0351562 3.617188 0.125 3.171875 0.125 Z M 3.703125 -1.25 C 4.160156 -1.25 4.519531 -1.410156 4.78125 -1.734375 C 5.039062 -2.054688 5.171875 -2.550781 5.171875 -3.21875 C 5.171875 -3.875 5.039062 -4.363281 4.78125 -4.6875 C 4.519531 -5.019531 4.160156 -5.1875 3.703125 -5.1875 C 3.222656 -5.1875 2.859375 -5.023438 2.609375 -4.703125 C 2.359375 -4.390625 2.234375 -3.894531 2.234375 -3.21875 C 2.234375 -2.539062 2.359375 -2.039062 2.609375 -1.71875 C 2.859375 -1.40625 3.222656 -1.25 3.703125 -1.25 Z M 3.703125 -1.25 "/></g></g></g><g fill="#000000" fill-opacity="1"><g transform="translate(137.171853, 105.773843)"><g><path d="M 2.5 0.125 C 2.09375 0.125 1.738281 0.0507812 1.4375 -0.09375 C 1.132812 -0.25 0.898438 -0.472656 0.734375 -0.765625 C 0.566406 -1.066406 0.484375 -1.421875 0.484375 -1.828125 C 0.484375 -2.210938 0.566406 -2.53125 0.734375 -2.78125 C 0.898438 -3.039062 1.148438 -3.253906 1.484375 -3.421875 C 1.828125 -3.585938 2.273438 -3.71875 2.828125 -3.8125 C 3.210938 -3.875 3.503906 -3.941406 3.703125 -4.015625 C 3.910156 -4.085938 4.046875 -4.171875 4.109375 -4.265625 C 4.179688 -4.359375 4.21875 -4.472656 4.21875 -4.609375 C 4.21875 -4.816406 4.144531 -4.972656 4 -5.078125 C 3.851562 -5.191406 3.613281 -5.25 3.28125 -5.25 C 2.925781 -5.25 2.585938 -5.171875 2.265625 -5.015625 C 1.941406 -4.859375 1.660156 -4.648438 1.421875 -4.390625 L 1.3125 -4.390625 L 0.640625 -5.40625 C 0.960938 -5.769531 1.359375 -6.050781 1.828125 -6.25 C 2.296875 -6.445312 2.8125 -6.546875 3.375 -6.546875 C 4.21875 -6.546875 4.828125 -6.363281 5.203125 -6 C 5.585938 -5.644531 5.78125 -5.132812 5.78125 -4.46875 L 5.78125 -1.671875 C 5.78125 -1.390625 5.910156 -1.25 6.171875 -1.25 C 6.265625 -1.25 6.359375 -1.265625 6.453125 -1.296875 L 6.53125 -1.28125 L 6.65625 -0.15625 C 6.5625 -0.09375 6.429688 -0.0390625 6.265625 0 C 6.109375 0.03125 5.9375 0.046875 5.75 0.046875 C 5.363281 0.046875 5.0625 -0.0234375 4.84375 -0.171875 C 4.632812 -0.316406 4.484375 -0.550781 4.390625 -0.875 L 4.265625 -0.875 C 3.953125 -0.207031 3.363281 0.125 2.5 0.125 Z M 3.015625 -1.078125 C 3.390625 -1.078125 3.6875 -1.203125 3.90625 -1.453125 C 4.132812 -1.710938 4.25 -2.0625 4.25 -2.5 L 4.25 -3.15625 L 4.140625 -3.1875 C 4.046875 -3.101562 3.914062 -3.035156 3.75 -2.984375 C 3.59375 -2.929688 3.367188 -2.878906 3.078125 -2.828125 C 2.722656 -2.773438 2.46875 -2.675781 2.3125 -2.53125 C 2.164062 -2.382812 2.09375 -2.179688 2.09375 -1.921875 C 2.09375 -1.648438 2.171875 -1.441406 2.328125 -1.296875 C 2.492188 -1.148438 2.722656 -1.078125 3.015625 -1.078125 Z M 3.015625 -1.078125 "/></g></g></g><g fill="#000000" fill-opacity="1"><g transform="translate(143.951392, 105.773843)"><g><path d="M 0.921875 2.609375 L 0.921875 -6.421875 L 2.546875 -6.421875 L 2.546875 -5.59375 L 2.65625 -5.5625 C 2.851562 -5.894531 3.109375 -6.140625 3.421875 -6.296875 C 3.742188 -6.460938 4.117188 -6.546875 4.546875 -6.546875 C 5.066406 -6.546875 5.519531 -6.421875 5.90625 -6.171875 C 6.289062 -5.929688 6.585938 -5.5625 6.796875 -5.0625 C 7.015625 -4.5625 7.125 -3.945312 7.125 -3.21875 C 7.125 -2.476562 7.007812 -1.859375 6.78125 -1.359375 C 6.5625 -0.867188 6.25 -0.5 5.84375 -0.25 C 5.4375 0 4.96875 0.125 4.4375 0.125 C 4.039062 0.125 3.695312 0.0546875 3.40625 -0.078125 C 3.113281 -0.210938 2.863281 -0.421875 2.65625 -0.703125 L 2.546875 -0.6875 L 2.546875 2.609375 Z M 4 -1.25 C 4.476562 -1.25 4.84375 -1.40625 5.09375 -1.71875 C 5.34375 -2.03125 5.46875 -2.53125 5.46875 -3.21875 C 5.46875 -3.894531 5.34375 -4.390625 5.09375 -4.703125 C 4.84375 -5.023438 4.476562 -5.1875 4 -5.1875 C 3.539062 -5.1875 3.179688 -5.019531 2.921875 -4.6875 C 2.660156 -4.363281 2.53125 -3.875 2.53125 -3.21875 C 2.53125 -2.5625 2.660156 -2.066406 2.921875 -1.734375 C 3.179688 -1.410156 3.539062 -1.25 4 -1.25 Z M 4 -1.25 "/></g></g></g><g fill="#000000" fill-opacity="1"><g transform="translate(151.651968, 105.773843)"><g><path d="M 2.5 0.125 C 2.09375 0.125 1.738281 0.0507812 1.4375 -0.09375 C 1.132812 -0.25 0.898438 -0.472656 0.734375 -0.765625 C 0.566406 -1.066406 0.484375 -1.421875 0.484375 -1.828125 C 0.484375 -2.210938 0.566406 -2.53125 0.734375 -2.78125 C 0.898438 -3.039062 1.148438 -3.253906 1.484375 -3.421875 C 1.828125 -3.585938 2.273438 -3.71875 2.828125 -3.8125 C 3.210938 -3.875 3.503906 -3.941406 3.703125 -4.015625 C 3.910156 -4.085938 4.046875 -4.171875 4.109375 -4.265625 C 4.179688 -4.359375 4.21875 -4.472656 4.21875 -4.609375 C 4.21875 -4.816406 4.144531 -4.972656 4 -5.078125 C 3.851562 -5.191406 3.613281 -5.25 3.28125 -5.25 C 2.925781 -5.25 2.585938 -5.171875 2.265625 -5.015625 C 1.941406 -4.859375 1.660156 -4.648438 1.421875 -4.390625 L 1.3125 -4.390625 L 0.640625 -5.40625 C 0.960938 -5.769531 1.359375 -6.050781 1.828125 -6.25 C 2.296875 -6.445312 2.8125 -6.546875 3.375 -6.546875 C 4.21875 -6.546875 4.828125 -6.363281 5.203125 -6 C 5.585938 -5.644531 5.78125 -5.132812 5.78125 -4.46875 L 5.78125 -1.671875 C 5.78125 -1.390625 5.910156 -1.25 6.171875 -1.25 C 6.265625 -1.25 6.359375 -1.265625 6.453125 -1.296875 L 6.53125 -1.28125 L 6.65625 -0.15625 C 6.5625 -0.09375 6.429688 -0.0390625 6.265625 0 C 6.109375 0.03125 5.9375 0.046875 5.75 0.046875 C 5.363281 0.046875 5.0625 -0.0234375 4.84375 -0.171875 C 4.632812 -0.316406 4.484375 -0.550781 4.390625 -0.875 L 4.265625 -0.875 C 3.953125 -0.207031 3.363281 0.125 2.5 0.125 Z M 3.015625 -1.078125 C 3.390625 -1.078125 3.6875 -1.203125 3.90625 -1.453125 C 4.132812 -1.710938 4.25 -2.0625 4.25 -2.5 L 4.25 -3.15625 L 4.140625 -3.1875 C 4.046875 -3.101562 3.914062 -3.035156 3.75 -2.984375 C 3.59375 -2.929688 3.367188 -2.878906 3.078125 -2.828125 C 2.722656 -2.773438 2.46875 -2.675781 2.3125 -2.53125 C 2.164062 -2.382812 2.09375 -2.179688 2.09375 -1.921875 C 2.09375 -1.648438 2.171875 -1.441406 2.328125 -1.296875 C 2.492188 -1.148438 2.722656 -1.078125 3.015625 -1.078125 Z M 3.015625 -1.078125 "/></g></g></g><g fill="#000000" fill-opacity="1"><g transform="translate(158.431508, 105.773843)"><g><path d="M 4.4375 -1.53125 L 4.859375 -0.34375 C 4.679688 -0.195312 4.457031 -0.0820312 4.1875 0 C 3.925781 0.0820312 3.628906 0.125 3.296875 0.125 C 2.597656 0.125 2.066406 -0.0625 1.703125 -0.4375 C 1.347656 -0.820312 1.171875 -1.375 1.171875 -2.09375 L 1.171875 -5.15625 L 0.1875 -5.15625 L 0.1875 -6.4375 L 1.171875 -6.4375 L 1.171875 -7.6875 L 2.78125 -7.953125 L 2.78125 -6.4375 L 4.609375 -6.4375 L 4.609375 -5.15625 L 2.78125 -5.15625 L 2.78125 -2.21875 C 2.78125 -1.894531 2.847656 -1.660156 2.984375 -1.515625 C 3.117188 -1.367188 3.3125 -1.296875 3.5625 -1.296875 C 3.851562 -1.296875 4.101562 -1.375 4.3125 -1.53125 Z M 4.4375 -1.53125 "/></g></g></g><g fill="#000000" fill-opacity="1"><g transform="translate(31.15343, 121.897124)"><g><path d="M 3.171875 0.125 C 2.660156 0.125 2.207031 0 1.8125 -0.25 C 1.425781 -0.5 1.125 -0.867188 0.90625 -1.359375 C 0.6875 -1.859375 0.578125 -2.476562 0.578125 -3.21875 C 0.578125 -3.945312 0.691406 -4.5625 0.921875 -5.0625 C 1.148438 -5.5625 1.460938 -5.929688 1.859375 -6.171875 C 2.265625 -6.421875 2.734375 -6.546875 3.265625 -6.546875 C 3.660156 -6.546875 4.003906 -6.476562 4.296875 -6.34375 C 4.585938 -6.207031 4.835938 -5.992188 5.046875 -5.703125 L 5.171875 -5.734375 L 5.171875 -9.015625 L 6.78125 -9.015625 L 6.78125 0 L 5.171875 0 L 5.171875 -0.828125 L 5.046875 -0.859375 C 4.867188 -0.554688 4.625 -0.316406 4.3125 -0.140625 C 4 0.0351562 3.617188 0.125 3.171875 0.125 Z M 3.703125 -1.25 C 4.160156 -1.25 4.519531 -1.410156 4.78125 -1.734375 C 5.039062 -2.054688 5.171875 -2.550781 5.171875 -3.21875 C 5.171875 -3.875 5.039062 -4.363281 4.78125 -4.6875 C 4.519531 -5.019531 4.160156 -5.1875 3.703125 -5.1875 C 3.222656 -5.1875 2.859375 -5.023438 2.609375 -4.703125 C 2.359375 -4.390625 2.234375 -3.894531 2.234375 -3.21875 C 2.234375 -2.539062 2.359375 -2.039062 2.609375 -1.71875 C 2.859375 -1.40625 3.222656 -1.25 3.703125 -1.25 Z M 3.703125 -1.25 "/></g></g></g><g fill="#000000" fill-opacity="1"><g transform="translate(38.859829, 121.897124)"><g><path d="M 1.734375 -7.203125 C 1.441406 -7.203125 1.203125 -7.289062 1.015625 -7.46875 C 0.835938 -7.644531 0.75 -7.875 0.75 -8.15625 C 0.75 -8.425781 0.835938 -8.648438 1.015625 -8.828125 C 1.203125 -9.003906 1.441406 -9.09375 1.734375 -9.09375 C 1.921875 -9.09375 2.09375 -9.050781 2.25 -8.96875 C 2.40625 -8.882812 2.523438 -8.769531 2.609375 -8.625 C 2.691406 -8.488281 2.734375 -8.332031 2.734375 -8.15625 C 2.734375 -7.96875 2.691406 -7.800781 2.609375 -7.65625 C 2.523438 -7.507812 2.40625 -7.394531 2.25 -7.3125 C 2.09375 -7.238281 1.921875 -7.203125 1.734375 -7.203125 Z M 0.921875 0 L 0.921875 -6.421875 L 2.546875 -6.421875 L 2.546875 0 Z M 0.921875 0 "/></g></g></g><g fill="#000000" fill-opacity="1"><g transform="translate(42.322462, 121.897124)"><g><path d="M 2.9375 0.125 C 2.21875 0.125 1.6875 -0.0703125 1.34375 -0.46875 C 1 -0.863281 0.828125 -1.429688 0.828125 -2.171875 L 0.828125 -6.421875 L 2.4375 -6.421875 L 2.4375 -2.375 C 2.4375 -1.976562 2.519531 -1.6875 2.6875 -1.5 C 2.863281 -1.320312 3.128906 -1.234375 3.484375 -1.234375 C 3.929688 -1.234375 4.273438 -1.378906 4.515625 -1.671875 C 4.765625 -1.972656 4.890625 -2.4375 4.890625 -3.0625 L 4.890625 -6.421875 L 6.515625 -6.421875 L 6.515625 0 L 4.953125 0 L 4.953125 -0.9375 L 4.84375 -0.96875 C 4.632812 -0.601562 4.378906 -0.328125 4.078125 -0.140625 C 3.785156 0.0351562 3.40625 0.125 2.9375 0.125 Z M 2.9375 0.125 "/></g></g></g><g fill="#000000" fill-opacity="1"><g transform="translate(49.76071, 121.897124)"><g><path d="M 4.5 0.125 C 3.675781 0.125 3.0625 -0.179688 2.65625 -0.796875 L 2.546875 -0.78125 L 2.546875 0 L 0.921875 0 L 0.921875 -9.015625 L 2.546875 -9.015625 L 2.546875 -5.671875 L 2.65625 -5.640625 C 2.882812 -5.953125 3.148438 -6.179688 3.453125 -6.328125 C 3.753906 -6.472656 4.113281 -6.546875 4.53125 -6.546875 C 5.050781 -6.546875 5.503906 -6.421875 5.890625 -6.171875 C 6.273438 -5.929688 6.578125 -5.5625 6.796875 -5.0625 C 7.015625 -4.5625 7.125 -3.945312 7.125 -3.21875 C 7.125 -2.476562 7.007812 -1.859375 6.78125 -1.359375 C 6.5625 -0.867188 6.253906 -0.5 5.859375 -0.25 C 5.460938 0 5.007812 0.125 4.5 0.125 Z M 4 -1.25 C 4.476562 -1.25 4.84375 -1.40625 5.09375 -1.71875 C 5.34375 -2.039062 5.46875 -2.539062 5.46875 -3.21875 C 5.46875 -3.894531 5.34375 -4.390625 5.09375 -4.703125 C 4.84375 -5.023438 4.476562 -5.1875 4 -5.1875 C 3.550781 -5.1875 3.191406 -5.019531 2.921875 -4.6875 C 2.660156 -4.363281 2.53125 -3.875 2.53125 -3.21875 C 2.53125 -2.550781 2.660156 -2.054688 2.921875 -1.734375 C 3.191406 -1.410156 3.550781 -1.25 4 -1.25 Z M 4 -1.25 "/></g></g></g><g fill="#000000" fill-opacity="1"><g transform="translate(57.461287, 121.897124)"><g><path d="M 2.5 0.125 C 2.09375 0.125 1.738281 0.0507812 1.4375 -0.09375 C 1.132812 -0.25 0.898438 -0.472656 0.734375 -0.765625 C 0.566406 -1.066406 0.484375 -1.421875 0.484375 -1.828125 C 0.484375 -2.210938 0.566406 -2.53125 0.734375 -2.78125 C 0.898438 -3.039062 1.148438 -3.253906 1.484375 -3.421875 C 1.828125 -3.585938 2.273438 -3.71875 2.828125 -3.8125 C 3.210938 -3.875 3.503906 -3.941406 3.703125 -4.015625 C 3.910156 -4.085938 4.046875 -4.171875 4.109375 -4.265625 C 4.179688 -4.359375 4.21875 -4.472656 4.21875 -4.609375 C 4.21875 -4.816406 4.144531 -4.972656 4 -5.078125 C 3.851562 -5.191406 3.613281 -5.25 3.28125 -5.25 C 2.925781 -5.25 2.585938 -5.171875 2.265625 -5.015625 C 1.941406 -4.859375 1.660156 -4.648438 1.421875 -4.390625 L 1.3125 -4.390625 L 0.640625 -5.40625 C 0.960938 -5.769531 1.359375 -6.050781 1.828125 -6.25 C 2.296875 -6.445312 2.8125 -6.546875 3.375 -6.546875 C 4.21875 -6.546875 4.828125 -6.363281 5.203125 -6 C 5.585938 -5.644531 5.78125 -5.132812 5.78125 -4.46875 L 5.78125 -1.671875 C 5.78125 -1.390625 5.910156 -1.25 6.171875 -1.25 C 6.265625 -1.25 6.359375 -1.265625 6.453125 -1.296875 L 6.53125 -1.28125 L 6.65625 -0.15625 C 6.5625 -0.09375 6.429688 -0.0390625 6.265625 0 C 6.109375 0.03125 5.9375 0.046875 5.75 0.046875 C 5.363281 0.046875 5.0625 -0.0234375 4.84375 -0.171875 C 4.632812 -0.316406 4.484375 -0.550781 4.390625 -0.875 L 4.265625 -0.875 C 3.953125 -0.207031 3.363281 0.125 2.5 0.125 Z M 3.015625 -1.078125 C 3.390625 -1.078125 3.6875 -1.203125 3.90625 -1.453125 C 4.132812 -1.710938 4.25 -2.0625 4.25 -2.5 L 4.25 -3.15625 L 4.140625 -3.1875 C 4.046875 -3.101562 3.914062 -3.035156 3.75 -2.984375 C 3.59375 -2.929688 3.367188 -2.878906 3.078125 -2.828125 C 2.722656 -2.773438 2.46875 -2.675781 2.3125 -2.53125 C 2.164062 -2.382812 2.09375 -2.179688 2.09375 -1.921875 C 2.09375 -1.648438 2.171875 -1.441406 2.328125 -1.296875 C 2.492188 -1.148438 2.722656 -1.078125 3.015625 -1.078125 Z M 3.015625 -1.078125 "/></g></g></g><g fill="#000000" fill-opacity="1"><g transform="translate(64.240826, 121.897124)"><g><path d="M 0.921875 0 L 0.921875 -9.015625 L 2.546875 -9.015625 L 2.546875 -5.59375 L 2.65625 -5.5625 C 2.875 -5.875 3.140625 -6.113281 3.453125 -6.28125 C 3.765625 -6.457031 4.140625 -6.546875 4.578125 -6.546875 C 5.992188 -6.546875 6.703125 -5.742188 6.703125 -4.140625 L 6.703125 0 L 5.09375 0 L 5.09375 -3.9375 C 5.09375 -4.375 5.003906 -4.691406 4.828125 -4.890625 C 4.648438 -5.085938 4.378906 -5.1875 4.015625 -5.1875 C 3.554688 -5.1875 3.195312 -5.035156 2.9375 -4.734375 C 2.675781 -4.429688 2.546875 -3.960938 2.546875 -3.328125 L 2.546875 0 Z M 0.921875 0 "/></g></g></g><g fill="#000000" fill-opacity="1"><g transform="translate(71.772344, 121.897124)"><g/></g></g><g fill="#000000" fill-opacity="1"><g transform="translate(74.587926, 121.897124)"><g><path d="M 0.921875 0 L 0.921875 -9.015625 L 2.546875 -9.015625 L 2.546875 -4.015625 L 2.703125 -4.015625 L 4.5625 -6.421875 L 6.203125 -6.421875 L 6.203125 -6.296875 L 4.015625 -3.46875 L 6.4375 -0.140625 L 6.4375 0 L 4.734375 0 L 2.703125 -2.703125 L 2.546875 -2.703125 L 2.546875 0 Z M 0.921875 0 "/></g></g></g><g fill="#000000" fill-opacity="1"><g transform="translate(81.041022, 121.897124)"><g><path d="M 2.5 0.125 C 2.09375 0.125 1.738281 0.0507812 1.4375 -0.09375 C 1.132812 -0.25 0.898438 -0.472656 0.734375 -0.765625 C 0.566406 -1.066406 0.484375 -1.421875 0.484375 -1.828125 C 0.484375 -2.210938 0.566406 -2.53125 0.734375 -2.78125 C 0.898438 -3.039062 1.148438 -3.253906 1.484375 -3.421875 C 1.828125 -3.585938 2.273438 -3.71875 2.828125 -3.8125 C 3.210938 -3.875 3.503906 -3.941406 3.703125 -4.015625 C 3.910156 -4.085938 4.046875 -4.171875 4.109375 -4.265625 C 4.179688 -4.359375 4.21875 -4.472656 4.21875 -4.609375 C 4.21875 -4.816406 4.144531 -4.972656 4 -5.078125 C 3.851562 -5.191406 3.613281 -5.25 3.28125 -5.25 C 2.925781 -5.25 2.585938 -5.171875 2.265625 -5.015625 C 1.941406 -4.859375 1.660156 -4.648438 1.421875 -4.390625 L 1.3125 -4.390625 L 0.640625 -5.40625 C 0.960938 -5.769531 1.359375 -6.050781 1.828125 -6.25 C 2.296875 -6.445312 2.8125 -6.546875 3.375 -6.546875 C 4.21875 -6.546875 4.828125 -6.363281 5.203125 -6 C 5.585938 -5.644531 5.78125 -5.132812 5.78125 -4.46875 L 5.78125 -1.671875 C 5.78125 -1.390625 5.910156 -1.25 6.171875 -1.25 C 6.265625 -1.25 6.359375 -1.265625 6.453125 -1.296875 L 6.53125 -1.28125 L 6.65625 -0.15625 C 6.5625 -0.09375 6.429688 -0.0390625 6.265625 0 C 6.109375 0.03125 5.9375 0.046875 5.75 0.046875 C 5.363281 0.046875 5.0625 -0.0234375 4.84375 -0.171875 C 4.632812 -0.316406 4.484375 -0.550781 4.390625 -0.875 L 4.265625 -0.875 C 3.953125 -0.207031 3.363281 0.125 2.5 0.125 Z M 3.015625 -1.078125 C 3.390625 -1.078125 3.6875 -1.203125 3.90625 -1.453125 C 4.132812 -1.710938 4.25 -2.0625 4.25 -2.5 L 4.25 -3.15625 L 4.140625 -3.1875 C 4.046875 -3.101562 3.914062 -3.035156 3.75 -2.984375 C 3.59375 -2.929688 3.367188 -2.878906 3.078125 -2.828125 C 2.722656 -2.773438 2.46875 -2.675781 2.3125 -2.53125 C 2.164062 -2.382812 2.09375 -2.179688 2.09375 -1.921875 C 2.09375 -1.648438 2.171875 -1.441406 2.328125 -1.296875 C 2.492188 -1.148438 2.722656 -1.078125 3.015625 -1.078125 Z M 3.015625 -1.078125 "/></g></g></g><g fill="#000000" fill-opacity="1"><g transform="translate(87.820561, 121.897124)"><g><path d="M 0.921875 2.609375 L 0.921875 -6.421875 L 2.546875 -6.421875 L 2.546875 -5.59375 L 2.65625 -5.5625 C 2.851562 -5.894531 3.109375 -6.140625 3.421875 -6.296875 C 3.742188 -6.460938 4.117188 -6.546875 4.546875 -6.546875 C 5.066406 -6.546875 5.519531 -6.421875 5.90625 -6.171875 C 6.289062 -5.929688 6.585938 -5.5625 6.796875 -5.0625 C 7.015625 -4.5625 7.125 -3.945312 7.125 -3.21875 C 7.125 -2.476562 7.007812 -1.859375 6.78125 -1.359375 C 6.5625 -0.867188 6.25 -0.5 5.84375 -0.25 C 5.4375 0 4.96875 0.125 4.4375 0.125 C 4.039062 0.125 3.695312 0.0546875 3.40625 -0.078125 C 3.113281 -0.210938 2.863281 -0.421875 2.65625 -0.703125 L 2.546875 -0.6875 L 2.546875 2.609375 Z M 4 -1.25 C 4.476562 -1.25 4.84375 -1.40625 5.09375 -1.71875 C 5.34375 -2.03125 5.46875 -2.53125 5.46875 -3.21875 C 5.46875 -3.894531 5.34375 -4.390625 5.09375 -4.703125 C 4.84375 -5.023438 4.476562 -5.1875 4 -5.1875 C 3.539062 -5.1875 3.179688 -5.019531 2.921875 -4.6875 C 2.660156 -4.363281 2.53125 -3.875 2.53125 -3.21875 C 2.53125 -2.5625 2.660156 -2.066406 2.921875 -1.734375 C 3.179688 -1.410156 3.539062 -1.25 4 -1.25 Z M 4 -1.25 "/></g></g></g><g fill="#000000" fill-opacity="1"><g transform="translate(95.521137, 121.897124)"><g><path d="M 2.5 0.125 C 2.09375 0.125 1.738281 0.0507812 1.4375 -0.09375 C 1.132812 -0.25 0.898438 -0.472656 0.734375 -0.765625 C 0.566406 -1.066406 0.484375 -1.421875 0.484375 -1.828125 C 0.484375 -2.210938 0.566406 -2.53125 0.734375 -2.78125 C 0.898438 -3.039062 1.148438 -3.253906 1.484375 -3.421875 C 1.828125 -3.585938 2.273438 -3.71875 2.828125 -3.8125 C 3.210938 -3.875 3.503906 -3.941406 3.703125 -4.015625 C 3.910156 -4.085938 4.046875 -4.171875 4.109375 -4.265625 C 4.179688 -4.359375 4.21875 -4.472656 4.21875 -4.609375 C 4.21875 -4.816406 4.144531 -4.972656 4 -5.078125 C 3.851562 -5.191406 3.613281 -5.25 3.28125 -5.25 C 2.925781 -5.25 2.585938 -5.171875 2.265625 -5.015625 C 1.941406 -4.859375 1.660156 -4.648438 1.421875 -4.390625 L 1.3125 -4.390625 L 0.640625 -5.40625 C 0.960938 -5.769531 1.359375 -6.050781 1.828125 -6.25 C 2.296875 -6.445312 2.8125 -6.546875 3.375 -6.546875 C 4.21875 -6.546875 4.828125 -6.363281 5.203125 -6 C 5.585938 -5.644531 5.78125 -5.132812 5.78125 -4.46875 L 5.78125 -1.671875 C 5.78125 -1.390625 5.910156 -1.25 6.171875 -1.25 C 6.265625 -1.25 6.359375 -1.265625 6.453125 -1.296875 L 6.53125 -1.28125 L 6.65625 -0.15625 C 6.5625 -0.09375 6.429688 -0.0390625 6.265625 0 C 6.109375 0.03125 5.9375 0.046875 5.75 0.046875 C 5.363281 0.046875 5.0625 -0.0234375 4.84375 -0.171875 C 4.632812 -0.316406 4.484375 -0.550781 4.390625 -0.875 L 4.265625 -0.875 C 3.953125 -0.207031 3.363281 0.125 2.5 0.125 Z M 3.015625 -1.078125 C 3.390625 -1.078125 3.6875 -1.203125 3.90625 -1.453125 C 4.132812 -1.710938 4.25 -2.0625 4.25 -2.5 L 4.25 -3.15625 L 4.140625 -3.1875 C 4.046875 -3.101562 3.914062 -3.035156 3.75 -2.984375 C 3.59375 -2.929688 3.367188 -2.878906 3.078125 -2.828125 C 2.722656 -2.773438 2.46875 -2.675781 2.3125 -2.53125 C 2.164062 -2.382812 2.09375 -2.179688 2.09375 -1.921875 C 2.09375 -1.648438 2.171875 -1.441406 2.328125 -1.296875 C 2.492188 -1.148438 2.722656 -1.078125 3.015625 -1.078125 Z M 3.015625 -1.078125 "/></g></g></g><g fill="#000000" fill-opacity="1"><g transform="translate(102.300677, 121.897124)"><g><path d="M 0.921875 0 L 0.921875 -6.421875 L 2.484375 -6.421875 L 2.484375 -5.484375 L 2.59375 -5.453125 C 3 -6.179688 3.648438 -6.546875 4.546875 -6.546875 C 5.285156 -6.546875 5.828125 -6.34375 6.171875 -5.9375 C 6.523438 -5.539062 6.703125 -4.953125 6.703125 -4.171875 L 6.703125 0 L 5.09375 0 L 5.09375 -3.984375 C 5.09375 -4.410156 5.003906 -4.71875 4.828125 -4.90625 C 4.660156 -5.09375 4.390625 -5.1875 4.015625 -5.1875 C 3.546875 -5.1875 3.179688 -5.035156 2.921875 -4.734375 C 2.671875 -4.441406 2.546875 -3.972656 2.546875 -3.328125 L 2.546875 0 Z M 0.921875 0 "/></g></g></g><g fill="#000000" fill-opacity="1"><g transform="translate(109.832195, 121.897124)"><g><path d="M 0.921875 2.609375 L 0.921875 -6.421875 L 2.546875 -6.421875 L 2.546875 -5.59375 L 2.65625 -5.5625 C 2.851562 -5.894531 3.109375 -6.140625 3.421875 -6.296875 C 3.742188 -6.460938 4.117188 -6.546875 4.546875 -6.546875 C 5.066406 -6.546875 5.519531 -6.421875 5.90625 -6.171875 C 6.289062 -5.929688 6.585938 -5.5625 6.796875 -5.0625 C 7.015625 -4.5625 7.125 -3.945312 7.125 -3.21875 C 7.125 -2.476562 7.007812 -1.859375 6.78125 -1.359375 C 6.5625 -0.867188 6.25 -0.5 5.84375 -0.25 C 5.4375 0 4.96875 0.125 4.4375 0.125 C 4.039062 0.125 3.695312 0.0546875 3.40625 -0.078125 C 3.113281 -0.210938 2.863281 -0.421875 2.65625 -0.703125 L 2.546875 -0.6875 L 2.546875 2.609375 Z M 4 -1.25 C 4.476562 -1.25 4.84375 -1.40625 5.09375 -1.71875 C 5.34375 -2.03125 5.46875 -2.53125 5.46875 -3.21875 C 5.46875 -3.894531 5.34375 -4.390625 5.09375 -4.703125 C 4.84375 -5.023438 4.476562 -5.1875 4 -5.1875 C 3.539062 -5.1875 3.179688 -5.019531 2.921875 -4.6875 C 2.660156 -4.363281 2.53125 -3.875 2.53125 -3.21875 C 2.53125 -2.5625 2.660156 -2.066406 2.921875 -1.734375 C 3.179688 -1.410156 3.539062 -1.25 4 -1.25 Z M 4 -1.25 "/></g></g></g><g fill="#000000" fill-opacity="1"><g transform="translate(117.532771, 121.897124)"><g><path d="M 2.9375 0.125 C 2.21875 0.125 1.6875 -0.0703125 1.34375 -0.46875 C 1 -0.863281 0.828125 -1.429688 0.828125 -2.171875 L 0.828125 -6.421875 L 2.4375 -6.421875 L 2.4375 -2.375 C 2.4375 -1.976562 2.519531 -1.6875 2.6875 -1.5 C 2.863281 -1.320312 3.128906 -1.234375 3.484375 -1.234375 C 3.929688 -1.234375 4.273438 -1.378906 4.515625 -1.671875 C 4.765625 -1.972656 4.890625 -2.4375 4.890625 -3.0625 L 4.890625 -6.421875 L 6.515625 -6.421875 L 6.515625 0 L 4.953125 0 L 4.953125 -0.9375 L 4.84375 -0.96875 C 4.632812 -0.601562 4.378906 -0.328125 4.078125 -0.140625 C 3.785156 0.0351562 3.40625 0.125 2.9375 0.125 Z M 2.9375 0.125 "/></g></g></g><g fill="#000000" fill-opacity="1"><g transform="translate(124.97102, 121.897124)"><g><path d="M 0.921875 0 L 0.921875 -6.421875 L 2.484375 -6.421875 L 2.484375 -5.484375 L 2.59375 -5.453125 C 3 -6.179688 3.648438 -6.546875 4.546875 -6.546875 C 5.285156 -6.546875 5.828125 -6.34375 6.171875 -5.9375 C 6.523438 -5.539062 6.703125 -4.953125 6.703125 -4.171875 L 6.703125 0 L 5.09375 0 L 5.09375 -3.984375 C 5.09375 -4.410156 5.003906 -4.71875 4.828125 -4.90625 C 4.660156 -5.09375 4.390625 -5.1875 4.015625 -5.1875 C 3.546875 -5.1875 3.179688 -5.035156 2.921875 -4.734375 C 2.671875 -4.441406 2.546875 -3.972656 2.546875 -3.328125 L 2.546875 0 Z M 0.921875 0 "/></g></g></g><g fill="#000000" fill-opacity="1"><g transform="translate(132.502538, 121.897124)"><g/></g></g><g fill="#000000" fill-opacity="1"><g transform="translate(135.31812, 121.897124)"><g><path d="M 3.734375 0.125 C 3.109375 0.125 2.554688 -0.00390625 2.078125 -0.265625 C 1.597656 -0.523438 1.226562 -0.90625 0.96875 -1.40625 C 0.707031 -1.90625 0.578125 -2.507812 0.578125 -3.21875 C 0.578125 -3.914062 0.707031 -4.515625 0.96875 -5.015625 C 1.226562 -5.523438 1.597656 -5.90625 2.078125 -6.15625 C 2.554688 -6.414062 3.109375 -6.546875 3.734375 -6.546875 C 4.367188 -6.546875 4.921875 -6.414062 5.390625 -6.15625 C 5.867188 -5.90625 6.238281 -5.523438 6.5 -5.015625 C 6.769531 -4.515625 6.90625 -3.914062 6.90625 -3.21875 C 6.90625 -2.507812 6.769531 -1.90625 6.5 -1.40625 C 6.238281 -0.90625 5.867188 -0.523438 5.390625 -0.265625 C 4.921875 -0.00390625 4.367188 0.125 3.734375 0.125 Z M 3.734375 -1.25 C 4.734375 -1.25 5.234375 -1.90625 5.234375 -3.21875 C 5.234375 -3.894531 5.101562 -4.390625 4.84375 -4.703125 C 4.59375 -5.023438 4.222656 -5.1875 3.734375 -5.1875 C 2.734375 -5.1875 2.234375 -4.53125 2.234375 -3.21875 C 2.234375 -1.90625 2.734375 -1.25 3.734375 -1.25 Z M 3.734375 -1.25 "/></g></g></g><g fill="#000000" fill-opacity="1"><g transform="translate(142.791345, 121.897124)"><g><path d="M 2.671875 0.125 C 2.085938 0.125 1.644531 -0.03125 1.34375 -0.34375 C 1.039062 -0.65625 0.890625 -1.128906 0.890625 -1.765625 L 0.890625 -9.015625 L 2.5 -9.015625 L 2.5 -1.84375 C 2.5 -1.445312 2.660156 -1.25 2.984375 -1.25 C 3.078125 -1.25 3.175781 -1.265625 3.28125 -1.296875 L 3.375 -1.265625 L 3.515625 -0.03125 C 3.421875 0.0195312 3.300781 0.0546875 3.15625 0.078125 C 3.007812 0.109375 2.847656 0.125 2.671875 0.125 Z M 2.671875 0.125 "/></g></g></g><g fill="#000000" fill-opacity="1"><g transform="translate(146.487152, 121.897124)"><g><path d="M 6.359375 -2.84375 L 2.21875 -2.84375 C 2.269531 -2.289062 2.429688 -1.882812 2.703125 -1.625 C 2.972656 -1.375 3.34375 -1.25 3.8125 -1.25 C 4.175781 -1.25 4.472656 -1.316406 4.703125 -1.453125 C 4.929688 -1.585938 5.117188 -1.796875 5.265625 -2.078125 L 5.390625 -2.078125 L 6.453125 -1.390625 C 6.242188 -0.941406 5.925781 -0.578125 5.5 -0.296875 C 5.082031 -0.015625 4.519531 0.125 3.8125 0.125 C 3.144531 0.125 2.566406 0 2.078125 -0.25 C 1.597656 -0.507812 1.226562 -0.890625 0.96875 -1.390625 C 0.707031 -1.890625 0.578125 -2.5 0.578125 -3.21875 C 0.578125 -3.945312 0.710938 -4.5625 0.984375 -5.0625 C 1.265625 -5.5625 1.640625 -5.929688 2.109375 -6.171875 C 2.578125 -6.421875 3.109375 -6.546875 3.703125 -6.546875 C 4.609375 -6.546875 5.300781 -6.304688 5.78125 -5.828125 C 6.269531 -5.347656 6.515625 -4.640625 6.515625 -3.703125 C 6.515625 -3.367188 6.5 -3.109375 6.46875 -2.921875 Z M 4.96875 -3.890625 C 4.945312 -4.378906 4.832031 -4.734375 4.625 -4.953125 C 4.414062 -5.179688 4.109375 -5.296875 3.703125 -5.296875 C 2.878906 -5.296875 2.394531 -4.828125 2.25 -3.890625 Z M 4.96875 -3.890625 "/></g></g></g><g fill="#000000" fill-opacity="1"><g transform="translate(153.476548, 121.897124)"><g><path d="M 0.921875 0 L 0.921875 -9.015625 L 2.546875 -9.015625 L 2.546875 -5.59375 L 2.65625 -5.5625 C 2.875 -5.875 3.140625 -6.113281 3.453125 -6.28125 C 3.765625 -6.457031 4.140625 -6.546875 4.578125 -6.546875 C 5.992188 -6.546875 6.703125 -5.742188 6.703125 -4.140625 L 6.703125 0 L 5.09375 0 L 5.09375 -3.9375 C 5.09375 -4.375 5.003906 -4.691406 4.828125 -4.890625 C 4.648438 -5.085938 4.378906 -5.1875 4.015625 -5.1875 C 3.554688 -5.1875 3.195312 -5.035156 2.9375 -4.734375 C 2.675781 -4.429688 2.546875 -3.960938 2.546875 -3.328125 L 2.546875 0 Z M 0.921875 0 "/></g></g></g><g fill="#000000" fill-opacity="1"><g transform="translate(31.15343, 138.020405)"><g><path d="M 2.5 0.125 C 2.09375 0.125 1.738281 0.0507812 1.4375 -0.09375 C 1.132812 -0.25 0.898438 -0.472656 0.734375 -0.765625 C 0.566406 -1.066406 0.484375 -1.421875 0.484375 -1.828125 C 0.484375 -2.210938 0.566406 -2.53125 0.734375 -2.78125 C 0.898438 -3.039062 1.148438 -3.253906 1.484375 -3.421875 C 1.828125 -3.585938 2.273438 -3.71875 2.828125 -3.8125 C 3.210938 -3.875 3.503906 -3.941406 3.703125 -4.015625 C 3.910156 -4.085938 4.046875 -4.171875 4.109375 -4.265625 C 4.179688 -4.359375 4.21875 -4.472656 4.21875 -4.609375 C 4.21875 -4.816406 4.144531 -4.972656 4 -5.078125 C 3.851562 -5.191406 3.613281 -5.25 3.28125 -5.25 C 2.925781 -5.25 2.585938 -5.171875 2.265625 -5.015625 C 1.941406 -4.859375 1.660156 -4.648438 1.421875 -4.390625 L 1.3125 -4.390625 L 0.640625 -5.40625 C 0.960938 -5.769531 1.359375 -6.050781 1.828125 -6.25 C 2.296875 -6.445312 2.8125 -6.546875 3.375 -6.546875 C 4.21875 -6.546875 4.828125 -6.363281 5.203125 -6 C 5.585938 -5.644531 5.78125 -5.132812 5.78125 -4.46875 L 5.78125 -1.671875 C 5.78125 -1.390625 5.910156 -1.25 6.171875 -1.25 C 6.265625 -1.25 6.359375 -1.265625 6.453125 -1.296875 L 6.53125 -1.28125 L 6.65625 -0.15625 C 6.5625 -0.09375 6.429688 -0.0390625 6.265625 0 C 6.109375 0.03125 5.9375 0.046875 5.75 0.046875 C 5.363281 0.046875 5.0625 -0.0234375 4.84375 -0.171875 C 4.632812 -0.316406 4.484375 -0.550781 4.390625 -0.875 L 4.265625 -0.875 C 3.953125 -0.207031 3.363281 0.125 2.5 0.125 Z M 3.015625 -1.078125 C 3.390625 -1.078125 3.6875 -1.203125 3.90625 -1.453125 C 4.132812 -1.710938 4.25 -2.0625 4.25 -2.5 L 4.25 -3.15625 L 4.140625 -3.1875 C 4.046875 -3.101562 3.914062 -3.035156 3.75 -2.984375 C 3.59375 -2.929688 3.367188 -2.878906 3.078125 -2.828125 C 2.722656 -2.773438 2.46875 -2.675781 2.3125 -2.53125 C 2.164062 -2.382812 2.09375 -2.179688 2.09375 -1.921875 C 2.09375 -1.648438 2.171875 -1.441406 2.328125 -1.296875 C 2.492188 -1.148438 2.722656 -1.078125 3.015625 -1.078125 Z M 3.015625 -1.078125 "/></g></g></g><g fill="#000000" fill-opacity="1"><g transform="translate(37.932969, 138.020405)"><g><path d="M 0.921875 0 L 0.921875 -6.421875 L 2.484375 -6.421875 L 2.484375 -5.484375 L 2.59375 -5.453125 C 3 -6.179688 3.648438 -6.546875 4.546875 -6.546875 C 5.285156 -6.546875 5.828125 -6.34375 6.171875 -5.9375 C 6.523438 -5.539062 6.703125 -4.953125 6.703125 -4.171875 L 6.703125 0 L 5.09375 0 L 5.09375 -3.984375 C 5.09375 -4.410156 5.003906 -4.71875 4.828125 -4.90625 C 4.660156 -5.09375 4.390625 -5.1875 4.015625 -5.1875 C 3.546875 -5.1875 3.179688 -5.035156 2.921875 -4.734375 C 2.671875 -4.441406 2.546875 -3.972656 2.546875 -3.328125 L 2.546875 0 Z M 0.921875 0 "/></g></g></g><g fill="#000000" fill-opacity="1"><g transform="translate(45.464487, 138.020405)"><g><path d="M 3.171875 0.125 C 2.660156 0.125 2.207031 0 1.8125 -0.25 C 1.425781 -0.5 1.125 -0.867188 0.90625 -1.359375 C 0.6875 -1.859375 0.578125 -2.476562 0.578125 -3.21875 C 0.578125 -3.945312 0.691406 -4.5625 0.921875 -5.0625 C 1.148438 -5.5625 1.460938 -5.929688 1.859375 -6.171875 C 2.265625 -6.421875 2.734375 -6.546875 3.265625 -6.546875 C 3.660156 -6.546875 4.003906 -6.476562 4.296875 -6.34375 C 4.585938 -6.207031 4.835938 -5.992188 5.046875 -5.703125 L 5.171875 -5.734375 L 5.171875 -9.015625 L 6.78125 -9.015625 L 6.78125 0 L 5.171875 0 L 5.171875 -0.828125 L 5.046875 -0.859375 C 4.867188 -0.554688 4.625 -0.316406 4.3125 -0.140625 C 4 0.0351562 3.617188 0.125 3.171875 0.125 Z M 3.703125 -1.25 C 4.160156 -1.25 4.519531 -1.410156 4.78125 -1.734375 C 5.039062 -2.054688 5.171875 -2.550781 5.171875 -3.21875 C 5.171875 -3.875 5.039062 -4.363281 4.78125 -4.6875 C 4.519531 -5.019531 4.160156 -5.1875 3.703125 -5.1875 C 3.222656 -5.1875 2.859375 -5.023438 2.609375 -4.703125 C 2.359375 -4.390625 2.234375 -3.894531 2.234375 -3.21875 C 2.234375 -2.539062 2.359375 -2.039062 2.609375 -1.71875 C 2.859375 -1.40625 3.222656 -1.25 3.703125 -1.25 Z M 3.703125 -1.25 "/></g></g></g><g fill="#000000" fill-opacity="1"><g transform="translate(53.170886, 138.020405)"><g><path d="M 2.5 0.125 C 2.09375 0.125 1.738281 0.0507812 1.4375 -0.09375 C 1.132812 -0.25 0.898438 -0.472656 0.734375 -0.765625 C 0.566406 -1.066406 0.484375 -1.421875 0.484375 -1.828125 C 0.484375 -2.210938 0.566406 -2.53125 0.734375 -2.78125 C 0.898438 -3.039062 1.148438 -3.253906 1.484375 -3.421875 C 1.828125 -3.585938 2.273438 -3.71875 2.828125 -3.8125 C 3.210938 -3.875 3.503906 -3.941406 3.703125 -4.015625 C 3.910156 -4.085938 4.046875 -4.171875 4.109375 -4.265625 C 4.179688 -4.359375 4.21875 -4.472656 4.21875 -4.609375 C 4.21875 -4.816406 4.144531 -4.972656 4 -5.078125 C 3.851562 -5.191406 3.613281 -5.25 3.28125 -5.25 C 2.925781 -5.25 2.585938 -5.171875 2.265625 -5.015625 C 1.941406 -4.859375 1.660156 -4.648438 1.421875 -4.390625 L 1.3125 -4.390625 L 0.640625 -5.40625 C 0.960938 -5.769531 1.359375 -6.050781 1.828125 -6.25 C 2.296875 -6.445312 2.8125 -6.546875 3.375 -6.546875 C 4.21875 -6.546875 4.828125 -6.363281 5.203125 -6 C 5.585938 -5.644531 5.78125 -5.132812 5.78125 -4.46875 L 5.78125 -1.671875 C 5.78125 -1.390625 5.910156 -1.25 6.171875 -1.25 C 6.265625 -1.25 6.359375 -1.265625 6.453125 -1.296875 L 6.53125 -1.28125 L 6.65625 -0.15625 C 6.5625 -0.09375 6.429688 -0.0390625 6.265625 0 C 6.109375 0.03125 5.9375 0.046875 5.75 0.046875 C 5.363281 0.046875 5.0625 -0.0234375 4.84375 -0.171875 C 4.632812 -0.316406 4.484375 -0.550781 4.390625 -0.875 L 4.265625 -0.875 C 3.953125 -0.207031 3.363281 0.125 2.5 0.125 Z M 3.015625 -1.078125 C 3.390625 -1.078125 3.6875 -1.203125 3.90625 -1.453125 C 4.132812 -1.710938 4.25 -2.0625 4.25 -2.5 L 4.25 -3.15625 L 4.140625 -3.1875 C 4.046875 -3.101562 3.914062 -3.035156 3.75 -2.984375 C 3.59375 -2.929688 3.367188 -2.878906 3.078125 -2.828125 C 2.722656 -2.773438 2.46875 -2.675781 2.3125 -2.53125 C 2.164062 -2.382812 2.09375 -2.179688 2.09375 -1.921875 C 2.09375 -1.648438 2.171875 -1.441406 2.328125 -1.296875 C 2.492188 -1.148438 2.722656 -1.078125 3.015625 -1.078125 Z M 3.015625 -1.078125 "/></g></g></g><g fill="#000000" fill-opacity="1"><g transform="translate(59.943004, 138.020405)"><g/></g></g></svg>