<svg xmlns="http://www.w3.org/2000/svg" xmlns:xlink="http://www.w3.org/1999/xlink" width="281" zoomAndPan="magnify" viewBox="0 0 210.75 163.5" height="218" preserveAspectRatio="xMidYMid meet" version="1.0"><defs><g/><clipPath id="c5c3784e45"><path d="M 0.195312 0 L 210.304688 0 L 210.304688 163 L 0.195312 163 Z M 0.195312 0 " clip-rule="nonzero"/></clipPath><clipPath id="c5dd1850d7"><path d="M 7.683594 0 L 203.066406 0 C 205.050781 0 206.957031 0.789062 208.359375 2.191406 C 209.765625 3.597656 210.554688 5.5 210.554688 7.484375 L 210.554688 155.707031 C 210.554688 157.695312 209.765625 159.597656 208.359375 161.003906 C 206.957031 162.40625 205.050781 163.195312 203.066406 163.195312 L 7.683594 163.195312 C 5.695312 163.195312 3.792969 162.40625 2.390625 161.003906 C 0.984375 159.597656 0.195312 157.695312 0.195312 155.707031 L 0.195312 7.484375 C 0.195312 5.5 0.984375 3.597656 2.390625 2.191406 C 3.792969 0.789062 5.695312 0 7.683594 0 " clip-rule="nonzero"/></clipPath><clipPath id="d2bd503e36"><path d="M 31.152344 16.320312 L 77.957031 16.320312 L 77.957031 63.125 L 31.152344 63.125 Z M 31.152344 16.320312 " clip-rule="nonzero"/></clipPath><clipPath id="78c0449a13"><path d="M 54.554688 16.320312 C 41.632812 16.320312 31.152344 26.796875 31.152344 39.722656 C 31.152344 52.648438 41.632812 63.125 54.554688 63.125 C 67.480469 63.125 77.957031 52.648438 77.957031 39.722656 C 77.957031 26.796875 67.480469 16.320312 54.554688 16.320312 " clip-rule="nonzero"/></clipPath><clipPath id="8e3ff7d5fe"><path d="M 39.71875 35 L 56 35 L 56 53.597656 L 39.71875 53.597656 Z M 39.71875 35 " clip-rule="nonzero"/></clipPath><clipPath id="0a88df5d75"><path d="M 56 35 L 69.65625 35 L 69.65625 45 L 56 45 Z M 56 35 " clip-rule="nonzero"/></clipPath></defs><g clip-path="url(#c5c3784e45)"><g clip-path="url(#c5dd1850d7)"><path fill="#dfdfdf" d="M 0.195312 0 L 210.566406 0 L 210.566406 162.941406 L 0.195312 162.941406 Z M 0.195312 0 " fill-opacity="1" fill-rule="nonzero"/></g></g><g clip-path="url(#d2bd503e36)"><g clip-path="url(#78c0449a13)"><path fill="#ff66c4" d="M 31.152344 16.320312 L 77.957031 16.320312 L 77.957031 63.125 L 31.152344 63.125 Z M 31.152344 16.320312 " fill-opacity="1" fill-rule="nonzero"/></g></g><path fill="#840051" d="M 51.125 32.398438 L 53.425781 32.398438 L 53.425781 38.03125 C 53.867188 38.34375 54.277344 38.6875 54.6875 39.03125 C 55.0625 38.6875 55.503906 38.34375 55.945312 38.03125 L 55.945312 32.398438 L 58.246094 32.398438 C 58.625 32.398438 58.96875 32.179688 59.160156 31.832031 C 59.316406 31.492188 59.285156 31.085938 59.035156 30.800781 L 55.472656 26.390625 C 55.09375 25.921875 54.308594 25.921875 53.929688 26.390625 L 50.339844 30.800781 C 50.085938 31.117188 50.054688 31.523438 50.210938 31.832031 C 50.402344 32.179688 50.75 32.398438 51.125 32.398438 " fill-opacity="1" fill-rule="nonzero"/><g clip-path="url(#8e3ff7d5fe)"><path fill="#840051" d="M 46.746094 38.4375 L 46.148438 38.4375 L 46.148438 36.152344 C 46.148438 35.777344 45.929688 35.433594 45.578125 35.246094 C 45.234375 35.089844 44.824219 35.117188 44.539062 35.371094 L 40.097656 38.875 C 39.878906 39.0625 39.71875 39.34375 39.71875 39.65625 C 39.71875 39.96875 39.84375 40.25 40.097656 40.4375 L 44.539062 43.976562 C 44.730469 44.128906 44.949219 44.195312 45.171875 44.195312 C 45.328125 44.195312 45.453125 44.164062 45.613281 44.097656 C 45.960938 43.945312 46.179688 43.601562 46.179688 43.191406 L 46.179688 40.910156 L 46.777344 40.910156 C 50.433594 40.910156 53.425781 43.878906 53.425781 47.542969 L 53.425781 52.359375 C 53.425781 53.046875 53.992188 53.613281 54.6875 53.613281 C 55.378906 53.613281 55.945312 53.046875 55.945312 52.359375 L 55.945312 47.542969 C 55.945312 42.503906 51.820312 38.4375 46.746094 38.4375 " fill-opacity="1" fill-rule="nonzero"/></g><g clip-path="url(#0a88df5d75)"><path fill="#840051" d="M 69.273438 38.875 L 64.832031 35.371094 C 64.519531 35.117188 64.105469 35.089844 63.792969 35.246094 C 63.445312 35.402344 63.222656 35.746094 63.222656 36.152344 L 63.222656 38.4375 L 62.625 38.4375 C 60.167969 38.4375 57.960938 39.375 56.324219 40.910156 C 56.828125 41.628906 57.238281 42.378906 57.585938 43.191406 C 58.785156 41.785156 60.609375 40.878906 62.625 40.878906 L 63.222656 40.878906 L 63.222656 43.164062 C 63.222656 43.535156 63.445312 43.878906 63.792969 44.066406 C 63.917969 44.128906 64.074219 44.164062 64.230469 44.164062 C 64.453125 44.164062 64.671875 44.097656 64.863281 43.945312 L 69.273438 40.4375 C 69.496094 40.25 69.652344 39.96875 69.652344 39.65625 C 69.652344 39.375 69.527344 39.0625 69.273438 38.875 " fill-opacity="1" fill-rule="nonzero"/></g><g fill="#000000" fill-opacity="1"><g transform="translate(31.15343, 87.620215)"><g><path d="M 3.375 0.1875 C 2.738281 0.1875 2.242188 0.015625 1.890625 -0.328125 C 1.546875 -0.679688 1.375 -1.1875 1.375 -1.84375 L 1.375 -13.109375 C 1.375 -14.472656 2.0625 -15.15625 3.4375 -15.15625 L 10.59375 -15.15625 C 11.625 -15.15625 12.140625 -14.65625 12.140625 -13.65625 C 12.140625 -12.625 11.625 -12.109375 10.59375 -12.109375 L 5.328125 -12.109375 L 5.328125 -9.046875 L 10.125 -9.046875 C 11.15625 -9.046875 11.671875 -8.546875 11.671875 -7.546875 C 11.671875 -6.523438 11.15625 -6.015625 10.125 -6.015625 L 5.328125 -6.015625 L 5.328125 -1.84375 C 5.328125 -0.488281 4.675781 0.1875 3.375 0.1875 Z M 3.375 0.1875 "/></g></g></g><g fill="#000000" fill-opacity="1"><g transform="translate(43.600572, 87.620215)"><g><path d="M 5.140625 0.234375 C 3.742188 0.234375 2.722656 -0.132812 2.078125 -0.875 C 1.441406 -1.613281 1.125 -2.726562 1.125 -4.21875 L 1.125 -13.421875 C 1.125 -14.703125 1.753906 -15.34375 3.015625 -15.34375 C 3.628906 -15.34375 4.101562 -15.175781 4.4375 -14.84375 C 4.769531 -14.519531 4.9375 -14.046875 4.9375 -13.421875 L 4.9375 -4.34375 C 4.9375 -3.8125 5.039062 -3.421875 5.25 -3.171875 C 5.457031 -2.929688 5.726562 -2.8125 6.0625 -2.8125 C 6.164062 -2.8125 6.269531 -2.820312 6.375 -2.84375 C 6.476562 -2.863281 6.597656 -2.882812 6.734375 -2.90625 C 6.984375 -2.90625 7.164062 -2.8125 7.28125 -2.625 C 7.394531 -2.4375 7.453125 -2.054688 7.453125 -1.484375 C 7.453125 -0.984375 7.351562 -0.609375 7.15625 -0.359375 C 6.957031 -0.109375 6.648438 0.0507812 6.234375 0.125 C 6.117188 0.15625 5.953125 0.179688 5.734375 0.203125 C 5.523438 0.222656 5.328125 0.234375 5.140625 0.234375 Z M 5.140625 0.234375 "/></g></g></g><g fill="#000000" fill-opacity="1"><g transform="translate(51.081752, 87.620215)"><g><path d="M 6.875 0.234375 C 5.582031 0.234375 4.46875 0.0078125 3.53125 -0.4375 C 2.59375 -0.894531 1.875 -1.535156 1.375 -2.359375 C 0.875 -3.191406 0.625 -4.175781 0.625 -5.3125 C 0.625 -6.382812 0.863281 -7.335938 1.34375 -8.171875 C 1.820312 -9.003906 2.476562 -9.648438 3.3125 -10.109375 C 4.15625 -10.578125 5.113281 -10.8125 6.1875 -10.8125 C 7.25 -10.8125 8.171875 -10.585938 8.953125 -10.140625 C 9.734375 -9.703125 10.332031 -9.070312 10.75 -8.25 C 11.175781 -7.425781 11.390625 -6.460938 11.390625 -5.359375 C 11.390625 -4.796875 11.0625 -4.515625 10.40625 -4.515625 L 4.28125 -4.515625 C 4.40625 -3.828125 4.691406 -3.332031 5.140625 -3.03125 C 5.585938 -2.726562 6.203125 -2.578125 6.984375 -2.578125 C 7.285156 -2.578125 7.644531 -2.613281 8.0625 -2.6875 C 8.476562 -2.757812 8.875 -2.875 9.25 -3.03125 C 9.707031 -3.207031 10.09375 -3.210938 10.40625 -3.046875 C 10.71875 -2.878906 10.925781 -2.625 11.03125 -2.28125 C 11.144531 -1.945312 11.132812 -1.601562 11 -1.25 C 10.863281 -0.90625 10.59375 -0.640625 10.1875 -0.453125 C 9.6875 -0.210938 9.148438 -0.0390625 8.578125 0.0625 C 8.015625 0.175781 7.445312 0.234375 6.875 0.234375 Z M 6.359375 -8.34375 C 5.785156 -8.34375 5.316406 -8.171875 4.953125 -7.828125 C 4.585938 -7.484375 4.351562 -6.984375 4.25 -6.328125 L 8.25 -6.328125 C 8.207031 -6.992188 8.023438 -7.492188 7.703125 -7.828125 C 7.378906 -8.171875 6.929688 -8.34375 6.359375 -8.34375 Z M 6.359375 -8.34375 "/></g></g></g><g fill="#000000" fill-opacity="1"><g transform="translate(63.012945, 87.620215)"><g><path d="M 2.59375 0.171875 C 2.113281 0.171875 1.734375 0.0390625 1.453125 -0.21875 C 1.171875 -0.476562 1.023438 -0.804688 1.015625 -1.203125 C 1.015625 -1.609375 1.175781 -2.015625 1.5 -2.421875 L 4 -5.46875 L 1.765625 -8.171875 C 1.421875 -8.585938 1.253906 -8.992188 1.265625 -9.390625 C 1.285156 -9.796875 1.429688 -10.125 1.703125 -10.375 C 1.984375 -10.632812 2.367188 -10.765625 2.859375 -10.765625 C 3.316406 -10.765625 3.691406 -10.6875 3.984375 -10.53125 C 4.273438 -10.382812 4.5625 -10.140625 4.84375 -9.796875 L 6.171875 -8.078125 L 7.5 -9.796875 C 7.769531 -10.140625 8.054688 -10.382812 8.359375 -10.53125 C 8.660156 -10.6875 9.035156 -10.765625 9.484375 -10.765625 C 9.953125 -10.765625 10.328125 -10.632812 10.609375 -10.375 C 10.898438 -10.125 11.050781 -9.796875 11.0625 -9.390625 C 11.070312 -8.992188 10.90625 -8.585938 10.5625 -8.171875 L 8.328125 -5.46875 L 10.84375 -2.421875 C 11.1875 -2.015625 11.347656 -1.609375 11.328125 -1.203125 C 11.316406 -0.804688 11.160156 -0.476562 10.859375 -0.21875 C 10.566406 0.0390625 10.1875 0.171875 9.71875 0.171875 C 9.269531 0.171875 8.894531 0.0976562 8.59375 -0.046875 C 8.300781 -0.203125 8.015625 -0.453125 7.734375 -0.796875 L 6.15625 -2.8125 L 4.5625 -0.796875 C 4.289062 -0.460938 4.007812 -0.21875 3.71875 -0.0625 C 3.4375 0.09375 3.0625 0.171875 2.59375 0.171875 Z M 2.59375 0.171875 "/></g></g></g><g fill="#000000" fill-opacity="1"><g transform="translate(75.309604, 87.620215)"><g><path d="M 3.015625 -12.296875 C 2.335938 -12.296875 1.816406 -12.453125 1.453125 -12.765625 C 1.085938 -13.085938 0.90625 -13.546875 0.90625 -14.140625 C 0.90625 -14.734375 1.085938 -15.1875 1.453125 -15.5 C 1.816406 -15.8125 2.335938 -15.96875 3.015625 -15.96875 C 4.429688 -15.96875 5.140625 -15.359375 5.140625 -14.140625 C 5.140625 -13.546875 4.957031 -13.085938 4.59375 -12.765625 C 4.226562 -12.453125 3.703125 -12.296875 3.015625 -12.296875 Z M 3.015625 0.1875 C 2.390625 0.1875 1.914062 0.0078125 1.59375 -0.34375 C 1.28125 -0.695312 1.125 -1.210938 1.125 -1.890625 L 1.125 -8.6875 C 1.125 -9.363281 1.28125 -9.878906 1.59375 -10.234375 C 1.914062 -10.585938 2.390625 -10.765625 3.015625 -10.765625 C 3.628906 -10.765625 4.101562 -10.585938 4.4375 -10.234375 C 4.769531 -9.878906 4.9375 -9.363281 4.9375 -8.6875 L 4.9375 -1.890625 C 4.9375 -1.210938 4.769531 -0.695312 4.4375 -0.34375 C 4.113281 0.0078125 3.640625 0.1875 3.015625 0.1875 Z M 3.015625 0.1875 "/></g></g></g><g fill="#000000" fill-opacity="1"><g transform="translate(81.350435, 87.620215)"><g><path d="M 8.078125 0.234375 C 7.378906 0.234375 6.738281 0.0820312 6.15625 -0.21875 C 5.570312 -0.519531 5.140625 -0.921875 4.859375 -1.421875 C 4.742188 -0.347656 4.128906 0.1875 3.015625 0.1875 C 1.753906 0.1875 1.125 -0.453125 1.125 -1.734375 L 1.125 -13.421875 C 1.125 -14.703125 1.753906 -15.34375 3.015625 -15.34375 C 3.628906 -15.34375 4.101562 -15.175781 4.4375 -14.84375 C 4.769531 -14.519531 4.9375 -14.046875 4.9375 -13.421875 L 4.9375 -9.3125 C 5.238281 -9.769531 5.671875 -10.132812 6.234375 -10.40625 C 6.804688 -10.675781 7.421875 -10.8125 8.078125 -10.8125 C 8.992188 -10.8125 9.800781 -10.585938 10.5 -10.140625 C 11.195312 -9.703125 11.738281 -9.070312 12.125 -8.25 C 12.507812 -7.425781 12.703125 -6.4375 12.703125 -5.28125 C 12.703125 -4.15625 12.503906 -3.175781 12.109375 -2.34375 C 11.722656 -1.507812 11.179688 -0.867188 10.484375 -0.421875 C 9.785156 0.015625 8.984375 0.234375 8.078125 0.234375 Z M 6.875 -2.578125 C 7.445312 -2.578125 7.921875 -2.789062 8.296875 -3.21875 C 8.671875 -3.65625 8.859375 -4.34375 8.859375 -5.28125 C 8.859375 -6.25 8.671875 -6.941406 8.296875 -7.359375 C 7.921875 -7.785156 7.445312 -8 6.875 -8 C 6.289062 -8 5.8125 -7.785156 5.4375 -7.359375 C 5.0625 -6.941406 4.875 -6.25 4.875 -5.28125 C 4.875 -4.34375 5.0625 -3.65625 5.4375 -3.21875 C 5.8125 -2.789062 6.289062 -2.578125 6.875 -2.578125 Z M 6.875 -2.578125 "/></g></g></g><g fill="#000000" fill-opacity="1"><g transform="translate(94.678978, 87.620215)"><g><path d="M 5.140625 0.234375 C 3.742188 0.234375 2.722656 -0.132812 2.078125 -0.875 C 1.441406 -1.613281 1.125 -2.726562 1.125 -4.21875 L 1.125 -13.421875 C 1.125 -14.703125 1.753906 -15.34375 3.015625 -15.34375 C 3.628906 -15.34375 4.101562 -15.175781 4.4375 -14.84375 C 4.769531 -14.519531 4.9375 -14.046875 4.9375 -13.421875 L 4.9375 -4.34375 C 4.9375 -3.8125 5.039062 -3.421875 5.25 -3.171875 C 5.457031 -2.929688 5.726562 -2.8125 6.0625 -2.8125 C 6.164062 -2.8125 6.269531 -2.820312 6.375 -2.84375 C 6.476562 -2.863281 6.597656 -2.882812 6.734375 -2.90625 C 6.984375 -2.90625 7.164062 -2.8125 7.28125 -2.625 C 7.394531 -2.4375 7.453125 -2.054688 7.453125 -1.484375 C 7.453125 -0.984375 7.351562 -0.609375 7.15625 -0.359375 C 6.957031 -0.109375 6.648438 0.0507812 6.234375 0.125 C 6.117188 0.15625 5.953125 0.179688 5.734375 0.203125 C 5.523438 0.222656 5.328125 0.234375 5.140625 0.234375 Z M 5.140625 0.234375 "/></g></g></g><g fill="#000000" fill-opacity="1"><g transform="translate(102.160157, 87.620215)"><g><path d="M 6.875 0.234375 C 5.582031 0.234375 4.46875 0.0078125 3.53125 -0.4375 C 2.59375 -0.894531 1.875 -1.535156 1.375 -2.359375 C 0.875 -3.191406 0.625 -4.175781 0.625 -5.3125 C 0.625 -6.382812 0.863281 -7.335938 1.34375 -8.171875 C 1.820312 -9.003906 2.476562 -9.648438 3.3125 -10.109375 C 4.15625 -10.578125 5.113281 -10.8125 6.1875 -10.8125 C 7.25 -10.8125 8.171875 -10.585938 8.953125 -10.140625 C 9.734375 -9.703125 10.332031 -9.070312 10.75 -8.25 C 11.175781 -7.425781 11.390625 -6.460938 11.390625 -5.359375 C 11.390625 -4.796875 11.0625 -4.515625 10.40625 -4.515625 L 4.28125 -4.515625 C 4.40625 -3.828125 4.691406 -3.332031 5.140625 -3.03125 C 5.585938 -2.726562 6.203125 -2.578125 6.984375 -2.578125 C 7.285156 -2.578125 7.644531 -2.613281 8.0625 -2.6875 C 8.476562 -2.757812 8.875 -2.875 9.25 -3.03125 C 9.707031 -3.207031 10.09375 -3.210938 10.40625 -3.046875 C 10.71875 -2.878906 10.925781 -2.625 11.03125 -2.28125 C 11.144531 -1.945312 11.132812 -1.601562 11 -1.25 C 10.863281 -0.90625 10.59375 -0.640625 10.1875 -0.453125 C 9.6875 -0.210938 9.148438 -0.0390625 8.578125 0.0625 C 8.015625 0.175781 7.445312 0.234375 6.875 0.234375 Z M 6.359375 -8.34375 C 5.785156 -8.34375 5.316406 -8.171875 4.953125 -7.828125 C 4.585938 -7.484375 4.351562 -6.984375 4.25 -6.328125 L 8.25 -6.328125 C 8.207031 -6.992188 8.023438 -7.492188 7.703125 -7.828125 C 7.378906 -8.171875 6.929688 -8.34375 6.359375 -8.34375 Z M 6.359375 -8.34375 "/></g></g></g><g fill="#000000" fill-opacity="1"><g transform="translate(31.15343, 105.773843)"><g><path d="M 8.171875 0 L 6.40625 0 L 5.765625 -1.96875 L 2.5 -1.96875 L 1.859375 0 L 0.125 0 L 3.078125 -8.515625 L 5.234375 -8.515625 Z M 4.046875 -6.75 L 2.953125 -3.375 L 5.296875 -3.375 L 4.203125 -6.75 Z M 4.046875 -6.75 "/></g></g></g><g fill="#000000" fill-opacity="1"><g transform="translate(39.460258, 105.773843)"><g><path d="M 0.921875 0 L 0.921875 -6.421875 L 2.484375 -6.421875 L 2.484375 -5.484375 L 2.59375 -5.453125 C 3 -6.179688 3.648438 -6.546875 4.546875 -6.546875 C 5.285156 -6.546875 5.828125 -6.34375 6.171875 -5.9375 C 6.523438 -5.539062 6.703125 -4.953125 6.703125 -4.171875 L 6.703125 0 L 5.09375 0 L 5.09375 -3.984375 C 5.09375 -4.410156 5.003906 -4.71875 4.828125 -4.90625 C 4.660156 -5.09375 4.390625 -5.1875 4.015625 -5.1875 C 3.546875 -5.1875 3.179688 -5.035156 2.921875 -4.734375 C 2.671875 -4.441406 2.546875 -3.972656 2.546875 -3.328125 L 2.546875 0 Z M 0.921875 0 "/></g></g></g><g fill="#000000" fill-opacity="1"><g transform="translate(46.991777, 105.773843)"><g><path d="M 3.171875 0.125 C 2.660156 0.125 2.207031 0 1.8125 -0.25 C 1.425781 -0.5 1.125 -0.867188 0.90625 -1.359375 C 0.6875 -1.859375 0.578125 -2.476562 0.578125 -3.21875 C 0.578125 -3.945312 0.691406 -4.5625 0.921875 -5.0625 C 1.148438 -5.5625 1.460938 -5.929688 1.859375 -6.171875 C 2.265625 -6.421875 2.734375 -6.546875 3.265625 -6.546875 C 3.660156 -6.546875 4.003906 -6.476562 4.296875 -6.34375 C 4.585938 -6.207031 4.835938 -5.992188 5.046875 -5.703125 L 5.171875 -5.734375 L 5.171875 -9.015625 L 6.78125 -9.015625 L 6.78125 0 L 5.171875 0 L 5.171875 -0.828125 L 5.046875 -0.859375 C 4.867188 -0.554688 4.625 -0.316406 4.3125 -0.140625 C 4 0.0351562 3.617188 0.125 3.171875 0.125 Z M 3.703125 -1.25 C 4.160156 -1.25 4.519531 -1.410156 4.78125 -1.734375 C 5.039062 -2.054688 5.171875 -2.550781 5.171875 -3.21875 C 5.171875 -3.875 5.039062 -4.363281 4.78125 -4.6875 C 4.519531 -5.019531 4.160156 -5.1875 3.703125 -5.1875 C 3.222656 -5.1875 2.859375 -5.023438 2.609375 -4.703125 C 2.359375 -4.390625 2.234375 -3.894531 2.234375 -3.21875 C 2.234375 -2.539062 2.359375 -2.039062 2.609375 -1.71875 C 2.859375 -1.40625 3.222656 -1.25 3.703125 -1.25 Z M 3.703125 -1.25 "/></g></g></g><g fill="#000000" fill-opacity="1"><g transform="translate(54.698175, 105.773843)"><g><path d="M 2.5 0.125 C 2.09375 0.125 1.738281 0.0507812 1.4375 -0.09375 C 1.132812 -0.25 0.898438 -0.472656 0.734375 -0.765625 C 0.566406 -1.066406 0.484375 -1.421875 0.484375 -1.828125 C 0.484375 -2.210938 0.566406 -2.53125 0.734375 -2.78125 C 0.898438 -3.039062 1.148438 -3.253906 1.484375 -3.421875 C 1.828125 -3.585938 2.273438 -3.71875 2.828125 -3.8125 C 3.210938 -3.875 3.503906 -3.941406 3.703125 -4.015625 C 3.910156 -4.085938 4.046875 -4.171875 4.109375 -4.265625 C 4.179688 -4.359375 4.21875 -4.472656 4.21875 -4.609375 C 4.21875 -4.816406 4.144531 -4.972656 4 -5.078125 C 3.851562 -5.191406 3.613281 -5.25 3.28125 -5.25 C 2.925781 -5.25 2.585938 -5.171875 2.265625 -5.015625 C 1.941406 -4.859375 1.660156 -4.648438 1.421875 -4.390625 L 1.3125 -4.390625 L 0.640625 -5.40625 C 0.960938 -5.769531 1.359375 -6.050781 1.828125 -6.25 C 2.296875 -6.445312 2.8125 -6.546875 3.375 -6.546875 C 4.21875 -6.546875 4.828125 -6.363281 5.203125 -6 C 5.585938 -5.644531 5.78125 -5.132812 5.78125 -4.46875 L 5.78125 -1.671875 C 5.78125 -1.390625 5.910156 -1.25 6.171875 -1.25 C 6.265625 -1.25 6.359375 -1.265625 6.453125 -1.296875 L 6.53125 -1.28125 L 6.65625 -0.15625 C 6.5625 -0.09375 6.429688 -0.0390625 6.265625 0 C 6.109375 0.03125 5.9375 0.046875 5.75 0.046875 C 5.363281 0.046875 5.0625 -0.0234375 4.84375 -0.171875 C 4.632812 -0.316406 4.484375 -0.550781 4.390625 -0.875 L 4.265625 -0.875 C 3.953125 -0.207031 3.363281 0.125 2.5 0.125 Z M 3.015625 -1.078125 C 3.390625 -1.078125 3.6875 -1.203125 3.90625 -1.453125 C 4.132812 -1.710938 4.25 -2.0625 4.25 -2.5 L 4.25 -3.15625 L 4.140625 -3.1875 C 4.046875 -3.101562 3.914062 -3.035156 3.75 -2.984375 C 3.59375 -2.929688 3.367188 -2.878906 3.078125 -2.828125 C 2.722656 -2.773438 2.46875 -2.675781 2.3125 -2.53125 C 2.164062 -2.382812 2.09375 -2.179688 2.09375 -1.921875 C 2.09375 -1.648438 2.171875 -1.441406 2.328125 -1.296875 C 2.492188 -1.148438 2.722656 -1.078125 3.015625 -1.078125 Z M 3.015625 -1.078125 "/></g></g></g><g fill="#000000" fill-opacity="1"><g transform="translate(61.477715, 105.773843)"><g/></g></g><g fill="#000000" fill-opacity="1"><g transform="translate(64.293297, 105.773843)"><g><path d="M 3.171875 0.125 C 2.660156 0.125 2.207031 0 1.8125 -0.25 C 1.425781 -0.5 1.125 -0.867188 0.90625 -1.359375 C 0.6875 -1.859375 0.578125 -2.476562 0.578125 -3.21875 C 0.578125 -3.945312 0.691406 -4.5625 0.921875 -5.0625 C 1.148438 -5.5625 1.460938 -5.929688 1.859375 -6.171875 C 2.265625 -6.421875 2.734375 -6.546875 3.265625 -6.546875 C 3.660156 -6.546875 4.003906 -6.476562 4.296875 -6.34375 C 4.585938 -6.207031 4.835938 -5.992188 5.046875 -5.703125 L 5.171875 -5.734375 L 5.171875 -9.015625 L 6.78125 -9.015625 L 6.78125 0 L 5.171875 0 L 5.171875 -0.828125 L 5.046875 -0.859375 C 4.867188 -0.554688 4.625 -0.316406 4.3125 -0.140625 C 4 0.0351562 3.617188 0.125 3.171875 0.125 Z M 3.703125 -1.25 C 4.160156 -1.25 4.519531 -1.410156 4.78125 -1.734375 C 5.039062 -2.054688 5.171875 -2.550781 5.171875 -3.21875 C 5.171875 -3.875 5.039062 -4.363281 4.78125 -4.6875 C 4.519531 -5.019531 4.160156 -5.1875 3.703125 -5.1875 C 3.222656 -5.1875 2.859375 -5.023438 2.609375 -4.703125 C 2.359375 -4.390625 2.234375 -3.894531 2.234375 -3.21875 C 2.234375 -2.539062 2.359375 -2.039062 2.609375 -1.71875 C 2.859375 -1.40625 3.222656 -1.25 3.703125 -1.25 Z M 3.703125 -1.25 "/></g></g></g><g fill="#000000" fill-opacity="1"><g transform="translate(71.999695, 105.773843)"><g><path d="M 2.5 0.125 C 2.09375 0.125 1.738281 0.0507812 1.4375 -0.09375 C 1.132812 -0.25 0.898438 -0.472656 0.734375 -0.765625 C 0.566406 -1.066406 0.484375 -1.421875 0.484375 -1.828125 C 0.484375 -2.210938 0.566406 -2.53125 0.734375 -2.78125 C 0.898438 -3.039062 1.148438 -3.253906 1.484375 -3.421875 C 1.828125 -3.585938 2.273438 -3.71875 2.828125 -3.8125 C 3.210938 -3.875 3.503906 -3.941406 3.703125 -4.015625 C 3.910156 -4.085938 4.046875 -4.171875 4.109375 -4.265625 C 4.179688 -4.359375 4.21875 -4.472656 4.21875 -4.609375 C 4.21875 -4.816406 4.144531 -4.972656 4 -5.078125 C 3.851562 -5.191406 3.613281 -5.25 3.28125 -5.25 C 2.925781 -5.25 2.585938 -5.171875 2.265625 -5.015625 C 1.941406 -4.859375 1.660156 -4.648438 1.421875 -4.390625 L 1.3125 -4.390625 L 0.640625 -5.40625 C 0.960938 -5.769531 1.359375 -6.050781 1.828125 -6.25 C 2.296875 -6.445312 2.8125 -6.546875 3.375 -6.546875 C 4.21875 -6.546875 4.828125 -6.363281 5.203125 -6 C 5.585938 -5.644531 5.78125 -5.132812 5.78125 -4.46875 L 5.78125 -1.671875 C 5.78125 -1.390625 5.910156 -1.25 6.171875 -1.25 C 6.265625 -1.25 6.359375 -1.265625 6.453125 -1.296875 L 6.53125 -1.28125 L 6.65625 -0.15625 C 6.5625 -0.09375 6.429688 -0.0390625 6.265625 0 C 6.109375 0.03125 5.9375 0.046875 5.75 0.046875 C 5.363281 0.046875 5.0625 -0.0234375 4.84375 -0.171875 C 4.632812 -0.316406 4.484375 -0.550781 4.390625 -0.875 L 4.265625 -0.875 C 3.953125 -0.207031 3.363281 0.125 2.5 0.125 Z M 3.015625 -1.078125 C 3.390625 -1.078125 3.6875 -1.203125 3.90625 -1.453125 C 4.132812 -1.710938 4.25 -2.0625 4.25 -2.5 L 4.25 -3.15625 L 4.140625 -3.1875 C 4.046875 -3.101562 3.914062 -3.035156 3.75 -2.984375 C 3.59375 -2.929688 3.367188 -2.878906 3.078125 -2.828125 C 2.722656 -2.773438 2.46875 -2.675781 2.3125 -2.53125 C 2.164062 -2.382812 2.09375 -2.179688 2.09375 -1.921875 C 2.09375 -1.648438 2.171875 -1.441406 2.328125 -1.296875 C 2.492188 -1.148438 2.722656 -1.078125 3.015625 -1.078125 Z M 3.015625 -1.078125 "/></g></g></g><g fill="#000000" fill-opacity="1"><g transform="translate(78.779235, 105.773843)"><g><path d="M 0.921875 2.609375 L 0.921875 -6.421875 L 2.546875 -6.421875 L 2.546875 -5.59375 L 2.65625 -5.5625 C 2.851562 -5.894531 3.109375 -6.140625 3.421875 -6.296875 C 3.742188 -6.460938 4.117188 -6.546875 4.546875 -6.546875 C 5.066406 -6.546875 5.519531 -6.421875 5.90625 -6.171875 C 6.289062 -5.929688 6.585938 -5.5625 6.796875 -5.0625 C 7.015625 -4.5625 7.125 -3.945312 7.125 -3.21875 C 7.125 -2.476562 7.007812 -1.859375 6.78125 -1.359375 C 6.5625 -0.867188 6.25 -0.5 5.84375 -0.25 C 5.4375 0 4.96875 0.125 4.4375 0.125 C 4.039062 0.125 3.695312 0.0546875 3.40625 -0.078125 C 3.113281 -0.210938 2.863281 -0.421875 2.65625 -0.703125 L 2.546875 -0.6875 L 2.546875 2.609375 Z M 4 -1.25 C 4.476562 -1.25 4.84375 -1.40625 5.09375 -1.71875 C 5.34375 -2.03125 5.46875 -2.53125 5.46875 -3.21875 C 5.46875 -3.894531 5.34375 -4.390625 5.09375 -4.703125 C 4.84375 -5.023438 4.476562 -5.1875 4 -5.1875 C 3.539062 -5.1875 3.179688 -5.019531 2.921875 -4.6875 C 2.660156 -4.363281 2.53125 -3.875 2.53125 -3.21875 C 2.53125 -2.5625 2.660156 -2.066406 2.921875 -1.734375 C 3.179688 -1.410156 3.539062 -1.25 4 -1.25 Z M 4 -1.25 "/></g></g></g><g fill="#000000" fill-opacity="1"><g transform="translate(86.479811, 105.773843)"><g><path d="M 2.5 0.125 C 2.09375 0.125 1.738281 0.0507812 1.4375 -0.09375 C 1.132812 -0.25 0.898438 -0.472656 0.734375 -0.765625 C 0.566406 -1.066406 0.484375 -1.421875 0.484375 -1.828125 C 0.484375 -2.210938 0.566406 -2.53125 0.734375 -2.78125 C 0.898438 -3.039062 1.148438 -3.253906 1.484375 -3.421875 C 1.828125 -3.585938 2.273438 -3.71875 2.828125 -3.8125 C 3.210938 -3.875 3.503906 -3.941406 3.703125 -4.015625 C 3.910156 -4.085938 4.046875 -4.171875 4.109375 -4.265625 C 4.179688 -4.359375 4.21875 -4.472656 4.21875 -4.609375 C 4.21875 -4.816406 4.144531 -4.972656 4 -5.078125 C 3.851562 -5.191406 3.613281 -5.25 3.28125 -5.25 C 2.925781 -5.25 2.585938 -5.171875 2.265625 -5.015625 C 1.941406 -4.859375 1.660156 -4.648438 1.421875 -4.390625 L 1.3125 -4.390625 L 0.640625 -5.40625 C 0.960938 -5.769531 1.359375 -6.050781 1.828125 -6.25 C 2.296875 -6.445312 2.8125 -6.546875 3.375 -6.546875 C 4.21875 -6.546875 4.828125 -6.363281 5.203125 -6 C 5.585938 -5.644531 5.78125 -5.132812 5.78125 -4.46875 L 5.78125 -1.671875 C 5.78125 -1.390625 5.910156 -1.25 6.171875 -1.25 C 6.265625 -1.25 6.359375 -1.265625 6.453125 -1.296875 L 6.53125 -1.28125 L 6.65625 -0.15625 C 6.5625 -0.09375 6.429688 -0.0390625 6.265625 0 C 6.109375 0.03125 5.9375 0.046875 5.75 0.046875 C 5.363281 0.046875 5.0625 -0.0234375 4.84375 -0.171875 C 4.632812 -0.316406 4.484375 -0.550781 4.390625 -0.875 L 4.265625 -0.875 C 3.953125 -0.207031 3.363281 0.125 2.5 0.125 Z M 3.015625 -1.078125 C 3.390625 -1.078125 3.6875 -1.203125 3.90625 -1.453125 C 4.132812 -1.710938 4.25 -2.0625 4.25 -2.5 L 4.25 -3.15625 L 4.140625 -3.1875 C 4.046875 -3.101562 3.914062 -3.035156 3.75 -2.984375 C 3.59375 -2.929688 3.367188 -2.878906 3.078125 -2.828125 C 2.722656 -2.773438 2.46875 -2.675781 2.3125 -2.53125 C 2.164062 -2.382812 2.09375 -2.179688 2.09375 -1.921875 C 2.09375 -1.648438 2.171875 -1.441406 2.328125 -1.296875 C 2.492188 -1.148438 2.722656 -1.078125 3.015625 -1.078125 Z M 3.015625 -1.078125 "/></g></g></g><g fill="#000000" fill-opacity="1"><g transform="translate(93.25935, 105.773843)"><g><path d="M 4.4375 -1.53125 L 4.859375 -0.34375 C 4.679688 -0.195312 4.457031 -0.0820312 4.1875 0 C 3.925781 0.0820312 3.628906 0.125 3.296875 0.125 C 2.597656 0.125 2.066406 -0.0625 1.703125 -0.4375 C 1.347656 -0.820312 1.171875 -1.375 1.171875 -2.09375 L 1.171875 -5.15625 L 0.1875 -5.15625 L 0.1875 -6.4375 L 1.171875 -6.4375 L 1.171875 -7.6875 L 2.78125 -7.953125 L 2.78125 -6.4375 L 4.609375 -6.4375 L 4.609375 -5.15625 L 2.78125 -5.15625 L 2.78125 -2.21875 C 2.78125 -1.894531 2.847656 -1.660156 2.984375 -1.515625 C 3.117188 -1.367188 3.3125 -1.296875 3.5625 -1.296875 C 3.851562 -1.296875 4.101562 -1.375 4.3125 -1.53125 Z M 4.4375 -1.53125 "/></g></g></g><g fill="#000000" fill-opacity="1"><g transform="translate(98.255109, 105.773843)"><g/></g></g><g fill="#000000" fill-opacity="1"><g transform="translate(101.070691, 105.773843)"><g><path d="M 0.921875 0 L 0.921875 -6.421875 L 2.484375 -6.421875 L 2.484375 -5.5625 L 2.59375 -5.546875 C 2.8125 -5.890625 3.0625 -6.140625 3.34375 -6.296875 C 3.625 -6.460938 3.984375 -6.546875 4.421875 -6.546875 C 4.898438 -6.546875 5.285156 -6.445312 5.578125 -6.25 C 5.878906 -6.0625 6.097656 -5.785156 6.234375 -5.421875 L 6.359375 -5.421875 C 6.554688 -5.804688 6.8125 -6.085938 7.125 -6.265625 C 7.4375 -6.453125 7.828125 -6.546875 8.296875 -6.546875 C 9.628906 -6.546875 10.296875 -5.804688 10.296875 -4.328125 L 10.296875 0 L 8.671875 0 L 8.671875 -4.125 C 8.671875 -4.5 8.597656 -4.769531 8.453125 -4.9375 C 8.304688 -5.101562 8.070312 -5.1875 7.75 -5.1875 C 6.863281 -5.1875 6.421875 -4.59375 6.421875 -3.40625 L 6.421875 0 L 4.796875 0 L 4.796875 -4.125 C 4.796875 -4.5 4.722656 -4.769531 4.578125 -4.9375 C 4.429688 -5.101562 4.191406 -5.1875 3.859375 -5.1875 C 3.441406 -5.1875 3.117188 -5.046875 2.890625 -4.765625 C 2.660156 -4.492188 2.546875 -4.050781 2.546875 -3.4375 L 2.546875 0 Z M 0.921875 0 "/></g></g></g><g fill="#000000" fill-opacity="1"><g transform="translate(112.193088, 105.773843)"><g><path d="M 6.359375 -2.84375 L 2.21875 -2.84375 C 2.269531 -2.289062 2.429688 -1.882812 2.703125 -1.625 C 2.972656 -1.375 3.34375 -1.25 3.8125 -1.25 C 4.175781 -1.25 4.472656 -1.316406 4.703125 -1.453125 C 4.929688 -1.585938 5.117188 -1.796875 5.265625 -2.078125 L 5.390625 -2.078125 L 6.453125 -1.390625 C 6.242188 -0.941406 5.925781 -0.578125 5.5 -0.296875 C 5.082031 -0.015625 4.519531 0.125 3.8125 0.125 C 3.144531 0.125 2.566406 0 2.078125 -0.25 C 1.597656 -0.507812 1.226562 -0.890625 0.96875 -1.390625 C 0.707031 -1.890625 0.578125 -2.5 0.578125 -3.21875 C 0.578125 -3.945312 0.710938 -4.5625 0.984375 -5.0625 C 1.265625 -5.5625 1.640625 -5.929688 2.109375 -6.171875 C 2.578125 -6.421875 3.109375 -6.546875 3.703125 -6.546875 C 4.609375 -6.546875 5.300781 -6.304688 5.78125 -5.828125 C 6.269531 -5.347656 6.515625 -4.640625 6.515625 -3.703125 C 6.515625 -3.367188 6.5 -3.109375 6.46875 -2.921875 Z M 4.96875 -3.890625 C 4.945312 -4.378906 4.832031 -4.734375 4.625 -4.953125 C 4.414062 -5.179688 4.109375 -5.296875 3.703125 -5.296875 C 2.878906 -5.296875 2.394531 -4.828125 2.25 -3.890625 Z M 4.96875 -3.890625 "/></g></g></g><g fill="#000000" fill-opacity="1"><g transform="translate(119.182483, 105.773843)"><g><path d="M 0.921875 0 L 0.921875 -6.421875 L 2.484375 -6.421875 L 2.484375 -5.5625 L 2.59375 -5.546875 C 2.8125 -5.890625 3.0625 -6.140625 3.34375 -6.296875 C 3.625 -6.460938 3.984375 -6.546875 4.421875 -6.546875 C 4.898438 -6.546875 5.285156 -6.445312 5.578125 -6.25 C 5.878906 -6.0625 6.097656 -5.785156 6.234375 -5.421875 L 6.359375 -5.421875 C 6.554688 -5.804688 6.8125 -6.085938 7.125 -6.265625 C 7.4375 -6.453125 7.828125 -6.546875 8.296875 -6.546875 C 9.628906 -6.546875 10.296875 -5.804688 10.296875 -4.328125 L 10.296875 0 L 8.671875 0 L 8.671875 -4.125 C 8.671875 -4.5 8.597656 -4.769531 8.453125 -4.9375 C 8.304688 -5.101562 8.070312 -5.1875 7.75 -5.1875 C 6.863281 -5.1875 6.421875 -4.59375 6.421875 -3.40625 L 6.421875 0 L 4.796875 0 L 4.796875 -4.125 C 4.796875 -4.5 4.722656 -4.769531 4.578125 -4.9375 C 4.429688 -5.101562 4.191406 -5.1875 3.859375 -5.1875 C 3.441406 -5.1875 3.117188 -5.046875 2.890625 -4.765625 C 2.660156 -4.492188 2.546875 -4.050781 2.546875 -3.4375 L 2.546875 0 Z M 0.921875 0 "/></g></g></g><g fill="#000000" fill-opacity="1"><g transform="translate(130.30488, 105.773843)"><g><path d="M 1.734375 -7.203125 C 1.441406 -7.203125 1.203125 -7.289062 1.015625 -7.46875 C 0.835938 -7.644531 0.75 -7.875 0.75 -8.15625 C 0.75 -8.425781 0.835938 -8.648438 1.015625 -8.828125 C 1.203125 -9.003906 1.441406 -9.09375 1.734375 -9.09375 C 1.921875 -9.09375 2.09375 -9.050781 2.25 -8.96875 C 2.40625 -8.882812 2.523438 -8.769531 2.609375 -8.625 C 2.691406 -8.488281 2.734375 -8.332031 2.734375 -8.15625 C 2.734375 -7.96875 2.691406 -7.800781 2.609375 -7.65625 C 2.523438 -7.507812 2.40625 -7.394531 2.25 -7.3125 C 2.09375 -7.238281 1.921875 -7.203125 1.734375 -7.203125 Z M 0.921875 0 L 0.921875 -6.421875 L 2.546875 -6.421875 L 2.546875 0 Z M 0.921875 0 "/></g></g></g><g fill="#000000" fill-opacity="1"><g transform="translate(133.767514, 105.773843)"><g><path d="M 2.671875 0.125 C 2.085938 0.125 1.644531 -0.03125 1.34375 -0.34375 C 1.039062 -0.65625 0.890625 -1.128906 0.890625 -1.765625 L 0.890625 -9.015625 L 2.5 -9.015625 L 2.5 -1.84375 C 2.5 -1.445312 2.660156 -1.25 2.984375 -1.25 C 3.078125 -1.25 3.175781 -1.265625 3.28125 -1.296875 L 3.375 -1.265625 L 3.515625 -0.03125 C 3.421875 0.0195312 3.300781 0.0546875 3.15625 0.078125 C 3.007812 0.109375 2.847656 0.125 2.671875 0.125 Z M 2.671875 0.125 "/></g></g></g><g fill="#000000" fill-opacity="1"><g transform="translate(137.46332, 105.773843)"><g><path d="M 1.734375 -7.203125 C 1.441406 -7.203125 1.203125 -7.289062 1.015625 -7.46875 C 0.835938 -7.644531 0.75 -7.875 0.75 -8.15625 C 0.75 -8.425781 0.835938 -8.648438 1.015625 -8.828125 C 1.203125 -9.003906 1.441406 -9.09375 1.734375 -9.09375 C 1.921875 -9.09375 2.09375 -9.050781 2.25 -8.96875 C 2.40625 -8.882812 2.523438 -8.769531 2.609375 -8.625 C 2.691406 -8.488281 2.734375 -8.332031 2.734375 -8.15625 C 2.734375 -7.96875 2.691406 -7.800781 2.609375 -7.65625 C 2.523438 -7.507812 2.40625 -7.394531 2.25 -7.3125 C 2.09375 -7.238281 1.921875 -7.203125 1.734375 -7.203125 Z M 0.921875 0 L 0.921875 -6.421875 L 2.546875 -6.421875 L 2.546875 0 Z M 0.921875 0 "/></g></g></g><g fill="#000000" fill-opacity="1"><g transform="translate(140.925953, 105.773843)"><g><path d="M 0.921875 0 L 0.921875 -9.015625 L 2.546875 -9.015625 L 2.546875 -5.59375 L 2.65625 -5.5625 C 2.875 -5.875 3.140625 -6.113281 3.453125 -6.28125 C 3.765625 -6.457031 4.140625 -6.546875 4.578125 -6.546875 C 5.992188 -6.546875 6.703125 -5.742188 6.703125 -4.140625 L 6.703125 0 L 5.09375 0 L 5.09375 -3.9375 C 5.09375 -4.375 5.003906 -4.691406 4.828125 -4.890625 C 4.648438 -5.085938 4.378906 -5.1875 4.015625 -5.1875 C 3.554688 -5.1875 3.195312 -5.035156 2.9375 -4.734375 C 2.675781 -4.429688 2.546875 -3.960938 2.546875 -3.328125 L 2.546875 0 Z M 0.921875 0 "/></g></g></g><g fill="#000000" fill-opacity="1"><g transform="translate(148.457472, 105.773843)"><g/></g></g><g fill="#000000" fill-opacity="1"><g transform="translate(151.273054, 105.773843)"><g><path d="M 3.328125 2.734375 C 2.273438 2.734375 1.492188 2.578125 0.984375 2.265625 C 0.484375 1.953125 0.234375 1.519531 0.234375 0.96875 C 0.234375 0.625 0.335938 0.34375 0.546875 0.125 C 0.765625 -0.0820312 1.078125 -0.222656 1.484375 -0.296875 L 1.484375 -0.421875 C 1.265625 -0.554688 1.109375 -0.703125 1.015625 -0.859375 C 0.921875 -1.023438 0.875 -1.210938 0.875 -1.421875 C 0.875 -1.941406 1.207031 -2.289062 1.875 -2.46875 L 1.875 -2.59375 C 1.53125 -2.789062 1.269531 -3.035156 1.09375 -3.328125 C 0.914062 -3.617188 0.828125 -3.972656 0.828125 -4.390625 C 0.828125 -4.816406 0.925781 -5.191406 1.125 -5.515625 C 1.320312 -5.847656 1.609375 -6.101562 1.984375 -6.28125 C 2.367188 -6.457031 2.828125 -6.546875 3.359375 -6.546875 C 3.890625 -6.546875 4.316406 -6.453125 4.640625 -6.265625 C 4.835938 -6.554688 4.953125 -6.890625 4.984375 -7.265625 L 5.09375 -7.34375 L 6.265625 -7.0625 C 6.222656 -6.75 6.128906 -6.488281 5.984375 -6.28125 C 5.847656 -6.070312 5.628906 -5.890625 5.328125 -5.734375 L 5.328125 -5.59375 C 5.679688 -5.28125 5.859375 -4.835938 5.859375 -4.265625 C 5.859375 -3.867188 5.757812 -3.515625 5.5625 -3.203125 C 5.363281 -2.890625 5.070312 -2.640625 4.6875 -2.453125 C 4.3125 -2.273438 3.867188 -2.1875 3.359375 -2.1875 L 3.109375 -2.1875 C 2.953125 -2.195312 2.84375 -2.203125 2.78125 -2.203125 C 2.632812 -2.203125 2.519531 -2.160156 2.4375 -2.078125 C 2.351562 -1.992188 2.3125 -1.890625 2.3125 -1.765625 C 2.3125 -1.628906 2.363281 -1.523438 2.46875 -1.453125 C 2.582031 -1.378906 2.742188 -1.335938 2.953125 -1.328125 L 4.390625 -1.28125 C 5.804688 -1.238281 6.515625 -0.625 6.515625 0.5625 C 6.515625 0.976562 6.410156 1.347656 6.203125 1.671875 C 5.992188 1.992188 5.648438 2.25 5.171875 2.4375 C 4.703125 2.632812 4.085938 2.734375 3.328125 2.734375 Z M 3.359375 -3.3125 C 3.660156 -3.3125 3.898438 -3.398438 4.078125 -3.578125 C 4.253906 -3.765625 4.34375 -4.023438 4.34375 -4.359375 C 4.34375 -4.703125 4.253906 -4.960938 4.078125 -5.140625 C 3.898438 -5.328125 3.660156 -5.421875 3.359375 -5.421875 C 3.035156 -5.421875 2.785156 -5.328125 2.609375 -5.140625 C 2.441406 -4.960938 2.359375 -4.703125 2.359375 -4.359375 C 2.359375 -4.023438 2.441406 -3.765625 2.609375 -3.578125 C 2.785156 -3.398438 3.035156 -3.3125 3.359375 -3.3125 Z M 3.328125 1.5625 C 3.878906 1.5625 4.28125 1.484375 4.53125 1.328125 C 4.78125 1.171875 4.90625 0.96875 4.90625 0.71875 C 4.90625 0.507812 4.84375 0.359375 4.71875 0.265625 C 4.59375 0.171875 4.390625 0.117188 4.109375 0.109375 L 2.84375 0.0625 C 2.800781 0.0625 2.757812 0.0546875 2.71875 0.046875 C 2.675781 0.046875 2.640625 0.046875 2.609375 0.046875 C 2.335938 0.046875 2.128906 0.101562 1.984375 0.21875 C 1.847656 0.332031 1.78125 0.492188 1.78125 0.703125 C 1.78125 0.972656 1.910156 1.179688 2.171875 1.328125 C 2.429688 1.484375 2.816406 1.5625 3.328125 1.5625 Z M 3.328125 1.5625 "/></g></g></g><g fill="#000000" fill-opacity="1"><g transform="translate(157.959324, 105.773843)"><g><path d="M 2.9375 0.125 C 2.21875 0.125 1.6875 -0.0703125 1.34375 -0.46875 C 1 -0.863281 0.828125 -1.429688 0.828125 -2.171875 L 0.828125 -6.421875 L 2.4375 -6.421875 L 2.4375 -2.375 C 2.4375 -1.976562 2.519531 -1.6875 2.6875 -1.5 C 2.863281 -1.320312 3.128906 -1.234375 3.484375 -1.234375 C 3.929688 -1.234375 4.273438 -1.378906 4.515625 -1.671875 C 4.765625 -1.972656 4.890625 -2.4375 4.890625 -3.0625 L 4.890625 -6.421875 L 6.515625 -6.421875 L 6.515625 0 L 4.953125 0 L 4.953125 -0.9375 L 4.84375 -0.96875 C 4.632812 -0.601562 4.378906 -0.328125 4.078125 -0.140625 C 3.785156 0.0351562 3.40625 0.125 2.9375 0.125 Z M 2.9375 0.125 "/></g></g></g><g fill="#000000" fill-opacity="1"><g transform="translate(165.397572, 105.773843)"><g><path d="M 0.921875 0 L 0.921875 -6.421875 L 2.5 -6.421875 L 2.5 -5.46875 L 2.609375 -5.453125 C 2.765625 -5.804688 2.96875 -6.066406 3.21875 -6.234375 C 3.476562 -6.398438 3.789062 -6.484375 4.15625 -6.484375 C 4.519531 -6.484375 4.796875 -6.421875 4.984375 -6.296875 L 4.703125 -4.90625 L 4.59375 -4.890625 C 4.488281 -4.929688 4.382812 -4.957031 4.28125 -4.96875 C 4.1875 -4.988281 4.066406 -5 3.921875 -5 C 3.472656 -5 3.128906 -4.84375 2.890625 -4.53125 C 2.660156 -4.21875 2.546875 -3.707031 2.546875 -3 L 2.546875 0 Z M 0.921875 0 "/></g></g></g><g fill="#000000" fill-opacity="1"><g transform="translate(170.439965, 105.773843)"><g><path d="M 2.9375 0.125 C 2.21875 0.125 1.6875 -0.0703125 1.34375 -0.46875 C 1 -0.863281 0.828125 -1.429688 0.828125 -2.171875 L 0.828125 -6.421875 L 2.4375 -6.421875 L 2.4375 -2.375 C 2.4375 -1.976562 2.519531 -1.6875 2.6875 -1.5 C 2.863281 -1.320312 3.128906 -1.234375 3.484375 -1.234375 C 3.929688 -1.234375 4.273438 -1.378906 4.515625 -1.671875 C 4.765625 -1.972656 4.890625 -2.4375 4.890625 -3.0625 L 4.890625 -6.421875 L 6.515625 -6.421875 L 6.515625 0 L 4.953125 0 L 4.953125 -0.9375 L 4.84375 -0.96875 C 4.632812 -0.601562 4.378906 -0.328125 4.078125 -0.140625 C 3.785156 0.0351562 3.40625 0.125 2.9375 0.125 Z M 2.9375 0.125 "/></g></g></g><g fill="#000000" fill-opacity="1"><g transform="translate(31.15343, 121.897124)"><g><path d="M 1.421875 2.734375 C 1.148438 2.734375 0.898438 2.707031 0.671875 2.65625 C 0.453125 2.613281 0.269531 2.5625 0.125 2.5 L 0.390625 1.1875 L 0.484375 1.15625 C 0.585938 1.207031 0.707031 1.25 0.84375 1.28125 C 0.988281 1.3125 1.140625 1.328125 1.296875 1.328125 C 1.554688 1.328125 1.769531 1.289062 1.9375 1.21875 C 2.113281 1.15625 2.257812 1.039062 2.375 0.875 C 2.5 0.71875 2.609375 0.503906 2.703125 0.234375 L 0.140625 -6.421875 L 1.828125 -6.421875 L 3.421875 -1.953125 L 3.5625 -1.953125 L 5.125 -6.421875 L 6.765625 -6.421875 L 4.1875 0.40625 C 3.976562 0.957031 3.75 1.398438 3.5 1.734375 C 3.257812 2.066406 2.96875 2.316406 2.625 2.484375 C 2.289062 2.648438 1.890625 2.734375 1.421875 2.734375 Z M 1.421875 2.734375 "/></g></g></g><g fill="#000000" fill-opacity="1"><g transform="translate(38.055379, 121.897124)"><g><path d="M 2.5 0.125 C 2.09375 0.125 1.738281 0.0507812 1.4375 -0.09375 C 1.132812 -0.25 0.898438 -0.472656 0.734375 -0.765625 C 0.566406 -1.066406 0.484375 -1.421875 0.484375 -1.828125 C 0.484375 -2.210938 0.566406 -2.53125 0.734375 -2.78125 C 0.898438 -3.039062 1.148438 -3.253906 1.484375 -3.421875 C 1.828125 -3.585938 2.273438 -3.71875 2.828125 -3.8125 C 3.210938 -3.875 3.503906 -3.941406 3.703125 -4.015625 C 3.910156 -4.085938 4.046875 -4.171875 4.109375 -4.265625 C 4.179688 -4.359375 4.21875 -4.472656 4.21875 -4.609375 C 4.21875 -4.816406 4.144531 -4.972656 4 -5.078125 C 3.851562 -5.191406 3.613281 -5.25 3.28125 -5.25 C 2.925781 -5.25 2.585938 -5.171875 2.265625 -5.015625 C 1.941406 -4.859375 1.660156 -4.648438 1.421875 -4.390625 L 1.3125 -4.390625 L 0.640625 -5.40625 C 0.960938 -5.769531 1.359375 -6.050781 1.828125 -6.25 C 2.296875 -6.445312 2.8125 -6.546875 3.375 -6.546875 C 4.21875 -6.546875 4.828125 -6.363281 5.203125 -6 C 5.585938 -5.644531 5.78125 -5.132812 5.78125 -4.46875 L 5.78125 -1.671875 C 5.78125 -1.390625 5.910156 -1.25 6.171875 -1.25 C 6.265625 -1.25 6.359375 -1.265625 6.453125 -1.296875 L 6.53125 -1.28125 L 6.65625 -0.15625 C 6.5625 -0.09375 6.429688 -0.0390625 6.265625 0 C 6.109375 0.03125 5.9375 0.046875 5.75 0.046875 C 5.363281 0.046875 5.0625 -0.0234375 4.84375 -0.171875 C 4.632812 -0.316406 4.484375 -0.550781 4.390625 -0.875 L 4.265625 -0.875 C 3.953125 -0.207031 3.363281 0.125 2.5 0.125 Z M 3.015625 -1.078125 C 3.390625 -1.078125 3.6875 -1.203125 3.90625 -1.453125 C 4.132812 -1.710938 4.25 -2.0625 4.25 -2.5 L 4.25 -3.15625 L 4.140625 -3.1875 C 4.046875 -3.101562 3.914062 -3.035156 3.75 -2.984375 C 3.59375 -2.929688 3.367188 -2.878906 3.078125 -2.828125 C 2.722656 -2.773438 2.46875 -2.675781 2.3125 -2.53125 C 2.164062 -2.382812 2.09375 -2.179688 2.09375 -1.921875 C 2.09375 -1.648438 2.171875 -1.441406 2.328125 -1.296875 C 2.492188 -1.148438 2.722656 -1.078125 3.015625 -1.078125 Z M 3.015625 -1.078125 "/></g></g></g><g fill="#000000" fill-opacity="1"><g transform="translate(44.834918, 121.897124)"><g><path d="M 0.921875 0 L 0.921875 -6.421875 L 2.484375 -6.421875 L 2.484375 -5.484375 L 2.59375 -5.453125 C 3 -6.179688 3.648438 -6.546875 4.546875 -6.546875 C 5.285156 -6.546875 5.828125 -6.34375 6.171875 -5.9375 C 6.523438 -5.539062 6.703125 -4.953125 6.703125 -4.171875 L 6.703125 0 L 5.09375 0 L 5.09375 -3.984375 C 5.09375 -4.410156 5.003906 -4.71875 4.828125 -4.90625 C 4.660156 -5.09375 4.390625 -5.1875 4.015625 -5.1875 C 3.546875 -5.1875 3.179688 -5.035156 2.921875 -4.734375 C 2.671875 -4.441406 2.546875 -3.972656 2.546875 -3.328125 L 2.546875 0 Z M 0.921875 0 "/></g></g></g><g fill="#000000" fill-opacity="1"><g transform="translate(52.366436, 121.897124)"><g><path d="M 3.328125 2.734375 C 2.273438 2.734375 1.492188 2.578125 0.984375 2.265625 C 0.484375 1.953125 0.234375 1.519531 0.234375 0.96875 C 0.234375 0.625 0.335938 0.34375 0.546875 0.125 C 0.765625 -0.0820312 1.078125 -0.222656 1.484375 -0.296875 L 1.484375 -0.421875 C 1.265625 -0.554688 1.109375 -0.703125 1.015625 -0.859375 C 0.921875 -1.023438 0.875 -1.210938 0.875 -1.421875 C 0.875 -1.941406 1.207031 -2.289062 1.875 -2.46875 L 1.875 -2.59375 C 1.53125 -2.789062 1.269531 -3.035156 1.09375 -3.328125 C 0.914062 -3.617188 0.828125 -3.972656 0.828125 -4.390625 C 0.828125 -4.816406 0.925781 -5.191406 1.125 -5.515625 C 1.320312 -5.847656 1.609375 -6.101562 1.984375 -6.28125 C 2.367188 -6.457031 2.828125 -6.546875 3.359375 -6.546875 C 3.890625 -6.546875 4.316406 -6.453125 4.640625 -6.265625 C 4.835938 -6.554688 4.953125 -6.890625 4.984375 -7.265625 L 5.09375 -7.34375 L 6.265625 -7.0625 C 6.222656 -6.75 6.128906 -6.488281 5.984375 -6.28125 C 5.847656 -6.070312 5.628906 -5.890625 5.328125 -5.734375 L 5.328125 -5.59375 C 5.679688 -5.28125 5.859375 -4.835938 5.859375 -4.265625 C 5.859375 -3.867188 5.757812 -3.515625 5.5625 -3.203125 C 5.363281 -2.890625 5.070312 -2.640625 4.6875 -2.453125 C 4.3125 -2.273438 3.867188 -2.1875 3.359375 -2.1875 L 3.109375 -2.1875 C 2.953125 -2.195312 2.84375 -2.203125 2.78125 -2.203125 C 2.632812 -2.203125 2.519531 -2.160156 2.4375 -2.078125 C 2.351562 -1.992188 2.3125 -1.890625 2.3125 -1.765625 C 2.3125 -1.628906 2.363281 -1.523438 2.46875 -1.453125 C 2.582031 -1.378906 2.742188 -1.335938 2.953125 -1.328125 L 4.390625 -1.28125 C 5.804688 -1.238281 6.515625 -0.625 6.515625 0.5625 C 6.515625 0.976562 6.410156 1.347656 6.203125 1.671875 C 5.992188 1.992188 5.648438 2.25 5.171875 2.4375 C 4.703125 2.632812 4.085938 2.734375 3.328125 2.734375 Z M 3.359375 -3.3125 C 3.660156 -3.3125 3.898438 -3.398438 4.078125 -3.578125 C 4.253906 -3.765625 4.34375 -4.023438 4.34375 -4.359375 C 4.34375 -4.703125 4.253906 -4.960938 4.078125 -5.140625 C 3.898438 -5.328125 3.660156 -5.421875 3.359375 -5.421875 C 3.035156 -5.421875 2.785156 -5.328125 2.609375 -5.140625 C 2.441406 -4.960938 2.359375 -4.703125 2.359375 -4.359375 C 2.359375 -4.023438 2.441406 -3.765625 2.609375 -3.578125 C 2.785156 -3.398438 3.035156 -3.3125 3.359375 -3.3125 Z M 3.328125 1.5625 C 3.878906 1.5625 4.28125 1.484375 4.53125 1.328125 C 4.78125 1.171875 4.90625 0.96875 4.90625 0.71875 C 4.90625 0.507812 4.84375 0.359375 4.71875 0.265625 C 4.59375 0.171875 4.390625 0.117188 4.109375 0.109375 L 2.84375 0.0625 C 2.800781 0.0625 2.757812 0.0546875 2.71875 0.046875 C 2.675781 0.046875 2.640625 0.046875 2.609375 0.046875 C 2.335938 0.046875 2.128906 0.101562 1.984375 0.21875 C 1.847656 0.332031 1.78125 0.492188 1.78125 0.703125 C 1.78125 0.972656 1.910156 1.179688 2.171875 1.328125 C 2.429688 1.484375 2.816406 1.5625 3.328125 1.5625 Z M 3.328125 1.5625 "/></g></g></g><g fill="#000000" fill-opacity="1"><g transform="translate(59.052706, 121.897124)"><g/></g></g><g fill="#000000" fill-opacity="1"><g transform="translate(61.868288, 121.897124)"><g><path d="M 4.4375 -1.53125 L 4.859375 -0.34375 C 4.679688 -0.195312 4.457031 -0.0820312 4.1875 0 C 3.925781 0.0820312 3.628906 0.125 3.296875 0.125 C 2.597656 0.125 2.066406 -0.0625 1.703125 -0.4375 C 1.347656 -0.820312 1.171875 -1.375 1.171875 -2.09375 L 1.171875 -5.15625 L 0.1875 -5.15625 L 0.1875 -6.4375 L 1.171875 -6.4375 L 1.171875 -7.6875 L 2.78125 -7.953125 L 2.78125 -6.4375 L 4.609375 -6.4375 L 4.609375 -5.15625 L 2.78125 -5.15625 L 2.78125 -2.21875 C 2.78125 -1.894531 2.847656 -1.660156 2.984375 -1.515625 C 3.117188 -1.367188 3.3125 -1.296875 3.5625 -1.296875 C 3.851562 -1.296875 4.101562 -1.375 4.3125 -1.53125 Z M 4.4375 -1.53125 "/></g></g></g><g fill="#000000" fill-opacity="1"><g transform="translate(66.864046, 121.897124)"><g><path d="M 6.359375 -2.84375 L 2.21875 -2.84375 C 2.269531 -2.289062 2.429688 -1.882812 2.703125 -1.625 C 2.972656 -1.375 3.34375 -1.25 3.8125 -1.25 C 4.175781 -1.25 4.472656 -1.316406 4.703125 -1.453125 C 4.929688 -1.585938 5.117188 -1.796875 5.265625 -2.078125 L 5.390625 -2.078125 L 6.453125 -1.390625 C 6.242188 -0.941406 5.925781 -0.578125 5.5 -0.296875 C 5.082031 -0.015625 4.519531 0.125 3.8125 0.125 C 3.144531 0.125 2.566406 0 2.078125 -0.25 C 1.597656 -0.507812 1.226562 -0.890625 0.96875 -1.390625 C 0.707031 -1.890625 0.578125 -2.5 0.578125 -3.21875 C 0.578125 -3.945312 0.710938 -4.5625 0.984375 -5.0625 C 1.265625 -5.5625 1.640625 -5.929688 2.109375 -6.171875 C 2.578125 -6.421875 3.109375 -6.546875 3.703125 -6.546875 C 4.609375 -6.546875 5.300781 -6.304688 5.78125 -5.828125 C 6.269531 -5.347656 6.515625 -4.640625 6.515625 -3.703125 C 6.515625 -3.367188 6.5 -3.109375 6.46875 -2.921875 Z M 4.96875 -3.890625 C 4.945312 -4.378906 4.832031 -4.734375 4.625 -4.953125 C 4.414062 -5.179688 4.109375 -5.296875 3.703125 -5.296875 C 2.878906 -5.296875 2.394531 -4.828125 2.25 -3.890625 Z M 4.96875 -3.890625 "/></g></g></g><g fill="#000000" fill-opacity="1"><g transform="translate(73.853442, 121.897124)"><g><path d="M 0.921875 0 L 0.921875 -6.421875 L 2.5 -6.421875 L 2.5 -5.46875 L 2.609375 -5.453125 C 2.765625 -5.804688 2.96875 -6.066406 3.21875 -6.234375 C 3.476562 -6.398438 3.789062 -6.484375 4.15625 -6.484375 C 4.519531 -6.484375 4.796875 -6.421875 4.984375 -6.296875 L 4.703125 -4.90625 L 4.59375 -4.890625 C 4.488281 -4.929688 4.382812 -4.957031 4.28125 -4.96875 C 4.1875 -4.988281 4.066406 -5 3.921875 -5 C 3.472656 -5 3.128906 -4.84375 2.890625 -4.53125 C 2.660156 -4.21875 2.546875 -3.707031 2.546875 -3 L 2.546875 0 Z M 0.921875 0 "/></g></g></g><g fill="#000000" fill-opacity="1"><g transform="translate(78.895835, 121.897124)"><g><path d="M 3 0.125 C 2.5625 0.125 2.160156 0.0703125 1.796875 -0.03125 C 1.429688 -0.132812 1.117188 -0.273438 0.859375 -0.453125 C 0.609375 -0.640625 0.421875 -0.847656 0.296875 -1.078125 L 1.1875 -2.046875 L 1.3125 -2.046875 C 1.519531 -1.753906 1.769531 -1.535156 2.0625 -1.390625 C 2.351562 -1.253906 2.671875 -1.1875 3.015625 -1.1875 C 3.328125 -1.1875 3.5625 -1.238281 3.71875 -1.34375 C 3.882812 -1.457031 3.96875 -1.625 3.96875 -1.84375 C 3.96875 -2 3.910156 -2.128906 3.796875 -2.234375 C 3.679688 -2.347656 3.492188 -2.4375 3.234375 -2.5 L 2.390625 -2.703125 C 1.753906 -2.859375 1.285156 -3.09375 0.984375 -3.40625 C 0.691406 -3.71875 0.546875 -4.113281 0.546875 -4.59375 C 0.546875 -5 0.648438 -5.347656 0.859375 -5.640625 C 1.066406 -5.929688 1.351562 -6.15625 1.71875 -6.3125 C 2.09375 -6.46875 2.523438 -6.546875 3.015625 -6.546875 C 3.597656 -6.546875 4.078125 -6.460938 4.453125 -6.296875 C 4.835938 -6.128906 5.132812 -5.90625 5.34375 -5.625 L 4.484375 -4.703125 L 4.375 -4.703125 C 4.195312 -4.898438 3.992188 -5.046875 3.765625 -5.140625 C 3.546875 -5.234375 3.296875 -5.28125 3.015625 -5.28125 C 2.378906 -5.28125 2.0625 -5.082031 2.0625 -4.6875 C 2.0625 -4.519531 2.117188 -4.382812 2.234375 -4.28125 C 2.359375 -4.175781 2.570312 -4.085938 2.875 -4.015625 L 3.65625 -3.84375 C 4.3125 -3.707031 4.789062 -3.484375 5.09375 -3.171875 C 5.394531 -2.859375 5.546875 -2.441406 5.546875 -1.921875 C 5.546875 -1.515625 5.441406 -1.15625 5.234375 -0.84375 C 5.035156 -0.539062 4.742188 -0.300781 4.359375 -0.125 C 3.984375 0.0390625 3.53125 0.125 3 0.125 Z M 3 0.125 "/></g></g></g><g fill="#000000" fill-opacity="1"><g transform="translate(84.82429, 121.897124)"><g><path d="M 6.359375 -2.84375 L 2.21875 -2.84375 C 2.269531 -2.289062 2.429688 -1.882812 2.703125 -1.625 C 2.972656 -1.375 3.34375 -1.25 3.8125 -1.25 C 4.175781 -1.25 4.472656 -1.316406 4.703125 -1.453125 C 4.929688 -1.585938 5.117188 -1.796875 5.265625 -2.078125 L 5.390625 -2.078125 L 6.453125 -1.390625 C 6.242188 -0.941406 5.925781 -0.578125 5.5 -0.296875 C 5.082031 -0.015625 4.519531 0.125 3.8125 0.125 C 3.144531 0.125 2.566406 0 2.078125 -0.25 C 1.597656 -0.507812 1.226562 -0.890625 0.96875 -1.390625 C 0.707031 -1.890625 0.578125 -2.5 0.578125 -3.21875 C 0.578125 -3.945312 0.710938 -4.5625 0.984375 -5.0625 C 1.265625 -5.5625 1.640625 -5.929688 2.109375 -6.171875 C 2.578125 -6.421875 3.109375 -6.546875 3.703125 -6.546875 C 4.609375 -6.546875 5.300781 -6.304688 5.78125 -5.828125 C 6.269531 -5.347656 6.515625 -4.640625 6.515625 -3.703125 C 6.515625 -3.367188 6.5 -3.109375 6.46875 -2.921875 Z M 4.96875 -3.890625 C 4.945312 -4.378906 4.832031 -4.734375 4.625 -4.953125 C 4.414062 -5.179688 4.109375 -5.296875 3.703125 -5.296875 C 2.878906 -5.296875 2.394531 -4.828125 2.25 -3.890625 Z M 4.96875 -3.890625 "/></g></g></g><g fill="#000000" fill-opacity="1"><g transform="translate(91.813685, 121.897124)"><g><path d="M 3.171875 0.125 C 2.660156 0.125 2.207031 0 1.8125 -0.25 C 1.425781 -0.5 1.125 -0.867188 0.90625 -1.359375 C 0.6875 -1.859375 0.578125 -2.476562 0.578125 -3.21875 C 0.578125 -3.945312 0.691406 -4.5625 0.921875 -5.0625 C 1.148438 -5.5625 1.460938 -5.929688 1.859375 -6.171875 C 2.265625 -6.421875 2.734375 -6.546875 3.265625 -6.546875 C 3.660156 -6.546875 4.003906 -6.476562 4.296875 -6.34375 C 4.585938 -6.207031 4.835938 -5.992188 5.046875 -5.703125 L 5.171875 -5.734375 L 5.171875 -9.015625 L 6.78125 -9.015625 L 6.78125 0 L 5.171875 0 L 5.171875 -0.828125 L 5.046875 -0.859375 C 4.867188 -0.554688 4.625 -0.316406 4.3125 -0.140625 C 4 0.0351562 3.617188 0.125 3.171875 0.125 Z M 3.703125 -1.25 C 4.160156 -1.25 4.519531 -1.410156 4.78125 -1.734375 C 5.039062 -2.054688 5.171875 -2.550781 5.171875 -3.21875 C 5.171875 -3.875 5.039062 -4.363281 4.78125 -4.6875 C 4.519531 -5.019531 4.160156 -5.1875 3.703125 -5.1875 C 3.222656 -5.1875 2.859375 -5.023438 2.609375 -4.703125 C 2.359375 -4.390625 2.234375 -3.894531 2.234375 -3.21875 C 2.234375 -2.539062 2.359375 -2.039062 2.609375 -1.71875 C 2.859375 -1.40625 3.222656 -1.25 3.703125 -1.25 Z M 3.703125 -1.25 "/></g></g></g><g fill="#000000" fill-opacity="1"><g transform="translate(99.520084, 121.897124)"><g><path d="M 1.734375 -7.203125 C 1.441406 -7.203125 1.203125 -7.289062 1.015625 -7.46875 C 0.835938 -7.644531 0.75 -7.875 0.75 -8.15625 C 0.75 -8.425781 0.835938 -8.648438 1.015625 -8.828125 C 1.203125 -9.003906 1.441406 -9.09375 1.734375 -9.09375 C 1.921875 -9.09375 2.09375 -9.050781 2.25 -8.96875 C 2.40625 -8.882812 2.523438 -8.769531 2.609375 -8.625 C 2.691406 -8.488281 2.734375 -8.332031 2.734375 -8.15625 C 2.734375 -7.96875 2.691406 -7.800781 2.609375 -7.65625 C 2.523438 -7.507812 2.40625 -7.394531 2.25 -7.3125 C 2.09375 -7.238281 1.921875 -7.203125 1.734375 -7.203125 Z M 0.921875 0 L 0.921875 -6.421875 L 2.546875 -6.421875 L 2.546875 0 Z M 0.921875 0 "/></g></g></g><g fill="#000000" fill-opacity="1"><g transform="translate(102.982717, 121.897124)"><g><path d="M 2.5 0.125 C 2.09375 0.125 1.738281 0.0507812 1.4375 -0.09375 C 1.132812 -0.25 0.898438 -0.472656 0.734375 -0.765625 C 0.566406 -1.066406 0.484375 -1.421875 0.484375 -1.828125 C 0.484375 -2.210938 0.566406 -2.53125 0.734375 -2.78125 C 0.898438 -3.039062 1.148438 -3.253906 1.484375 -3.421875 C 1.828125 -3.585938 2.273438 -3.71875 2.828125 -3.8125 C 3.210938 -3.875 3.503906 -3.941406 3.703125 -4.015625 C 3.910156 -4.085938 4.046875 -4.171875 4.109375 -4.265625 C 4.179688 -4.359375 4.21875 -4.472656 4.21875 -4.609375 C 4.21875 -4.816406 4.144531 -4.972656 4 -5.078125 C 3.851562 -5.191406 3.613281 -5.25 3.28125 -5.25 C 2.925781 -5.25 2.585938 -5.171875 2.265625 -5.015625 C 1.941406 -4.859375 1.660156 -4.648438 1.421875 -4.390625 L 1.3125 -4.390625 L 0.640625 -5.40625 C 0.960938 -5.769531 1.359375 -6.050781 1.828125 -6.25 C 2.296875 -6.445312 2.8125 -6.546875 3.375 -6.546875 C 4.21875 -6.546875 4.828125 -6.363281 5.203125 -6 C 5.585938 -5.644531 5.78125 -5.132812 5.78125 -4.46875 L 5.78125 -1.671875 C 5.78125 -1.390625 5.910156 -1.25 6.171875 -1.25 C 6.265625 -1.25 6.359375 -1.265625 6.453125 -1.296875 L 6.53125 -1.28125 L 6.65625 -0.15625 C 6.5625 -0.09375 6.429688 -0.0390625 6.265625 0 C 6.109375 0.03125 5.9375 0.046875 5.75 0.046875 C 5.363281 0.046875 5.0625 -0.0234375 4.84375 -0.171875 C 4.632812 -0.316406 4.484375 -0.550781 4.390625 -0.875 L 4.265625 -0.875 C 3.953125 -0.207031 3.363281 0.125 2.5 0.125 Z M 3.015625 -1.078125 C 3.390625 -1.078125 3.6875 -1.203125 3.90625 -1.453125 C 4.132812 -1.710938 4.25 -2.0625 4.25 -2.5 L 4.25 -3.15625 L 4.140625 -3.1875 C 4.046875 -3.101562 3.914062 -3.035156 3.75 -2.984375 C 3.59375 -2.929688 3.367188 -2.878906 3.078125 -2.828125 C 2.722656 -2.773438 2.46875 -2.675781 2.3125 -2.53125 C 2.164062 -2.382812 2.09375 -2.179688 2.09375 -1.921875 C 2.09375 -1.648438 2.171875 -1.441406 2.328125 -1.296875 C 2.492188 -1.148438 2.722656 -1.078125 3.015625 -1.078125 Z M 3.015625 -1.078125 "/></g></g></g><g fill="#000000" fill-opacity="1"><g transform="translate(109.762256, 121.897124)"><g/></g></g><g fill="#000000" fill-opacity="1"><g transform="translate(112.577838, 121.897124)"><g><path d="M 3 0.125 C 2.5625 0.125 2.160156 0.0703125 1.796875 -0.03125 C 1.429688 -0.132812 1.117188 -0.273438 0.859375 -0.453125 C 0.609375 -0.640625 0.421875 -0.847656 0.296875 -1.078125 L 1.1875 -2.046875 L 1.3125 -2.046875 C 1.519531 -1.753906 1.769531 -1.535156 2.0625 -1.390625 C 2.351562 -1.253906 2.671875 -1.1875 3.015625 -1.1875 C 3.328125 -1.1875 3.5625 -1.238281 3.71875 -1.34375 C 3.882812 -1.457031 3.96875 -1.625 3.96875 -1.84375 C 3.96875 -2 3.910156 -2.128906 3.796875 -2.234375 C 3.679688 -2.347656 3.492188 -2.4375 3.234375 -2.5 L 2.390625 -2.703125 C 1.753906 -2.859375 1.285156 -3.09375 0.984375 -3.40625 C 0.691406 -3.71875 0.546875 -4.113281 0.546875 -4.59375 C 0.546875 -5 0.648438 -5.347656 0.859375 -5.640625 C 1.066406 -5.929688 1.351562 -6.15625 1.71875 -6.3125 C 2.09375 -6.46875 2.523438 -6.546875 3.015625 -6.546875 C 3.597656 -6.546875 4.078125 -6.460938 4.453125 -6.296875 C 4.835938 -6.128906 5.132812 -5.90625 5.34375 -5.625 L 4.484375 -4.703125 L 4.375 -4.703125 C 4.195312 -4.898438 3.992188 -5.046875 3.765625 -5.140625 C 3.546875 -5.234375 3.296875 -5.28125 3.015625 -5.28125 C 2.378906 -5.28125 2.0625 -5.082031 2.0625 -4.6875 C 2.0625 -4.519531 2.117188 -4.382812 2.234375 -4.28125 C 2.359375 -4.175781 2.570312 -4.085938 2.875 -4.015625 L 3.65625 -3.84375 C 4.3125 -3.707031 4.789062 -3.484375 5.09375 -3.171875 C 5.394531 -2.859375 5.546875 -2.441406 5.546875 -1.921875 C 5.546875 -1.515625 5.441406 -1.15625 5.234375 -0.84375 C 5.035156 -0.539062 4.742188 -0.300781 4.359375 -0.125 C 3.984375 0.0390625 3.53125 0.125 3 0.125 Z M 3 0.125 "/></g></g></g><g fill="#000000" fill-opacity="1"><g transform="translate(118.506293, 121.897124)"><g><path d="M 6.359375 -2.84375 L 2.21875 -2.84375 C 2.269531 -2.289062 2.429688 -1.882812 2.703125 -1.625 C 2.972656 -1.375 3.34375 -1.25 3.8125 -1.25 C 4.175781 -1.25 4.472656 -1.316406 4.703125 -1.453125 C 4.929688 -1.585938 5.117188 -1.796875 5.265625 -2.078125 L 5.390625 -2.078125 L 6.453125 -1.390625 C 6.242188 -0.941406 5.925781 -0.578125 5.5 -0.296875 C 5.082031 -0.015625 4.519531 0.125 3.8125 0.125 C 3.144531 0.125 2.566406 0 2.078125 -0.25 C 1.597656 -0.507812 1.226562 -0.890625 0.96875 -1.390625 C 0.707031 -1.890625 0.578125 -2.5 0.578125 -3.21875 C 0.578125 -3.945312 0.710938 -4.5625 0.984375 -5.0625 C 1.265625 -5.5625 1.640625 -5.929688 2.109375 -6.171875 C 2.578125 -6.421875 3.109375 -6.546875 3.703125 -6.546875 C 4.609375 -6.546875 5.300781 -6.304688 5.78125 -5.828125 C 6.269531 -5.347656 6.515625 -4.640625 6.515625 -3.703125 C 6.515625 -3.367188 6.5 -3.109375 6.46875 -2.921875 Z M 4.96875 -3.890625 C 4.945312 -4.378906 4.832031 -4.734375 4.625 -4.953125 C 4.414062 -5.179688 4.109375 -5.296875 3.703125 -5.296875 C 2.878906 -5.296875 2.394531 -4.828125 2.25 -3.890625 Z M 4.96875 -3.890625 "/></g></g></g><g fill="#000000" fill-opacity="1"><g transform="translate(125.495688, 121.897124)"><g><path d="M 3 0.125 C 2.5625 0.125 2.160156 0.0703125 1.796875 -0.03125 C 1.429688 -0.132812 1.117188 -0.273438 0.859375 -0.453125 C 0.609375 -0.640625 0.421875 -0.847656 0.296875 -1.078125 L 1.1875 -2.046875 L 1.3125 -2.046875 C 1.519531 -1.753906 1.769531 -1.535156 2.0625 -1.390625 C 2.351562 -1.253906 2.671875 -1.1875 3.015625 -1.1875 C 3.328125 -1.1875 3.5625 -1.238281 3.71875 -1.34375 C 3.882812 -1.457031 3.96875 -1.625 3.96875 -1.84375 C 3.96875 -2 3.910156 -2.128906 3.796875 -2.234375 C 3.679688 -2.347656 3.492188 -2.4375 3.234375 -2.5 L 2.390625 -2.703125 C 1.753906 -2.859375 1.285156 -3.09375 0.984375 -3.40625 C 0.691406 -3.71875 0.546875 -4.113281 0.546875 -4.59375 C 0.546875 -5 0.648438 -5.347656 0.859375 -5.640625 C 1.066406 -5.929688 1.351562 -6.15625 1.71875 -6.3125 C 2.09375 -6.46875 2.523438 -6.546875 3.015625 -6.546875 C 3.597656 -6.546875 4.078125 -6.460938 4.453125 -6.296875 C 4.835938 -6.128906 5.132812 -5.90625 5.34375 -5.625 L 4.484375 -4.703125 L 4.375 -4.703125 C 4.195312 -4.898438 3.992188 -5.046875 3.765625 -5.140625 C 3.546875 -5.234375 3.296875 -5.28125 3.015625 -5.28125 C 2.378906 -5.28125 2.0625 -5.082031 2.0625 -4.6875 C 2.0625 -4.519531 2.117188 -4.382812 2.234375 -4.28125 C 2.359375 -4.175781 2.570312 -4.085938 2.875 -4.015625 L 3.65625 -3.84375 C 4.3125 -3.707031 4.789062 -3.484375 5.09375 -3.171875 C 5.394531 -2.859375 5.546875 -2.441406 5.546875 -1.921875 C 5.546875 -1.515625 5.441406 -1.15625 5.234375 -0.84375 C 5.035156 -0.539062 4.742188 -0.300781 4.359375 -0.125 C 3.984375 0.0390625 3.53125 0.125 3 0.125 Z M 3 0.125 "/></g></g></g><g fill="#000000" fill-opacity="1"><g transform="translate(131.424143, 121.897124)"><g><path d="M 2.9375 0.125 C 2.21875 0.125 1.6875 -0.0703125 1.34375 -0.46875 C 1 -0.863281 0.828125 -1.429688 0.828125 -2.171875 L 0.828125 -6.421875 L 2.4375 -6.421875 L 2.4375 -2.375 C 2.4375 -1.976562 2.519531 -1.6875 2.6875 -1.5 C 2.863281 -1.320312 3.128906 -1.234375 3.484375 -1.234375 C 3.929688 -1.234375 4.273438 -1.378906 4.515625 -1.671875 C 4.765625 -1.972656 4.890625 -2.4375 4.890625 -3.0625 L 4.890625 -6.421875 L 6.515625 -6.421875 L 6.515625 0 L 4.953125 0 L 4.953125 -0.9375 L 4.84375 -0.96875 C 4.632812 -0.601562 4.378906 -0.328125 4.078125 -0.140625 C 3.785156 0.0351562 3.40625 0.125 2.9375 0.125 Z M 2.9375 0.125 "/></g></g></g><g fill="#000000" fill-opacity="1"><g transform="translate(138.862391, 121.897124)"><g><path d="M 2.5 0.125 C 2.09375 0.125 1.738281 0.0507812 1.4375 -0.09375 C 1.132812 -0.25 0.898438 -0.472656 0.734375 -0.765625 C 0.566406 -1.066406 0.484375 -1.421875 0.484375 -1.828125 C 0.484375 -2.210938 0.566406 -2.53125 0.734375 -2.78125 C 0.898438 -3.039062 1.148438 -3.253906 1.484375 -3.421875 C 1.828125 -3.585938 2.273438 -3.71875 2.828125 -3.8125 C 3.210938 -3.875 3.503906 -3.941406 3.703125 -4.015625 C 3.910156 -4.085938 4.046875 -4.171875 4.109375 -4.265625 C 4.179688 -4.359375 4.21875 -4.472656 4.21875 -4.609375 C 4.21875 -4.816406 4.144531 -4.972656 4 -5.078125 C 3.851562 -5.191406 3.613281 -5.25 3.28125 -5.25 C 2.925781 -5.25 2.585938 -5.171875 2.265625 -5.015625 C 1.941406 -4.859375 1.660156 -4.648438 1.421875 -4.390625 L 1.3125 -4.390625 L 0.640625 -5.40625 C 0.960938 -5.769531 1.359375 -6.050781 1.828125 -6.25 C 2.296875 -6.445312 2.8125 -6.546875 3.375 -6.546875 C 4.21875 -6.546875 4.828125 -6.363281 5.203125 -6 C 5.585938 -5.644531 5.78125 -5.132812 5.78125 -4.46875 L 5.78125 -1.671875 C 5.78125 -1.390625 5.910156 -1.25 6.171875 -1.25 C 6.265625 -1.25 6.359375 -1.265625 6.453125 -1.296875 L 6.53125 -1.28125 L 6.65625 -0.15625 C 6.5625 -0.09375 6.429688 -0.0390625 6.265625 0 C 6.109375 0.03125 5.9375 0.046875 5.75 0.046875 C 5.363281 0.046875 5.0625 -0.0234375 4.84375 -0.171875 C 4.632812 -0.316406 4.484375 -0.550781 4.390625 -0.875 L 4.265625 -0.875 C 3.953125 -0.207031 3.363281 0.125 2.5 0.125 Z M 3.015625 -1.078125 C 3.390625 -1.078125 3.6875 -1.203125 3.90625 -1.453125 C 4.132812 -1.710938 4.25 -2.0625 4.25 -2.5 L 4.25 -3.15625 L 4.140625 -3.1875 C 4.046875 -3.101562 3.914062 -3.035156 3.75 -2.984375 C 3.59375 -2.929688 3.367188 -2.878906 3.078125 -2.828125 C 2.722656 -2.773438 2.46875 -2.675781 2.3125 -2.53125 C 2.164062 -2.382812 2.09375 -2.179688 2.09375 -1.921875 C 2.09375 -1.648438 2.171875 -1.441406 2.328125 -1.296875 C 2.492188 -1.148438 2.722656 -1.078125 3.015625 -1.078125 Z M 3.015625 -1.078125 "/></g></g></g><g fill="#000000" fill-opacity="1"><g transform="translate(145.641931, 121.897124)"><g><path d="M 1.734375 -7.203125 C 1.441406 -7.203125 1.203125 -7.289062 1.015625 -7.46875 C 0.835938 -7.644531 0.75 -7.875 0.75 -8.15625 C 0.75 -8.425781 0.835938 -8.648438 1.015625 -8.828125 C 1.203125 -9.003906 1.441406 -9.09375 1.734375 -9.09375 C 1.921875 -9.09375 2.09375 -9.050781 2.25 -8.96875 C 2.40625 -8.882812 2.523438 -8.769531 2.609375 -8.625 C 2.691406 -8.488281 2.734375 -8.332031 2.734375 -8.15625 C 2.734375 -7.96875 2.691406 -7.800781 2.609375 -7.65625 C 2.523438 -7.507812 2.40625 -7.394531 2.25 -7.3125 C 2.09375 -7.238281 1.921875 -7.203125 1.734375 -7.203125 Z M 0.921875 0 L 0.921875 -6.421875 L 2.546875 -6.421875 L 2.546875 0 Z M 0.921875 0 "/></g></g></g><g fill="#000000" fill-opacity="1"><g transform="translate(31.15343, 138.020405)"><g><path d="M 0.921875 0 L 0.921875 -9.015625 L 2.546875 -9.015625 L 2.546875 -4.015625 L 2.703125 -4.015625 L 4.5625 -6.421875 L 6.203125 -6.421875 L 6.203125 -6.296875 L 4.015625 -3.46875 L 6.4375 -0.140625 L 6.4375 0 L 4.734375 0 L 2.703125 -2.703125 L 2.546875 -2.703125 L 2.546875 0 Z M 0.921875 0 "/></g></g></g><g fill="#000000" fill-opacity="1"><g transform="translate(37.606526, 138.020405)"><g><path d="M 6.359375 -2.84375 L 2.21875 -2.84375 C 2.269531 -2.289062 2.429688 -1.882812 2.703125 -1.625 C 2.972656 -1.375 3.34375 -1.25 3.8125 -1.25 C 4.175781 -1.25 4.472656 -1.316406 4.703125 -1.453125 C 4.929688 -1.585938 5.117188 -1.796875 5.265625 -2.078125 L 5.390625 -2.078125 L 6.453125 -1.390625 C 6.242188 -0.941406 5.925781 -0.578125 5.5 -0.296875 C 5.082031 -0.015625 4.519531 0.125 3.8125 0.125 C 3.144531 0.125 2.566406 0 2.078125 -0.25 C 1.597656 -0.507812 1.226562 -0.890625 0.96875 -1.390625 C 0.707031 -1.890625 0.578125 -2.5 0.578125 -3.21875 C 0.578125 -3.945312 0.710938 -4.5625 0.984375 -5.0625 C 1.265625 -5.5625 1.640625 -5.929688 2.109375 -6.171875 C 2.578125 -6.421875 3.109375 -6.546875 3.703125 -6.546875 C 4.609375 -6.546875 5.300781 -6.304688 5.78125 -5.828125 C 6.269531 -5.347656 6.515625 -4.640625 6.515625 -3.703125 C 6.515625 -3.367188 6.5 -3.109375 6.46875 -2.921875 Z M 4.96875 -3.890625 C 4.945312 -4.378906 4.832031 -4.734375 4.625 -4.953125 C 4.414062 -5.179688 4.109375 -5.296875 3.703125 -5.296875 C 2.878906 -5.296875 2.394531 -4.828125 2.25 -3.890625 Z M 4.96875 -3.890625 "/></g></g></g><g fill="#000000" fill-opacity="1"><g transform="translate(44.595921, 138.020405)"><g><path d="M 1.734375 -7.203125 C 1.441406 -7.203125 1.203125 -7.289062 1.015625 -7.46875 C 0.835938 -7.644531 0.75 -7.875 0.75 -8.15625 C 0.75 -8.425781 0.835938 -8.648438 1.015625 -8.828125 C 1.203125 -9.003906 1.441406 -9.09375 1.734375 -9.09375 C 1.921875 -9.09375 2.09375 -9.050781 2.25 -8.96875 C 2.40625 -8.882812 2.523438 -8.769531 2.609375 -8.625 C 2.691406 -8.488281 2.734375 -8.332031 2.734375 -8.15625 C 2.734375 -7.96875 2.691406 -7.800781 2.609375 -7.65625 C 2.523438 -7.507812 2.40625 -7.394531 2.25 -7.3125 C 2.09375 -7.238281 1.921875 -7.203125 1.734375 -7.203125 Z M 0.921875 0 L 0.921875 -6.421875 L 2.546875 -6.421875 L 2.546875 0 Z M 0.921875 0 "/></g></g></g><g fill="#000000" fill-opacity="1"><g transform="translate(48.058554, 138.020405)"><g><path d="M 0.921875 0 L 0.921875 -6.421875 L 2.484375 -6.421875 L 2.484375 -5.484375 L 2.59375 -5.453125 C 3 -6.179688 3.648438 -6.546875 4.546875 -6.546875 C 5.285156 -6.546875 5.828125 -6.34375 6.171875 -5.9375 C 6.523438 -5.539062 6.703125 -4.953125 6.703125 -4.171875 L 6.703125 0 L 5.09375 0 L 5.09375 -3.984375 C 5.09375 -4.410156 5.003906 -4.71875 4.828125 -4.90625 C 4.660156 -5.09375 4.390625 -5.1875 4.015625 -5.1875 C 3.546875 -5.1875 3.179688 -5.035156 2.921875 -4.734375 C 2.671875 -4.441406 2.546875 -3.972656 2.546875 -3.328125 L 2.546875 0 Z M 0.921875 0 "/></g></g></g><g fill="#000000" fill-opacity="1"><g transform="translate(55.590073, 138.020405)"><g><path d="M 3.328125 2.734375 C 2.273438 2.734375 1.492188 2.578125 0.984375 2.265625 C 0.484375 1.953125 0.234375 1.519531 0.234375 0.96875 C 0.234375 0.625 0.335938 0.34375 0.546875 0.125 C 0.765625 -0.0820312 1.078125 -0.222656 1.484375 -0.296875 L 1.484375 -0.421875 C 1.265625 -0.554688 1.109375 -0.703125 1.015625 -0.859375 C 0.921875 -1.023438 0.875 -1.210938 0.875 -1.421875 C 0.875 -1.941406 1.207031 -2.289062 1.875 -2.46875 L 1.875 -2.59375 C 1.53125 -2.789062 1.269531 -3.035156 1.09375 -3.328125 C 0.914062 -3.617188 0.828125 -3.972656 0.828125 -4.390625 C 0.828125 -4.816406 0.925781 -5.191406 1.125 -5.515625 C 1.320312 -5.847656 1.609375 -6.101562 1.984375 -6.28125 C 2.367188 -6.457031 2.828125 -6.546875 3.359375 -6.546875 C 3.890625 -6.546875 4.316406 -6.453125 4.640625 -6.265625 C 4.835938 -6.554688 4.953125 -6.890625 4.984375 -7.265625 L 5.09375 -7.34375 L 6.265625 -7.0625 C 6.222656 -6.75 6.128906 -6.488281 5.984375 -6.28125 C 5.847656 -6.070312 5.628906 -5.890625 5.328125 -5.734375 L 5.328125 -5.59375 C 5.679688 -5.28125 5.859375 -4.835938 5.859375 -4.265625 C 5.859375 -3.867188 5.757812 -3.515625 5.5625 -3.203125 C 5.363281 -2.890625 5.070312 -2.640625 4.6875 -2.453125 C 4.3125 -2.273438 3.867188 -2.1875 3.359375 -2.1875 L 3.109375 -2.1875 C 2.953125 -2.195312 2.84375 -2.203125 2.78125 -2.203125 C 2.632812 -2.203125 2.519531 -2.160156 2.4375 -2.078125 C 2.351562 -1.992188 2.3125 -1.890625 2.3125 -1.765625 C 2.3125 -1.628906 2.363281 -1.523438 2.46875 -1.453125 C 2.582031 -1.378906 2.742188 -1.335938 2.953125 -1.328125 L 4.390625 -1.28125 C 5.804688 -1.238281 6.515625 -0.625 6.515625 0.5625 C 6.515625 0.976562 6.410156 1.347656 6.203125 1.671875 C 5.992188 1.992188 5.648438 2.25 5.171875 2.4375 C 4.703125 2.632812 4.085938 2.734375 3.328125 2.734375 Z M 3.359375 -3.3125 C 3.660156 -3.3125 3.898438 -3.398438 4.078125 -3.578125 C 4.253906 -3.765625 4.34375 -4.023438 4.34375 -4.359375 C 4.34375 -4.703125 4.253906 -4.960938 4.078125 -5.140625 C 3.898438 -5.328125 3.660156 -5.421875 3.359375 -5.421875 C 3.035156 -5.421875 2.785156 -5.328125 2.609375 -5.140625 C 2.441406 -4.960938 2.359375 -4.703125 2.359375 -4.359375 C 2.359375 -4.023438 2.441406 -3.765625 2.609375 -3.578125 C 2.785156 -3.398438 3.035156 -3.3125 3.359375 -3.3125 Z M 3.328125 1.5625 C 3.878906 1.5625 4.28125 1.484375 4.53125 1.328125 C 4.78125 1.171875 4.90625 0.96875 4.90625 0.71875 C 4.90625 0.507812 4.84375 0.359375 4.71875 0.265625 C 4.59375 0.171875 4.390625 0.117188 4.109375 0.109375 L 2.84375 0.0625 C 2.800781 0.0625 2.757812 0.0546875 2.71875 0.046875 C 2.675781 0.046875 2.640625 0.046875 2.609375 0.046875 C 2.335938 0.046875 2.128906 0.101562 1.984375 0.21875 C 1.847656 0.332031 1.78125 0.492188 1.78125 0.703125 C 1.78125 0.972656 1.910156 1.179688 2.171875 1.328125 C 2.429688 1.484375 2.816406 1.5625 3.328125 1.5625 Z M 3.328125 1.5625 "/></g></g></g><g fill="#000000" fill-opacity="1"><g transform="translate(62.276342, 138.020405)"><g><path d="M 1.734375 -7.203125 C 1.441406 -7.203125 1.203125 -7.289062 1.015625 -7.46875 C 0.835938 -7.644531 0.75 -7.875 0.75 -8.15625 C 0.75 -8.425781 0.835938 -8.648438 1.015625 -8.828125 C 1.203125 -9.003906 1.441406 -9.09375 1.734375 -9.09375 C 1.921875 -9.09375 2.09375 -9.050781 2.25 -8.96875 C 2.40625 -8.882812 2.523438 -8.769531 2.609375 -8.625 C 2.691406 -8.488281 2.734375 -8.332031 2.734375 -8.15625 C 2.734375 -7.96875 2.691406 -7.800781 2.609375 -7.65625 C 2.523438 -7.507812 2.40625 -7.394531 2.25 -7.3125 C 2.09375 -7.238281 1.921875 -7.203125 1.734375 -7.203125 Z M 0.921875 0 L 0.921875 -6.421875 L 2.546875 -6.421875 L 2.546875 0 Z M 0.921875 0 "/></g></g></g><g fill="#000000" fill-opacity="1"><g transform="translate(65.738975, 138.020405)"><g><path d="M 0.921875 0 L 0.921875 -6.421875 L 2.484375 -6.421875 L 2.484375 -5.484375 L 2.59375 -5.453125 C 3 -6.179688 3.648438 -6.546875 4.546875 -6.546875 C 5.285156 -6.546875 5.828125 -6.34375 6.171875 -5.9375 C 6.523438 -5.539062 6.703125 -4.953125 6.703125 -4.171875 L 6.703125 0 L 5.09375 0 L 5.09375 -3.984375 C 5.09375 -4.410156 5.003906 -4.71875 4.828125 -4.90625 C 4.660156 -5.09375 4.390625 -5.1875 4.015625 -5.1875 C 3.546875 -5.1875 3.179688 -5.035156 2.921875 -4.734375 C 2.671875 -4.441406 2.546875 -3.972656 2.546875 -3.328125 L 2.546875 0 Z M 0.921875 0 "/></g></g></g><g fill="#000000" fill-opacity="1"><g transform="translate(73.270494, 138.020405)"><g><path d="M 2.5 0.125 C 2.09375 0.125 1.738281 0.0507812 1.4375 -0.09375 C 1.132812 -0.25 0.898438 -0.472656 0.734375 -0.765625 C 0.566406 -1.066406 0.484375 -1.421875 0.484375 -1.828125 C 0.484375 -2.210938 0.566406 -2.53125 0.734375 -2.78125 C 0.898438 -3.039062 1.148438 -3.253906 1.484375 -3.421875 C 1.828125 -3.585938 2.273438 -3.71875 2.828125 -3.8125 C 3.210938 -3.875 3.503906 -3.941406 3.703125 -4.015625 C 3.910156 -4.085938 4.046875 -4.171875 4.109375 -4.265625 C 4.179688 -4.359375 4.21875 -4.472656 4.21875 -4.609375 C 4.21875 -4.816406 4.144531 -4.972656 4 -5.078125 C 3.851562 -5.191406 3.613281 -5.25 3.28125 -5.25 C 2.925781 -5.25 2.585938 -5.171875 2.265625 -5.015625 C 1.941406 -4.859375 1.660156 -4.648438 1.421875 -4.390625 L 1.3125 -4.390625 L 0.640625 -5.40625 C 0.960938 -5.769531 1.359375 -6.050781 1.828125 -6.25 C 2.296875 -6.445312 2.8125 -6.546875 3.375 -6.546875 C 4.21875 -6.546875 4.828125 -6.363281 5.203125 -6 C 5.585938 -5.644531 5.78125 -5.132812 5.78125 -4.46875 L 5.78125 -1.671875 C 5.78125 -1.390625 5.910156 -1.25 6.171875 -1.25 C 6.265625 -1.25 6.359375 -1.265625 6.453125 -1.296875 L 6.53125 -1.28125 L 6.65625 -0.15625 C 6.5625 -0.09375 6.429688 -0.0390625 6.265625 0 C 6.109375 0.03125 5.9375 0.046875 5.75 0.046875 C 5.363281 0.046875 5.0625 -0.0234375 4.84375 -0.171875 C 4.632812 -0.316406 4.484375 -0.550781 4.390625 -0.875 L 4.265625 -0.875 C 3.953125 -0.207031 3.363281 0.125 2.5 0.125 Z M 3.015625 -1.078125 C 3.390625 -1.078125 3.6875 -1.203125 3.90625 -1.453125 C 4.132812 -1.710938 4.25 -2.0625 4.25 -2.5 L 4.25 -3.15625 L 4.140625 -3.1875 C 4.046875 -3.101562 3.914062 -3.035156 3.75 -2.984375 C 3.59375 -2.929688 3.367188 -2.878906 3.078125 -2.828125 C 2.722656 -2.773438 2.46875 -2.675781 2.3125 -2.53125 C 2.164062 -2.382812 2.09375 -2.179688 2.09375 -1.921875 C 2.09375 -1.648438 2.171875 -1.441406 2.328125 -1.296875 C 2.492188 -1.148438 2.722656 -1.078125 3.015625 -1.078125 Z M 3.015625 -1.078125 "/></g></g></g><g fill="#000000" fill-opacity="1"><g transform="translate(80.050033, 138.020405)"><g><path d="M 0.921875 0 L 0.921875 -6.421875 L 2.484375 -6.421875 L 2.484375 -5.484375 L 2.59375 -5.453125 C 3 -6.179688 3.648438 -6.546875 4.546875 -6.546875 C 5.285156 -6.546875 5.828125 -6.34375 6.171875 -5.9375 C 6.523438 -5.539062 6.703125 -4.953125 6.703125 -4.171875 L 6.703125 0 L 5.09375 0 L 5.09375 -3.984375 C 5.09375 -4.410156 5.003906 -4.71875 4.828125 -4.90625 C 4.660156 -5.09375 4.390625 -5.1875 4.015625 -5.1875 C 3.546875 -5.1875 3.179688 -5.035156 2.921875 -4.734375 C 2.671875 -4.441406 2.546875 -3.972656 2.546875 -3.328125 L 2.546875 0 Z M 0.921875 0 "/></g></g></g><g fill="#000000" fill-opacity="1"><g transform="translate(87.581551, 138.020405)"><g/></g></g><g fill="#000000" fill-opacity="1"><g transform="translate(90.397133, 138.020405)"><g><path d="M 2.5 0.125 C 2.09375 0.125 1.738281 0.0507812 1.4375 -0.09375 C 1.132812 -0.25 0.898438 -0.472656 0.734375 -0.765625 C 0.566406 -1.066406 0.484375 -1.421875 0.484375 -1.828125 C 0.484375 -2.210938 0.566406 -2.53125 0.734375 -2.78125 C 0.898438 -3.039062 1.148438 -3.253906 1.484375 -3.421875 C 1.828125 -3.585938 2.273438 -3.71875 2.828125 -3.8125 C 3.210938 -3.875 3.503906 -3.941406 3.703125 -4.015625 C 3.910156 -4.085938 4.046875 -4.171875 4.109375 -4.265625 C 4.179688 -4.359375 4.21875 -4.472656 4.21875 -4.609375 C 4.21875 -4.816406 4.144531 -4.972656 4 -5.078125 C 3.851562 -5.191406 3.613281 -5.25 3.28125 -5.25 C 2.925781 -5.25 2.585938 -5.171875 2.265625 -5.015625 C 1.941406 -4.859375 1.660156 -4.648438 1.421875 -4.390625 L 1.3125 -4.390625 L 0.640625 -5.40625 C 0.960938 -5.769531 1.359375 -6.050781 1.828125 -6.25 C 2.296875 -6.445312 2.8125 -6.546875 3.375 -6.546875 C 4.21875 -6.546875 4.828125 -6.363281 5.203125 -6 C 5.585938 -5.644531 5.78125 -5.132812 5.78125 -4.46875 L 5.78125 -1.671875 C 5.78125 -1.390625 5.910156 -1.25 6.171875 -1.25 C 6.265625 -1.25 6.359375 -1.265625 6.453125 -1.296875 L 6.53125 -1.28125 L 6.65625 -0.15625 C 6.5625 -0.09375 6.429688 -0.0390625 6.265625 0 C 6.109375 0.03125 5.9375 0.046875 5.75 0.046875 C 5.363281 0.046875 5.0625 -0.0234375 4.84375 -0.171875 C 4.632812 -0.316406 4.484375 -0.550781 4.390625 -0.875 L 4.265625 -0.875 C 3.953125 -0.207031 3.363281 0.125 2.5 0.125 Z M 3.015625 -1.078125 C 3.390625 -1.078125 3.6875 -1.203125 3.90625 -1.453125 C 4.132812 -1.710938 4.25 -2.0625 4.25 -2.5 L 4.25 -3.15625 L 4.140625 -3.1875 C 4.046875 -3.101562 3.914062 -3.035156 3.75 -2.984375 C 3.59375 -2.929688 3.367188 -2.878906 3.078125 -2.828125 C 2.722656 -2.773438 2.46875 -2.675781 2.3125 -2.53125 C 2.164062 -2.382812 2.09375 -2.179688 2.09375 -1.921875 C 2.09375 -1.648438 2.171875 -1.441406 2.328125 -1.296875 C 2.492188 -1.148438 2.722656 -1.078125 3.015625 -1.078125 Z M 3.015625 -1.078125 "/></g></g></g><g fill="#000000" fill-opacity="1"><g transform="translate(97.176672, 138.020405)"><g><path d="M 0.921875 0 L 0.921875 -6.421875 L 2.484375 -6.421875 L 2.484375 -5.484375 L 2.59375 -5.453125 C 3 -6.179688 3.648438 -6.546875 4.546875 -6.546875 C 5.285156 -6.546875 5.828125 -6.34375 6.171875 -5.9375 C 6.523438 -5.539062 6.703125 -4.953125 6.703125 -4.171875 L 6.703125 0 L 5.09375 0 L 5.09375 -3.984375 C 5.09375 -4.410156 5.003906 -4.71875 4.828125 -4.90625 C 4.660156 -5.09375 4.390625 -5.1875 4.015625 -5.1875 C 3.546875 -5.1875 3.179688 -5.035156 2.921875 -4.734375 C 2.671875 -4.441406 2.546875 -3.972656 2.546875 -3.328125 L 2.546875 0 Z M 0.921875 0 "/></g></g></g><g fill="#000000" fill-opacity="1"><g transform="translate(104.708191, 138.020405)"><g><path d="M 3.171875 0.125 C 2.660156 0.125 2.207031 0 1.8125 -0.25 C 1.425781 -0.5 1.125 -0.867188 0.90625 -1.359375 C 0.6875 -1.859375 0.578125 -2.476562 0.578125 -3.21875 C 0.578125 -3.945312 0.691406 -4.5625 0.921875 -5.0625 C 1.148438 -5.5625 1.460938 -5.929688 1.859375 -6.171875 C 2.265625 -6.421875 2.734375 -6.546875 3.265625 -6.546875 C 3.660156 -6.546875 4.003906 -6.476562 4.296875 -6.34375 C 4.585938 -6.207031 4.835938 -5.992188 5.046875 -5.703125 L 5.171875 -5.734375 L 5.171875 -9.015625 L 6.78125 -9.015625 L 6.78125 0 L 5.171875 0 L 5.171875 -0.828125 L 5.046875 -0.859375 C 4.867188 -0.554688 4.625 -0.316406 4.3125 -0.140625 C 4 0.0351562 3.617188 0.125 3.171875 0.125 Z M 3.703125 -1.25 C 4.160156 -1.25 4.519531 -1.410156 4.78125 -1.734375 C 5.039062 -2.054688 5.171875 -2.550781 5.171875 -3.21875 C 5.171875 -3.875 5.039062 -4.363281 4.78125 -4.6875 C 4.519531 -5.019531 4.160156 -5.1875 3.703125 -5.1875 C 3.222656 -5.1875 2.859375 -5.023438 2.609375 -4.703125 C 2.359375 -4.390625 2.234375 -3.894531 2.234375 -3.21875 C 2.234375 -2.539062 2.359375 -2.039062 2.609375 -1.71875 C 2.859375 -1.40625 3.222656 -1.25 3.703125 -1.25 Z M 3.703125 -1.25 "/></g></g></g><g fill="#000000" fill-opacity="1"><g transform="translate(112.414589, 138.020405)"><g><path d="M 2.5 0.125 C 2.09375 0.125 1.738281 0.0507812 1.4375 -0.09375 C 1.132812 -0.25 0.898438 -0.472656 0.734375 -0.765625 C 0.566406 -1.066406 0.484375 -1.421875 0.484375 -1.828125 C 0.484375 -2.210938 0.566406 -2.53125 0.734375 -2.78125 C 0.898438 -3.039062 1.148438 -3.253906 1.484375 -3.421875 C 1.828125 -3.585938 2.273438 -3.71875 2.828125 -3.8125 C 3.210938 -3.875 3.503906 -3.941406 3.703125 -4.015625 C 3.910156 -4.085938 4.046875 -4.171875 4.109375 -4.265625 C 4.179688 -4.359375 4.21875 -4.472656 4.21875 -4.609375 C 4.21875 -4.816406 4.144531 -4.972656 4 -5.078125 C 3.851562 -5.191406 3.613281 -5.25 3.28125 -5.25 C 2.925781 -5.25 2.585938 -5.171875 2.265625 -5.015625 C 1.941406 -4.859375 1.660156 -4.648438 1.421875 -4.390625 L 1.3125 -4.390625 L 0.640625 -5.40625 C 0.960938 -5.769531 1.359375 -6.050781 1.828125 -6.25 C 2.296875 -6.445312 2.8125 -6.546875 3.375 -6.546875 C 4.21875 -6.546875 4.828125 -6.363281 5.203125 -6 C 5.585938 -5.644531 5.78125 -5.132812 5.78125 -4.46875 L 5.78125 -1.671875 C 5.78125 -1.390625 5.910156 -1.25 6.171875 -1.25 C 6.265625 -1.25 6.359375 -1.265625 6.453125 -1.296875 L 6.53125 -1.28125 L 6.65625 -0.15625 C 6.5625 -0.09375 6.429688 -0.0390625 6.265625 0 C 6.109375 0.03125 5.9375 0.046875 5.75 0.046875 C 5.363281 0.046875 5.0625 -0.0234375 4.84375 -0.171875 C 4.632812 -0.316406 4.484375 -0.550781 4.390625 -0.875 L 4.265625 -0.875 C 3.953125 -0.207031 3.363281 0.125 2.5 0.125 Z M 3.015625 -1.078125 C 3.390625 -1.078125 3.6875 -1.203125 3.90625 -1.453125 C 4.132812 -1.710938 4.25 -2.0625 4.25 -2.5 L 4.25 -3.15625 L 4.140625 -3.1875 C 4.046875 -3.101562 3.914062 -3.035156 3.75 -2.984375 C 3.59375 -2.929688 3.367188 -2.878906 3.078125 -2.828125 C 2.722656 -2.773438 2.46875 -2.675781 2.3125 -2.53125 C 2.164062 -2.382812 2.09375 -2.179688 2.09375 -1.921875 C 2.09375 -1.648438 2.171875 -1.441406 2.328125 -1.296875 C 2.492188 -1.148438 2.722656 -1.078125 3.015625 -1.078125 Z M 3.015625 -1.078125 "/></g></g></g></svg>