<svg xmlns="http://www.w3.org/2000/svg" xmlns:xlink="http://www.w3.org/1999/xlink" width="1920" zoomAndPan="magnify" viewBox="0 0 1440 186.749996" height="249" preserveAspectRatio="xMidYMid meet" version="1.0"><defs><filter x="0%" y="0%" width="100%" height="100%" id="db34b1125f"><feColorMatrix values="0 0 0 0 1 0 0 0 0 1 0 0 0 0 1 0 0 0 1 0" color-interpolation-filters="sRGB"/></filter><g/><clipPath id="ad2254936f"><path d="M 222.175781 2 L 537 2 L 537 186.5 L 222.175781 186.5 Z M 222.175781 2 " clip-rule="nonzero"/></clipPath><mask id="f6bda4c126"><g filter="url(#db34b1125f)"><rect x="-144" width="1728" fill="#000000" y="-18.675" height="224.099995" fill-opacity="0.6"/></g></mask><clipPath id="2708c206c2"><path d="M 0.175781 1 L 314.40625 1 L 314.40625 184.5 L 0.175781 184.5 Z M 0.175781 1 " clip-rule="nonzero"/></clipPath><clipPath id="4875435ca5"><rect x="0" width="315" y="0" height="185"/></clipPath><clipPath id="ea60031871"><path d="M 230 0 L 649 0 L 649 186.5 L 230 186.5 Z M 230 0 " clip-rule="nonzero"/></clipPath><mask id="3c8b73c975"><g filter="url(#db34b1125f)"><rect x="-144" width="1728" fill="#000000" y="-18.675" height="224.099995" fill-opacity="0.4"/></g></mask><clipPath id="4e29020ad1"><path d="M 0.335938 0 L 418 0 L 418 186.5 L 0.335938 186.5 Z M 0.335938 0 " clip-rule="nonzero"/></clipPath><clipPath id="fcfbab4a62"><rect x="0" width="419" y="0" height="187"/></clipPath><clipPath id="dd2d469dd7"><path d="M 294 0 L 714 0 L 714 186.5 L 294 186.5 Z M 294 0 " clip-rule="nonzero"/></clipPath><mask id="5fe860e70e"><g filter="url(#db34b1125f)"><rect x="-144" width="1728" fill="#000000" y="-18.675" height="224.099995" fill-opacity="0.4"/></g></mask><clipPath id="1b35170d05"><path d="M 1 0 L 419 0 L 419 186.5 L 1 186.5 Z M 1 0 " clip-rule="nonzero"/></clipPath><clipPath id="a99201efc6"><rect x="0" width="420" y="0" height="187"/></clipPath><clipPath id="bb9e4018d9"><path d="M 406 0 L 721.007812 0 L 721.007812 134 L 406 134 Z M 406 0 " clip-rule="nonzero"/></clipPath><mask id="001b5bd393"><g filter="url(#db34b1125f)"><rect x="-144" width="1728" fill="#000000" y="-18.675" height="224.099995" fill-opacity="0.6"/></g></mask><clipPath id="a995d42774"><path d="M 1 0 L 315.007812 0 L 315.007812 133 L 1 133 Z M 1 0 " clip-rule="nonzero"/></clipPath><clipPath id="1ec3c6c56b"><rect x="0" width="316" y="0" height="134"/></clipPath><clipPath id="6ab1b182a4"><path d="M 294 0 L 714 0 L 714 186.5 L 294 186.5 Z M 294 0 " clip-rule="nonzero"/></clipPath><mask id="19b1dccaf9"><g filter="url(#db34b1125f)"><rect x="-144" width="1728" fill="#000000" y="-18.675" height="224.099995" fill-opacity="0.2"/></g></mask><clipPath id="413823f13a"><path d="M 1 0 L 419 0 L 419 186.5 L 1 186.5 Z M 1 0 " clip-rule="nonzero"/></clipPath><clipPath id="12c6837a64"><rect x="0" width="420" y="0" height="187"/></clipPath><clipPath id="e460ff953d"><path d="M 230 0 L 649 0 L 649 186.5 L 230 186.5 Z M 230 0 " clip-rule="nonzero"/></clipPath><mask id="6f3bdbcc43"><g filter="url(#db34b1125f)"><rect x="-144" width="1728" fill="#000000" y="-18.675" height="224.099995" fill-opacity="0.098"/></g></mask><clipPath id="63e3044d04"><path d="M 0.335938 0 L 418 0 L 418 186.5 L 0.335938 186.5 Z M 0.335938 0 " clip-rule="nonzero"/></clipPath><clipPath id="5f73bd374f"><rect x="0" width="419" y="0" height="187"/></clipPath><clipPath id="4a8065daf8"><path d="M 1.445312 0 L 410.398438 0 L 410.398438 186.5 L 1.445312 186.5 Z M 1.445312 0 " clip-rule="nonzero"/></clipPath><mask id="865e661a00"><g filter="url(#db34b1125f)"><rect x="-144" width="1728" fill="#000000" y="-18.675" height="224.099995" fill-opacity="0.298"/></g></mask><clipPath id="56576175de"><path d="M 0.445312 0 L 409.398438 0 L 409.398438 186.5 L 0.445312 186.5 Z M 0.445312 0 " clip-rule="nonzero"/></clipPath><clipPath id="af774eae5b"><rect x="0" width="410" y="0" height="187"/></clipPath><clipPath id="cb8377e93c"><path d="M 1.445312 0 L 276 0 L 276 186.5 L 1.445312 186.5 Z M 1.445312 0 " clip-rule="nonzero"/></clipPath><mask id="b8dcc1381b"><g filter="url(#db34b1125f)"><rect x="-144" width="1728" fill="#000000" y="-18.675" height="224.099995" fill-opacity="0.498"/></g></mask><clipPath id="7bff207875"><path d="M 0.445312 0 L 274.394531 0 L 274.394531 186.5 L 0.445312 186.5 Z M 0.445312 0 " clip-rule="nonzero"/></clipPath><clipPath id="f8e80ad6ca"><rect x="0" width="275" y="0" height="187"/></clipPath><clipPath id="513b7de075"><path d="M 1.445312 0 L 140 0 L 140 99 L 1.445312 99 Z M 1.445312 0 " clip-rule="nonzero"/></clipPath><mask id="7b5340d468"><g filter="url(#db34b1125f)"><rect x="-144" width="1728" fill="#000000" y="-18.675" height="224.099995" fill-opacity="0.8"/></g></mask><clipPath id="66806a09ca"><path d="M 0.445312 0 L 138.496094 0 L 138.496094 98 L 0.445312 98 Z M 0.445312 0 " clip-rule="nonzero"/></clipPath><clipPath id="a783065496"><rect x="0" width="139" y="0" height="99"/></clipPath><clipPath id="1155bb1214"><path d="M 771.195312 52.316406 L 897 52.316406 L 897 161 L 771.195312 161 Z M 771.195312 52.316406 " clip-rule="nonzero"/></clipPath><clipPath id="dfede04861"><path d="M 893.402344 52.316406 L 775.691406 52.316406 C 773.207031 52.316406 771.195312 54.328125 771.195312 56.8125 L 771.195312 121.195312 C 771.195312 123.679688 773.207031 125.691406 775.691406 125.691406 L 797.839844 125.691406 C 800.320312 125.691406 802.335938 127.703125 802.335938 130.183594 L 802.335938 158.363281 C 802.335938 159.273438 802.828125 160.109375 803.621094 160.554688 C 804.414062 161 805.386719 160.980469 806.164062 160.503906 L 859.023438 128.042969 C 861.527344 126.503906 864.410156 125.691406 867.347656 125.691406 L 893.402344 125.691406 C 895.882812 125.691406 897.894531 123.679688 897.894531 121.195312 L 897.894531 56.8125 C 897.894531 54.328125 895.882812 52.316406 893.402344 52.316406 " clip-rule="nonzero"/></clipPath><clipPath id="7bed902081"><path d="M 757.082031 23.644531 L 917 23.644531 L 917 138 L 757.082031 138 Z M 757.082031 23.644531 " clip-rule="nonzero"/></clipPath><clipPath id="bc480193f5"><path d="M 775.058594 23.644531 L 899.320312 23.644531 C 904.089844 23.644531 908.660156 25.539062 912.03125 28.910156 C 915.40625 32.28125 917.296875 36.851562 917.296875 41.621094 L 917.296875 120.28125 C 917.296875 125.046875 915.40625 129.621094 912.03125 132.992188 C 908.660156 136.363281 904.089844 138.257812 899.320312 138.257812 L 775.058594 138.257812 C 770.289062 138.257812 765.71875 136.363281 762.347656 132.992188 C 758.976562 129.621094 757.082031 125.046875 757.082031 120.28125 L 757.082031 41.621094 C 757.082031 36.851562 758.976562 32.28125 762.347656 28.910156 C 765.71875 25.539062 770.289062 23.644531 775.058594 23.644531 " clip-rule="nonzero"/></clipPath></defs><g clip-path="url(#ad2254936f)"><g mask="url(#f6bda4c126)"><g transform="matrix(1, 0, 0, 1, 222, 2)"><g clip-path="url(#4875435ca5)"><g clip-path="url(#2708c206c2)"><path fill="#ffcc00" d="M 314.175781 307.054688 L 8.640625 1.515625 C -13.582031 84.722656 7.945312 177.1875 73.226562 242.46875 C 138.503906 307.746094 230.96875 329.273438 314.175781 307.054688 Z M 314.175781 307.054688 " fill-opacity="1" fill-rule="nonzero"/></g></g></g></g></g><g clip-path="url(#ea60031871)"><g mask="url(#3c8b73c975)"><g transform="matrix(1, 0, 0, 1, 230, 0)"><g clip-path="url(#fcfbab4a62)"><g clip-path="url(#4e29020ad1)"><path fill="#ffcc00" d="M 0.640625 3.515625 L 306.175781 309.054688 C 347.121094 298.117188 385.832031 276.589844 417.957031 244.46875 L 65.226562 -108.265625 C 33.101562 -76.140625 11.574219 -37.433594 0.640625 3.515625 Z M 0.640625 3.515625 " fill-opacity="1" fill-rule="nonzero"/></g></g></g></g></g><g clip-path="url(#dd2d469dd7)"><g mask="url(#5fe860e70e)"><g transform="matrix(1, 0, 0, 1, 294, 0)"><g clip-path="url(#a99201efc6)"><g clip-path="url(#1b35170d05)"><path fill="#cf3cc4" d="M 353.957031 244.46875 C 386.082031 212.34375 407.605469 173.636719 418.542969 132.6875 L 113.003906 -172.847656 C 72.058594 -161.914062 33.347656 -140.386719 1.226562 -108.265625 Z M 353.957031 244.46875 " fill-opacity="1" fill-rule="nonzero"/></g></g></g></g></g><g clip-path="url(#bb9e4018d9)"><g mask="url(#001b5bd393)"><g transform="matrix(1, 0, 0, 1, 406, 0)"><g clip-path="url(#1ec3c6c56b)"><g clip-path="url(#a995d42774)"><path fill="#cf3cc4" d="M 1.003906 -172.847656 L 306.542969 132.6875 C 328.761719 49.476562 307.234375 -42.984375 241.957031 -108.265625 C 176.675781 -173.542969 84.214844 -195.070312 1.003906 -172.847656 Z M 1.003906 -172.847656 " fill-opacity="1" fill-rule="nonzero"/></g></g></g></g></g><g clip-path="url(#6ab1b182a4)"><g mask="url(#19b1dccaf9)"><g transform="matrix(1, 0, 0, 1, 294, 0)"><g clip-path="url(#12c6837a64)"><g clip-path="url(#413823f13a)"><path fill="#ffcc00" d="M 418.542969 132.6875 L 113.003906 -172.851562 C 72.058594 -161.914062 33.351562 -140.386719 1.226562 -108.265625 L 353.957031 244.464844 C 386.082031 212.339844 407.605469 173.636719 418.542969 132.6875 Z M 418.542969 132.6875 " fill-opacity="1" fill-rule="nonzero"/></g></g></g></g></g><g clip-path="url(#e460ff953d)"><g mask="url(#6f3bdbcc43)"><g transform="matrix(1, 0, 0, 1, 230, 0)"><g clip-path="url(#5f73bd374f)"><g clip-path="url(#63e3044d04)"><path fill="#cf3cc4" d="M 65.226562 -108.265625 C 33.101562 -76.140625 11.574219 -37.433594 0.640625 3.515625 L 306.175781 309.050781 C 347.125 298.117188 385.832031 276.589844 417.957031 244.464844 Z M 65.226562 -108.265625 " fill-opacity="1" fill-rule="nonzero"/></g></g></g></g></g><g clip-path="url(#4a8065daf8)"><g mask="url(#865e661a00)"><g transform="matrix(1, 0, 0, 1, 1, 0)"><g clip-path="url(#af774eae5b)"><g clip-path="url(#56576175de)"><path fill="#cf3cc4" d="M 0.453125 233.707031 L 274.238281 -39.914062 L 408.386719 -39.914062 L 409.390625 -38.910156 L 0.453125 369.785156 Z M 0.453125 233.707031 " fill-opacity="1" fill-rule="nonzero"/></g></g></g></g></g><g clip-path="url(#cb8377e93c)"><g mask="url(#b8dcc1381b)"><g transform="matrix(1, 0, 0, 1, 1, 0)"><g clip-path="url(#f8e80ad6ca)"><g clip-path="url(#7bff207875)"><path fill="#cf3cc4" d="M 0.453125 233.707031 L 0.453125 97.628906 L 138.078125 -39.914062 L 274.238281 -39.914062 Z M 0.453125 233.707031 " fill-opacity="1" fill-rule="nonzero"/></g></g></g></g></g><g clip-path="url(#513b7de075)"><g mask="url(#7b5340d468)"><g transform="matrix(1, 0, 0, 1, 1, 0)"><g clip-path="url(#a783065496)"><g clip-path="url(#66806a09ca)"><path fill="#cf3cc4" d="M 0.453125 97.628906 L 0.453125 -38.441406 L 1.925781 -39.914062 L 138.078125 -39.914062 Z M 0.453125 97.628906 " fill-opacity="1" fill-rule="nonzero"/></g></g></g></g></g><g clip-path="url(#1155bb1214)"><g clip-path="url(#dfede04861)"><path fill="#737373" d="M 771.195312 52.316406 L 896.753906 52.316406 L 896.753906 162.808594 L 771.195312 162.808594 Z M 771.195312 52.316406 " fill-opacity="1" fill-rule="nonzero"/></g></g><g clip-path="url(#7bed902081)"><g clip-path="url(#bc480193f5)"><path fill="#737373" d="M 757.082031 23.644531 L 916.789062 23.644531 L 916.789062 137.375 L 757.082031 137.375 Z M 757.082031 23.644531 " fill-opacity="1" fill-rule="nonzero"/></g></g><g fill="#000000" fill-opacity="1"><g transform="translate(793.771175, 101.493867)"><g><path d="M 21.78125 13.8125 C 18.3125 13.8125 15.585938 12.828125 13.609375 10.859375 C 11.640625 8.890625 10.65625 6.164062 10.65625 2.6875 L 10.65625 -9.046875 C 10.65625 -11.046875 10.335938 -12.492188 9.703125 -13.390625 C 9.066406 -14.285156 7.929688 -14.785156 6.296875 -14.890625 C 4.910156 -14.984375 3.859375 -15.515625 3.140625 -16.484375 C 2.429688 -17.460938 2.078125 -18.664062 2.078125 -20.09375 C 2.078125 -21.53125 2.429688 -22.734375 3.140625 -23.703125 C 3.859375 -24.671875 4.910156 -25.207031 6.296875 -25.3125 C 7.929688 -25.363281 9.066406 -25.835938 9.703125 -26.734375 C 10.335938 -27.628906 10.65625 -29.097656 10.65625 -31.140625 L 10.65625 -42.96875 C 10.65625 -46.4375 11.640625 -49.15625 13.609375 -51.125 C 15.585938 -53.101562 18.3125 -54.09375 21.78125 -54.09375 L 27.390625 -54.09375 C 28.972656 -54.09375 30.300781 -53.617188 31.375 -52.671875 C 32.445312 -51.722656 32.984375 -50.503906 32.984375 -49.015625 C 32.984375 -47.585938 32.570312 -46.398438 31.75 -45.453125 C 30.9375 -44.503906 29.816406 -44.03125 28.390625 -44.03125 L 27.078125 -44.03125 C 25.234375 -44.03125 24.3125 -42.929688 24.3125 -40.734375 L 24.3125 -29.453125 C 24.3125 -27.253906 23.671875 -25.25 22.390625 -23.4375 C 21.117188 -21.625 19.585938 -20.488281 17.796875 -20.03125 C 19.585938 -19.613281 21.117188 -18.507812 22.390625 -16.71875 C 23.671875 -14.9375 24.3125 -12.941406 24.3125 -10.734375 L 24.3125 0.453125 C 24.3125 2.660156 25.257812 3.765625 27.15625 3.765625 L 28.390625 3.765625 C 29.816406 3.765625 30.9375 4.234375 31.75 5.171875 C 32.570312 6.117188 32.984375 7.3125 32.984375 8.75 C 32.984375 10.226562 32.445312 11.441406 31.375 12.390625 C 30.300781 13.335938 28.972656 13.8125 27.390625 13.8125 Z M 21.78125 13.8125 "/></g></g></g><g fill="#000000" fill-opacity="1"><g transform="translate(826.220922, 101.493867)"><g/></g></g><g fill="#000000" fill-opacity="1"><g transform="translate(847.010194, 101.493867)"><g><path d="M 6.21875 13.8125 C 4.582031 13.8125 3.238281 13.335938 2.1875 12.390625 C 1.132812 11.441406 0.609375 10.226562 0.609375 8.75 C 0.609375 7.3125 1.003906 6.117188 1.796875 5.171875 C 2.585938 4.234375 3.726562 3.765625 5.21875 3.765625 L 6.4375 3.765625 C 8.28125 3.765625 9.203125 2.660156 9.203125 0.453125 L 9.203125 -10.734375 C 9.203125 -12.941406 9.851562 -14.953125 11.15625 -16.765625 C 12.46875 -18.578125 14.015625 -19.6875 15.796875 -20.09375 C 14.015625 -20.507812 12.46875 -21.625 11.15625 -23.4375 C 9.851562 -25.25 9.203125 -27.253906 9.203125 -29.453125 L 9.203125 -40.734375 C 9.203125 -42.929688 8.28125 -44.03125 6.4375 -44.03125 L 5.21875 -44.03125 C 3.726562 -44.03125 2.585938 -44.503906 1.796875 -45.453125 C 1.003906 -46.398438 0.609375 -47.585938 0.609375 -49.015625 C 0.609375 -50.503906 1.132812 -51.722656 2.1875 -52.671875 C 3.238281 -53.617188 4.582031 -54.09375 6.21875 -54.09375 L 11.734375 -54.09375 C 15.210938 -54.09375 17.9375 -53.101562 19.90625 -51.125 C 21.875 -49.15625 22.859375 -46.4375 22.859375 -42.96875 L 22.859375 -31.140625 C 22.859375 -29.097656 23.191406 -27.628906 23.859375 -26.734375 C 24.523438 -25.835938 25.675781 -25.363281 27.3125 -25.3125 C 28.695312 -25.207031 29.742188 -24.671875 30.453125 -23.703125 C 31.171875 -22.734375 31.53125 -21.53125 31.53125 -20.09375 C 31.53125 -18.664062 31.171875 -17.460938 30.453125 -16.484375 C 29.742188 -15.515625 28.695312 -14.984375 27.3125 -14.890625 C 25.675781 -14.785156 24.523438 -14.285156 23.859375 -13.390625 C 23.191406 -12.492188 22.859375 -11.046875 22.859375 -9.046875 L 22.859375 2.6875 C 22.859375 6.164062 21.875 8.890625 19.90625 10.859375 C 17.9375 12.828125 15.210938 13.8125 11.734375 13.8125 Z M 6.21875 13.8125 "/></g></g></g><g fill="#000000" fill-opacity="1"><g transform="translate(928.574117, 104.560348)"><g><path d="M 30.5 0.828125 C 25.113281 0.828125 20.394531 -0.316406 16.34375 -2.609375 C 12.289062 -4.898438 9.128906 -8.109375 6.859375 -12.234375 C 4.597656 -16.359375 3.46875 -21.164062 3.46875 -26.65625 C 3.46875 -32.1875 4.585938 -37.003906 6.828125 -41.109375 C 9.066406 -45.210938 12.222656 -48.394531 16.296875 -50.65625 C 20.378906 -52.925781 25.113281 -54.0625 30.5 -54.0625 C 35.882812 -54.0625 40.601562 -52.925781 44.65625 -50.65625 C 48.707031 -48.394531 51.863281 -45.210938 54.125 -41.109375 C 56.394531 -37.003906 57.53125 -32.1875 57.53125 -26.65625 C 57.53125 -21.164062 56.394531 -16.359375 54.125 -12.234375 C 51.863281 -8.109375 48.707031 -4.898438 44.65625 -2.609375 C 40.601562 -0.316406 35.882812 0.828125 30.5 0.828125 Z M 30.5 -10.796875 C 34.425781 -10.796875 37.507812 -12.191406 39.75 -14.984375 C 41.988281 -17.773438 43.109375 -21.664062 43.109375 -26.65625 C 43.109375 -31.632812 42 -35.507812 39.78125 -38.28125 C 37.570312 -41.050781 34.476562 -42.4375 30.5 -42.4375 C 26.519531 -42.4375 23.421875 -41.050781 21.203125 -38.28125 C 18.992188 -35.507812 17.890625 -31.632812 17.890625 -26.65625 C 17.890625 -21.664062 18.992188 -17.773438 21.203125 -14.984375 C 23.421875 -12.191406 26.519531 -10.796875 30.5 -10.796875 Z M 30.5 -10.796875 "/></g></g></g><g fill="#000000" fill-opacity="1"><g transform="translate(989.499896, 104.560348)"><g><path d="M 17.8125 0.828125 C 12.976562 0.828125 9.414062 -0.488281 7.125 -3.125 C 4.84375 -5.769531 3.703125 -9.8125 3.703125 -15.25 L 3.703125 -31.109375 C 3.703125 -35.585938 5.941406 -37.828125 10.421875 -37.828125 C 12.585938 -37.828125 14.25 -37.25 15.40625 -36.09375 C 16.5625 -34.9375 17.140625 -33.273438 17.140625 -31.109375 L 17.140625 -14.875 C 17.140625 -11.25 18.695312 -9.4375 21.8125 -9.4375 C 23.625 -9.4375 25.109375 -10.085938 26.265625 -11.390625 C 27.429688 -12.703125 28.015625 -14.441406 28.015625 -16.609375 L 28.015625 -31.109375 C 28.015625 -35.585938 30.253906 -37.828125 34.734375 -37.828125 C 36.890625 -37.828125 38.546875 -37.25 39.703125 -36.09375 C 40.867188 -34.9375 41.453125 -33.273438 41.453125 -31.109375 L 41.453125 -6.109375 C 41.453125 -1.585938 39.285156 0.671875 34.953125 0.671875 C 31.078125 0.671875 28.890625 -1.132812 28.390625 -4.75 C 25.972656 -1.03125 22.445312 0.828125 17.8125 0.828125 Z M 17.8125 0.828125 "/></g></g></g><g fill="#000000" fill-opacity="1"><g transform="translate(1034.873375, 104.560348)"><g><path d="M 10.796875 0.671875 C 6.210938 0.671875 3.921875 -1.585938 3.921875 -6.109375 L 3.921875 -31.109375 C 3.921875 -35.585938 6.113281 -37.828125 10.5 -37.828125 C 12.5625 -37.828125 14.15625 -37.25 15.28125 -36.09375 C 16.414062 -34.9375 16.984375 -33.273438 16.984375 -31.109375 L 16.984375 -30.875 C 17.835938 -33.039062 19.222656 -34.753906 21.140625 -36.015625 C 23.054688 -37.273438 25.320312 -37.925781 27.9375 -37.96875 C 29.394531 -38.019531 30.488281 -37.65625 31.21875 -36.875 C 31.945312 -36.101562 32.335938 -34.660156 32.390625 -32.546875 C 32.390625 -30.734375 32.007812 -29.296875 31.25 -28.234375 C 30.5 -27.179688 29.066406 -26.550781 26.953125 -26.34375 L 25.21875 -26.203125 C 22.550781 -25.953125 20.613281 -25.207031 19.40625 -23.96875 C 18.195312 -22.738281 17.59375 -20.914062 17.59375 -18.5 L 17.59375 -6.109375 C 17.59375 -1.585938 15.328125 0.671875 10.796875 0.671875 Z M 10.796875 0.671875 "/></g></g></g><g fill="#000000" fill-opacity="1"><g transform="translate(1067.638909, 104.560348)"><g/></g></g><g fill="#000000" fill-opacity="1"><g transform="translate(1089.230948, 104.560348)"><g><path d="M 24.3125 0.671875 C 22.09375 0.671875 20.378906 0.0703125 19.171875 -1.125 C 17.960938 -2.332031 17.359375 -4.070312 17.359375 -6.34375 L 17.359375 -41.90625 L 5.515625 -41.90625 C 1.691406 -41.90625 -0.21875 -43.789062 -0.21875 -47.5625 C -0.21875 -51.34375 1.691406 -53.234375 5.515625 -53.234375 L 43.109375 -53.234375 C 46.929688 -53.234375 48.84375 -51.34375 48.84375 -47.5625 C 48.84375 -43.789062 46.929688 -41.90625 43.109375 -41.90625 L 31.25 -41.90625 L 31.25 -6.34375 C 31.25 -4.070312 30.65625 -2.332031 29.46875 -1.125 C 28.289062 0.0703125 26.570312 0.671875 24.3125 0.671875 Z M 24.3125 0.671875 "/></g></g></g><g fill="#000000" fill-opacity="1"><g transform="translate(1137.850787, 104.560348)"><g><path d="M 24.15625 0.828125 C 19.625 0.828125 15.707031 0.0351562 12.40625 -1.546875 C 9.113281 -3.128906 6.585938 -5.378906 4.828125 -8.296875 C 3.066406 -11.222656 2.1875 -14.675781 2.1875 -18.65625 C 2.1875 -22.425781 3.03125 -25.769531 4.71875 -28.6875 C 6.40625 -31.601562 8.71875 -33.878906 11.65625 -35.515625 C 14.601562 -37.148438 17.96875 -37.96875 21.75 -37.96875 C 25.46875 -37.96875 28.695312 -37.1875 31.4375 -35.625 C 34.1875 -34.070312 36.300781 -31.847656 37.78125 -28.953125 C 39.269531 -26.054688 40.015625 -22.671875 40.015625 -18.796875 C 40.015625 -16.835938 38.859375 -15.859375 36.546875 -15.859375 L 15.03125 -15.859375 C 15.476562 -13.441406 16.484375 -11.703125 18.046875 -10.640625 C 19.609375 -9.585938 21.769531 -9.0625 24.53125 -9.0625 C 25.59375 -9.0625 26.851562 -9.1875 28.3125 -9.4375 C 29.769531 -9.6875 31.15625 -10.085938 32.46875 -10.640625 C 34.070312 -11.242188 35.425781 -11.253906 36.53125 -10.671875 C 37.644531 -10.097656 38.390625 -9.21875 38.765625 -8.03125 C 39.140625 -6.851562 39.085938 -5.644531 38.609375 -4.40625 C 38.140625 -3.175781 37.195312 -2.234375 35.78125 -1.578125 C 34.019531 -0.722656 32.144531 -0.109375 30.15625 0.265625 C 28.175781 0.640625 26.175781 0.828125 24.15625 0.828125 Z M 22.34375 -29.296875 C 20.332031 -29.296875 18.6875 -28.691406 17.40625 -27.484375 C 16.125 -26.273438 15.304688 -24.515625 14.953125 -22.203125 L 28.984375 -22.203125 C 28.835938 -24.566406 28.195312 -26.335938 27.0625 -27.515625 C 25.9375 -28.703125 24.363281 -29.296875 22.34375 -29.296875 Z M 22.34375 -29.296875 "/></g></g></g><g fill="#000000" fill-opacity="1"><g transform="translate(1179.751434, 104.560348)"><g><path d="M 16.84375 0.828125 C 13.96875 0.828125 11.4375 0.300781 9.25 -0.75 C 7.0625 -1.8125 5.347656 -3.257812 4.109375 -5.09375 C 2.878906 -6.9375 2.265625 -9.039062 2.265625 -11.40625 C 2.265625 -14.070312 2.96875 -16.195312 4.375 -17.78125 C 5.789062 -19.363281 8.054688 -20.492188 11.171875 -21.171875 C 14.296875 -21.859375 18.445312 -22.203125 23.625 -22.203125 L 26.5 -22.203125 L 26.5 -23.25 C 26.5 -25.0625 26.03125 -26.34375 25.09375 -27.09375 C 24.164062 -27.851562 22.570312 -28.234375 20.3125 -28.234375 C 19.050781 -28.234375 17.675781 -28.09375 16.1875 -27.8125 C 14.707031 -27.539062 13.035156 -27.050781 11.171875 -26.34375 C 9.515625 -25.738281 8.128906 -25.765625 7.015625 -26.421875 C 5.910156 -27.078125 5.191406 -28.019531 4.859375 -29.25 C 4.535156 -30.488281 4.660156 -31.722656 5.234375 -32.953125 C 5.816406 -34.191406 6.941406 -35.113281 8.609375 -35.71875 C 11.023438 -36.570312 13.25 -37.160156 15.28125 -37.484375 C 17.320312 -37.804688 19.195312 -37.96875 20.90625 -37.96875 C 27.101562 -37.96875 31.695312 -36.632812 34.6875 -33.96875 C 37.6875 -31.300781 39.1875 -27.097656 39.1875 -21.359375 L 39.1875 -6.109375 C 39.1875 -1.585938 37.125 0.671875 33 0.671875 C 29.070312 0.671875 26.984375 -1.335938 26.734375 -5.359375 C 26.023438 -3.441406 24.8125 -1.929688 23.09375 -0.828125 C 21.382812 0.273438 19.300781 0.828125 16.84375 0.828125 Z M 19.859375 -7.921875 C 21.722656 -7.921875 23.296875 -8.523438 24.578125 -9.734375 C 25.859375 -10.941406 26.5 -12.53125 26.5 -14.5 L 26.5 -15.859375 L 23.625 -15.859375 C 20.65625 -15.859375 18.476562 -15.539062 17.09375 -14.90625 C 15.71875 -14.28125 15.03125 -13.285156 15.03125 -11.921875 C 15.03125 -10.765625 15.441406 -9.804688 16.265625 -9.046875 C 17.097656 -8.296875 18.296875 -7.921875 19.859375 -7.921875 Z M 19.859375 -7.921875 "/></g></g></g><g fill="#000000" fill-opacity="1"><g transform="translate(1222.633517, 104.560348)"><g><path d="M 22.875 0.828125 C 18.695312 0.828125 15.0625 0.0507812 11.96875 -1.5 C 8.875 -3.0625 6.46875 -5.300781 4.75 -8.21875 C 3.039062 -11.144531 2.1875 -14.625 2.1875 -18.65625 C 2.1875 -22.675781 3.039062 -26.132812 4.75 -29.03125 C 6.46875 -31.925781 8.875 -34.140625 11.96875 -35.671875 C 15.0625 -37.203125 18.695312 -37.96875 22.875 -37.96875 C 24.332031 -37.96875 25.863281 -37.828125 27.46875 -37.546875 C 29.082031 -37.273438 30.75 -36.765625 32.46875 -36.015625 C 33.625 -35.554688 34.453125 -34.863281 34.953125 -33.9375 C 35.460938 -33.007812 35.675781 -32.015625 35.59375 -30.953125 C 35.519531 -29.898438 35.21875 -28.941406 34.6875 -28.078125 C 34.164062 -27.222656 33.4375 -26.644531 32.5 -26.34375 C 31.570312 -26.039062 30.53125 -26.171875 29.375 -26.734375 C 27.707031 -27.484375 26.019531 -27.859375 24.3125 -27.859375 C 21.644531 -27.859375 19.582031 -27.050781 18.125 -25.4375 C 16.664062 -23.832031 15.9375 -21.570312 15.9375 -18.65625 C 15.9375 -15.675781 16.664062 -13.367188 18.125 -11.734375 C 19.582031 -10.097656 21.644531 -9.28125 24.3125 -9.28125 C 25.113281 -9.28125 25.941406 -9.367188 26.796875 -9.546875 C 27.660156 -9.722656 28.519531 -10.015625 29.375 -10.421875 C 30.582031 -10.972656 31.625 -11.082031 32.5 -10.75 C 33.382812 -10.425781 34.085938 -9.847656 34.609375 -9.015625 C 35.140625 -8.191406 35.441406 -7.25 35.515625 -6.1875 C 35.597656 -5.132812 35.382812 -4.140625 34.875 -3.203125 C 34.375 -2.273438 33.519531 -1.582031 32.3125 -1.125 C 30.601562 -0.375 28.96875 0.132812 27.40625 0.40625 C 25.84375 0.6875 24.332031 0.828125 22.875 0.828125 Z M 22.875 0.828125 "/></g></g></g><g fill="#000000" fill-opacity="1"><g transform="translate(1259.1739, 104.560348)"><g><path d="M 10.5625 0.671875 C 8.40625 0.671875 6.757812 0.09375 5.625 -1.0625 C 4.488281 -2.21875 3.921875 -3.898438 3.921875 -6.109375 L 3.921875 -47.109375 C 3.921875 -51.640625 6.132812 -53.90625 10.5625 -53.90625 C 12.726562 -53.90625 14.398438 -53.328125 15.578125 -52.171875 C 16.765625 -51.015625 17.359375 -49.328125 17.359375 -47.109375 L 17.359375 -32.546875 C 20.023438 -36.160156 23.898438 -37.96875 28.984375 -37.96875 C 33.421875 -37.96875 36.707031 -36.660156 38.84375 -34.046875 C 40.976562 -31.429688 42.046875 -27.40625 42.046875 -21.96875 L 42.046875 -6.109375 C 42.046875 -3.898438 41.46875 -2.21875 40.3125 -1.0625 C 39.15625 0.09375 37.492188 0.671875 35.328125 0.671875 C 33.171875 0.671875 31.507812 0.09375 30.34375 -1.0625 C 29.1875 -2.21875 28.609375 -3.898438 28.609375 -6.109375 L 28.609375 -21.4375 C 28.609375 -23.707031 28.21875 -25.316406 27.4375 -26.265625 C 26.664062 -27.222656 25.523438 -27.703125 24.015625 -27.703125 C 21.992188 -27.703125 20.378906 -27.0625 19.171875 -25.78125 C 17.960938 -24.5 17.359375 -22.773438 17.359375 -20.609375 L 17.359375 -6.109375 C 17.359375 -1.585938 15.09375 0.671875 10.5625 0.671875 Z M 10.5625 0.671875 "/></g></g></g><g fill="#000000" fill-opacity="1"><g transform="translate(1304.924861, 104.560348)"><g><path d="M 24.15625 0.828125 C 19.625 0.828125 15.707031 0.0351562 12.40625 -1.546875 C 9.113281 -3.128906 6.585938 -5.378906 4.828125 -8.296875 C 3.066406 -11.222656 2.1875 -14.675781 2.1875 -18.65625 C 2.1875 -22.425781 3.03125 -25.769531 4.71875 -28.6875 C 6.40625 -31.601562 8.71875 -33.878906 11.65625 -35.515625 C 14.601562 -37.148438 17.96875 -37.96875 21.75 -37.96875 C 25.46875 -37.96875 28.695312 -37.1875 31.4375 -35.625 C 34.1875 -34.070312 36.300781 -31.847656 37.78125 -28.953125 C 39.269531 -26.054688 40.015625 -22.671875 40.015625 -18.796875 C 40.015625 -16.835938 38.859375 -15.859375 36.546875 -15.859375 L 15.03125 -15.859375 C 15.476562 -13.441406 16.484375 -11.703125 18.046875 -10.640625 C 19.609375 -9.585938 21.769531 -9.0625 24.53125 -9.0625 C 25.59375 -9.0625 26.851562 -9.1875 28.3125 -9.4375 C 29.769531 -9.6875 31.15625 -10.085938 32.46875 -10.640625 C 34.070312 -11.242188 35.425781 -11.253906 36.53125 -10.671875 C 37.644531 -10.097656 38.390625 -9.21875 38.765625 -8.03125 C 39.140625 -6.851562 39.085938 -5.644531 38.609375 -4.40625 C 38.140625 -3.175781 37.195312 -2.234375 35.78125 -1.578125 C 34.019531 -0.722656 32.144531 -0.109375 30.15625 0.265625 C 28.175781 0.640625 26.175781 0.828125 24.15625 0.828125 Z M 22.34375 -29.296875 C 20.332031 -29.296875 18.6875 -28.691406 17.40625 -27.484375 C 16.125 -26.273438 15.304688 -24.515625 14.953125 -22.203125 L 28.984375 -22.203125 C 28.835938 -24.566406 28.195312 -26.335938 27.0625 -27.515625 C 25.9375 -28.703125 24.363281 -29.296875 22.34375 -29.296875 Z M 22.34375 -29.296875 "/></g></g></g><g fill="#000000" fill-opacity="1"><g transform="translate(1346.825508, 104.560348)"><g><path d="M 10.796875 0.671875 C 6.210938 0.671875 3.921875 -1.585938 3.921875 -6.109375 L 3.921875 -31.109375 C 3.921875 -35.585938 6.113281 -37.828125 10.5 -37.828125 C 12.5625 -37.828125 14.15625 -37.25 15.28125 -36.09375 C 16.414062 -34.9375 16.984375 -33.273438 16.984375 -31.109375 L 16.984375 -30.875 C 17.835938 -33.039062 19.222656 -34.753906 21.140625 -36.015625 C 23.054688 -37.273438 25.320312 -37.925781 27.9375 -37.96875 C 29.394531 -38.019531 30.488281 -37.65625 31.21875 -36.875 C 31.945312 -36.101562 32.335938 -34.660156 32.390625 -32.546875 C 32.390625 -30.734375 32.007812 -29.296875 31.25 -28.234375 C 30.5 -27.179688 29.066406 -26.550781 26.953125 -26.34375 L 25.21875 -26.203125 C 22.550781 -25.953125 20.613281 -25.207031 19.40625 -23.96875 C 18.195312 -22.738281 17.59375 -20.914062 17.59375 -18.5 L 17.59375 -6.109375 C 17.59375 -1.585938 15.328125 0.671875 10.796875 0.671875 Z M 10.796875 0.671875 "/></g></g></g></svg>