<svg xmlns="http://www.w3.org/2000/svg" xmlns:xlink="http://www.w3.org/1999/xlink" width="281" zoomAndPan="magnify" viewBox="0 0 210.75 163.5" height="218" preserveAspectRatio="xMidYMid meet" version="1.0"><defs><g/><clipPath id="b378045d58"><path d="M 0.195312 0 L 210.304688 0 L 210.304688 163 L 0.195312 163 Z M 0.195312 0 " clip-rule="nonzero"/></clipPath><clipPath id="353cd3d8a8"><path d="M 7.683594 0 L 203.066406 0 C 205.050781 0 206.957031 0.789062 208.359375 2.191406 C 209.765625 3.597656 210.554688 5.5 210.554688 7.484375 L 210.554688 155.707031 C 210.554688 157.695312 209.765625 159.597656 208.359375 161.003906 C 206.957031 162.40625 205.050781 163.195312 203.066406 163.195312 L 7.683594 163.195312 C 5.695312 163.195312 3.792969 162.40625 2.390625 161.003906 C 0.984375 159.597656 0.195312 157.695312 0.195312 155.707031 L 0.195312 7.484375 C 0.195312 5.5 0.984375 3.597656 2.390625 2.191406 C 3.792969 0.789062 5.695312 0 7.683594 0 " clip-rule="nonzero"/></clipPath><clipPath id="28ea4ade8c"><path d="M 31.152344 16.320312 L 77.957031 16.320312 L 77.957031 63.125 L 31.152344 63.125 Z M 31.152344 16.320312 " clip-rule="nonzero"/></clipPath><clipPath id="37646dd019"><path d="M 54.554688 16.320312 C 41.632812 16.320312 31.152344 26.796875 31.152344 39.722656 C 31.152344 52.648438 41.632812 63.125 54.554688 63.125 C 67.480469 63.125 77.957031 52.648438 77.957031 39.722656 C 77.957031 26.796875 67.480469 16.320312 54.554688 16.320312 " clip-rule="nonzero"/></clipPath><clipPath id="82d505ca45"><path d="M 43.367188 28.535156 L 65.824219 28.535156 L 65.824219 50.992188 L 43.367188 50.992188 Z M 43.367188 28.535156 " clip-rule="nonzero"/></clipPath></defs><g clip-path="url(#b378045d58)"><g clip-path="url(#353cd3d8a8)"><path fill="#dfdfdf" d="M 0.195312 0 L 210.566406 0 L 210.566406 162.941406 L 0.195312 162.941406 Z M 0.195312 0 " fill-opacity="1" fill-rule="nonzero"/></g></g><g clip-path="url(#28ea4ade8c)"><g clip-path="url(#37646dd019)"><path fill="#f2b705" d="M 31.152344 16.320312 L 77.957031 16.320312 L 77.957031 63.125 L 31.152344 63.125 Z M 31.152344 16.320312 " fill-opacity="1" fill-rule="nonzero"/></g></g><g clip-path="url(#82d505ca45)"><path fill="#624f14" d="M 61.492188 28.828125 C 61.210938 28.546875 60.71875 28.546875 60.4375 28.828125 L 45.238281 44.027344 C 45.238281 44.027344 45.238281 44.03125 45.234375 44.03125 C 45.175781 44.09375 45.128906 44.164062 45.09375 44.246094 C 45.085938 44.265625 45.074219 44.28125 45.070312 44.304688 C 45.0625 44.320312 45.050781 44.335938 45.046875 44.355469 L 43.46875 50.046875 C 43.398438 50.304688 43.46875 50.582031 43.660156 50.773438 C 43.804688 50.914062 43.992188 50.992188 44.1875 50.992188 C 44.253906 50.992188 44.320312 50.984375 44.386719 50.964844 L 50.078125 49.386719 C 50.097656 49.382812 50.113281 49.371094 50.132812 49.367188 C 50.152344 49.359375 50.167969 49.351562 50.1875 49.339844 C 50.269531 49.304688 50.34375 49.257812 50.402344 49.199219 C 50.40625 49.195312 50.40625 49.195312 50.40625 49.195312 L 50.410156 49.195312 C 50.410156 49.191406 50.410156 49.191406 50.410156 49.191406 L 65.605469 33.996094 C 65.746094 33.855469 65.824219 33.667969 65.824219 33.46875 C 65.824219 33.269531 65.746094 33.082031 65.605469 32.941406 Z M 58.421875 32.953125 L 61.480469 36.015625 L 49.878906 47.613281 L 46.820312 44.554688 Z M 45.257812 49.175781 L 46.144531 45.988281 L 48.445312 48.289062 Z M 62.535156 34.960938 L 59.476562 31.898438 L 60.964844 30.410156 L 64.023438 33.46875 Z M 62.535156 34.960938 " fill-opacity="1" fill-rule="nonzero"/></g><g fill="#000000" fill-opacity="1"><g transform="translate(31.15343, 87.620215)"><g><path d="M 3.375 0.1875 C 2.738281 0.1875 2.242188 0.015625 1.890625 -0.328125 C 1.546875 -0.679688 1.375 -1.1875 1.375 -1.84375 L 1.375 -13.109375 C 1.375 -14.472656 2.0625 -15.15625 3.4375 -15.15625 L 10.59375 -15.15625 C 11.625 -15.15625 12.140625 -14.65625 12.140625 -13.65625 C 12.140625 -12.625 11.625 -12.109375 10.59375 -12.109375 L 5.328125 -12.109375 L 5.328125 -9.046875 L 10.125 -9.046875 C 11.15625 -9.046875 11.671875 -8.546875 11.671875 -7.546875 C 11.671875 -6.523438 11.15625 -6.015625 10.125 -6.015625 L 5.328125 -6.015625 L 5.328125 -1.84375 C 5.328125 -0.488281 4.675781 0.1875 3.375 0.1875 Z M 3.375 0.1875 "/></g></g></g><g fill="#000000" fill-opacity="1"><g transform="translate(43.600572, 87.620215)"><g><path d="M 8.078125 0.234375 C 5.867188 0.234375 4.179688 -0.320312 3.015625 -1.4375 C 1.847656 -2.5625 1.265625 -4.234375 1.265625 -6.453125 L 1.265625 -13.359375 C 1.265625 -13.992188 1.4375 -14.484375 1.78125 -14.828125 C 2.125 -15.171875 2.613281 -15.34375 3.25 -15.34375 C 3.875 -15.34375 4.359375 -15.171875 4.703125 -14.828125 C 5.046875 -14.484375 5.21875 -13.992188 5.21875 -13.359375 L 5.21875 -6.40625 C 5.21875 -5.300781 5.460938 -4.46875 5.953125 -3.90625 C 6.441406 -3.351562 7.148438 -3.078125 8.078125 -3.078125 C 8.992188 -3.078125 9.695312 -3.351562 10.1875 -3.90625 C 10.675781 -4.46875 10.921875 -5.300781 10.921875 -6.40625 L 10.921875 -13.359375 C 10.921875 -13.992188 11.085938 -14.484375 11.421875 -14.828125 C 11.765625 -15.171875 12.25 -15.34375 12.875 -15.34375 C 13.507812 -15.34375 13.988281 -15.171875 14.3125 -14.828125 C 14.644531 -14.484375 14.8125 -13.992188 14.8125 -13.359375 L 14.8125 -6.453125 C 14.8125 -4.234375 14.238281 -2.5625 13.09375 -1.4375 C 11.957031 -0.320312 10.285156 0.234375 8.078125 0.234375 Z M 8.078125 0.234375 "/></g></g></g><g fill="#000000" fill-opacity="1"><g transform="translate(59.680813, 87.620215)"><g><path d="M 3.21875 0.1875 C 1.988281 0.1875 1.375 -0.429688 1.375 -1.671875 L 1.375 -13.390625 C 1.375 -14.023438 1.53125 -14.507812 1.84375 -14.84375 C 2.164062 -15.175781 2.582031 -15.34375 3.09375 -15.34375 C 3.550781 -15.34375 3.90625 -15.253906 4.15625 -15.078125 C 4.40625 -14.910156 4.695312 -14.628906 5.03125 -14.234375 L 11.25 -6.46875 L 11.25 -13.5 C 11.25 -14.726562 11.859375 -15.34375 13.078125 -15.34375 C 13.671875 -15.34375 14.125 -15.179688 14.4375 -14.859375 C 14.75 -14.546875 14.90625 -14.09375 14.90625 -13.5 L 14.90625 -1.59375 C 14.90625 -1.050781 14.757812 -0.617188 14.46875 -0.296875 C 14.1875 0.0234375 13.800781 0.1875 13.3125 0.1875 C 12.820312 0.1875 12.4375 0.101562 12.15625 -0.0625 C 11.875 -0.238281 11.578125 -0.523438 11.265625 -0.921875 L 5.046875 -8.6875 L 5.046875 -1.671875 C 5.046875 -0.429688 4.4375 0.1875 3.21875 0.1875 Z M 3.21875 0.1875 "/></g></g></g><g fill="#000000" fill-opacity="1"><g transform="translate(31.15343, 105.773843)"><g><path d="M 4.40625 -8.515625 C 5.007812 -8.515625 5.523438 -8.398438 5.953125 -8.171875 C 6.390625 -7.953125 6.71875 -7.640625 6.9375 -7.234375 C 7.164062 -6.835938 7.28125 -6.375 7.28125 -5.84375 C 7.28125 -5.3125 7.164062 -4.84375 6.9375 -4.4375 C 6.71875 -4.039062 6.390625 -3.726562 5.953125 -3.5 C 5.523438 -3.28125 5.007812 -3.171875 4.40625 -3.171875 L 2.796875 -3.171875 L 2.796875 0 L 1.109375 0 L 1.109375 -8.515625 Z M 4.171875 -4.515625 C 5.109375 -4.515625 5.578125 -4.957031 5.578125 -5.84375 C 5.578125 -6.738281 5.109375 -7.1875 4.171875 -7.1875 L 2.796875 -7.1875 L 2.796875 -4.515625 Z M 4.171875 -4.515625 "/></g></g></g><g fill="#000000" fill-opacity="1"><g transform="translate(38.941439, 105.773843)"><g><path d="M 6.359375 -2.84375 L 2.21875 -2.84375 C 2.269531 -2.289062 2.429688 -1.882812 2.703125 -1.625 C 2.972656 -1.375 3.34375 -1.25 3.8125 -1.25 C 4.175781 -1.25 4.472656 -1.316406 4.703125 -1.453125 C 4.929688 -1.585938 5.117188 -1.796875 5.265625 -2.078125 L 5.390625 -2.078125 L 6.453125 -1.390625 C 6.242188 -0.941406 5.925781 -0.578125 5.5 -0.296875 C 5.082031 -0.015625 4.519531 0.125 3.8125 0.125 C 3.144531 0.125 2.566406 0 2.078125 -0.25 C 1.597656 -0.507812 1.226562 -0.890625 0.96875 -1.390625 C 0.707031 -1.890625 0.578125 -2.5 0.578125 -3.21875 C 0.578125 -3.945312 0.710938 -4.5625 0.984375 -5.0625 C 1.265625 -5.5625 1.640625 -5.929688 2.109375 -6.171875 C 2.578125 -6.421875 3.109375 -6.546875 3.703125 -6.546875 C 4.609375 -6.546875 5.300781 -6.304688 5.78125 -5.828125 C 6.269531 -5.347656 6.515625 -4.640625 6.515625 -3.703125 C 6.515625 -3.367188 6.5 -3.109375 6.46875 -2.921875 Z M 4.96875 -3.890625 C 4.945312 -4.378906 4.832031 -4.734375 4.625 -4.953125 C 4.414062 -5.179688 4.109375 -5.296875 3.703125 -5.296875 C 2.878906 -5.296875 2.394531 -4.828125 2.25 -3.890625 Z M 4.96875 -3.890625 "/></g></g></g><g fill="#000000" fill-opacity="1"><g transform="translate(45.930835, 105.773843)"><g><path d="M 0.921875 0 L 0.921875 -6.421875 L 2.484375 -6.421875 L 2.484375 -5.5625 L 2.59375 -5.546875 C 2.8125 -5.890625 3.0625 -6.140625 3.34375 -6.296875 C 3.625 -6.460938 3.984375 -6.546875 4.421875 -6.546875 C 4.898438 -6.546875 5.285156 -6.445312 5.578125 -6.25 C 5.878906 -6.0625 6.097656 -5.785156 6.234375 -5.421875 L 6.359375 -5.421875 C 6.554688 -5.804688 6.8125 -6.085938 7.125 -6.265625 C 7.4375 -6.453125 7.828125 -6.546875 8.296875 -6.546875 C 9.628906 -6.546875 10.296875 -5.804688 10.296875 -4.328125 L 10.296875 0 L 8.671875 0 L 8.671875 -4.125 C 8.671875 -4.5 8.597656 -4.769531 8.453125 -4.9375 C 8.304688 -5.101562 8.070312 -5.1875 7.75 -5.1875 C 6.863281 -5.1875 6.421875 -4.59375 6.421875 -3.40625 L 6.421875 0 L 4.796875 0 L 4.796875 -4.125 C 4.796875 -4.5 4.722656 -4.769531 4.578125 -4.9375 C 4.429688 -5.101562 4.191406 -5.1875 3.859375 -5.1875 C 3.441406 -5.1875 3.117188 -5.046875 2.890625 -4.765625 C 2.660156 -4.492188 2.546875 -4.050781 2.546875 -3.4375 L 2.546875 0 Z M 0.921875 0 "/></g></g></g><g fill="#000000" fill-opacity="1"><g transform="translate(57.053232, 105.773843)"><g><path d="M 4.5 0.125 C 3.675781 0.125 3.0625 -0.179688 2.65625 -0.796875 L 2.546875 -0.78125 L 2.546875 0 L 0.921875 0 L 0.921875 -9.015625 L 2.546875 -9.015625 L 2.546875 -5.671875 L 2.65625 -5.640625 C 2.882812 -5.953125 3.148438 -6.179688 3.453125 -6.328125 C 3.753906 -6.472656 4.113281 -6.546875 4.53125 -6.546875 C 5.050781 -6.546875 5.503906 -6.421875 5.890625 -6.171875 C 6.273438 -5.929688 6.578125 -5.5625 6.796875 -5.0625 C 7.015625 -4.5625 7.125 -3.945312 7.125 -3.21875 C 7.125 -2.476562 7.007812 -1.859375 6.78125 -1.359375 C 6.5625 -0.867188 6.253906 -0.5 5.859375 -0.25 C 5.460938 0 5.007812 0.125 4.5 0.125 Z M 4 -1.25 C 4.476562 -1.25 4.84375 -1.40625 5.09375 -1.71875 C 5.34375 -2.039062 5.46875 -2.539062 5.46875 -3.21875 C 5.46875 -3.894531 5.34375 -4.390625 5.09375 -4.703125 C 4.84375 -5.023438 4.476562 -5.1875 4 -5.1875 C 3.550781 -5.1875 3.191406 -5.019531 2.921875 -4.6875 C 2.660156 -4.363281 2.53125 -3.875 2.53125 -3.21875 C 2.53125 -2.550781 2.660156 -2.054688 2.921875 -1.734375 C 3.191406 -1.410156 3.550781 -1.25 4 -1.25 Z M 4 -1.25 "/></g></g></g><g fill="#000000" fill-opacity="1"><g transform="translate(64.753808, 105.773843)"><g><path d="M 6.359375 -2.84375 L 2.21875 -2.84375 C 2.269531 -2.289062 2.429688 -1.882812 2.703125 -1.625 C 2.972656 -1.375 3.34375 -1.25 3.8125 -1.25 C 4.175781 -1.25 4.472656 -1.316406 4.703125 -1.453125 C 4.929688 -1.585938 5.117188 -1.796875 5.265625 -2.078125 L 5.390625 -2.078125 L 6.453125 -1.390625 C 6.242188 -0.941406 5.925781 -0.578125 5.5 -0.296875 C 5.082031 -0.015625 4.519531 0.125 3.8125 0.125 C 3.144531 0.125 2.566406 0 2.078125 -0.25 C 1.597656 -0.507812 1.226562 -0.890625 0.96875 -1.390625 C 0.707031 -1.890625 0.578125 -2.5 0.578125 -3.21875 C 0.578125 -3.945312 0.710938 -4.5625 0.984375 -5.0625 C 1.265625 -5.5625 1.640625 -5.929688 2.109375 -6.171875 C 2.578125 -6.421875 3.109375 -6.546875 3.703125 -6.546875 C 4.609375 -6.546875 5.300781 -6.304688 5.78125 -5.828125 C 6.269531 -5.347656 6.515625 -4.640625 6.515625 -3.703125 C 6.515625 -3.367188 6.5 -3.109375 6.46875 -2.921875 Z M 4.96875 -3.890625 C 4.945312 -4.378906 4.832031 -4.734375 4.625 -4.953125 C 4.414062 -5.179688 4.109375 -5.296875 3.703125 -5.296875 C 2.878906 -5.296875 2.394531 -4.828125 2.25 -3.890625 Z M 4.96875 -3.890625 "/></g></g></g><g fill="#000000" fill-opacity="1"><g transform="translate(71.743204, 105.773843)"><g><path d="M 2.671875 0.125 C 2.085938 0.125 1.644531 -0.03125 1.34375 -0.34375 C 1.039062 -0.65625 0.890625 -1.128906 0.890625 -1.765625 L 0.890625 -9.015625 L 2.5 -9.015625 L 2.5 -1.84375 C 2.5 -1.445312 2.660156 -1.25 2.984375 -1.25 C 3.078125 -1.25 3.175781 -1.265625 3.28125 -1.296875 L 3.375 -1.265625 L 3.515625 -0.03125 C 3.421875 0.0195312 3.300781 0.0546875 3.15625 0.078125 C 3.007812 0.109375 2.847656 0.125 2.671875 0.125 Z M 2.671875 0.125 "/></g></g></g><g fill="#000000" fill-opacity="1"><g transform="translate(75.439011, 105.773843)"><g><path d="M 2.5 0.125 C 2.09375 0.125 1.738281 0.0507812 1.4375 -0.09375 C 1.132812 -0.25 0.898438 -0.472656 0.734375 -0.765625 C 0.566406 -1.066406 0.484375 -1.421875 0.484375 -1.828125 C 0.484375 -2.210938 0.566406 -2.53125 0.734375 -2.78125 C 0.898438 -3.039062 1.148438 -3.253906 1.484375 -3.421875 C 1.828125 -3.585938 2.273438 -3.71875 2.828125 -3.8125 C 3.210938 -3.875 3.503906 -3.941406 3.703125 -4.015625 C 3.910156 -4.085938 4.046875 -4.171875 4.109375 -4.265625 C 4.179688 -4.359375 4.21875 -4.472656 4.21875 -4.609375 C 4.21875 -4.816406 4.144531 -4.972656 4 -5.078125 C 3.851562 -5.191406 3.613281 -5.25 3.28125 -5.25 C 2.925781 -5.25 2.585938 -5.171875 2.265625 -5.015625 C 1.941406 -4.859375 1.660156 -4.648438 1.421875 -4.390625 L 1.3125 -4.390625 L 0.640625 -5.40625 C 0.960938 -5.769531 1.359375 -6.050781 1.828125 -6.25 C 2.296875 -6.445312 2.8125 -6.546875 3.375 -6.546875 C 4.21875 -6.546875 4.828125 -6.363281 5.203125 -6 C 5.585938 -5.644531 5.78125 -5.132812 5.78125 -4.46875 L 5.78125 -1.671875 C 5.78125 -1.390625 5.910156 -1.25 6.171875 -1.25 C 6.265625 -1.25 6.359375 -1.265625 6.453125 -1.296875 L 6.53125 -1.28125 L 6.65625 -0.15625 C 6.5625 -0.09375 6.429688 -0.0390625 6.265625 0 C 6.109375 0.03125 5.9375 0.046875 5.75 0.046875 C 5.363281 0.046875 5.0625 -0.0234375 4.84375 -0.171875 C 4.632812 -0.316406 4.484375 -0.550781 4.390625 -0.875 L 4.265625 -0.875 C 3.953125 -0.207031 3.363281 0.125 2.5 0.125 Z M 3.015625 -1.078125 C 3.390625 -1.078125 3.6875 -1.203125 3.90625 -1.453125 C 4.132812 -1.710938 4.25 -2.0625 4.25 -2.5 L 4.25 -3.15625 L 4.140625 -3.1875 C 4.046875 -3.101562 3.914062 -3.035156 3.75 -2.984375 C 3.59375 -2.929688 3.367188 -2.878906 3.078125 -2.828125 C 2.722656 -2.773438 2.46875 -2.675781 2.3125 -2.53125 C 2.164062 -2.382812 2.09375 -2.179688 2.09375 -1.921875 C 2.09375 -1.648438 2.171875 -1.441406 2.328125 -1.296875 C 2.492188 -1.148438 2.722656 -1.078125 3.015625 -1.078125 Z M 3.015625 -1.078125 "/></g></g></g><g fill="#000000" fill-opacity="1"><g transform="translate(82.21855, 105.773843)"><g><path d="M 1.734375 -7.203125 C 1.441406 -7.203125 1.203125 -7.289062 1.015625 -7.46875 C 0.835938 -7.644531 0.75 -7.875 0.75 -8.15625 C 0.75 -8.425781 0.835938 -8.648438 1.015625 -8.828125 C 1.203125 -9.003906 1.441406 -9.09375 1.734375 -9.09375 C 1.921875 -9.09375 2.09375 -9.050781 2.25 -8.96875 C 2.40625 -8.882812 2.523438 -8.769531 2.609375 -8.625 C 2.691406 -8.488281 2.734375 -8.332031 2.734375 -8.15625 C 2.734375 -7.96875 2.691406 -7.800781 2.609375 -7.65625 C 2.523438 -7.507812 2.40625 -7.394531 2.25 -7.3125 C 2.09375 -7.238281 1.921875 -7.203125 1.734375 -7.203125 Z M 0.5 2.734375 C 0.03125 2.734375 -0.347656 2.671875 -0.640625 2.546875 L -0.4375 1.265625 L -0.328125 1.234375 C -0.171875 1.304688 0.0078125 1.34375 0.21875 1.34375 C 0.6875 1.34375 0.921875 1.0625 0.921875 0.5 L 0.921875 -6.421875 L 2.546875 -6.421875 L 2.546875 0.453125 C 2.546875 1.203125 2.367188 1.769531 2.015625 2.15625 C 1.671875 2.539062 1.164062 2.734375 0.5 2.734375 Z M 0.5 2.734375 "/></g></g></g><g fill="#000000" fill-opacity="1"><g transform="translate(85.681183, 105.773843)"><g><path d="M 2.5 0.125 C 2.09375 0.125 1.738281 0.0507812 1.4375 -0.09375 C 1.132812 -0.25 0.898438 -0.472656 0.734375 -0.765625 C 0.566406 -1.066406 0.484375 -1.421875 0.484375 -1.828125 C 0.484375 -2.210938 0.566406 -2.53125 0.734375 -2.78125 C 0.898438 -3.039062 1.148438 -3.253906 1.484375 -3.421875 C 1.828125 -3.585938 2.273438 -3.71875 2.828125 -3.8125 C 3.210938 -3.875 3.503906 -3.941406 3.703125 -4.015625 C 3.910156 -4.085938 4.046875 -4.171875 4.109375 -4.265625 C 4.179688 -4.359375 4.21875 -4.472656 4.21875 -4.609375 C 4.21875 -4.816406 4.144531 -4.972656 4 -5.078125 C 3.851562 -5.191406 3.613281 -5.25 3.28125 -5.25 C 2.925781 -5.25 2.585938 -5.171875 2.265625 -5.015625 C 1.941406 -4.859375 1.660156 -4.648438 1.421875 -4.390625 L 1.3125 -4.390625 L 0.640625 -5.40625 C 0.960938 -5.769531 1.359375 -6.050781 1.828125 -6.25 C 2.296875 -6.445312 2.8125 -6.546875 3.375 -6.546875 C 4.21875 -6.546875 4.828125 -6.363281 5.203125 -6 C 5.585938 -5.644531 5.78125 -5.132812 5.78125 -4.46875 L 5.78125 -1.671875 C 5.78125 -1.390625 5.910156 -1.25 6.171875 -1.25 C 6.265625 -1.25 6.359375 -1.265625 6.453125 -1.296875 L 6.53125 -1.28125 L 6.65625 -0.15625 C 6.5625 -0.09375 6.429688 -0.0390625 6.265625 0 C 6.109375 0.03125 5.9375 0.046875 5.75 0.046875 C 5.363281 0.046875 5.0625 -0.0234375 4.84375 -0.171875 C 4.632812 -0.316406 4.484375 -0.550781 4.390625 -0.875 L 4.265625 -0.875 C 3.953125 -0.207031 3.363281 0.125 2.5 0.125 Z M 3.015625 -1.078125 C 3.390625 -1.078125 3.6875 -1.203125 3.90625 -1.453125 C 4.132812 -1.710938 4.25 -2.0625 4.25 -2.5 L 4.25 -3.15625 L 4.140625 -3.1875 C 4.046875 -3.101562 3.914062 -3.035156 3.75 -2.984375 C 3.59375 -2.929688 3.367188 -2.878906 3.078125 -2.828125 C 2.722656 -2.773438 2.46875 -2.675781 2.3125 -2.53125 C 2.164062 -2.382812 2.09375 -2.179688 2.09375 -1.921875 C 2.09375 -1.648438 2.171875 -1.441406 2.328125 -1.296875 C 2.492188 -1.148438 2.722656 -1.078125 3.015625 -1.078125 Z M 3.015625 -1.078125 "/></g></g></g><g fill="#000000" fill-opacity="1"><g transform="translate(92.460723, 105.773843)"><g><path d="M 0.921875 0 L 0.921875 -6.421875 L 2.5 -6.421875 L 2.5 -5.46875 L 2.609375 -5.453125 C 2.765625 -5.804688 2.96875 -6.066406 3.21875 -6.234375 C 3.476562 -6.398438 3.789062 -6.484375 4.15625 -6.484375 C 4.519531 -6.484375 4.796875 -6.421875 4.984375 -6.296875 L 4.703125 -4.90625 L 4.59375 -4.890625 C 4.488281 -4.929688 4.382812 -4.957031 4.28125 -4.96875 C 4.1875 -4.988281 4.066406 -5 3.921875 -5 C 3.472656 -5 3.128906 -4.84375 2.890625 -4.53125 C 2.660156 -4.21875 2.546875 -3.707031 2.546875 -3 L 2.546875 0 Z M 0.921875 0 "/></g></g></g><g fill="#000000" fill-opacity="1"><g transform="translate(97.503116, 105.773843)"><g><path d="M 2.5 0.125 C 2.09375 0.125 1.738281 0.0507812 1.4375 -0.09375 C 1.132812 -0.25 0.898438 -0.472656 0.734375 -0.765625 C 0.566406 -1.066406 0.484375 -1.421875 0.484375 -1.828125 C 0.484375 -2.210938 0.566406 -2.53125 0.734375 -2.78125 C 0.898438 -3.039062 1.148438 -3.253906 1.484375 -3.421875 C 1.828125 -3.585938 2.273438 -3.71875 2.828125 -3.8125 C 3.210938 -3.875 3.503906 -3.941406 3.703125 -4.015625 C 3.910156 -4.085938 4.046875 -4.171875 4.109375 -4.265625 C 4.179688 -4.359375 4.21875 -4.472656 4.21875 -4.609375 C 4.21875 -4.816406 4.144531 -4.972656 4 -5.078125 C 3.851562 -5.191406 3.613281 -5.25 3.28125 -5.25 C 2.925781 -5.25 2.585938 -5.171875 2.265625 -5.015625 C 1.941406 -4.859375 1.660156 -4.648438 1.421875 -4.390625 L 1.3125 -4.390625 L 0.640625 -5.40625 C 0.960938 -5.769531 1.359375 -6.050781 1.828125 -6.25 C 2.296875 -6.445312 2.8125 -6.546875 3.375 -6.546875 C 4.21875 -6.546875 4.828125 -6.363281 5.203125 -6 C 5.585938 -5.644531 5.78125 -5.132812 5.78125 -4.46875 L 5.78125 -1.671875 C 5.78125 -1.390625 5.910156 -1.25 6.171875 -1.25 C 6.265625 -1.25 6.359375 -1.265625 6.453125 -1.296875 L 6.53125 -1.28125 L 6.65625 -0.15625 C 6.5625 -0.09375 6.429688 -0.0390625 6.265625 0 C 6.109375 0.03125 5.9375 0.046875 5.75 0.046875 C 5.363281 0.046875 5.0625 -0.0234375 4.84375 -0.171875 C 4.632812 -0.316406 4.484375 -0.550781 4.390625 -0.875 L 4.265625 -0.875 C 3.953125 -0.207031 3.363281 0.125 2.5 0.125 Z M 3.015625 -1.078125 C 3.390625 -1.078125 3.6875 -1.203125 3.90625 -1.453125 C 4.132812 -1.710938 4.25 -2.0625 4.25 -2.5 L 4.25 -3.15625 L 4.140625 -3.1875 C 4.046875 -3.101562 3.914062 -3.035156 3.75 -2.984375 C 3.59375 -2.929688 3.367188 -2.878906 3.078125 -2.828125 C 2.722656 -2.773438 2.46875 -2.675781 2.3125 -2.53125 C 2.164062 -2.382812 2.09375 -2.179688 2.09375 -1.921875 C 2.09375 -1.648438 2.171875 -1.441406 2.328125 -1.296875 C 2.492188 -1.148438 2.722656 -1.078125 3.015625 -1.078125 Z M 3.015625 -1.078125 "/></g></g></g><g fill="#000000" fill-opacity="1"><g transform="translate(104.282655, 105.773843)"><g><path d="M 0.921875 0 L 0.921875 -6.421875 L 2.484375 -6.421875 L 2.484375 -5.484375 L 2.59375 -5.453125 C 3 -6.179688 3.648438 -6.546875 4.546875 -6.546875 C 5.285156 -6.546875 5.828125 -6.34375 6.171875 -5.9375 C 6.523438 -5.539062 6.703125 -4.953125 6.703125 -4.171875 L 6.703125 0 L 5.09375 0 L 5.09375 -3.984375 C 5.09375 -4.410156 5.003906 -4.71875 4.828125 -4.90625 C 4.660156 -5.09375 4.390625 -5.1875 4.015625 -5.1875 C 3.546875 -5.1875 3.179688 -5.035156 2.921875 -4.734375 C 2.671875 -4.441406 2.546875 -3.972656 2.546875 -3.328125 L 2.546875 0 Z M 0.921875 0 "/></g></g></g><g fill="#000000" fill-opacity="1"><g transform="translate(111.814173, 105.773843)"><g/></g></g><g fill="#000000" fill-opacity="1"><g transform="translate(114.629756, 105.773843)"><g><path d="M 1.109375 0 L 1.109375 -8.515625 L 4.75 -8.515625 C 5.269531 -8.515625 5.710938 -8.429688 6.078125 -8.265625 C 6.441406 -8.109375 6.71875 -7.875 6.90625 -7.5625 C 7.09375 -7.257812 7.1875 -6.898438 7.1875 -6.484375 C 7.1875 -6.109375 7.09375 -5.773438 6.90625 -5.484375 C 6.726562 -5.203125 6.46875 -4.972656 6.125 -4.796875 L 6.125 -4.671875 C 6.65625 -4.535156 7.066406 -4.28125 7.359375 -3.90625 C 7.648438 -3.539062 7.796875 -3.085938 7.796875 -2.546875 C 7.796875 -1.734375 7.550781 -1.101562 7.0625 -0.65625 C 6.570312 -0.21875 5.84375 0 4.875 0 Z M 4.390625 -5.125 C 5.179688 -5.125 5.578125 -5.476562 5.578125 -6.1875 C 5.578125 -6.539062 5.476562 -6.804688 5.28125 -6.984375 C 5.082031 -7.160156 4.785156 -7.25 4.390625 -7.25 L 2.796875 -7.25 L 2.796875 -5.125 Z M 4.703125 -1.328125 C 5.628906 -1.328125 6.09375 -1.75 6.09375 -2.59375 C 6.09375 -3.445312 5.628906 -3.875 4.703125 -3.875 L 2.796875 -3.875 L 2.796875 -1.328125 Z M 4.703125 -1.328125 "/></g></g></g><g fill="#000000" fill-opacity="1"><g transform="translate(122.965724, 105.773843)"><g><path d="M 6.359375 -2.84375 L 2.21875 -2.84375 C 2.269531 -2.289062 2.429688 -1.882812 2.703125 -1.625 C 2.972656 -1.375 3.34375 -1.25 3.8125 -1.25 C 4.175781 -1.25 4.472656 -1.316406 4.703125 -1.453125 C 4.929688 -1.585938 5.117188 -1.796875 5.265625 -2.078125 L 5.390625 -2.078125 L 6.453125 -1.390625 C 6.242188 -0.941406 5.925781 -0.578125 5.5 -0.296875 C 5.082031 -0.015625 4.519531 0.125 3.8125 0.125 C 3.144531 0.125 2.566406 0 2.078125 -0.25 C 1.597656 -0.507812 1.226562 -0.890625 0.96875 -1.390625 C 0.707031 -1.890625 0.578125 -2.5 0.578125 -3.21875 C 0.578125 -3.945312 0.710938 -4.5625 0.984375 -5.0625 C 1.265625 -5.5625 1.640625 -5.929688 2.109375 -6.171875 C 2.578125 -6.421875 3.109375 -6.546875 3.703125 -6.546875 C 4.609375 -6.546875 5.300781 -6.304688 5.78125 -5.828125 C 6.269531 -5.347656 6.515625 -4.640625 6.515625 -3.703125 C 6.515625 -3.367188 6.5 -3.109375 6.46875 -2.921875 Z M 4.96875 -3.890625 C 4.945312 -4.378906 4.832031 -4.734375 4.625 -4.953125 C 4.414062 -5.179688 4.109375 -5.296875 3.703125 -5.296875 C 2.878906 -5.296875 2.394531 -4.828125 2.25 -3.890625 Z M 4.96875 -3.890625 "/></g></g></g><g fill="#000000" fill-opacity="1"><g transform="translate(129.95512, 105.773843)"><g><path d="M 0.921875 0 L 0.921875 -6.421875 L 2.5 -6.421875 L 2.5 -5.46875 L 2.609375 -5.453125 C 2.765625 -5.804688 2.96875 -6.066406 3.21875 -6.234375 C 3.476562 -6.398438 3.789062 -6.484375 4.15625 -6.484375 C 4.519531 -6.484375 4.796875 -6.421875 4.984375 -6.296875 L 4.703125 -4.90625 L 4.59375 -4.890625 C 4.488281 -4.929688 4.382812 -4.957031 4.28125 -4.96875 C 4.1875 -4.988281 4.066406 -5 3.921875 -5 C 3.472656 -5 3.128906 -4.84375 2.890625 -4.53125 C 2.660156 -4.21875 2.546875 -3.707031 2.546875 -3 L 2.546875 0 Z M 0.921875 0 "/></g></g></g><g fill="#000000" fill-opacity="1"><g transform="translate(134.997513, 105.773843)"><g><path d="M 3 0.125 C 2.5625 0.125 2.160156 0.0703125 1.796875 -0.03125 C 1.429688 -0.132812 1.117188 -0.273438 0.859375 -0.453125 C 0.609375 -0.640625 0.421875 -0.847656 0.296875 -1.078125 L 1.1875 -2.046875 L 1.3125 -2.046875 C 1.519531 -1.753906 1.769531 -1.535156 2.0625 -1.390625 C 2.351562 -1.253906 2.671875 -1.1875 3.015625 -1.1875 C 3.328125 -1.1875 3.5625 -1.238281 3.71875 -1.34375 C 3.882812 -1.457031 3.96875 -1.625 3.96875 -1.84375 C 3.96875 -2 3.910156 -2.128906 3.796875 -2.234375 C 3.679688 -2.347656 3.492188 -2.4375 3.234375 -2.5 L 2.390625 -2.703125 C 1.753906 -2.859375 1.285156 -3.09375 0.984375 -3.40625 C 0.691406 -3.71875 0.546875 -4.113281 0.546875 -4.59375 C 0.546875 -5 0.648438 -5.347656 0.859375 -5.640625 C 1.066406 -5.929688 1.351562 -6.15625 1.71875 -6.3125 C 2.09375 -6.46875 2.523438 -6.546875 3.015625 -6.546875 C 3.597656 -6.546875 4.078125 -6.460938 4.453125 -6.296875 C 4.835938 -6.128906 5.132812 -5.90625 5.34375 -5.625 L 4.484375 -4.703125 L 4.375 -4.703125 C 4.195312 -4.898438 3.992188 -5.046875 3.765625 -5.140625 C 3.546875 -5.234375 3.296875 -5.28125 3.015625 -5.28125 C 2.378906 -5.28125 2.0625 -5.082031 2.0625 -4.6875 C 2.0625 -4.519531 2.117188 -4.382812 2.234375 -4.28125 C 2.359375 -4.175781 2.570312 -4.085938 2.875 -4.015625 L 3.65625 -3.84375 C 4.3125 -3.707031 4.789062 -3.484375 5.09375 -3.171875 C 5.394531 -2.859375 5.546875 -2.441406 5.546875 -1.921875 C 5.546875 -1.515625 5.441406 -1.15625 5.234375 -0.84375 C 5.035156 -0.539062 4.742188 -0.300781 4.359375 -0.125 C 3.984375 0.0390625 3.53125 0.125 3 0.125 Z M 3 0.125 "/></g></g></g><g fill="#000000" fill-opacity="1"><g transform="translate(140.925967, 105.773843)"><g><path d="M 2.5 0.125 C 2.09375 0.125 1.738281 0.0507812 1.4375 -0.09375 C 1.132812 -0.25 0.898438 -0.472656 0.734375 -0.765625 C 0.566406 -1.066406 0.484375 -1.421875 0.484375 -1.828125 C 0.484375 -2.210938 0.566406 -2.53125 0.734375 -2.78125 C 0.898438 -3.039062 1.148438 -3.253906 1.484375 -3.421875 C 1.828125 -3.585938 2.273438 -3.71875 2.828125 -3.8125 C 3.210938 -3.875 3.503906 -3.941406 3.703125 -4.015625 C 3.910156 -4.085938 4.046875 -4.171875 4.109375 -4.265625 C 4.179688 -4.359375 4.21875 -4.472656 4.21875 -4.609375 C 4.21875 -4.816406 4.144531 -4.972656 4 -5.078125 C 3.851562 -5.191406 3.613281 -5.25 3.28125 -5.25 C 2.925781 -5.25 2.585938 -5.171875 2.265625 -5.015625 C 1.941406 -4.859375 1.660156 -4.648438 1.421875 -4.390625 L 1.3125 -4.390625 L 0.640625 -5.40625 C 0.960938 -5.769531 1.359375 -6.050781 1.828125 -6.25 C 2.296875 -6.445312 2.8125 -6.546875 3.375 -6.546875 C 4.21875 -6.546875 4.828125 -6.363281 5.203125 -6 C 5.585938 -5.644531 5.78125 -5.132812 5.78125 -4.46875 L 5.78125 -1.671875 C 5.78125 -1.390625 5.910156 -1.25 6.171875 -1.25 C 6.265625 -1.25 6.359375 -1.265625 6.453125 -1.296875 L 6.53125 -1.28125 L 6.65625 -0.15625 C 6.5625 -0.09375 6.429688 -0.0390625 6.265625 0 C 6.109375 0.03125 5.9375 0.046875 5.75 0.046875 C 5.363281 0.046875 5.0625 -0.0234375 4.84375 -0.171875 C 4.632812 -0.316406 4.484375 -0.550781 4.390625 -0.875 L 4.265625 -0.875 C 3.953125 -0.207031 3.363281 0.125 2.5 0.125 Z M 3.015625 -1.078125 C 3.390625 -1.078125 3.6875 -1.203125 3.90625 -1.453125 C 4.132812 -1.710938 4.25 -2.0625 4.25 -2.5 L 4.25 -3.15625 L 4.140625 -3.1875 C 4.046875 -3.101562 3.914062 -3.035156 3.75 -2.984375 C 3.59375 -2.929688 3.367188 -2.878906 3.078125 -2.828125 C 2.722656 -2.773438 2.46875 -2.675781 2.3125 -2.53125 C 2.164062 -2.382812 2.09375 -2.179688 2.09375 -1.921875 C 2.09375 -1.648438 2.171875 -1.441406 2.328125 -1.296875 C 2.492188 -1.148438 2.722656 -1.078125 3.015625 -1.078125 Z M 3.015625 -1.078125 "/></g></g></g><g fill="#000000" fill-opacity="1"><g transform="translate(147.705506, 105.773843)"><g><path d="M 0.921875 0 L 0.921875 -6.421875 L 2.484375 -6.421875 L 2.484375 -5.5625 L 2.59375 -5.546875 C 2.8125 -5.890625 3.0625 -6.140625 3.34375 -6.296875 C 3.625 -6.460938 3.984375 -6.546875 4.421875 -6.546875 C 4.898438 -6.546875 5.285156 -6.445312 5.578125 -6.25 C 5.878906 -6.0625 6.097656 -5.785156 6.234375 -5.421875 L 6.359375 -5.421875 C 6.554688 -5.804688 6.8125 -6.085938 7.125 -6.265625 C 7.4375 -6.453125 7.828125 -6.546875 8.296875 -6.546875 C 9.628906 -6.546875 10.296875 -5.804688 10.296875 -4.328125 L 10.296875 0 L 8.671875 0 L 8.671875 -4.125 C 8.671875 -4.5 8.597656 -4.769531 8.453125 -4.9375 C 8.304688 -5.101562 8.070312 -5.1875 7.75 -5.1875 C 6.863281 -5.1875 6.421875 -4.59375 6.421875 -3.40625 L 6.421875 0 L 4.796875 0 L 4.796875 -4.125 C 4.796875 -4.5 4.722656 -4.769531 4.578125 -4.9375 C 4.429688 -5.101562 4.191406 -5.1875 3.859375 -5.1875 C 3.441406 -5.1875 3.117188 -5.046875 2.890625 -4.765625 C 2.660156 -4.492188 2.546875 -4.050781 2.546875 -3.4375 L 2.546875 0 Z M 0.921875 0 "/></g></g></g><g fill="#000000" fill-opacity="1"><g transform="translate(158.827903, 105.773843)"><g><path d="M 2.5 0.125 C 2.09375 0.125 1.738281 0.0507812 1.4375 -0.09375 C 1.132812 -0.25 0.898438 -0.472656 0.734375 -0.765625 C 0.566406 -1.066406 0.484375 -1.421875 0.484375 -1.828125 C 0.484375 -2.210938 0.566406 -2.53125 0.734375 -2.78125 C 0.898438 -3.039062 1.148438 -3.253906 1.484375 -3.421875 C 1.828125 -3.585938 2.273438 -3.71875 2.828125 -3.8125 C 3.210938 -3.875 3.503906 -3.941406 3.703125 -4.015625 C 3.910156 -4.085938 4.046875 -4.171875 4.109375 -4.265625 C 4.179688 -4.359375 4.21875 -4.472656 4.21875 -4.609375 C 4.21875 -4.816406 4.144531 -4.972656 4 -5.078125 C 3.851562 -5.191406 3.613281 -5.25 3.28125 -5.25 C 2.925781 -5.25 2.585938 -5.171875 2.265625 -5.015625 C 1.941406 -4.859375 1.660156 -4.648438 1.421875 -4.390625 L 1.3125 -4.390625 L 0.640625 -5.40625 C 0.960938 -5.769531 1.359375 -6.050781 1.828125 -6.25 C 2.296875 -6.445312 2.8125 -6.546875 3.375 -6.546875 C 4.21875 -6.546875 4.828125 -6.363281 5.203125 -6 C 5.585938 -5.644531 5.78125 -5.132812 5.78125 -4.46875 L 5.78125 -1.671875 C 5.78125 -1.390625 5.910156 -1.25 6.171875 -1.25 C 6.265625 -1.25 6.359375 -1.265625 6.453125 -1.296875 L 6.53125 -1.28125 L 6.65625 -0.15625 C 6.5625 -0.09375 6.429688 -0.0390625 6.265625 0 C 6.109375 0.03125 5.9375 0.046875 5.75 0.046875 C 5.363281 0.046875 5.0625 -0.0234375 4.84375 -0.171875 C 4.632812 -0.316406 4.484375 -0.550781 4.390625 -0.875 L 4.265625 -0.875 C 3.953125 -0.207031 3.363281 0.125 2.5 0.125 Z M 3.015625 -1.078125 C 3.390625 -1.078125 3.6875 -1.203125 3.90625 -1.453125 C 4.132812 -1.710938 4.25 -2.0625 4.25 -2.5 L 4.25 -3.15625 L 4.140625 -3.1875 C 4.046875 -3.101562 3.914062 -3.035156 3.75 -2.984375 C 3.59375 -2.929688 3.367188 -2.878906 3.078125 -2.828125 C 2.722656 -2.773438 2.46875 -2.675781 2.3125 -2.53125 C 2.164062 -2.382812 2.09375 -2.179688 2.09375 -1.921875 C 2.09375 -1.648438 2.171875 -1.441406 2.328125 -1.296875 C 2.492188 -1.148438 2.722656 -1.078125 3.015625 -1.078125 Z M 3.015625 -1.078125 "/></g></g></g><g fill="#000000" fill-opacity="1"><g transform="translate(31.15343, 121.897124)"><g><path d="M 0.921875 0 L 0.921875 -6.421875 L 2.484375 -6.421875 L 2.484375 -5.5625 L 2.59375 -5.546875 C 2.8125 -5.890625 3.0625 -6.140625 3.34375 -6.296875 C 3.625 -6.460938 3.984375 -6.546875 4.421875 -6.546875 C 4.898438 -6.546875 5.285156 -6.445312 5.578125 -6.25 C 5.878906 -6.0625 6.097656 -5.785156 6.234375 -5.421875 L 6.359375 -5.421875 C 6.554688 -5.804688 6.8125 -6.085938 7.125 -6.265625 C 7.4375 -6.453125 7.828125 -6.546875 8.296875 -6.546875 C 9.628906 -6.546875 10.296875 -5.804688 10.296875 -4.328125 L 10.296875 0 L 8.671875 0 L 8.671875 -4.125 C 8.671875 -4.5 8.597656 -4.769531 8.453125 -4.9375 C 8.304688 -5.101562 8.070312 -5.1875 7.75 -5.1875 C 6.863281 -5.1875 6.421875 -4.59375 6.421875 -3.40625 L 6.421875 0 L 4.796875 0 L 4.796875 -4.125 C 4.796875 -4.5 4.722656 -4.769531 4.578125 -4.9375 C 4.429688 -5.101562 4.191406 -5.1875 3.859375 -5.1875 C 3.441406 -5.1875 3.117188 -5.046875 2.890625 -4.765625 C 2.660156 -4.492188 2.546875 -4.050781 2.546875 -3.4375 L 2.546875 0 Z M 0.921875 0 "/></g></g></g><g fill="#000000" fill-opacity="1"><g transform="translate(42.275827, 121.897124)"><g><path d="M 6.359375 -2.84375 L 2.21875 -2.84375 C 2.269531 -2.289062 2.429688 -1.882812 2.703125 -1.625 C 2.972656 -1.375 3.34375 -1.25 3.8125 -1.25 C 4.175781 -1.25 4.472656 -1.316406 4.703125 -1.453125 C 4.929688 -1.585938 5.117188 -1.796875 5.265625 -2.078125 L 5.390625 -2.078125 L 6.453125 -1.390625 C 6.242188 -0.941406 5.925781 -0.578125 5.5 -0.296875 C 5.082031 -0.015625 4.519531 0.125 3.8125 0.125 C 3.144531 0.125 2.566406 0 2.078125 -0.25 C 1.597656 -0.507812 1.226562 -0.890625 0.96875 -1.390625 C 0.707031 -1.890625 0.578125 -2.5 0.578125 -3.21875 C 0.578125 -3.945312 0.710938 -4.5625 0.984375 -5.0625 C 1.265625 -5.5625 1.640625 -5.929688 2.109375 -6.171875 C 2.578125 -6.421875 3.109375 -6.546875 3.703125 -6.546875 C 4.609375 -6.546875 5.300781 -6.304688 5.78125 -5.828125 C 6.269531 -5.347656 6.515625 -4.640625 6.515625 -3.703125 C 6.515625 -3.367188 6.5 -3.109375 6.46875 -2.921875 Z M 4.96875 -3.890625 C 4.945312 -4.378906 4.832031 -4.734375 4.625 -4.953125 C 4.414062 -5.179688 4.109375 -5.296875 3.703125 -5.296875 C 2.878906 -5.296875 2.394531 -4.828125 2.25 -3.890625 Z M 4.96875 -3.890625 "/></g></g></g><g fill="#000000" fill-opacity="1"><g transform="translate(49.265223, 121.897124)"><g><path d="M 0.921875 0 L 0.921875 -6.421875 L 2.484375 -6.421875 L 2.484375 -5.484375 L 2.59375 -5.453125 C 3 -6.179688 3.648438 -6.546875 4.546875 -6.546875 C 5.285156 -6.546875 5.828125 -6.34375 6.171875 -5.9375 C 6.523438 -5.539062 6.703125 -4.953125 6.703125 -4.171875 L 6.703125 0 L 5.09375 0 L 5.09375 -3.984375 C 5.09375 -4.410156 5.003906 -4.71875 4.828125 -4.90625 C 4.660156 -5.09375 4.390625 -5.1875 4.015625 -5.1875 C 3.546875 -5.1875 3.179688 -5.035156 2.921875 -4.734375 C 2.671875 -4.441406 2.546875 -3.972656 2.546875 -3.328125 L 2.546875 0 Z M 0.921875 0 "/></g></g></g><g fill="#000000" fill-opacity="1"><g transform="translate(56.796741, 121.897124)"><g><path d="M 3.328125 2.734375 C 2.273438 2.734375 1.492188 2.578125 0.984375 2.265625 C 0.484375 1.953125 0.234375 1.519531 0.234375 0.96875 C 0.234375 0.625 0.335938 0.34375 0.546875 0.125 C 0.765625 -0.0820312 1.078125 -0.222656 1.484375 -0.296875 L 1.484375 -0.421875 C 1.265625 -0.554688 1.109375 -0.703125 1.015625 -0.859375 C 0.921875 -1.023438 0.875 -1.210938 0.875 -1.421875 C 0.875 -1.941406 1.207031 -2.289062 1.875 -2.46875 L 1.875 -2.59375 C 1.53125 -2.789062 1.269531 -3.035156 1.09375 -3.328125 C 0.914062 -3.617188 0.828125 -3.972656 0.828125 -4.390625 C 0.828125 -4.816406 0.925781 -5.191406 1.125 -5.515625 C 1.320312 -5.847656 1.609375 -6.101562 1.984375 -6.28125 C 2.367188 -6.457031 2.828125 -6.546875 3.359375 -6.546875 C 3.890625 -6.546875 4.316406 -6.453125 4.640625 -6.265625 C 4.835938 -6.554688 4.953125 -6.890625 4.984375 -7.265625 L 5.09375 -7.34375 L 6.265625 -7.0625 C 6.222656 -6.75 6.128906 -6.488281 5.984375 -6.28125 C 5.847656 -6.070312 5.628906 -5.890625 5.328125 -5.734375 L 5.328125 -5.59375 C 5.679688 -5.28125 5.859375 -4.835938 5.859375 -4.265625 C 5.859375 -3.867188 5.757812 -3.515625 5.5625 -3.203125 C 5.363281 -2.890625 5.070312 -2.640625 4.6875 -2.453125 C 4.3125 -2.273438 3.867188 -2.1875 3.359375 -2.1875 L 3.109375 -2.1875 C 2.953125 -2.195312 2.84375 -2.203125 2.78125 -2.203125 C 2.632812 -2.203125 2.519531 -2.160156 2.4375 -2.078125 C 2.351562 -1.992188 2.3125 -1.890625 2.3125 -1.765625 C 2.3125 -1.628906 2.363281 -1.523438 2.46875 -1.453125 C 2.582031 -1.378906 2.742188 -1.335938 2.953125 -1.328125 L 4.390625 -1.28125 C 5.804688 -1.238281 6.515625 -0.625 6.515625 0.5625 C 6.515625 0.976562 6.410156 1.347656 6.203125 1.671875 C 5.992188 1.992188 5.648438 2.25 5.171875 2.4375 C 4.703125 2.632812 4.085938 2.734375 3.328125 2.734375 Z M 3.359375 -3.3125 C 3.660156 -3.3125 3.898438 -3.398438 4.078125 -3.578125 C 4.253906 -3.765625 4.34375 -4.023438 4.34375 -4.359375 C 4.34375 -4.703125 4.253906 -4.960938 4.078125 -5.140625 C 3.898438 -5.328125 3.660156 -5.421875 3.359375 -5.421875 C 3.035156 -5.421875 2.785156 -5.328125 2.609375 -5.140625 C 2.441406 -4.960938 2.359375 -4.703125 2.359375 -4.359375 C 2.359375 -4.023438 2.441406 -3.765625 2.609375 -3.578125 C 2.785156 -3.398438 3.035156 -3.3125 3.359375 -3.3125 Z M 3.328125 1.5625 C 3.878906 1.5625 4.28125 1.484375 4.53125 1.328125 C 4.78125 1.171875 4.90625 0.96875 4.90625 0.71875 C 4.90625 0.507812 4.84375 0.359375 4.71875 0.265625 C 4.59375 0.171875 4.390625 0.117188 4.109375 0.109375 L 2.84375 0.0625 C 2.800781 0.0625 2.757812 0.0546875 2.71875 0.046875 C 2.675781 0.046875 2.640625 0.046875 2.609375 0.046875 C 2.335938 0.046875 2.128906 0.101562 1.984375 0.21875 C 1.847656 0.332031 1.78125 0.492188 1.78125 0.703125 C 1.78125 0.972656 1.910156 1.179688 2.171875 1.328125 C 2.429688 1.484375 2.816406 1.5625 3.328125 1.5625 Z M 3.328125 1.5625 "/></g></g></g><g fill="#000000" fill-opacity="1"><g transform="translate(63.483011, 121.897124)"><g><path d="M 3.328125 2.734375 C 2.273438 2.734375 1.492188 2.578125 0.984375 2.265625 C 0.484375 1.953125 0.234375 1.519531 0.234375 0.96875 C 0.234375 0.625 0.335938 0.34375 0.546875 0.125 C 0.765625 -0.0820312 1.078125 -0.222656 1.484375 -0.296875 L 1.484375 -0.421875 C 1.265625 -0.554688 1.109375 -0.703125 1.015625 -0.859375 C 0.921875 -1.023438 0.875 -1.210938 0.875 -1.421875 C 0.875 -1.941406 1.207031 -2.289062 1.875 -2.46875 L 1.875 -2.59375 C 1.53125 -2.789062 1.269531 -3.035156 1.09375 -3.328125 C 0.914062 -3.617188 0.828125 -3.972656 0.828125 -4.390625 C 0.828125 -4.816406 0.925781 -5.191406 1.125 -5.515625 C 1.320312 -5.847656 1.609375 -6.101562 1.984375 -6.28125 C 2.367188 -6.457031 2.828125 -6.546875 3.359375 -6.546875 C 3.890625 -6.546875 4.316406 -6.453125 4.640625 -6.265625 C 4.835938 -6.554688 4.953125 -6.890625 4.984375 -7.265625 L 5.09375 -7.34375 L 6.265625 -7.0625 C 6.222656 -6.75 6.128906 -6.488281 5.984375 -6.28125 C 5.847656 -6.070312 5.628906 -5.890625 5.328125 -5.734375 L 5.328125 -5.59375 C 5.679688 -5.28125 5.859375 -4.835938 5.859375 -4.265625 C 5.859375 -3.867188 5.757812 -3.515625 5.5625 -3.203125 C 5.363281 -2.890625 5.070312 -2.640625 4.6875 -2.453125 C 4.3125 -2.273438 3.867188 -2.1875 3.359375 -2.1875 L 3.109375 -2.1875 C 2.953125 -2.195312 2.84375 -2.203125 2.78125 -2.203125 C 2.632812 -2.203125 2.519531 -2.160156 2.4375 -2.078125 C 2.351562 -1.992188 2.3125 -1.890625 2.3125 -1.765625 C 2.3125 -1.628906 2.363281 -1.523438 2.46875 -1.453125 C 2.582031 -1.378906 2.742188 -1.335938 2.953125 -1.328125 L 4.390625 -1.28125 C 5.804688 -1.238281 6.515625 -0.625 6.515625 0.5625 C 6.515625 0.976562 6.410156 1.347656 6.203125 1.671875 C 5.992188 1.992188 5.648438 2.25 5.171875 2.4375 C 4.703125 2.632812 4.085938 2.734375 3.328125 2.734375 Z M 3.359375 -3.3125 C 3.660156 -3.3125 3.898438 -3.398438 4.078125 -3.578125 C 4.253906 -3.765625 4.34375 -4.023438 4.34375 -4.359375 C 4.34375 -4.703125 4.253906 -4.960938 4.078125 -5.140625 C 3.898438 -5.328125 3.660156 -5.421875 3.359375 -5.421875 C 3.035156 -5.421875 2.785156 -5.328125 2.609375 -5.140625 C 2.441406 -4.960938 2.359375 -4.703125 2.359375 -4.359375 C 2.359375 -4.023438 2.441406 -3.765625 2.609375 -3.578125 C 2.785156 -3.398438 3.035156 -3.3125 3.359375 -3.3125 Z M 3.328125 1.5625 C 3.878906 1.5625 4.28125 1.484375 4.53125 1.328125 C 4.78125 1.171875 4.90625 0.96875 4.90625 0.71875 C 4.90625 0.507812 4.84375 0.359375 4.71875 0.265625 C 4.59375 0.171875 4.390625 0.117188 4.109375 0.109375 L 2.84375 0.0625 C 2.800781 0.0625 2.757812 0.0546875 2.71875 0.046875 C 2.675781 0.046875 2.640625 0.046875 2.609375 0.046875 C 2.335938 0.046875 2.128906 0.101562 1.984375 0.21875 C 1.847656 0.332031 1.78125 0.492188 1.78125 0.703125 C 1.78125 0.972656 1.910156 1.179688 2.171875 1.328125 C 2.429688 1.484375 2.816406 1.5625 3.328125 1.5625 Z M 3.328125 1.5625 "/></g></g></g><g fill="#000000" fill-opacity="1"><g transform="translate(70.16928, 121.897124)"><g><path d="M 2.9375 0.125 C 2.21875 0.125 1.6875 -0.0703125 1.34375 -0.46875 C 1 -0.863281 0.828125 -1.429688 0.828125 -2.171875 L 0.828125 -6.421875 L 2.4375 -6.421875 L 2.4375 -2.375 C 2.4375 -1.976562 2.519531 -1.6875 2.6875 -1.5 C 2.863281 -1.320312 3.128906 -1.234375 3.484375 -1.234375 C 3.929688 -1.234375 4.273438 -1.378906 4.515625 -1.671875 C 4.765625 -1.972656 4.890625 -2.4375 4.890625 -3.0625 L 4.890625 -6.421875 L 6.515625 -6.421875 L 6.515625 0 L 4.953125 0 L 4.953125 -0.9375 L 4.84375 -0.96875 C 4.632812 -0.601562 4.378906 -0.328125 4.078125 -0.140625 C 3.785156 0.0351562 3.40625 0.125 2.9375 0.125 Z M 2.9375 0.125 "/></g></g></g><g fill="#000000" fill-opacity="1"><g transform="translate(77.607529, 121.897124)"><g><path d="M 0.921875 0 L 0.921875 -6.421875 L 2.484375 -6.421875 L 2.484375 -5.484375 L 2.59375 -5.453125 C 3 -6.179688 3.648438 -6.546875 4.546875 -6.546875 C 5.285156 -6.546875 5.828125 -6.34375 6.171875 -5.9375 C 6.523438 -5.539062 6.703125 -4.953125 6.703125 -4.171875 L 6.703125 0 L 5.09375 0 L 5.09375 -3.984375 C 5.09375 -4.410156 5.003906 -4.71875 4.828125 -4.90625 C 4.660156 -5.09375 4.390625 -5.1875 4.015625 -5.1875 C 3.546875 -5.1875 3.179688 -5.035156 2.921875 -4.734375 C 2.671875 -4.441406 2.546875 -3.972656 2.546875 -3.328125 L 2.546875 0 Z M 0.921875 0 "/></g></g></g><g fill="#000000" fill-opacity="1"><g transform="translate(85.139047, 121.897124)"><g><path d="M 2.5 0.125 C 2.09375 0.125 1.738281 0.0507812 1.4375 -0.09375 C 1.132812 -0.25 0.898438 -0.472656 0.734375 -0.765625 C 0.566406 -1.066406 0.484375 -1.421875 0.484375 -1.828125 C 0.484375 -2.210938 0.566406 -2.53125 0.734375 -2.78125 C 0.898438 -3.039062 1.148438 -3.253906 1.484375 -3.421875 C 1.828125 -3.585938 2.273438 -3.71875 2.828125 -3.8125 C 3.210938 -3.875 3.503906 -3.941406 3.703125 -4.015625 C 3.910156 -4.085938 4.046875 -4.171875 4.109375 -4.265625 C 4.179688 -4.359375 4.21875 -4.472656 4.21875 -4.609375 C 4.21875 -4.816406 4.144531 -4.972656 4 -5.078125 C 3.851562 -5.191406 3.613281 -5.25 3.28125 -5.25 C 2.925781 -5.25 2.585938 -5.171875 2.265625 -5.015625 C 1.941406 -4.859375 1.660156 -4.648438 1.421875 -4.390625 L 1.3125 -4.390625 L 0.640625 -5.40625 C 0.960938 -5.769531 1.359375 -6.050781 1.828125 -6.25 C 2.296875 -6.445312 2.8125 -6.546875 3.375 -6.546875 C 4.21875 -6.546875 4.828125 -6.363281 5.203125 -6 C 5.585938 -5.644531 5.78125 -5.132812 5.78125 -4.46875 L 5.78125 -1.671875 C 5.78125 -1.390625 5.910156 -1.25 6.171875 -1.25 C 6.265625 -1.25 6.359375 -1.265625 6.453125 -1.296875 L 6.53125 -1.28125 L 6.65625 -0.15625 C 6.5625 -0.09375 6.429688 -0.0390625 6.265625 0 C 6.109375 0.03125 5.9375 0.046875 5.75 0.046875 C 5.363281 0.046875 5.0625 -0.0234375 4.84375 -0.171875 C 4.632812 -0.316406 4.484375 -0.550781 4.390625 -0.875 L 4.265625 -0.875 C 3.953125 -0.207031 3.363281 0.125 2.5 0.125 Z M 3.015625 -1.078125 C 3.390625 -1.078125 3.6875 -1.203125 3.90625 -1.453125 C 4.132812 -1.710938 4.25 -2.0625 4.25 -2.5 L 4.25 -3.15625 L 4.140625 -3.1875 C 4.046875 -3.101562 3.914062 -3.035156 3.75 -2.984375 C 3.59375 -2.929688 3.367188 -2.878906 3.078125 -2.828125 C 2.722656 -2.773438 2.46875 -2.675781 2.3125 -2.53125 C 2.164062 -2.382812 2.09375 -2.179688 2.09375 -1.921875 C 2.09375 -1.648438 2.171875 -1.441406 2.328125 -1.296875 C 2.492188 -1.148438 2.722656 -1.078125 3.015625 -1.078125 Z M 3.015625 -1.078125 "/></g></g></g><g fill="#000000" fill-opacity="1"><g transform="translate(91.918586, 121.897124)"><g><path d="M 0.921875 0 L 0.921875 -9.015625 L 2.546875 -9.015625 L 2.546875 -4.015625 L 2.703125 -4.015625 L 4.5625 -6.421875 L 6.203125 -6.421875 L 6.203125 -6.296875 L 4.015625 -3.46875 L 6.4375 -0.140625 L 6.4375 0 L 4.734375 0 L 2.703125 -2.703125 L 2.546875 -2.703125 L 2.546875 0 Z M 0.921875 0 "/></g></g></g><g fill="#000000" fill-opacity="1"><g transform="translate(98.371682, 121.897124)"><g><path d="M 2.5 0.125 C 2.09375 0.125 1.738281 0.0507812 1.4375 -0.09375 C 1.132812 -0.25 0.898438 -0.472656 0.734375 -0.765625 C 0.566406 -1.066406 0.484375 -1.421875 0.484375 -1.828125 C 0.484375 -2.210938 0.566406 -2.53125 0.734375 -2.78125 C 0.898438 -3.039062 1.148438 -3.253906 1.484375 -3.421875 C 1.828125 -3.585938 2.273438 -3.71875 2.828125 -3.8125 C 3.210938 -3.875 3.503906 -3.941406 3.703125 -4.015625 C 3.910156 -4.085938 4.046875 -4.171875 4.109375 -4.265625 C 4.179688 -4.359375 4.21875 -4.472656 4.21875 -4.609375 C 4.21875 -4.816406 4.144531 -4.972656 4 -5.078125 C 3.851562 -5.191406 3.613281 -5.25 3.28125 -5.25 C 2.925781 -5.25 2.585938 -5.171875 2.265625 -5.015625 C 1.941406 -4.859375 1.660156 -4.648438 1.421875 -4.390625 L 1.3125 -4.390625 L 0.640625 -5.40625 C 0.960938 -5.769531 1.359375 -6.050781 1.828125 -6.25 C 2.296875 -6.445312 2.8125 -6.546875 3.375 -6.546875 C 4.21875 -6.546875 4.828125 -6.363281 5.203125 -6 C 5.585938 -5.644531 5.78125 -5.132812 5.78125 -4.46875 L 5.78125 -1.671875 C 5.78125 -1.390625 5.910156 -1.25 6.171875 -1.25 C 6.265625 -1.25 6.359375 -1.265625 6.453125 -1.296875 L 6.53125 -1.28125 L 6.65625 -0.15625 C 6.5625 -0.09375 6.429688 -0.0390625 6.265625 0 C 6.109375 0.03125 5.9375 0.046875 5.75 0.046875 C 5.363281 0.046875 5.0625 -0.0234375 4.84375 -0.171875 C 4.632812 -0.316406 4.484375 -0.550781 4.390625 -0.875 L 4.265625 -0.875 C 3.953125 -0.207031 3.363281 0.125 2.5 0.125 Z M 3.015625 -1.078125 C 3.390625 -1.078125 3.6875 -1.203125 3.90625 -1.453125 C 4.132812 -1.710938 4.25 -2.0625 4.25 -2.5 L 4.25 -3.15625 L 4.140625 -3.1875 C 4.046875 -3.101562 3.914062 -3.035156 3.75 -2.984375 C 3.59375 -2.929688 3.367188 -2.878906 3.078125 -2.828125 C 2.722656 -2.773438 2.46875 -2.675781 2.3125 -2.53125 C 2.164062 -2.382812 2.09375 -2.179688 2.09375 -1.921875 C 2.09375 -1.648438 2.171875 -1.441406 2.328125 -1.296875 C 2.492188 -1.148438 2.722656 -1.078125 3.015625 -1.078125 Z M 3.015625 -1.078125 "/></g></g></g><g fill="#000000" fill-opacity="1"><g transform="translate(105.151221, 121.897124)"><g><path d="M 0.921875 0 L 0.921875 -6.421875 L 2.484375 -6.421875 L 2.484375 -5.484375 L 2.59375 -5.453125 C 3 -6.179688 3.648438 -6.546875 4.546875 -6.546875 C 5.285156 -6.546875 5.828125 -6.34375 6.171875 -5.9375 C 6.523438 -5.539062 6.703125 -4.953125 6.703125 -4.171875 L 6.703125 0 L 5.09375 0 L 5.09375 -3.984375 C 5.09375 -4.410156 5.003906 -4.71875 4.828125 -4.90625 C 4.660156 -5.09375 4.390625 -5.1875 4.015625 -5.1875 C 3.546875 -5.1875 3.179688 -5.035156 2.921875 -4.734375 C 2.671875 -4.441406 2.546875 -3.972656 2.546875 -3.328125 L 2.546875 0 Z M 0.921875 0 "/></g></g></g><g fill="#000000" fill-opacity="1"><g transform="translate(112.682739, 121.897124)"><g/></g></g><g fill="#000000" fill-opacity="1"><g transform="translate(115.498322, 121.897124)"><g><path d="M 0.921875 0 L 0.921875 -6.421875 L 2.484375 -6.421875 L 2.484375 -5.5625 L 2.59375 -5.546875 C 2.8125 -5.890625 3.0625 -6.140625 3.34375 -6.296875 C 3.625 -6.460938 3.984375 -6.546875 4.421875 -6.546875 C 4.898438 -6.546875 5.285156 -6.445312 5.578125 -6.25 C 5.878906 -6.0625 6.097656 -5.785156 6.234375 -5.421875 L 6.359375 -5.421875 C 6.554688 -5.804688 6.8125 -6.085938 7.125 -6.265625 C 7.4375 -6.453125 7.828125 -6.546875 8.296875 -6.546875 C 9.628906 -6.546875 10.296875 -5.804688 10.296875 -4.328125 L 10.296875 0 L 8.671875 0 L 8.671875 -4.125 C 8.671875 -4.5 8.597656 -4.769531 8.453125 -4.9375 C 8.304688 -5.101562 8.070312 -5.1875 7.75 -5.1875 C 6.863281 -5.1875 6.421875 -4.59375 6.421875 -3.40625 L 6.421875 0 L 4.796875 0 L 4.796875 -4.125 C 4.796875 -4.5 4.722656 -4.769531 4.578125 -4.9375 C 4.429688 -5.101562 4.191406 -5.1875 3.859375 -5.1875 C 3.441406 -5.1875 3.117188 -5.046875 2.890625 -4.765625 C 2.660156 -4.492188 2.546875 -4.050781 2.546875 -3.4375 L 2.546875 0 Z M 0.921875 0 "/></g></g></g><g fill="#000000" fill-opacity="1"><g transform="translate(126.620719, 121.897124)"><g><path d="M 6.359375 -2.84375 L 2.21875 -2.84375 C 2.269531 -2.289062 2.429688 -1.882812 2.703125 -1.625 C 2.972656 -1.375 3.34375 -1.25 3.8125 -1.25 C 4.175781 -1.25 4.472656 -1.316406 4.703125 -1.453125 C 4.929688 -1.585938 5.117188 -1.796875 5.265625 -2.078125 L 5.390625 -2.078125 L 6.453125 -1.390625 C 6.242188 -0.941406 5.925781 -0.578125 5.5 -0.296875 C 5.082031 -0.015625 4.519531 0.125 3.8125 0.125 C 3.144531 0.125 2.566406 0 2.078125 -0.25 C 1.597656 -0.507812 1.226562 -0.890625 0.96875 -1.390625 C 0.707031 -1.890625 0.578125 -2.5 0.578125 -3.21875 C 0.578125 -3.945312 0.710938 -4.5625 0.984375 -5.0625 C 1.265625 -5.5625 1.640625 -5.929688 2.109375 -6.171875 C 2.578125 -6.421875 3.109375 -6.546875 3.703125 -6.546875 C 4.609375 -6.546875 5.300781 -6.304688 5.78125 -5.828125 C 6.269531 -5.347656 6.515625 -4.640625 6.515625 -3.703125 C 6.515625 -3.367188 6.5 -3.109375 6.46875 -2.921875 Z M 4.96875 -3.890625 C 4.945312 -4.378906 4.832031 -4.734375 4.625 -4.953125 C 4.414062 -5.179688 4.109375 -5.296875 3.703125 -5.296875 C 2.878906 -5.296875 2.394531 -4.828125 2.25 -3.890625 Z M 4.96875 -3.890625 "/></g></g></g><g fill="#000000" fill-opacity="1"><g transform="translate(133.610114, 121.897124)"><g><path d="M 4.4375 -1.53125 L 4.859375 -0.34375 C 4.679688 -0.195312 4.457031 -0.0820312 4.1875 0 C 3.925781 0.0820312 3.628906 0.125 3.296875 0.125 C 2.597656 0.125 2.066406 -0.0625 1.703125 -0.4375 C 1.347656 -0.820312 1.171875 -1.375 1.171875 -2.09375 L 1.171875 -5.15625 L 0.1875 -5.15625 L 0.1875 -6.4375 L 1.171875 -6.4375 L 1.171875 -7.6875 L 2.78125 -7.953125 L 2.78125 -6.4375 L 4.609375 -6.4375 L 4.609375 -5.15625 L 2.78125 -5.15625 L 2.78125 -2.21875 C 2.78125 -1.894531 2.847656 -1.660156 2.984375 -1.515625 C 3.117188 -1.367188 3.3125 -1.296875 3.5625 -1.296875 C 3.851562 -1.296875 4.101562 -1.375 4.3125 -1.53125 Z M 4.4375 -1.53125 "/></g></g></g><g fill="#000000" fill-opacity="1"><g transform="translate(138.605873, 121.897124)"><g><path d="M 3.734375 0.125 C 3.109375 0.125 2.554688 -0.00390625 2.078125 -0.265625 C 1.597656 -0.523438 1.226562 -0.90625 0.96875 -1.40625 C 0.707031 -1.90625 0.578125 -2.507812 0.578125 -3.21875 C 0.578125 -3.914062 0.707031 -4.515625 0.96875 -5.015625 C 1.226562 -5.523438 1.597656 -5.90625 2.078125 -6.15625 C 2.554688 -6.414062 3.109375 -6.546875 3.734375 -6.546875 C 4.367188 -6.546875 4.921875 -6.414062 5.390625 -6.15625 C 5.867188 -5.90625 6.238281 -5.523438 6.5 -5.015625 C 6.769531 -4.515625 6.90625 -3.914062 6.90625 -3.21875 C 6.90625 -2.507812 6.769531 -1.90625 6.5 -1.40625 C 6.238281 -0.90625 5.867188 -0.523438 5.390625 -0.265625 C 4.921875 -0.00390625 4.367188 0.125 3.734375 0.125 Z M 3.734375 -1.25 C 4.734375 -1.25 5.234375 -1.90625 5.234375 -3.21875 C 5.234375 -3.894531 5.101562 -4.390625 4.84375 -4.703125 C 4.59375 -5.023438 4.222656 -5.1875 3.734375 -5.1875 C 2.734375 -5.1875 2.234375 -4.53125 2.234375 -3.21875 C 2.234375 -1.90625 2.734375 -1.25 3.734375 -1.25 Z M 3.734375 -1.25 "/></g></g></g><g fill="#000000" fill-opacity="1"><g transform="translate(146.079098, 121.897124)"><g><path d="M 3.171875 0.125 C 2.660156 0.125 2.207031 0 1.8125 -0.25 C 1.425781 -0.5 1.125 -0.867188 0.90625 -1.359375 C 0.6875 -1.859375 0.578125 -2.476562 0.578125 -3.21875 C 0.578125 -3.945312 0.691406 -4.5625 0.921875 -5.0625 C 1.148438 -5.5625 1.460938 -5.929688 1.859375 -6.171875 C 2.265625 -6.421875 2.734375 -6.546875 3.265625 -6.546875 C 3.660156 -6.546875 4.003906 -6.476562 4.296875 -6.34375 C 4.585938 -6.207031 4.835938 -5.992188 5.046875 -5.703125 L 5.171875 -5.734375 L 5.171875 -9.015625 L 6.78125 -9.015625 L 6.78125 0 L 5.171875 0 L 5.171875 -0.828125 L 5.046875 -0.859375 C 4.867188 -0.554688 4.625 -0.316406 4.3125 -0.140625 C 4 0.0351562 3.617188 0.125 3.171875 0.125 Z M 3.703125 -1.25 C 4.160156 -1.25 4.519531 -1.410156 4.78125 -1.734375 C 5.039062 -2.054688 5.171875 -2.550781 5.171875 -3.21875 C 5.171875 -3.875 5.039062 -4.363281 4.78125 -4.6875 C 4.519531 -5.019531 4.160156 -5.1875 3.703125 -5.1875 C 3.222656 -5.1875 2.859375 -5.023438 2.609375 -4.703125 C 2.359375 -4.390625 2.234375 -3.894531 2.234375 -3.21875 C 2.234375 -2.539062 2.359375 -2.039062 2.609375 -1.71875 C 2.859375 -1.40625 3.222656 -1.25 3.703125 -1.25 Z M 3.703125 -1.25 "/></g></g></g><g fill="#000000" fill-opacity="1"><g transform="translate(153.785496, 121.897124)"><g><path d="M 6.359375 -2.84375 L 2.21875 -2.84375 C 2.269531 -2.289062 2.429688 -1.882812 2.703125 -1.625 C 2.972656 -1.375 3.34375 -1.25 3.8125 -1.25 C 4.175781 -1.25 4.472656 -1.316406 4.703125 -1.453125 C 4.929688 -1.585938 5.117188 -1.796875 5.265625 -2.078125 L 5.390625 -2.078125 L 6.453125 -1.390625 C 6.242188 -0.941406 5.925781 -0.578125 5.5 -0.296875 C 5.082031 -0.015625 4.519531 0.125 3.8125 0.125 C 3.144531 0.125 2.566406 0 2.078125 -0.25 C 1.597656 -0.507812 1.226562 -0.890625 0.96875 -1.390625 C 0.707031 -1.890625 0.578125 -2.5 0.578125 -3.21875 C 0.578125 -3.945312 0.710938 -4.5625 0.984375 -5.0625 C 1.265625 -5.5625 1.640625 -5.929688 2.109375 -6.171875 C 2.578125 -6.421875 3.109375 -6.546875 3.703125 -6.546875 C 4.609375 -6.546875 5.300781 -6.304688 5.78125 -5.828125 C 6.269531 -5.347656 6.515625 -4.640625 6.515625 -3.703125 C 6.515625 -3.367188 6.5 -3.109375 6.46875 -2.921875 Z M 4.96875 -3.890625 C 4.945312 -4.378906 4.832031 -4.734375 4.625 -4.953125 C 4.414062 -5.179688 4.109375 -5.296875 3.703125 -5.296875 C 2.878906 -5.296875 2.394531 -4.828125 2.25 -3.890625 Z M 4.96875 -3.890625 "/></g></g></g><g fill="#000000" fill-opacity="1"><g transform="translate(31.15343, 138.020405)"><g><path d="M 1.421875 2.734375 C 1.148438 2.734375 0.898438 2.707031 0.671875 2.65625 C 0.453125 2.613281 0.269531 2.5625 0.125 2.5 L 0.390625 1.1875 L 0.484375 1.15625 C 0.585938 1.207031 0.707031 1.25 0.84375 1.28125 C 0.988281 1.3125 1.140625 1.328125 1.296875 1.328125 C 1.554688 1.328125 1.769531 1.289062 1.9375 1.21875 C 2.113281 1.15625 2.257812 1.039062 2.375 0.875 C 2.5 0.71875 2.609375 0.503906 2.703125 0.234375 L 0.140625 -6.421875 L 1.828125 -6.421875 L 3.421875 -1.953125 L 3.5625 -1.953125 L 5.125 -6.421875 L 6.765625 -6.421875 L 4.1875 0.40625 C 3.976562 0.957031 3.75 1.398438 3.5 1.734375 C 3.257812 2.066406 2.96875 2.316406 2.625 2.484375 C 2.289062 2.648438 1.890625 2.734375 1.421875 2.734375 Z M 1.421875 2.734375 "/></g></g></g><g fill="#000000" fill-opacity="1"><g transform="translate(38.055379, 138.020405)"><g><path d="M 2.5 0.125 C 2.09375 0.125 1.738281 0.0507812 1.4375 -0.09375 C 1.132812 -0.25 0.898438 -0.472656 0.734375 -0.765625 C 0.566406 -1.066406 0.484375 -1.421875 0.484375 -1.828125 C 0.484375 -2.210938 0.566406 -2.53125 0.734375 -2.78125 C 0.898438 -3.039062 1.148438 -3.253906 1.484375 -3.421875 C 1.828125 -3.585938 2.273438 -3.71875 2.828125 -3.8125 C 3.210938 -3.875 3.503906 -3.941406 3.703125 -4.015625 C 3.910156 -4.085938 4.046875 -4.171875 4.109375 -4.265625 C 4.179688 -4.359375 4.21875 -4.472656 4.21875 -4.609375 C 4.21875 -4.816406 4.144531 -4.972656 4 -5.078125 C 3.851562 -5.191406 3.613281 -5.25 3.28125 -5.25 C 2.925781 -5.25 2.585938 -5.171875 2.265625 -5.015625 C 1.941406 -4.859375 1.660156 -4.648438 1.421875 -4.390625 L 1.3125 -4.390625 L 0.640625 -5.40625 C 0.960938 -5.769531 1.359375 -6.050781 1.828125 -6.25 C 2.296875 -6.445312 2.8125 -6.546875 3.375 -6.546875 C 4.21875 -6.546875 4.828125 -6.363281 5.203125 -6 C 5.585938 -5.644531 5.78125 -5.132812 5.78125 -4.46875 L 5.78125 -1.671875 C 5.78125 -1.390625 5.910156 -1.25 6.171875 -1.25 C 6.265625 -1.25 6.359375 -1.265625 6.453125 -1.296875 L 6.53125 -1.28125 L 6.65625 -0.15625 C 6.5625 -0.09375 6.429688 -0.0390625 6.265625 0 C 6.109375 0.03125 5.9375 0.046875 5.75 0.046875 C 5.363281 0.046875 5.0625 -0.0234375 4.84375 -0.171875 C 4.632812 -0.316406 4.484375 -0.550781 4.390625 -0.875 L 4.265625 -0.875 C 3.953125 -0.207031 3.363281 0.125 2.5 0.125 Z M 3.015625 -1.078125 C 3.390625 -1.078125 3.6875 -1.203125 3.90625 -1.453125 C 4.132812 -1.710938 4.25 -2.0625 4.25 -2.5 L 4.25 -3.15625 L 4.140625 -3.1875 C 4.046875 -3.101562 3.914062 -3.035156 3.75 -2.984375 C 3.59375 -2.929688 3.367188 -2.878906 3.078125 -2.828125 C 2.722656 -2.773438 2.46875 -2.675781 2.3125 -2.53125 C 2.164062 -2.382812 2.09375 -2.179688 2.09375 -1.921875 C 2.09375 -1.648438 2.171875 -1.441406 2.328125 -1.296875 C 2.492188 -1.148438 2.722656 -1.078125 3.015625 -1.078125 Z M 3.015625 -1.078125 "/></g></g></g><g fill="#000000" fill-opacity="1"><g transform="translate(44.834918, 138.020405)"><g><path d="M 0.921875 0 L 0.921875 -6.421875 L 2.484375 -6.421875 L 2.484375 -5.484375 L 2.59375 -5.453125 C 3 -6.179688 3.648438 -6.546875 4.546875 -6.546875 C 5.285156 -6.546875 5.828125 -6.34375 6.171875 -5.9375 C 6.523438 -5.539062 6.703125 -4.953125 6.703125 -4.171875 L 6.703125 0 L 5.09375 0 L 5.09375 -3.984375 C 5.09375 -4.410156 5.003906 -4.71875 4.828125 -4.90625 C 4.660156 -5.09375 4.390625 -5.1875 4.015625 -5.1875 C 3.546875 -5.1875 3.179688 -5.035156 2.921875 -4.734375 C 2.671875 -4.441406 2.546875 -3.972656 2.546875 -3.328125 L 2.546875 0 Z M 0.921875 0 "/></g></g></g><g fill="#000000" fill-opacity="1"><g transform="translate(52.366436, 138.020405)"><g><path d="M 3.328125 2.734375 C 2.273438 2.734375 1.492188 2.578125 0.984375 2.265625 C 0.484375 1.953125 0.234375 1.519531 0.234375 0.96875 C 0.234375 0.625 0.335938 0.34375 0.546875 0.125 C 0.765625 -0.0820312 1.078125 -0.222656 1.484375 -0.296875 L 1.484375 -0.421875 C 1.265625 -0.554688 1.109375 -0.703125 1.015625 -0.859375 C 0.921875 -1.023438 0.875 -1.210938 0.875 -1.421875 C 0.875 -1.941406 1.207031 -2.289062 1.875 -2.46875 L 1.875 -2.59375 C 1.53125 -2.789062 1.269531 -3.035156 1.09375 -3.328125 C 0.914062 -3.617188 0.828125 -3.972656 0.828125 -4.390625 C 0.828125 -4.816406 0.925781 -5.191406 1.125 -5.515625 C 1.320312 -5.847656 1.609375 -6.101562 1.984375 -6.28125 C 2.367188 -6.457031 2.828125 -6.546875 3.359375 -6.546875 C 3.890625 -6.546875 4.316406 -6.453125 4.640625 -6.265625 C 4.835938 -6.554688 4.953125 -6.890625 4.984375 -7.265625 L 5.09375 -7.34375 L 6.265625 -7.0625 C 6.222656 -6.75 6.128906 -6.488281 5.984375 -6.28125 C 5.847656 -6.070312 5.628906 -5.890625 5.328125 -5.734375 L 5.328125 -5.59375 C 5.679688 -5.28125 5.859375 -4.835938 5.859375 -4.265625 C 5.859375 -3.867188 5.757812 -3.515625 5.5625 -3.203125 C 5.363281 -2.890625 5.070312 -2.640625 4.6875 -2.453125 C 4.3125 -2.273438 3.867188 -2.1875 3.359375 -2.1875 L 3.109375 -2.1875 C 2.953125 -2.195312 2.84375 -2.203125 2.78125 -2.203125 C 2.632812 -2.203125 2.519531 -2.160156 2.4375 -2.078125 C 2.351562 -1.992188 2.3125 -1.890625 2.3125 -1.765625 C 2.3125 -1.628906 2.363281 -1.523438 2.46875 -1.453125 C 2.582031 -1.378906 2.742188 -1.335938 2.953125 -1.328125 L 4.390625 -1.28125 C 5.804688 -1.238281 6.515625 -0.625 6.515625 0.5625 C 6.515625 0.976562 6.410156 1.347656 6.203125 1.671875 C 5.992188 1.992188 5.648438 2.25 5.171875 2.4375 C 4.703125 2.632812 4.085938 2.734375 3.328125 2.734375 Z M 3.359375 -3.3125 C 3.660156 -3.3125 3.898438 -3.398438 4.078125 -3.578125 C 4.253906 -3.765625 4.34375 -4.023438 4.34375 -4.359375 C 4.34375 -4.703125 4.253906 -4.960938 4.078125 -5.140625 C 3.898438 -5.328125 3.660156 -5.421875 3.359375 -5.421875 C 3.035156 -5.421875 2.785156 -5.328125 2.609375 -5.140625 C 2.441406 -4.960938 2.359375 -4.703125 2.359375 -4.359375 C 2.359375 -4.023438 2.441406 -3.765625 2.609375 -3.578125 C 2.785156 -3.398438 3.035156 -3.3125 3.359375 -3.3125 Z M 3.328125 1.5625 C 3.878906 1.5625 4.28125 1.484375 4.53125 1.328125 C 4.78125 1.171875 4.90625 0.96875 4.90625 0.71875 C 4.90625 0.507812 4.84375 0.359375 4.71875 0.265625 C 4.59375 0.171875 4.390625 0.117188 4.109375 0.109375 L 2.84375 0.0625 C 2.800781 0.0625 2.757812 0.0546875 2.71875 0.046875 C 2.675781 0.046875 2.640625 0.046875 2.609375 0.046875 C 2.335938 0.046875 2.128906 0.101562 1.984375 0.21875 C 1.847656 0.332031 1.78125 0.492188 1.78125 0.703125 C 1.78125 0.972656 1.910156 1.179688 2.171875 1.328125 C 2.429688 1.484375 2.816406 1.5625 3.328125 1.5625 Z M 3.328125 1.5625 "/></g></g></g><g fill="#000000" fill-opacity="1"><g transform="translate(59.052706, 138.020405)"><g/></g></g><g fill="#000000" fill-opacity="1"><g transform="translate(61.868288, 138.020405)"><g><path d="M 0.921875 0 L 0.921875 -6.421875 L 2.484375 -6.421875 L 2.484375 -5.5625 L 2.59375 -5.546875 C 2.8125 -5.890625 3.0625 -6.140625 3.34375 -6.296875 C 3.625 -6.460938 3.984375 -6.546875 4.421875 -6.546875 C 4.898438 -6.546875 5.285156 -6.445312 5.578125 -6.25 C 5.878906 -6.0625 6.097656 -5.785156 6.234375 -5.421875 L 6.359375 -5.421875 C 6.554688 -5.804688 6.8125 -6.085938 7.125 -6.265625 C 7.4375 -6.453125 7.828125 -6.546875 8.296875 -6.546875 C 9.628906 -6.546875 10.296875 -5.804688 10.296875 -4.328125 L 10.296875 0 L 8.671875 0 L 8.671875 -4.125 C 8.671875 -4.5 8.597656 -4.769531 8.453125 -4.9375 C 8.304688 -5.101562 8.070312 -5.1875 7.75 -5.1875 C 6.863281 -5.1875 6.421875 -4.59375 6.421875 -3.40625 L 6.421875 0 L 4.796875 0 L 4.796875 -4.125 C 4.796875 -4.5 4.722656 -4.769531 4.578125 -4.9375 C 4.429688 -5.101562 4.191406 -5.1875 3.859375 -5.1875 C 3.441406 -5.1875 3.117188 -5.046875 2.890625 -4.765625 C 2.660156 -4.492188 2.546875 -4.050781 2.546875 -3.4375 L 2.546875 0 Z M 0.921875 0 "/></g></g></g><g fill="#000000" fill-opacity="1"><g transform="translate(72.990685, 138.020405)"><g><path d="M 6.359375 -2.84375 L 2.21875 -2.84375 C 2.269531 -2.289062 2.429688 -1.882812 2.703125 -1.625 C 2.972656 -1.375 3.34375 -1.25 3.8125 -1.25 C 4.175781 -1.25 4.472656 -1.316406 4.703125 -1.453125 C 4.929688 -1.585938 5.117188 -1.796875 5.265625 -2.078125 L 5.390625 -2.078125 L 6.453125 -1.390625 C 6.242188 -0.941406 5.925781 -0.578125 5.5 -0.296875 C 5.082031 -0.015625 4.519531 0.125 3.8125 0.125 C 3.144531 0.125 2.566406 0 2.078125 -0.25 C 1.597656 -0.507812 1.226562 -0.890625 0.96875 -1.390625 C 0.707031 -1.890625 0.578125 -2.5 0.578125 -3.21875 C 0.578125 -3.945312 0.710938 -4.5625 0.984375 -5.0625 C 1.265625 -5.5625 1.640625 -5.929688 2.109375 -6.171875 C 2.578125 -6.421875 3.109375 -6.546875 3.703125 -6.546875 C 4.609375 -6.546875 5.300781 -6.304688 5.78125 -5.828125 C 6.269531 -5.347656 6.515625 -4.640625 6.515625 -3.703125 C 6.515625 -3.367188 6.5 -3.109375 6.46875 -2.921875 Z M 4.96875 -3.890625 C 4.945312 -4.378906 4.832031 -4.734375 4.625 -4.953125 C 4.414062 -5.179688 4.109375 -5.296875 3.703125 -5.296875 C 2.878906 -5.296875 2.394531 -4.828125 2.25 -3.890625 Z M 4.96875 -3.890625 "/></g></g></g><g fill="#000000" fill-opacity="1"><g transform="translate(79.980081, 138.020405)"><g><path d="M 0.921875 0 L 0.921875 -6.421875 L 2.484375 -6.421875 L 2.484375 -5.484375 L 2.59375 -5.453125 C 3 -6.179688 3.648438 -6.546875 4.546875 -6.546875 C 5.285156 -6.546875 5.828125 -6.34375 6.171875 -5.9375 C 6.523438 -5.539062 6.703125 -4.953125 6.703125 -4.171875 L 6.703125 0 L 5.09375 0 L 5.09375 -3.984375 C 5.09375 -4.410156 5.003906 -4.71875 4.828125 -4.90625 C 4.660156 -5.09375 4.390625 -5.1875 4.015625 -5.1875 C 3.546875 -5.1875 3.179688 -5.035156 2.921875 -4.734375 C 2.671875 -4.441406 2.546875 -3.972656 2.546875 -3.328125 L 2.546875 0 Z M 0.921875 0 "/></g></g></g><g fill="#000000" fill-opacity="1"><g transform="translate(87.511599, 138.020405)"><g><path d="M 1.421875 2.734375 C 1.148438 2.734375 0.898438 2.707031 0.671875 2.65625 C 0.453125 2.613281 0.269531 2.5625 0.125 2.5 L 0.390625 1.1875 L 0.484375 1.15625 C 0.585938 1.207031 0.707031 1.25 0.84375 1.28125 C 0.988281 1.3125 1.140625 1.328125 1.296875 1.328125 C 1.554688 1.328125 1.769531 1.289062 1.9375 1.21875 C 2.113281 1.15625 2.257812 1.039062 2.375 0.875 C 2.5 0.71875 2.609375 0.503906 2.703125 0.234375 L 0.140625 -6.421875 L 1.828125 -6.421875 L 3.421875 -1.953125 L 3.5625 -1.953125 L 5.125 -6.421875 L 6.765625 -6.421875 L 4.1875 0.40625 C 3.976562 0.957031 3.75 1.398438 3.5 1.734375 C 3.257812 2.066406 2.96875 2.316406 2.625 2.484375 C 2.289062 2.648438 1.890625 2.734375 1.421875 2.734375 Z M 1.421875 2.734375 "/></g></g></g><g fill="#000000" fill-opacity="1"><g transform="translate(94.413548, 138.020405)"><g><path d="M 6.359375 -2.84375 L 2.21875 -2.84375 C 2.269531 -2.289062 2.429688 -1.882812 2.703125 -1.625 C 2.972656 -1.375 3.34375 -1.25 3.8125 -1.25 C 4.175781 -1.25 4.472656 -1.316406 4.703125 -1.453125 C 4.929688 -1.585938 5.117188 -1.796875 5.265625 -2.078125 L 5.390625 -2.078125 L 6.453125 -1.390625 C 6.242188 -0.941406 5.925781 -0.578125 5.5 -0.296875 C 5.082031 -0.015625 4.519531 0.125 3.8125 0.125 C 3.144531 0.125 2.566406 0 2.078125 -0.25 C 1.597656 -0.507812 1.226562 -0.890625 0.96875 -1.390625 C 0.707031 -1.890625 0.578125 -2.5 0.578125 -3.21875 C 0.578125 -3.945312 0.710938 -4.5625 0.984375 -5.0625 C 1.265625 -5.5625 1.640625 -5.929688 2.109375 -6.171875 C 2.578125 -6.421875 3.109375 -6.546875 3.703125 -6.546875 C 4.609375 -6.546875 5.300781 -6.304688 5.78125 -5.828125 C 6.269531 -5.347656 6.515625 -4.640625 6.515625 -3.703125 C 6.515625 -3.367188 6.5 -3.109375 6.46875 -2.921875 Z M 4.96875 -3.890625 C 4.945312 -4.378906 4.832031 -4.734375 4.625 -4.953125 C 4.414062 -5.179688 4.109375 -5.296875 3.703125 -5.296875 C 2.878906 -5.296875 2.394531 -4.828125 2.25 -3.890625 Z M 4.96875 -3.890625 "/></g></g></g><g fill="#000000" fill-opacity="1"><g transform="translate(101.402943, 138.020405)"><g><path d="M 0.921875 0 L 0.921875 -6.421875 L 2.484375 -6.421875 L 2.484375 -5.484375 L 2.59375 -5.453125 C 3 -6.179688 3.648438 -6.546875 4.546875 -6.546875 C 5.285156 -6.546875 5.828125 -6.34375 6.171875 -5.9375 C 6.523438 -5.539062 6.703125 -4.953125 6.703125 -4.171875 L 6.703125 0 L 5.09375 0 L 5.09375 -3.984375 C 5.09375 -4.410156 5.003906 -4.71875 4.828125 -4.90625 C 4.660156 -5.09375 4.390625 -5.1875 4.015625 -5.1875 C 3.546875 -5.1875 3.179688 -5.035156 2.921875 -4.734375 C 2.671875 -4.441406 2.546875 -3.972656 2.546875 -3.328125 L 2.546875 0 Z M 0.921875 0 "/></g></g></g><g fill="#000000" fill-opacity="1"><g transform="translate(108.934462, 138.020405)"><g><path d="M 2.5 0.125 C 2.09375 0.125 1.738281 0.0507812 1.4375 -0.09375 C 1.132812 -0.25 0.898438 -0.472656 0.734375 -0.765625 C 0.566406 -1.066406 0.484375 -1.421875 0.484375 -1.828125 C 0.484375 -2.210938 0.566406 -2.53125 0.734375 -2.78125 C 0.898438 -3.039062 1.148438 -3.253906 1.484375 -3.421875 C 1.828125 -3.585938 2.273438 -3.71875 2.828125 -3.8125 C 3.210938 -3.875 3.503906 -3.941406 3.703125 -4.015625 C 3.910156 -4.085938 4.046875 -4.171875 4.109375 -4.265625 C 4.179688 -4.359375 4.21875 -4.472656 4.21875 -4.609375 C 4.21875 -4.816406 4.144531 -4.972656 4 -5.078125 C 3.851562 -5.191406 3.613281 -5.25 3.28125 -5.25 C 2.925781 -5.25 2.585938 -5.171875 2.265625 -5.015625 C 1.941406 -4.859375 1.660156 -4.648438 1.421875 -4.390625 L 1.3125 -4.390625 L 0.640625 -5.40625 C 0.960938 -5.769531 1.359375 -6.050781 1.828125 -6.25 C 2.296875 -6.445312 2.8125 -6.546875 3.375 -6.546875 C 4.21875 -6.546875 4.828125 -6.363281 5.203125 -6 C 5.585938 -5.644531 5.78125 -5.132812 5.78125 -4.46875 L 5.78125 -1.671875 C 5.78125 -1.390625 5.910156 -1.25 6.171875 -1.25 C 6.265625 -1.25 6.359375 -1.265625 6.453125 -1.296875 L 6.53125 -1.28125 L 6.65625 -0.15625 C 6.5625 -0.09375 6.429688 -0.0390625 6.265625 0 C 6.109375 0.03125 5.9375 0.046875 5.75 0.046875 C 5.363281 0.046875 5.0625 -0.0234375 4.84375 -0.171875 C 4.632812 -0.316406 4.484375 -0.550781 4.390625 -0.875 L 4.265625 -0.875 C 3.953125 -0.207031 3.363281 0.125 2.5 0.125 Z M 3.015625 -1.078125 C 3.390625 -1.078125 3.6875 -1.203125 3.90625 -1.453125 C 4.132812 -1.710938 4.25 -2.0625 4.25 -2.5 L 4.25 -3.15625 L 4.140625 -3.1875 C 4.046875 -3.101562 3.914062 -3.035156 3.75 -2.984375 C 3.59375 -2.929688 3.367188 -2.878906 3.078125 -2.828125 C 2.722656 -2.773438 2.46875 -2.675781 2.3125 -2.53125 C 2.164062 -2.382812 2.09375 -2.179688 2.09375 -1.921875 C 2.09375 -1.648438 2.171875 -1.441406 2.328125 -1.296875 C 2.492188 -1.148438 2.722656 -1.078125 3.015625 -1.078125 Z M 3.015625 -1.078125 "/></g></g></g><g fill="#000000" fill-opacity="1"><g transform="translate(115.714001, 138.020405)"><g><path d="M 0.921875 0 L 0.921875 -6.421875 L 2.484375 -6.421875 L 2.484375 -5.484375 L 2.59375 -5.453125 C 3 -6.179688 3.648438 -6.546875 4.546875 -6.546875 C 5.285156 -6.546875 5.828125 -6.34375 6.171875 -5.9375 C 6.523438 -5.539062 6.703125 -4.953125 6.703125 -4.171875 L 6.703125 0 L 5.09375 0 L 5.09375 -3.984375 C 5.09375 -4.410156 5.003906 -4.71875 4.828125 -4.90625 C 4.660156 -5.09375 4.390625 -5.1875 4.015625 -5.1875 C 3.546875 -5.1875 3.179688 -5.035156 2.921875 -4.734375 C 2.671875 -4.441406 2.546875 -3.972656 2.546875 -3.328125 L 2.546875 0 Z M 0.921875 0 "/></g></g></g><g fill="#000000" fill-opacity="1"><g transform="translate(123.245519, 138.020405)"><g><path d="M 3.328125 2.734375 C 2.273438 2.734375 1.492188 2.578125 0.984375 2.265625 C 0.484375 1.953125 0.234375 1.519531 0.234375 0.96875 C 0.234375 0.625 0.335938 0.34375 0.546875 0.125 C 0.765625 -0.0820312 1.078125 -0.222656 1.484375 -0.296875 L 1.484375 -0.421875 C 1.265625 -0.554688 1.109375 -0.703125 1.015625 -0.859375 C 0.921875 -1.023438 0.875 -1.210938 0.875 -1.421875 C 0.875 -1.941406 1.207031 -2.289062 1.875 -2.46875 L 1.875 -2.59375 C 1.53125 -2.789062 1.269531 -3.035156 1.09375 -3.328125 C 0.914062 -3.617188 0.828125 -3.972656 0.828125 -4.390625 C 0.828125 -4.816406 0.925781 -5.191406 1.125 -5.515625 C 1.320312 -5.847656 1.609375 -6.101562 1.984375 -6.28125 C 2.367188 -6.457031 2.828125 -6.546875 3.359375 -6.546875 C 3.890625 -6.546875 4.316406 -6.453125 4.640625 -6.265625 C 4.835938 -6.554688 4.953125 -6.890625 4.984375 -7.265625 L 5.09375 -7.34375 L 6.265625 -7.0625 C 6.222656 -6.75 6.128906 -6.488281 5.984375 -6.28125 C 5.847656 -6.070312 5.628906 -5.890625 5.328125 -5.734375 L 5.328125 -5.59375 C 5.679688 -5.28125 5.859375 -4.835938 5.859375 -4.265625 C 5.859375 -3.867188 5.757812 -3.515625 5.5625 -3.203125 C 5.363281 -2.890625 5.070312 -2.640625 4.6875 -2.453125 C 4.3125 -2.273438 3.867188 -2.1875 3.359375 -2.1875 L 3.109375 -2.1875 C 2.953125 -2.195312 2.84375 -2.203125 2.78125 -2.203125 C 2.632812 -2.203125 2.519531 -2.160156 2.4375 -2.078125 C 2.351562 -1.992188 2.3125 -1.890625 2.3125 -1.765625 C 2.3125 -1.628906 2.363281 -1.523438 2.46875 -1.453125 C 2.582031 -1.378906 2.742188 -1.335938 2.953125 -1.328125 L 4.390625 -1.28125 C 5.804688 -1.238281 6.515625 -0.625 6.515625 0.5625 C 6.515625 0.976562 6.410156 1.347656 6.203125 1.671875 C 5.992188 1.992188 5.648438 2.25 5.171875 2.4375 C 4.703125 2.632812 4.085938 2.734375 3.328125 2.734375 Z M 3.359375 -3.3125 C 3.660156 -3.3125 3.898438 -3.398438 4.078125 -3.578125 C 4.253906 -3.765625 4.34375 -4.023438 4.34375 -4.359375 C 4.34375 -4.703125 4.253906 -4.960938 4.078125 -5.140625 C 3.898438 -5.328125 3.660156 -5.421875 3.359375 -5.421875 C 3.035156 -5.421875 2.785156 -5.328125 2.609375 -5.140625 C 2.441406 -4.960938 2.359375 -4.703125 2.359375 -4.359375 C 2.359375 -4.023438 2.441406 -3.765625 2.609375 -3.578125 C 2.785156 -3.398438 3.035156 -3.3125 3.359375 -3.3125 Z M 3.328125 1.5625 C 3.878906 1.5625 4.28125 1.484375 4.53125 1.328125 C 4.78125 1.171875 4.90625 0.96875 4.90625 0.71875 C 4.90625 0.507812 4.84375 0.359375 4.71875 0.265625 C 4.59375 0.171875 4.390625 0.117188 4.109375 0.109375 L 2.84375 0.0625 C 2.800781 0.0625 2.757812 0.0546875 2.71875 0.046875 C 2.675781 0.046875 2.640625 0.046875 2.609375 0.046875 C 2.335938 0.046875 2.128906 0.101562 1.984375 0.21875 C 1.847656 0.332031 1.78125 0.492188 1.78125 0.703125 C 1.78125 0.972656 1.910156 1.179688 2.171875 1.328125 C 2.429688 1.484375 2.816406 1.5625 3.328125 1.5625 Z M 3.328125 1.5625 "/></g></g></g><g fill="#000000" fill-opacity="1"><g transform="translate(129.931789, 138.020405)"><g><path d="M 0.921875 0 L 0.921875 -9.015625 L 2.546875 -9.015625 L 2.546875 -4.015625 L 2.703125 -4.015625 L 4.5625 -6.421875 L 6.203125 -6.421875 L 6.203125 -6.296875 L 4.015625 -3.46875 L 6.4375 -0.140625 L 6.4375 0 L 4.734375 0 L 2.703125 -2.703125 L 2.546875 -2.703125 L 2.546875 0 Z M 0.921875 0 "/></g></g></g><g fill="#000000" fill-opacity="1"><g transform="translate(136.384884, 138.020405)"><g><path d="M 2.5 0.125 C 2.09375 0.125 1.738281 0.0507812 1.4375 -0.09375 C 1.132812 -0.25 0.898438 -0.472656 0.734375 -0.765625 C 0.566406 -1.066406 0.484375 -1.421875 0.484375 -1.828125 C 0.484375 -2.210938 0.566406 -2.53125 0.734375 -2.78125 C 0.898438 -3.039062 1.148438 -3.253906 1.484375 -3.421875 C 1.828125 -3.585938 2.273438 -3.71875 2.828125 -3.8125 C 3.210938 -3.875 3.503906 -3.941406 3.703125 -4.015625 C 3.910156 -4.085938 4.046875 -4.171875 4.109375 -4.265625 C 4.179688 -4.359375 4.21875 -4.472656 4.21875 -4.609375 C 4.21875 -4.816406 4.144531 -4.972656 4 -5.078125 C 3.851562 -5.191406 3.613281 -5.25 3.28125 -5.25 C 2.925781 -5.25 2.585938 -5.171875 2.265625 -5.015625 C 1.941406 -4.859375 1.660156 -4.648438 1.421875 -4.390625 L 1.3125 -4.390625 L 0.640625 -5.40625 C 0.960938 -5.769531 1.359375 -6.050781 1.828125 -6.25 C 2.296875 -6.445312 2.8125 -6.546875 3.375 -6.546875 C 4.21875 -6.546875 4.828125 -6.363281 5.203125 -6 C 5.585938 -5.644531 5.78125 -5.132812 5.78125 -4.46875 L 5.78125 -1.671875 C 5.78125 -1.390625 5.910156 -1.25 6.171875 -1.25 C 6.265625 -1.25 6.359375 -1.265625 6.453125 -1.296875 L 6.53125 -1.28125 L 6.65625 -0.15625 C 6.5625 -0.09375 6.429688 -0.0390625 6.265625 0 C 6.109375 0.03125 5.9375 0.046875 5.75 0.046875 C 5.363281 0.046875 5.0625 -0.0234375 4.84375 -0.171875 C 4.632812 -0.316406 4.484375 -0.550781 4.390625 -0.875 L 4.265625 -0.875 C 3.953125 -0.207031 3.363281 0.125 2.5 0.125 Z M 3.015625 -1.078125 C 3.390625 -1.078125 3.6875 -1.203125 3.90625 -1.453125 C 4.132812 -1.710938 4.25 -2.0625 4.25 -2.5 L 4.25 -3.15625 L 4.140625 -3.1875 C 4.046875 -3.101562 3.914062 -3.035156 3.75 -2.984375 C 3.59375 -2.929688 3.367188 -2.878906 3.078125 -2.828125 C 2.722656 -2.773438 2.46875 -2.675781 2.3125 -2.53125 C 2.164062 -2.382812 2.09375 -2.179688 2.09375 -1.921875 C 2.09375 -1.648438 2.171875 -1.441406 2.328125 -1.296875 C 2.492188 -1.148438 2.722656 -1.078125 3.015625 -1.078125 Z M 3.015625 -1.078125 "/></g></g></g><g fill="#000000" fill-opacity="1"><g transform="translate(143.164423, 138.020405)"><g><path d="M 0.921875 0 L 0.921875 -6.421875 L 2.484375 -6.421875 L 2.484375 -5.484375 L 2.59375 -5.453125 C 3 -6.179688 3.648438 -6.546875 4.546875 -6.546875 C 5.285156 -6.546875 5.828125 -6.34375 6.171875 -5.9375 C 6.523438 -5.539062 6.703125 -4.953125 6.703125 -4.171875 L 6.703125 0 L 5.09375 0 L 5.09375 -3.984375 C 5.09375 -4.410156 5.003906 -4.71875 4.828125 -4.90625 C 4.660156 -5.09375 4.390625 -5.1875 4.015625 -5.1875 C 3.546875 -5.1875 3.179688 -5.035156 2.921875 -4.734375 C 2.671875 -4.441406 2.546875 -3.972656 2.546875 -3.328125 L 2.546875 0 Z M 0.921875 0 "/></g></g></g></svg>