<svg xmlns="http://www.w3.org/2000/svg" xmlns:xlink="http://www.w3.org/1999/xlink" width="200" zoomAndPan="magnify" viewBox="0 0 150 37.5" height="50" preserveAspectRatio="xMidYMid meet" version="1.0"><defs><g/><clipPath id="42a7a65509"><path d="M 6.480469 10.347656 L 36 10.347656 L 36 34.222656 L 6.480469 34.222656 Z M 6.480469 10.347656 " clip-rule="nonzero"/></clipPath><clipPath id="510ccbde7f"><path d="M 31.417969 10.347656 L 10.921875 10.347656 C 9.742188 10.347656 8.613281 10.816406 7.78125 11.648438 C 6.949219 12.484375 6.480469 13.613281 6.480469 14.789062 L 6.480469 23.753906 C 6.480469 25.746094 8.097656 27.363281 10.089844 27.363281 C 11.046875 27.363281 11.964844 27.746094 12.644531 28.421875 C 13.320312 29.097656 13.699219 30.015625 13.699219 30.972656 L 13.699219 31.671875 C 13.699219 32.546875 14.171875 33.351562 14.933594 33.777344 C 15.695312 34.203125 16.628906 34.183594 17.371094 33.726562 L 24.273438 29.488281 C 26.535156 28.101562 29.140625 27.363281 31.796875 27.363281 C 34.042969 27.363281 35.859375 25.546875 35.859375 23.300781 L 35.859375 14.789062 C 35.859375 13.613281 35.390625 12.484375 34.558594 11.648438 C 33.726562 10.816406 32.597656 10.347656 31.417969 10.347656 " clip-rule="nonzero"/></clipPath><clipPath id="6bbf7057b7"><path d="M 3.207031 3.699219 L 40.804688 3.699219 L 40.804688 30.636719 L 3.207031 30.636719 Z M 3.207031 3.699219 " clip-rule="nonzero"/></clipPath><clipPath id="f1ba65fd33"><path d="M 16.496094 3.699219 L 27.070312 3.699219 C 30.59375 3.699219 33.976562 5.101562 36.46875 7.59375 C 38.960938 10.085938 40.359375 13.464844 40.359375 16.988281 C 40.359375 20.515625 38.960938 23.894531 36.46875 26.386719 C 33.976562 28.878906 30.59375 30.277344 27.070312 30.277344 L 16.496094 30.277344 C 12.972656 30.277344 9.589844 28.878906 7.097656 26.386719 C 4.605469 23.894531 3.207031 20.515625 3.207031 16.988281 C 3.207031 13.464844 4.605469 10.085938 7.097656 7.59375 C 9.589844 5.101562 12.972656 3.699219 16.496094 3.699219 " clip-rule="nonzero"/></clipPath></defs><g clip-path="url(#42a7a65509)"><g clip-path="url(#510ccbde7f)"><path fill="#f2b705" d="M 6.480469 10.347656 L 35.597656 10.347656 L 35.597656 35.972656 L 6.480469 35.972656 Z M 6.480469 10.347656 " fill-opacity="1" fill-rule="nonzero"/></g></g><g clip-path="url(#6bbf7057b7)"><g clip-path="url(#f1ba65fd33)"><path fill="#f2b705" d="M 3.207031 3.699219 L 40.242188 3.699219 L 40.242188 30.074219 L 3.207031 30.074219 Z M 3.207031 3.699219 " fill-opacity="1" fill-rule="nonzero"/></g></g><g fill="#000000" fill-opacity="1"><g transform="translate(11.726256, 20.712875)"><g><path d="M 5.046875 3.203125 C 4.242188 3.203125 3.613281 2.972656 3.15625 2.515625 C 2.695312 2.054688 2.46875 1.425781 2.46875 0.625 L 2.46875 -2.09375 C 2.46875 -2.5625 2.394531 -2.894531 2.25 -3.09375 C 2.101562 -3.300781 1.835938 -3.421875 1.453125 -3.453125 C 1.140625 -3.472656 0.898438 -3.59375 0.734375 -3.8125 C 0.566406 -4.039062 0.484375 -4.320312 0.484375 -4.65625 C 0.484375 -4.988281 0.566406 -5.265625 0.734375 -5.484375 C 0.898438 -5.710938 1.140625 -5.84375 1.453125 -5.875 C 1.835938 -5.882812 2.101562 -5.992188 2.25 -6.203125 C 2.394531 -6.410156 2.46875 -6.75 2.46875 -7.21875 L 2.46875 -9.953125 C 2.46875 -10.765625 2.695312 -11.394531 3.15625 -11.84375 C 3.613281 -12.300781 4.242188 -12.53125 5.046875 -12.53125 L 6.34375 -12.53125 C 6.71875 -12.53125 7.023438 -12.421875 7.265625 -12.203125 C 7.515625 -11.984375 7.640625 -11.703125 7.640625 -11.359375 C 7.640625 -11.023438 7.546875 -10.75 7.359375 -10.53125 C 7.171875 -10.3125 6.910156 -10.203125 6.578125 -10.203125 L 6.28125 -10.203125 C 5.851562 -10.203125 5.640625 -9.945312 5.640625 -9.4375 L 5.640625 -6.828125 C 5.640625 -6.316406 5.488281 -5.847656 5.1875 -5.421875 C 4.894531 -5.003906 4.539062 -4.742188 4.125 -4.640625 C 4.539062 -4.546875 4.894531 -4.289062 5.1875 -3.875 C 5.488281 -3.457031 5.640625 -2.992188 5.640625 -2.484375 L 5.640625 0.109375 C 5.640625 0.617188 5.859375 0.875 6.296875 0.875 L 6.578125 0.875 C 6.910156 0.875 7.171875 0.984375 7.359375 1.203125 C 7.546875 1.421875 7.640625 1.695312 7.640625 2.03125 C 7.640625 2.375 7.515625 2.65625 7.265625 2.875 C 7.023438 3.09375 6.71875 3.203125 6.34375 3.203125 Z M 5.046875 3.203125 "/></g></g></g><g fill="#000000" fill-opacity="1"><g transform="translate(19.244733, 20.712875)"><g/></g></g><g fill="#000000" fill-opacity="1"><g transform="translate(24.061452, 20.712875)"><g><path d="M 1.4375 3.203125 C 1.0625 3.203125 0.75 3.09375 0.5 2.875 C 0.257812 2.65625 0.140625 2.375 0.140625 2.03125 C 0.140625 1.695312 0.226562 1.421875 0.40625 1.203125 C 0.59375 0.984375 0.859375 0.875 1.203125 0.875 L 1.5 0.875 C 1.925781 0.875 2.140625 0.617188 2.140625 0.109375 L 2.140625 -2.484375 C 2.140625 -2.992188 2.289062 -3.457031 2.59375 -3.875 C 2.894531 -4.300781 3.25 -4.5625 3.65625 -4.65625 C 3.25 -4.75 2.894531 -5.003906 2.59375 -5.421875 C 2.289062 -5.847656 2.140625 -6.316406 2.140625 -6.828125 L 2.140625 -9.4375 C 2.140625 -9.945312 1.925781 -10.203125 1.5 -10.203125 L 1.203125 -10.203125 C 0.859375 -10.203125 0.59375 -10.3125 0.40625 -10.53125 C 0.226562 -10.75 0.140625 -11.023438 0.140625 -11.359375 C 0.140625 -11.703125 0.257812 -11.984375 0.5 -12.203125 C 0.75 -12.421875 1.0625 -12.53125 1.4375 -12.53125 L 2.71875 -12.53125 C 3.519531 -12.53125 4.148438 -12.300781 4.609375 -11.84375 C 5.066406 -11.394531 5.296875 -10.765625 5.296875 -9.953125 L 5.296875 -7.21875 C 5.296875 -6.75 5.375 -6.410156 5.53125 -6.203125 C 5.6875 -5.992188 5.953125 -5.882812 6.328125 -5.875 C 6.648438 -5.84375 6.894531 -5.710938 7.0625 -5.484375 C 7.226562 -5.265625 7.3125 -4.988281 7.3125 -4.65625 C 7.3125 -4.320312 7.226562 -4.039062 7.0625 -3.8125 C 6.894531 -3.59375 6.648438 -3.472656 6.328125 -3.453125 C 5.953125 -3.421875 5.6875 -3.300781 5.53125 -3.09375 C 5.375 -2.894531 5.296875 -2.5625 5.296875 -2.09375 L 5.296875 0.625 C 5.296875 1.425781 5.066406 2.054688 4.609375 2.515625 C 4.148438 2.972656 3.519531 3.203125 2.71875 3.203125 Z M 1.4375 3.203125 "/></g></g></g><g fill="#000000" fill-opacity="1"><g transform="translate(42.974457, 21.597633)"><g><path d="M 7.0625 0.1875 C 5.820312 0.1875 4.726562 -0.078125 3.78125 -0.609375 C 2.84375 -1.140625 2.113281 -1.878906 1.59375 -2.828125 C 1.070312 -3.785156 0.8125 -4.898438 0.8125 -6.171875 C 0.8125 -7.460938 1.066406 -8.582031 1.578125 -9.53125 C 2.097656 -10.476562 2.832031 -11.210938 3.78125 -11.734375 C 4.726562 -12.265625 5.820312 -12.53125 7.0625 -12.53125 C 8.3125 -12.53125 9.40625 -12.265625 10.34375 -11.734375 C 11.289062 -11.210938 12.023438 -10.476562 12.546875 -9.53125 C 13.066406 -8.582031 13.328125 -7.460938 13.328125 -6.171875 C 13.328125 -4.898438 13.066406 -3.785156 12.546875 -2.828125 C 12.023438 -1.878906 11.289062 -1.140625 10.34375 -0.609375 C 9.40625 -0.078125 8.3125 0.1875 7.0625 0.1875 Z M 7.0625 -2.5 C 7.976562 -2.5 8.695312 -2.820312 9.21875 -3.46875 C 9.738281 -4.113281 10 -5.015625 10 -6.171875 C 10 -7.328125 9.738281 -8.222656 9.21875 -8.859375 C 8.707031 -9.503906 7.988281 -9.828125 7.0625 -9.828125 C 6.144531 -9.828125 5.425781 -9.503906 4.90625 -8.859375 C 4.394531 -8.222656 4.140625 -7.328125 4.140625 -6.171875 C 4.140625 -5.015625 4.394531 -4.113281 4.90625 -3.46875 C 5.425781 -2.820312 6.144531 -2.5 7.0625 -2.5 Z M 7.0625 -2.5 "/></g></g></g><g fill="#000000" fill-opacity="1"><g transform="translate(57.094678, 21.597633)"><g><path d="M 4.125 0.1875 C 3.007812 0.1875 2.1875 -0.113281 1.65625 -0.71875 C 1.125 -1.332031 0.859375 -2.269531 0.859375 -3.53125 L 0.859375 -7.203125 C 0.859375 -8.242188 1.378906 -8.765625 2.421875 -8.765625 C 2.921875 -8.765625 3.300781 -8.628906 3.5625 -8.359375 C 3.832031 -8.097656 3.96875 -7.710938 3.96875 -7.203125 L 3.96875 -3.453125 C 3.96875 -2.609375 4.332031 -2.1875 5.0625 -2.1875 C 5.476562 -2.1875 5.820312 -2.335938 6.09375 -2.640625 C 6.363281 -2.941406 6.5 -3.34375 6.5 -3.84375 L 6.5 -7.203125 C 6.5 -8.242188 7.015625 -8.765625 8.046875 -8.765625 C 8.546875 -8.765625 8.929688 -8.628906 9.203125 -8.359375 C 9.472656 -8.097656 9.609375 -7.710938 9.609375 -7.203125 L 9.609375 -1.421875 C 9.609375 -0.367188 9.109375 0.15625 8.109375 0.15625 C 7.203125 0.15625 6.691406 -0.265625 6.578125 -1.109375 C 6.015625 -0.242188 5.195312 0.1875 4.125 0.1875 Z M 4.125 0.1875 "/></g></g></g><g fill="#000000" fill-opacity="1"><g transform="translate(67.610484, 21.597633)"><g><path d="M 2.5 0.15625 C 1.4375 0.15625 0.90625 -0.367188 0.90625 -1.421875 L 0.90625 -7.203125 C 0.90625 -8.242188 1.414062 -8.765625 2.4375 -8.765625 C 2.914062 -8.765625 3.285156 -8.628906 3.546875 -8.359375 C 3.804688 -8.097656 3.9375 -7.710938 3.9375 -7.203125 L 3.9375 -7.15625 C 4.132812 -7.65625 4.453125 -8.050781 4.890625 -8.34375 C 5.335938 -8.632812 5.863281 -8.785156 6.46875 -8.796875 C 6.8125 -8.804688 7.066406 -8.722656 7.234375 -8.546875 C 7.398438 -8.367188 7.488281 -8.035156 7.5 -7.546875 C 7.5 -7.117188 7.410156 -6.78125 7.234375 -6.53125 C 7.066406 -6.289062 6.738281 -6.148438 6.25 -6.109375 L 5.84375 -6.078125 C 5.226562 -6.015625 4.78125 -5.835938 4.5 -5.546875 C 4.21875 -5.265625 4.078125 -4.84375 4.078125 -4.28125 L 4.078125 -1.421875 C 4.078125 -0.367188 3.550781 0.15625 2.5 0.15625 Z M 2.5 0.15625 "/></g></g></g><g fill="#000000" fill-opacity="1"><g transform="translate(75.204264, 21.597633)"><g/></g></g><g fill="#000000" fill-opacity="1"><g transform="translate(80.208453, 21.597633)"><g><path d="M 5.640625 0.15625 C 5.117188 0.15625 4.71875 0.015625 4.4375 -0.265625 C 4.164062 -0.546875 4.03125 -0.945312 4.03125 -1.46875 L 4.03125 -9.71875 L 1.28125 -9.71875 C 0.394531 -9.71875 -0.046875 -10.15625 -0.046875 -11.03125 C -0.046875 -11.90625 0.394531 -12.34375 1.28125 -12.34375 L 10 -12.34375 C 10.882812 -12.34375 11.328125 -11.90625 11.328125 -11.03125 C 11.328125 -10.15625 10.882812 -9.71875 10 -9.71875 L 7.25 -9.71875 L 7.25 -1.46875 C 7.25 -0.945312 7.109375 -0.546875 6.828125 -0.265625 C 6.554688 0.015625 6.160156 0.15625 5.640625 0.15625 Z M 5.640625 0.15625 "/></g></g></g><g fill="#000000" fill-opacity="1"><g transform="translate(91.476632, 21.597633)"><g><path d="M 5.59375 0.1875 C 4.550781 0.1875 3.644531 0.00390625 2.875 -0.359375 C 2.113281 -0.722656 1.523438 -1.242188 1.109375 -1.921875 C 0.703125 -2.597656 0.5 -3.398438 0.5 -4.328125 C 0.5 -5.203125 0.695312 -5.976562 1.09375 -6.65625 C 1.488281 -7.332031 2.023438 -7.859375 2.703125 -8.234375 C 3.390625 -8.609375 4.171875 -8.796875 5.046875 -8.796875 C 5.898438 -8.796875 6.644531 -8.613281 7.28125 -8.25 C 7.925781 -7.894531 8.421875 -7.378906 8.765625 -6.703125 C 9.109375 -6.035156 9.28125 -5.253906 9.28125 -4.359375 C 9.28125 -3.898438 9.007812 -3.671875 8.46875 -3.671875 L 3.484375 -3.671875 C 3.585938 -3.109375 3.816406 -2.703125 4.171875 -2.453125 C 4.535156 -2.210938 5.039062 -2.09375 5.6875 -2.09375 C 5.9375 -2.09375 6.226562 -2.125 6.5625 -2.1875 C 6.894531 -2.25 7.21875 -2.34375 7.53125 -2.46875 C 7.894531 -2.601562 8.207031 -2.601562 8.46875 -2.46875 C 8.726562 -2.34375 8.898438 -2.140625 8.984375 -1.859375 C 9.078125 -1.585938 9.066406 -1.304688 8.953125 -1.015625 C 8.835938 -0.734375 8.617188 -0.519531 8.296875 -0.375 C 7.890625 -0.164062 7.453125 -0.0195312 6.984375 0.0625 C 6.523438 0.144531 6.0625 0.1875 5.59375 0.1875 Z M 5.1875 -6.796875 C 4.71875 -6.796875 4.332031 -6.65625 4.03125 -6.375 C 3.738281 -6.09375 3.550781 -5.679688 3.46875 -5.140625 L 6.71875 -5.140625 C 6.6875 -5.691406 6.535156 -6.101562 6.265625 -6.375 C 6.003906 -6.65625 5.644531 -6.796875 5.1875 -6.796875 Z M 5.1875 -6.796875 "/></g></g></g><g fill="#000000" fill-opacity="1"><g transform="translate(101.187561, 21.597633)"><g><path d="M 3.90625 0.1875 C 3.238281 0.1875 2.648438 0.0664062 2.140625 -0.171875 C 1.628906 -0.421875 1.234375 -0.753906 0.953125 -1.171875 C 0.671875 -1.597656 0.53125 -2.085938 0.53125 -2.640625 C 0.53125 -3.253906 0.691406 -3.742188 1.015625 -4.109375 C 1.335938 -4.484375 1.859375 -4.75 2.578125 -4.90625 C 3.304688 -5.0625 4.273438 -5.140625 5.484375 -5.140625 L 6.140625 -5.140625 L 6.140625 -5.390625 C 6.140625 -5.804688 6.03125 -6.101562 5.8125 -6.28125 C 5.601562 -6.457031 5.234375 -6.546875 4.703125 -6.546875 C 4.410156 -6.546875 4.09375 -6.515625 3.75 -6.453125 C 3.40625 -6.390625 3.019531 -6.273438 2.59375 -6.109375 C 2.207031 -5.960938 1.882812 -5.96875 1.625 -6.125 C 1.375 -6.28125 1.207031 -6.5 1.125 -6.78125 C 1.050781 -7.0625 1.082031 -7.34375 1.21875 -7.625 C 1.351562 -7.914062 1.613281 -8.132812 2 -8.28125 C 2.550781 -8.476562 3.0625 -8.613281 3.53125 -8.6875 C 4.007812 -8.757812 4.445312 -8.796875 4.84375 -8.796875 C 6.28125 -8.796875 7.34375 -8.488281 8.03125 -7.875 C 8.726562 -7.257812 9.078125 -6.285156 9.078125 -4.953125 L 9.078125 -1.421875 C 9.078125 -0.367188 8.597656 0.15625 7.640625 0.15625 C 6.734375 0.15625 6.25 -0.3125 6.1875 -1.25 C 6.03125 -0.800781 5.753906 -0.445312 5.359375 -0.1875 C 4.960938 0.0625 4.476562 0.1875 3.90625 0.1875 Z M 4.609375 -1.84375 C 5.035156 -1.84375 5.394531 -1.976562 5.6875 -2.25 C 5.988281 -2.53125 6.140625 -2.898438 6.140625 -3.359375 L 6.140625 -3.671875 L 5.484375 -3.671875 C 4.785156 -3.671875 4.273438 -3.597656 3.953125 -3.453125 C 3.640625 -3.304688 3.484375 -3.078125 3.484375 -2.765625 C 3.484375 -2.492188 3.578125 -2.269531 3.765625 -2.09375 C 3.960938 -1.925781 4.242188 -1.84375 4.609375 -1.84375 Z M 4.609375 -1.84375 "/></g></g></g><g fill="#000000" fill-opacity="1"><g transform="translate(111.125964, 21.597633)"><g><path d="M 5.296875 0.1875 C 4.328125 0.1875 3.484375 0.0078125 2.765625 -0.34375 C 2.054688 -0.707031 1.5 -1.226562 1.09375 -1.90625 C 0.695312 -2.582031 0.5 -3.390625 0.5 -4.328125 C 0.5 -5.253906 0.695312 -6.050781 1.09375 -6.71875 C 1.5 -7.394531 2.054688 -7.910156 2.765625 -8.265625 C 3.484375 -8.617188 4.328125 -8.796875 5.296875 -8.796875 C 5.640625 -8.796875 6 -8.765625 6.375 -8.703125 C 6.75 -8.640625 7.132812 -8.519531 7.53125 -8.34375 C 7.789062 -8.238281 7.976562 -8.078125 8.09375 -7.859375 C 8.21875 -7.648438 8.269531 -7.421875 8.25 -7.171875 C 8.226562 -6.929688 8.15625 -6.710938 8.03125 -6.515625 C 7.914062 -6.316406 7.75 -6.179688 7.53125 -6.109375 C 7.3125 -6.035156 7.070312 -6.0625 6.8125 -6.1875 C 6.425781 -6.363281 6.035156 -6.453125 5.640625 -6.453125 C 5.015625 -6.453125 4.53125 -6.265625 4.1875 -5.890625 C 3.851562 -5.523438 3.6875 -5.003906 3.6875 -4.328125 C 3.6875 -3.640625 3.851562 -3.101562 4.1875 -2.71875 C 4.53125 -2.34375 5.015625 -2.15625 5.640625 -2.15625 C 5.828125 -2.15625 6.019531 -2.175781 6.21875 -2.21875 C 6.414062 -2.257812 6.613281 -2.328125 6.8125 -2.421875 C 7.09375 -2.546875 7.332031 -2.566406 7.53125 -2.484375 C 7.738281 -2.410156 7.898438 -2.273438 8.015625 -2.078125 C 8.140625 -1.890625 8.210938 -1.671875 8.234375 -1.421875 C 8.253906 -1.179688 8.203125 -0.953125 8.078125 -0.734375 C 7.960938 -0.523438 7.765625 -0.367188 7.484375 -0.265625 C 7.085938 -0.0859375 6.707031 0.03125 6.34375 0.09375 C 5.988281 0.15625 5.640625 0.1875 5.296875 0.1875 Z M 5.296875 0.1875 "/></g></g></g><g fill="#000000" fill-opacity="1"><g transform="translate(119.594595, 21.597633)"><g><path d="M 2.453125 0.15625 C 1.953125 0.15625 1.566406 0.0234375 1.296875 -0.234375 C 1.035156 -0.503906 0.90625 -0.898438 0.90625 -1.421875 L 0.90625 -10.921875 C 0.90625 -11.972656 1.421875 -12.5 2.453125 -12.5 C 2.953125 -12.5 3.335938 -12.363281 3.609375 -12.09375 C 3.890625 -11.820312 4.03125 -11.429688 4.03125 -10.921875 L 4.03125 -7.546875 C 4.644531 -8.378906 5.539062 -8.796875 6.71875 -8.796875 C 7.75 -8.796875 8.507812 -8.492188 9 -7.890625 C 9.5 -7.285156 9.75 -6.351562 9.75 -5.09375 L 9.75 -1.421875 C 9.75 -0.898438 9.613281 -0.503906 9.34375 -0.234375 C 9.070312 0.0234375 8.6875 0.15625 8.1875 0.15625 C 7.6875 0.15625 7.300781 0.0234375 7.03125 -0.234375 C 6.757812 -0.503906 6.625 -0.898438 6.625 -1.421875 L 6.625 -4.96875 C 6.625 -5.488281 6.535156 -5.859375 6.359375 -6.078125 C 6.179688 -6.304688 5.914062 -6.421875 5.5625 -6.421875 C 5.09375 -6.421875 4.71875 -6.269531 4.4375 -5.96875 C 4.164062 -5.675781 4.03125 -5.28125 4.03125 -4.78125 L 4.03125 -1.421875 C 4.03125 -0.367188 3.503906 0.15625 2.453125 0.15625 Z M 2.453125 0.15625 "/></g></g></g><g fill="#000000" fill-opacity="1"><g transform="translate(130.197881, 21.597633)"><g><path d="M 5.59375 0.1875 C 4.550781 0.1875 3.644531 0.00390625 2.875 -0.359375 C 2.113281 -0.722656 1.523438 -1.242188 1.109375 -1.921875 C 0.703125 -2.597656 0.5 -3.398438 0.5 -4.328125 C 0.5 -5.203125 0.695312 -5.976562 1.09375 -6.65625 C 1.488281 -7.332031 2.023438 -7.859375 2.703125 -8.234375 C 3.390625 -8.609375 4.171875 -8.796875 5.046875 -8.796875 C 5.898438 -8.796875 6.644531 -8.613281 7.28125 -8.25 C 7.925781 -7.894531 8.421875 -7.378906 8.765625 -6.703125 C 9.109375 -6.035156 9.28125 -5.253906 9.28125 -4.359375 C 9.28125 -3.898438 9.007812 -3.671875 8.46875 -3.671875 L 3.484375 -3.671875 C 3.585938 -3.109375 3.816406 -2.703125 4.171875 -2.453125 C 4.535156 -2.210938 5.039062 -2.09375 5.6875 -2.09375 C 5.9375 -2.09375 6.226562 -2.125 6.5625 -2.1875 C 6.894531 -2.25 7.21875 -2.34375 7.53125 -2.46875 C 7.894531 -2.601562 8.207031 -2.601562 8.46875 -2.46875 C 8.726562 -2.34375 8.898438 -2.140625 8.984375 -1.859375 C 9.078125 -1.585938 9.066406 -1.304688 8.953125 -1.015625 C 8.835938 -0.734375 8.617188 -0.519531 8.296875 -0.375 C 7.890625 -0.164062 7.453125 -0.0195312 6.984375 0.0625 C 6.523438 0.144531 6.0625 0.1875 5.59375 0.1875 Z M 5.1875 -6.796875 C 4.71875 -6.796875 4.332031 -6.65625 4.03125 -6.375 C 3.738281 -6.09375 3.550781 -5.679688 3.46875 -5.140625 L 6.71875 -5.140625 C 6.6875 -5.691406 6.535156 -6.101562 6.265625 -6.375 C 6.003906 -6.65625 5.644531 -6.796875 5.1875 -6.796875 Z M 5.1875 -6.796875 "/></g></g></g><g fill="#000000" fill-opacity="1"><g transform="translate(139.90881, 21.597633)"><g><path d="M 2.5 0.15625 C 1.4375 0.15625 0.90625 -0.367188 0.90625 -1.421875 L 0.90625 -7.203125 C 0.90625 -8.242188 1.414062 -8.765625 2.4375 -8.765625 C 2.914062 -8.765625 3.285156 -8.628906 3.546875 -8.359375 C 3.804688 -8.097656 3.9375 -7.710938 3.9375 -7.203125 L 3.9375 -7.15625 C 4.132812 -7.65625 4.453125 -8.050781 4.890625 -8.34375 C 5.335938 -8.632812 5.863281 -8.785156 6.46875 -8.796875 C 6.8125 -8.804688 7.066406 -8.722656 7.234375 -8.546875 C 7.398438 -8.367188 7.488281 -8.035156 7.5 -7.546875 C 7.5 -7.117188 7.410156 -6.78125 7.234375 -6.53125 C 7.066406 -6.289062 6.738281 -6.148438 6.25 -6.109375 L 5.84375 -6.078125 C 5.226562 -6.015625 4.78125 -5.835938 4.5 -5.546875 C 4.21875 -5.265625 4.078125 -4.84375 4.078125 -4.28125 L 4.078125 -1.421875 C 4.078125 -0.367188 3.550781 0.15625 2.5 0.15625 Z M 2.5 0.15625 "/></g></g></g></svg>